<svg width="18" height="18" viewBox="0 0 18 18" fill="none" xmlns="http://www.w3.org/2000/svg">
<path d="M15.0297 5.11526L10.7097 2.09276C9.53219 1.26776 7.72469 1.31276 6.59219 2.19026L2.83469 5.12276C2.08469 5.70776 1.49219 6.90776 1.49219 7.85276V13.0278C1.49219 14.9403 3.04469 16.5003 4.95719 16.5003H13.0422C14.9547 16.5003 16.5072 14.9478 16.5072 13.0353V7.95026C16.5072 6.93776 15.8547 5.69276 15.0297 5.11526ZM9.56219 13.5003C9.56219 13.8078 9.30719 14.0628 8.99969 14.0628C8.69219 14.0628 8.43719 13.8078 8.43719 13.5003V11.2503C8.43719 10.9428 8.69219 10.6878 8.99969 10.6878C9.30719 10.6878 9.56219 10.9428 9.56219 11.2503V13.5003Z" fill="white"/>
</svg>
