<svg xmlns="http://www.w3.org/2000/svg" width="18" height="18" viewBox="0 0 18 18" fill="none">
  <path d="M8.4375 13.6872H6.75C5.925 13.6872 5.25 14.3622 5.25 15.1872V15.3747H4.5C4.1925 15.3747 3.9375 15.6297 3.9375 15.9372C3.9375 16.2447 4.1925 16.4997 4.5 16.4997H13.5C13.8075 16.4997 14.0625 16.2447 14.0625 15.9372C14.0625 15.6297 13.8075 15.3747 13.5 15.3747H12.75V15.1872C12.75 14.3622 12.075 13.6872 11.25 13.6872H9.5625V11.9697C9.375 11.9922 9.1875 11.9997 9 11.9997C8.8125 11.9997 8.625 11.9922 8.4375 11.9697V13.6872Z" fill="#6C708A"/>
  <path d="M13.8609 8.73C14.3559 8.5425 14.7909 8.235 15.1359 7.89C15.8334 7.1175 16.2909 6.195 16.2909 5.115C16.2909 4.035 15.4434 3.1875 14.3634 3.1875H13.9434C13.4559 2.19 12.4359 1.5 11.2509 1.5H6.75094C5.56594 1.5 4.54594 2.19 4.05844 3.1875H3.63844C2.55844 3.1875 1.71094 4.035 1.71094 5.115C1.71094 6.195 2.16844 7.1175 2.86594 7.89C3.21094 8.235 3.64594 8.5425 4.14094 8.73C4.92094 10.65 6.79594 12 9.00094 12C11.2059 12 13.0809 10.65 13.8609 8.73ZM11.1309 6.3375L10.6659 6.9075C10.5909 6.99 10.5384 7.155 10.5459 7.2675L10.5909 8.0025C10.6209 8.4525 10.2984 8.685 9.87844 8.52L9.19594 8.25C9.09094 8.2125 8.91094 8.2125 8.80594 8.25L8.12344 8.52C7.70344 8.685 7.38094 8.4525 7.41094 8.0025L7.45594 7.2675C7.46344 7.155 7.41094 6.99 7.33594 6.9075L6.87094 6.3375C6.57844 5.9925 6.70594 5.61 7.14094 5.4975L7.85344 5.3175C7.96594 5.2875 8.10094 5.1825 8.16094 5.085L8.55844 4.47C8.80594 4.0875 9.19594 4.0875 9.44344 4.47L9.84094 5.085C9.90094 5.1825 10.0359 5.2875 10.1484 5.3175L10.8609 5.4975C11.2959 5.61 11.4234 5.9925 11.1309 6.3375Z" fill="#6C708A"/>
</svg>