<svg xmlns="http://www.w3.org/2000/svg" width="18" height="18" viewBox="0 0 18 18" fill="none">
  <path d="M12.1425 1.5H5.8575C3.1275 1.5 1.5 3.1275 1.5 5.8575V12.135C1.5 14.8725 3.1275 16.5 5.8575 16.5H12.135C14.865 16.5 16.4925 14.8725 16.4925 12.1425V5.8575C16.5 3.1275 14.8725 1.5 12.1425 1.5ZM6.8325 12.675C6.8325 12.885 6.6675 13.05 6.4575 13.05H4.365C4.155 13.05 3.99 12.885 3.99 12.675V9.21C3.99 8.7375 4.3725 8.355 4.845 8.355H6.4575C6.6675 8.355 6.8325 8.52 6.8325 8.73V12.675ZM10.4175 12.675C10.4175 12.885 10.2525 13.05 10.0425 13.05H7.95C7.74 13.05 7.575 12.885 7.575 12.675V5.805C7.575 5.3325 7.9575 4.95 8.43 4.95H9.57C10.0425 4.95 10.425 5.3325 10.425 5.805V12.675H10.4175ZM14.01 12.675C14.01 12.885 13.845 13.05 13.635 13.05H11.5425C11.3325 13.05 11.1675 12.885 11.1675 12.675V10.0125C11.1675 9.8025 11.3325 9.6375 11.5425 9.6375H13.155C13.6275 9.6375 14.01 10.02 14.01 10.4925V12.675Z" fill="white"/>
</svg>