<svg width="18" height="18" viewBox="0 0 18 18" fill="none" xmlns="http://www.w3.org/2000/svg">
<g id="vuesax/bold/hashtag">
<g id="hashtag">
<path id="Vector" d="M6.03906 7.60461V8.47461H8.48406V6.03711H7.61406C6.74406 6.03711 6.03906 6.74211 6.03906 7.60461Z" fill="white"/>
<path id="Vector_2" d="M7.60656 11.2129C7.15828 11.2129 6.78906 10.8437 6.78906 10.3954V10.2754H7.72656V11.2129H7.60656Z" stroke="white" stroke-width="1.5"/>
<path id="Vector_3" d="M10.3934 11.2129H10.2734V10.2754H11.2109V10.3954C11.2109 10.8437 10.8417 11.2129 10.3934 11.2129Z" stroke="white" stroke-width="1.5"/>
<path id="Vector_4" d="M12.1425 1.5H5.8575C3.1275 1.5 1.5 3.1275 1.5 5.8575V12.135C1.5 14.8725 3.1275 16.5 5.8575 16.5H12.135C14.865 16.5 16.4925 14.8725 16.4925 12.1425V5.8575C16.5 3.1275 14.8725 1.5 12.1425 1.5ZM13.0125 10.395C13.0125 11.835 11.835 13.0125 10.395 13.0125H7.605C6.165 13.0125 4.9875 11.8425 4.9875 10.395V7.605C4.9875 6.165 6.165 4.9875 7.605 4.9875H10.395C11.835 4.9875 13.0125 6.1575 13.0125 7.605V10.395Z" fill="white"/>
<path id="Vector_5" d="M10.3934 6.03711H9.52344V8.48211H11.9684V7.61211C11.9609 6.74211 11.2559 6.03711 10.3934 6.03711Z" fill="white"/>
</g>
</g>
</svg>
