<svg width="25" height="24" viewBox="0 0 25 24" fill="none" xmlns="http://www.w3.org/2000/svg">
<g id="vuesax/linear/cup">
<g id="cup">
<path id="Vector" d="M12.65 16.5V18.6" stroke="white" stroke-width="1.5" stroke-linecap="round" stroke-linejoin="round"/>
<path id="Vector_2" d="M7.65002 22H17.65V21C17.65 19.9 16.75 19 15.65 19H9.65002C8.55002 19 7.65002 19.9 7.65002 21V22V22Z" stroke="white" stroke-width="1.5" stroke-miterlimit="10"/>
<path id="Vector_3" d="M6.65002 22H18.65" stroke="white" stroke-width="1.5" stroke-linecap="round" stroke-linejoin="round"/>
<path id="Vector_4" d="M12.5 16C8.63 16 5.5 12.87 5.5 9V6C5.5 3.79 7.29 2 9.5 2H15.5C17.71 2 19.5 3.79 19.5 6V9C19.5 12.87 16.37 16 12.5 16Z" stroke="white" stroke-width="1.5" stroke-linecap="round" stroke-linejoin="round"/>
<path id="Vector_5" d="M5.96998 11.65C5.21998 11.41 4.55998 10.97 4.03998 10.45C3.13998 9.45 2.53998 8.25 2.53998 6.85C2.53998 5.45 3.63998 4.35 5.03998 4.35H5.68998C5.48998 4.81 5.38998 5.32 5.38998 5.85V8.85C5.38998 9.85 5.59998 10.79 5.96998 11.65Z" stroke="white" stroke-width="1.5" stroke-linecap="round" stroke-linejoin="round"/>
<path id="Vector_6" d="M19.03 11.65C19.78 11.41 20.44 10.97 20.96 10.45C21.86 9.45 22.46 8.25 22.46 6.85C22.46 5.45 21.36 4.35 19.96 4.35H19.31C19.51 4.81 19.61 5.32 19.61 5.85V8.85C19.61 9.85 19.4 10.79 19.03 11.65Z" stroke="white" stroke-width="1.5" stroke-linecap="round" stroke-linejoin="round"/>
</g>
</g>
</svg>
