<svg width="64" height="64" viewBox="0 0 64 64" fill="none" xmlns="http://www.w3.org/2000/svg">
<path d="M48.107 36.1333C46.987 37.2266 46.347 38.7999 46.507 40.4799C46.747 43.3599 49.387 45.4666 52.267 45.4666H57.3337V48.6399C57.3337 54.1599 52.827 58.6666 47.307 58.6666H16.6937C11.1737 58.6666 6.66699 54.1599 6.66699 48.6399V30.6933C6.66699 25.1733 11.1737 20.6666 16.6937 20.6666H47.307C52.827 20.6666 57.3337 25.1733 57.3337 30.6933V34.5333H51.947C50.4537 34.5333 49.0937 35.1199 48.107 36.1333Z" stroke="currentColor" stroke-width="2.6" stroke-linecap="round" stroke-linejoin="round"/>
<path d="M6.66699 33.0933V20.9068C6.66699 17.7334 8.61366 14.9066 11.5737 13.7866L32.747 5.78664C36.0537 4.53331 39.6003 6.98672 39.6003 10.5334V20.6667" stroke="currentColor" stroke-width="2.6" stroke-linecap="round" stroke-linejoin="round"/>
<path d="M60.1572 37.2538V42.7473C60.1572 44.2139 58.9838 45.4138 57.4905 45.4671H52.2638C49.3838 45.4671 46.7438 43.3605 46.5038 40.4805C46.3438 38.8005 46.9838 37.2271 48.1038 36.1338C49.0905 35.1205 50.4505 34.5339 51.9438 34.5339H57.4905C58.9838 34.5872 60.1572 35.7871 60.1572 37.2538Z" stroke="currentColor" stroke-width="2.6" stroke-linecap="round" stroke-linejoin="round"/>
<path d="M18.667 32H37.3337" stroke="currentColor" stroke-width="2.6" stroke-linecap="round" stroke-linejoin="round"/>
</svg>
