<svg width="180" height="161" viewBox="0 0 180 161" fill="none" xmlns="http://www.w3.org/2000/svg">
<path d="M95.95 0L101.241 1.57608L98.6518 24.0915L95.8374 23.0783L95.95 0Z" fill="#B8BFCD"/>
<path d="M95.6124 25.6677L98.2017 26.6809L97.8639 28.8199L95.2747 27.9192L95.6124 25.6677Z" fill="#B8BFCD"/>
<path d="M105.406 12.0457L110.697 13.5092L108.22 27.9191L105.293 26.9059L105.406 12.0457Z" fill="#B8BFCD"/>
<path d="M105.069 29.3828L107.658 30.396L107.32 32.4224L104.731 31.5218L105.069 29.3828Z" fill="#B8BFCD"/>
<path d="M132.65 111.676H63.4152C63.4152 111.676 67.2428 110.438 60.6007 111.676C53.8461 112.915 53.8461 112.689 54.409 108.412C54.9719 104.134 59.0247 99.7431 62.1768 95.0148C61.8391 90.5118 63.3026 85.7835 68.5937 81.393C68.5937 81.2804 68.5937 81.1679 68.5937 81.0553C66.0044 55.2751 79.6263 63.7184 90.9965 59.4405L89.533 58.4273L106.194 51.2224C106.194 51.2224 110.923 52.4607 115.313 54.9374C118.578 56.8512 121.618 59.3279 122.068 62.4801C122.631 66.0825 122.068 70.8108 121.28 75.2013C120.604 79.1415 119.816 82.7439 119.591 85.1081C119.591 85.5584 119.479 85.8961 119.479 86.2338C120.267 89.9489 125.445 95.4651 124.77 99.0676C126.571 100.981 128.822 106.723 129.16 109.2C129.61 111.676 132.65 111.676 132.65 111.676Z" fill="#DDE3EE"/>
<path opacity="0.1" d="M121.28 75.2015C120.604 79.1417 119.816 82.7442 119.591 85.2209C117.902 88.2604 114.863 90.1743 110.698 92.5384C109.797 93.1013 108.671 93.5516 107.658 93.8893C106.194 94.3396 104.731 94.7899 103.267 95.0151C98.7644 95.9157 94.1487 96.1409 89.5331 95.2402C85.7055 94.4522 81.8778 93.2138 78.3879 91.1875C77.2622 90.512 76.0238 89.724 75.0106 88.8233C71.971 86.2341 69.6069 83.9825 68.3686 81.2807C67.2428 79.0291 67.0177 76.4399 67.5805 72.95C68.9315 65.5199 70.7327 59.891 70.7327 59.891C70.8453 59.3281 71.7459 58.5401 72.0836 58.0898C72.6465 57.5269 72.9842 56.8514 73.5471 56.2886C74.4477 55.1628 75.5735 53.9244 76.4741 52.7987C78.7257 50.5471 81.2024 48.7459 84.1294 47.6201C88.8576 45.9315 93.9236 46.1566 98.7644 46.8321C102.254 47.2824 105.969 48.0704 109.121 49.8717C111.486 51.2226 113.399 52.9112 115.088 55.0502C115.426 55.3879 115.651 55.8382 115.989 56.176C117.902 58.9904 119.253 62.1426 120.829 65.1821C120.942 65.1821 121.28 69.3475 121.28 75.2015Z" fill="#AAB2C5"/>
<path d="M26.7148 111.789H173.178" stroke="#D6DCE8" stroke-width="1.5905" stroke-miterlimit="10" stroke-linecap="round" stroke-linejoin="round"/>
<path d="M9.49072 111.789H18.8346" stroke="#D6DCE8" stroke-width="1.5905" stroke-miterlimit="10" stroke-linecap="round" stroke-linejoin="round"/>
<path d="M111.26 83.6448C110.36 84.2076 109.234 84.6579 108.221 84.9957C106.87 85.446 105.294 85.8963 103.83 86.1214C99.3272 87.0221 94.7116 87.2472 90.0959 86.234C86.2683 85.446 82.4407 84.2076 78.9508 82.1812C77.7124 81.5058 76.5867 80.7177 75.5735 79.8171C69.832 74.9763 66.7925 71.3738 68.1434 63.9438C69.4943 56.5137 71.183 50.9974 71.183 50.9974C71.2955 50.4345 72.1962 49.6465 72.5339 49.1962C73.0968 48.6333 73.4345 47.9578 73.9974 47.3949C74.898 46.2692 75.9112 45.0308 76.9244 43.905C79.1759 41.6535 81.6526 39.8523 84.5796 38.7265C89.3079 37.0378 94.3738 37.263 99.2147 37.9385C102.817 38.3888 106.42 39.1768 109.572 40.978C112.386 42.5541 114.525 44.6931 116.326 47.2824C118.24 50.0968 119.591 53.2489 121.167 56.4011C121.167 56.4011 121.73 62.2551 121.505 69.7978C121.505 77.3404 117.79 80.0423 111.26 83.6448Z" fill="#EAEEF9"/>
<path d="M86.9437 64.5067C85.8179 65.2947 84.1293 68.3343 79.401 65.8576C72.759 62.2551 74.4477 53.249 78.613 50.7723C86.0431 46.3818 92.7977 49.5339 93.1354 56.4011C93.4732 63.7186 89.3078 63.0432 86.9437 64.5067Z" fill="#BFC8D6"/>
<path d="M124.432 107.511C123.531 108.637 123.757 110.326 124.995 111.226C125.67 111.677 126.346 112.127 126.684 113.253C127.472 115.504 134.677 120.795 138.392 119.67C142.219 118.544 146.385 115.729 145.371 111.114C144.471 106.498 140.418 104.247 138.392 104.134C136.365 103.909 129.273 103.121 126.909 104.922C126.008 105.71 125.108 106.723 124.432 107.511Z" fill="#EAEEF9"/>
<path d="M65.2164 107.511C66.117 108.637 65.8919 110.325 64.6535 111.226C63.9781 111.676 63.3026 112.127 62.9649 113.252C62.1768 115.504 54.9719 120.795 51.2569 119.669C47.5418 118.544 43.2639 115.729 44.2771 111.113C45.1777 106.498 49.2305 104.246 51.2569 104.134C53.2833 104.021 60.3756 103.121 62.7397 104.922C63.7529 105.71 64.6535 106.723 65.2164 107.511Z" fill="#EAEEF9"/>
<path d="M83.1161 63.0435C86.0431 63.3812 88.6324 61.2423 88.9701 58.3153C89.3079 55.3882 87.1689 52.799 84.2419 52.4612C81.3149 52.1235 78.7256 54.2625 78.3879 57.1895C78.0501 60.1165 80.1891 62.7058 83.1161 63.0435Z" fill="white"/>
<path d="M88.2947 58.8778C88.0695 61.1293 86.0431 62.818 83.7916 62.5928C81.5401 62.3676 79.8514 60.3413 80.0765 58.0897C80.4143 58.4274 80.8646 58.7652 81.3149 58.8778C82.3281 58.9903 83.2287 58.3149 83.3413 57.1891C83.4539 56.1759 82.7784 55.2753 81.7652 55.1627C82.5532 54.5998 83.5664 54.3747 84.5796 54.4873C86.9437 54.5998 88.5198 56.5136 88.2947 58.8778Z" fill="#989FB0"/>
<path d="M108.783 65.7452C111.71 66.0829 114.3 63.944 114.637 61.017C114.975 58.09 112.836 55.5007 109.909 55.163C106.982 54.8252 104.393 56.9642 104.055 59.8912C103.717 62.9308 105.856 65.5201 108.783 65.7452Z" fill="white"/>
<path d="M104.506 60.5664C104.281 62.8179 105.969 64.8443 108.221 65.0694C110.472 65.2946 112.499 63.6059 112.724 61.3544C112.386 61.6921 111.823 61.9173 111.373 61.8047C110.36 61.6921 109.572 60.7915 109.684 59.7783C109.797 58.7651 110.697 58.0897 111.711 58.0897C111.035 57.4142 110.135 56.9639 109.121 56.8513C106.87 56.6262 104.843 58.2022 104.506 60.5664Z" fill="#989FB0"/>
<path d="M86.3811 45.1435C84.4673 45.4812 82.7786 45.819 81.4277 46.7196C80.0768 47.6202 78.7258 49.0837 78.0504 50.7723C78.0504 50.8849 77.9378 50.8849 77.8252 50.8849C77.7126 50.8849 77.7126 50.7723 77.7126 50.7723C77.8252 49.8717 78.2755 48.8585 78.8384 48.0705C79.2887 47.1699 80.0768 46.4944 80.9774 45.9315C81.878 45.3687 82.666 44.9183 83.6792 44.5806C84.6924 44.468 85.7056 44.3555 86.6062 44.8058C86.4937 44.8058 86.7188 45.0309 86.3811 45.1435C86.4937 45.1435 86.4937 45.1435 86.3811 45.1435Z" fill="#989FB0"/>
<path d="M109.459 49.1961C111.148 49.8716 112.611 50.5471 113.85 51.6728C114.975 52.7986 115.876 54.4873 116.214 56.1759C116.214 56.2885 116.326 56.2885 116.439 56.2885C116.552 56.2885 116.552 56.1759 116.552 56.1759C116.664 55.2753 116.326 54.2621 116.101 53.4741C115.764 52.5735 115.313 51.6728 114.525 50.9974C113.85 50.3219 113.174 49.6465 112.274 49.1961C111.373 48.8584 110.36 48.6333 109.459 48.7458C109.347 48.8584 109.347 48.971 109.459 49.1961C109.459 49.1961 109.234 49.1961 109.459 49.1961Z" fill="#989FB0"/>
<path d="M119.478 44.2427C117.452 41.5408 114.525 42.3289 115.651 45.481C117.452 50.4344 120.829 52.7985 121.73 71.2612C121.955 74.5259 132.875 67.5461 132.875 55.9507C132.875 53.8117 130.286 53.0237 130.286 53.0237C128.71 52.5734 122.743 48.408 119.478 44.2427Z" fill="#989FB0"/>
<path d="M26.7147 53.0237C26.7147 53.0237 14.7816 49.5338 16.6954 53.474C18.6092 57.4142 23.9003 65.2946 32.3436 67.2084C40.7869 69.0097 35.7209 61.5796 35.8335 61.6922L26.7147 53.0237Z" fill="#EEEEEE"/>
<g filter="url(#filter0_d_454_4694)">
<path d="M14.1064 45.3685C17.146 48.7458 29.8672 53.6992 40.2243 53.2489C41.6878 64.0563 42.8135 67.321 44.7274 68.6719C39.5488 70.0229 25.5893 68.8971 23.6754 58.4274C13.8812 58.8777 14.1064 45.3685 14.1064 45.3685Z" fill="url(#paint0_linear_454_4694)"/>
</g>
<g filter="url(#filter1_d_454_4694)">
<path d="M148.636 85.3334C152.013 83.0819 158.092 72.6122 158.993 63.606C168.562 63.606 171.489 63.1557 173.065 61.5797C173.515 66.3079 172.615 77.9033 164.509 84.7705C155.503 85.6711 148.636 85.3334 148.636 85.3334Z" fill="url(#paint1_linear_454_4694)"/>
</g>
<g filter="url(#filter2_d_454_4694)">
<path d="M123.306 122.146C107.658 124.735 104.844 125.185 98.8769 124.397C92.9103 123.609 84.5796 122.596 81.7652 128C80.5269 120.908 77.7124 114.378 72.5339 109.425C72.8716 108.974 73.0968 108.299 73.0968 107.623C73.0968 106.273 72.3087 105.147 71.0704 104.696C71.2956 104.246 71.4081 103.796 71.4081 103.346C71.4081 101.657 70.0572 100.193 68.256 100.193C67.2428 100.193 66.3422 100.644 65.7793 101.432C65.8919 100.869 66.0044 100.419 66.0044 100.193C66.0044 98.5047 64.6535 97.0412 62.8523 97.0412C61.9517 97.0412 61.051 97.4915 60.4882 98.167C60.0378 97.4915 59.3624 97.0412 58.4618 97.0412C57.1108 97.0412 56.0976 98.0544 56.0976 99.4054C56.0976 99.6305 56.0976 100.193 56.0976 100.869C48.1047 98.2796 46.416 98.167 46.416 98.167C51.2568 88.5979 74.2226 74.6384 90.7714 77.2277C101.354 78.8037 113.287 81.7307 119.366 93.3262C119.028 93.2136 118.691 93.101 118.353 93.101C118.24 93.101 118.015 93.101 117.79 93.2136C117.227 92.4256 116.326 91.9753 115.313 91.9753C113.737 91.9753 112.499 93.101 112.274 94.5645C112.161 94.5645 111.711 94.5645 111.373 94.5645C109.684 94.5645 108.333 95.9155 108.333 97.6041C108.333 98.8425 109.121 99.9682 110.247 100.419C109.684 100.981 109.347 101.657 109.347 102.558C109.347 104.246 110.698 105.597 112.386 105.597C113.512 105.597 114.413 105.034 114.975 104.246C115.538 105.034 116.439 105.597 117.565 105.597C119.253 105.597 120.604 104.246 120.604 102.558C120.604 102.445 120.604 102.445 120.604 102.332C121.392 101.995 122.068 101.319 122.293 100.531C123.756 106.16 124.319 113.252 123.306 122.146Z" fill="url(#paint2_linear_454_4694)"/>
</g>
<path d="M84.0168 113.928C88.4074 112.577 107.095 108.412 117.79 109.65L84.0168 113.928Z" fill="white"/>
<path fill-rule="evenodd" clip-rule="evenodd" d="M98.6553 111.541C92.1193 112.593 86.3849 113.965 84.2318 114.628L83.8013 113.228C86.0387 112.54 91.8434 111.154 98.4227 110.095C104.99 109.038 112.42 108.291 117.874 108.923L117.705 110.377C112.464 109.77 105.203 110.487 98.6553 111.541Z" fill="#D6DCE8"/>
<path d="M79.6262 107.961C83.2287 106.385 100.566 102.783 109.347 102.445L79.6262 107.961Z" fill="white"/>
<path fill-rule="evenodd" clip-rule="evenodd" d="M84.7315 107.193C82.4586 107.758 80.7561 108.266 79.9193 108.632L79.3325 107.291C80.297 106.869 82.1125 106.336 84.3779 105.772C86.6619 105.203 89.4539 104.592 92.4049 104.02C98.2962 102.879 104.87 101.885 109.318 101.714L109.374 103.177C105.041 103.343 98.5564 104.32 92.6834 105.458C89.7523 106.026 86.9858 106.632 84.7315 107.193Z" fill="#D6DCE8"/>
<path d="M75.4612 101.319C89.7585 93.3264 101.016 96.7037 110.248 89.6113L75.4612 101.319Z" fill="white"/>
<path fill-rule="evenodd" clip-rule="evenodd" d="M94.8842 95.848C89.1317 96.8888 82.8506 98.0269 75.8182 101.958L75.1038 100.68C82.3538 96.6273 88.8387 95.454 94.5884 94.4137L94.6235 94.4074C100.403 93.3617 105.348 92.4528 109.801 89.0309L110.693 90.1919C105.933 93.849 100.654 94.8041 94.9471 95.8367L94.8842 95.848Z" fill="#D6DCE8"/>
<path d="M70.8452 96.2534C76.9244 92.088 82.1029 90.1742 89.0827 89.6113L70.8452 96.2534Z" fill="white"/>
<path fill-rule="evenodd" clip-rule="evenodd" d="M89.1415 90.3408C82.2986 90.8926 77.241 92.7582 71.2589 96.857L70.4314 95.6493C76.6076 91.4174 81.9072 89.4554 89.0238 88.8815L89.1415 90.3408Z" fill="#D6DCE8"/>
<path d="M108.559 79.8171C108.559 79.9296 108.559 80.1548 108.559 80.2674V80.38C108.559 80.4925 108.559 80.6051 108.446 80.7177C107.771 82.5189 104.844 84.6579 101.804 84.9956C98.7644 85.3333 95.6122 84.095 94.2613 79.029C90.9965 82.1812 87.8444 82.6315 85.2551 81.956C81.8778 81.0554 79.6262 78.3536 79.5137 77.5655C79.5137 77.2278 79.5137 76.8901 79.6262 76.5523C80.4143 69.2348 87.5066 64.0563 95.4996 64.9569C103.493 65.9701 109.347 72.6121 108.559 79.8171Z" fill="#BFC8D6"/>
<path d="M95.4997 66.0828C94.8242 65.9703 94.0362 65.9703 93.3607 66.0828C92.4601 66.308 91.1092 66.5332 90.884 67.6589C90.7715 69.1224 93.9236 70.8111 94.8242 70.9237C95.7249 71.0362 99.2147 70.1356 99.4399 68.6721C99.5525 67.2086 98.3141 66.6457 97.1884 66.308C96.6255 66.1954 95.95 65.9703 95.4997 66.0828Z" fill="#989FB0"/>
<path fill-rule="evenodd" clip-rule="evenodd" d="M94.568 73.6217C94.5151 72.1209 94.3332 70.5514 94.1819 69.5677L95.0917 69.4277C95.2472 70.4384 95.4335 72.0447 95.488 73.5892C95.5152 74.3613 95.5098 75.1271 95.449 75.8C95.3892 76.4606 95.2724 77.08 95.0484 77.5278L94.2251 77.1161C94.3694 76.8276 94.475 76.35 94.5322 75.7171C94.5883 75.0965 94.5945 74.3723 94.568 73.6217Z" fill="#989FB0"/>
<path d="M76.6989 43.6799L76.5863 44.9183C76.0234 45.4812 75.5731 46.1566 75.0102 46.8321C72.0832 50.7723 69.3814 55.9508 68.5933 62.4803C68.3682 61.6923 66.0041 53.249 65.5538 51.6729C65.4412 51.3352 65.3286 51.11 65.3286 51.11V48.7459L67.4676 44.0177L72.9839 41.2032L76.6989 43.6799Z" fill="#6F788D"/>
<path d="M81.6527 40.1901C80.0766 41.3159 78.2753 42.892 76.5867 44.9184C76.0238 45.4813 75.5735 46.1567 75.0106 46.8322C74.7855 43.68 71.0704 43.2297 71.0704 43.2297C70.6201 46.0441 68.1434 49.1963 65.4416 51.673C63.19 53.6994 60.7133 55.1629 59.1372 55.2755C58.6869 55.2755 58.3492 54.9377 58.5744 54.4874C59.7001 51.5604 59.3624 47.2825 59.7001 45.1435C60.1504 42.7794 66.9051 39.1769 70.3949 37.826C73.0968 36.8128 80.1892 38.2763 81.6527 40.1901Z" fill="#989FB0"/>
<defs>
<filter id="filter0_d_454_4694" x="0.105957" y="35.3685" width="50.6213" height="43.7633" filterUnits="userSpaceOnUse" color-interpolation-filters="sRGB">
<feFlood flood-opacity="0" result="BackgroundImageFix"/>
<feColorMatrix in="SourceAlpha" type="matrix" values="0 0 0 0 0 0 0 0 0 0 0 0 0 0 0 0 0 0 127 0" result="hardAlpha"/>
<feOffset dx="-4"/>
<feGaussianBlur stdDeviation="5"/>
<feColorMatrix type="matrix" values="0 0 0 0 0.397708 0 0 0 0 0.47749 0 0 0 0 0.575 0 0 0 0.15 0"/>
<feBlend mode="normal" in2="BackgroundImageFix" result="effect1_dropShadow_454_4694"/>
<feBlend mode="normal" in="SourceGraphic" in2="effect1_dropShadow_454_4694" result="shape"/>
</filter>
<filter id="filter1_d_454_4694" x="134.636" y="51.5797" width="44.5234" height="43.8158" filterUnits="userSpaceOnUse" color-interpolation-filters="sRGB">
<feFlood flood-opacity="0" result="BackgroundImageFix"/>
<feColorMatrix in="SourceAlpha" type="matrix" values="0 0 0 0 0 0 0 0 0 0 0 0 0 0 0 0 0 0 127 0" result="hardAlpha"/>
<feOffset dx="-4"/>
<feGaussianBlur stdDeviation="5"/>
<feColorMatrix type="matrix" values="0 0 0 0 0.397708 0 0 0 0 0.47749 0 0 0 0 0.575 0 0 0 0.15 0"/>
<feBlend mode="normal" in2="BackgroundImageFix" result="effect1_dropShadow_454_4694"/>
<feBlend mode="normal" in="SourceGraphic" in2="effect1_dropShadow_454_4694" result="shape"/>
</filter>
<filter id="filter2_d_454_4694" x="24.416" y="65.913" width="121.404" height="95.087" filterUnits="userSpaceOnUse" color-interpolation-filters="sRGB">
<feFlood flood-opacity="0" result="BackgroundImageFix"/>
<feColorMatrix in="SourceAlpha" type="matrix" values="0 0 0 0 0 0 0 0 0 0 0 0 0 0 0 0 0 0 127 0" result="hardAlpha"/>
<feOffset dy="11"/>
<feGaussianBlur stdDeviation="11"/>
<feColorMatrix type="matrix" values="0 0 0 0 0.397708 0 0 0 0 0.47749 0 0 0 0 0.575 0 0 0 0.27 0"/>
<feBlend mode="normal" in2="BackgroundImageFix" result="effect1_dropShadow_454_4694"/>
<feBlend mode="normal" in="SourceGraphic" in2="effect1_dropShadow_454_4694" result="shape"/>
</filter>
<linearGradient id="paint0_linear_454_4694" x1="29.4067" y1="44.8188" x2="29.4067" y2="69.3879" gradientUnits="userSpaceOnUse">
<stop stop-color="#FDFEFF"/>
<stop offset="0.9964" stop-color="#ECF0F5"/>
</linearGradient>
<linearGradient id="paint1_linear_454_4694" x1="160.889" y1="61.0288" x2="160.889" y2="85.6522" gradientUnits="userSpaceOnUse">
<stop stop-color="#FDFEFF"/>
<stop offset="0.9964" stop-color="#ECF0F5"/>
</linearGradient>
<linearGradient id="paint2_linear_454_4694" x1="85.0927" y1="75.7313" x2="85.0927" y2="128.551" gradientUnits="userSpaceOnUse">
<stop stop-color="#FDFEFF"/>
<stop offset="0.9964" stop-color="#ECF0F5"/>
</linearGradient>
</defs>
</svg>
