<svg width="20" height="21" viewBox="0 0 20 21" fill="none" xmlns="http://www.w3.org/2000/svg">
<path d="M17.5013 7.49805C17.7223 7.49805 17.9343 7.41025 18.0906 7.25397C18.2468 7.09769 18.3346 6.88573 18.3346 6.66471V3.33138C18.3333 3.22248 18.3107 3.1149 18.268 3.01471C18.1834 2.81109 18.0216 2.64928 17.818 2.56471C17.7178 2.52201 17.6102 2.49936 17.5013 2.49805H14.168C13.947 2.49805 13.735 2.58584 13.5787 2.74212C13.4224 2.8984 13.3346 3.11037 13.3346 3.33138C13.3346 3.55239 13.4224 3.76436 13.5787 3.92064C13.735 4.07692 13.947 4.16471 14.168 4.16471H15.493L10.0013 9.65638L4.50964 4.16471H5.83464C6.05565 4.16471 6.26761 4.07692 6.42389 3.92064C6.58017 3.76436 6.66797 3.55239 6.66797 3.33138C6.66797 3.11037 6.58017 2.8984 6.42389 2.74212C6.26761 2.58584 6.05565 2.49805 5.83464 2.49805H2.5013C2.3924 2.49936 2.28482 2.52201 2.18464 2.56471C1.98101 2.64928 1.8192 2.81109 1.73464 3.01471C1.69193 3.1149 1.66929 3.22248 1.66797 3.33138V6.66471C1.66797 6.88573 1.75577 7.09769 1.91205 7.25397C2.06833 7.41025 2.28029 7.49805 2.5013 7.49805C2.72232 7.49805 2.93428 7.41025 3.09056 7.25397C3.24684 7.09769 3.33464 6.88573 3.33464 6.66471V5.33971L8.8263 10.8314L3.33464 16.323V14.998C3.33464 14.777 3.24684 14.5651 3.09056 14.4088C2.93428 14.2525 2.72232 14.1647 2.5013 14.1647C2.28029 14.1647 2.06833 14.2525 1.91205 14.4088C1.75577 14.5651 1.66797 14.777 1.66797 14.998V18.3314C1.66929 18.4403 1.69193 18.5479 1.73464 18.648C1.8192 18.8517 1.98101 19.0135 2.18464 19.098C2.28482 19.1407 2.3924 19.1634 2.5013 19.1647H5.83464C6.05565 19.1647 6.26761 19.0769 6.42389 18.9206C6.58017 18.7644 6.66797 18.5524 6.66797 18.3314C6.66797 18.1104 6.58017 17.8984 6.42389 17.7421C6.26761 17.5858 6.05565 17.498 5.83464 17.498H4.50964L10.0013 12.0064L15.493 17.498H14.168C13.947 17.498 13.735 17.5858 13.5787 17.7421C13.4224 17.8984 13.3346 18.1104 13.3346 18.3314C13.3346 18.5524 13.4224 18.7644 13.5787 18.9206C13.735 19.0769 13.947 19.1647 14.168 19.1647H17.5013C17.6102 19.1634 17.7178 19.1407 17.818 19.098C18.0216 19.0135 18.1834 18.8517 18.268 18.648C18.3107 18.5479 18.3333 18.4403 18.3346 18.3314V14.998C18.3346 14.777 18.2468 14.5651 18.0906 14.4088C17.9343 14.2525 17.7223 14.1647 17.5013 14.1647C17.2803 14.1647 17.0683 14.2525 16.912 14.4088C16.7558 14.5651 16.668 14.777 16.668 14.998V16.323L11.1763 10.8314L16.668 5.33971V6.66471C16.668 6.88573 16.7558 7.09769 16.912 7.25397C17.0683 7.41025 17.2803 7.49805 17.5013 7.49805Z" fill="#6C708A"/>
</svg>
