<svg width="17" height="17" viewBox="0 0 17 17" fill="none" xmlns="http://www.w3.org/2000/svg">
<path d="M8.5005 1.5C10.3571 1.5 12.1378 2.23755 13.4506 3.5504C14.7634 4.86325 15.501 6.64385 15.501 8.5005C15.501 10.3571 14.7634 12.1378 13.4506 13.4506C12.1378 14.7634 10.3571 15.501 8.5005 15.501C6.64385 15.501 4.86325 14.7634 3.5504 13.4506C2.23755 12.1378 1.5 10.3571 1.5 8.5005C1.5 6.64385 2.23755 4.86325 3.5504 3.5504C4.86325 2.23755 6.64385 1.5 8.5005 1.5ZM9.5505 5.798C10.0705 5.798 10.4925 5.437 10.4925 4.902C10.4925 4.367 10.0695 4.006 9.5505 4.006C9.0305 4.006 8.6105 4.367 8.6105 4.902C8.6105 5.437 9.0305 5.798 9.5505 5.798ZM9.7335 11.425C9.7335 11.318 9.7705 11.04 9.7495 10.882L8.9275 11.828C8.7575 12.007 8.5445 12.131 8.4445 12.098C8.39913 12.0813 8.36122 12.049 8.33757 12.0068C8.31392 11.9646 8.30609 11.9154 8.3155 11.868L9.6855 7.54C9.7975 6.991 9.4895 6.49 8.8365 6.426C8.1475 6.426 7.1335 7.125 6.5165 8.012C6.5165 8.118 6.4965 8.382 6.5175 8.54L7.3385 7.593C7.5085 7.416 7.7065 7.291 7.8065 7.325C7.85577 7.34268 7.89614 7.37898 7.91895 7.42609C7.94176 7.47321 7.94519 7.52739 7.9285 7.577L6.5705 11.884C6.4135 12.388 6.7105 12.882 7.4305 12.994C8.4905 12.994 9.1165 12.312 9.7345 11.425H9.7335Z" fill="#DE3030"/>
</svg>
