<svg width="56" height="56" viewBox="0 0 56 56" fill="none" xmlns="http://www.w3.org/2000/svg">
<circle cx="28" cy="28" r="24" stroke="#FFD166" stroke-width="2"/>
<path d="M28 21.4868H39.6667" stroke="#FFD166" stroke-width="2" stroke-miterlimit="10" stroke-linecap="round" stroke-linejoin="round"/>
<path d="M30.59 17.3335H37.0767C39.1533 17.3335 39.6667 17.8468 39.6667 19.9002V24.6952C39.6667 26.7485 39.1533 27.2618 37.0767 27.2618H30.59C28.5133 27.2618 28 26.7485 28 24.6952V19.9002C28 17.8468 28.5133 17.3335 30.59 17.3335Z" stroke="#FFD166" stroke-width="2" stroke-linecap="round" stroke-linejoin="round"/>
<path d="M16.3334 34.9033H28" stroke="#FFD166" stroke-width="2" stroke-miterlimit="10" stroke-linecap="round" stroke-linejoin="round"/>
<path d="M18.9234 30.75H25.41C27.4867 30.75 28 31.2633 28 33.3167V38.1117C28 40.165 27.4867 40.6783 25.41 40.6783H18.9234C16.8467 40.6783 16.3334 40.165 16.3334 38.1117V33.3167C16.3334 31.2633 16.8467 30.75 18.9234 30.75Z" stroke="#FFD166" stroke-width="2" stroke-linecap="round" stroke-linejoin="round"/>
<path d="M39.6667 32.5C39.6667 37.015 36.015 40.6667 31.5 40.6667L32.725 38.625" stroke="#FFD166" stroke-width="2" stroke-linecap="round" stroke-linejoin="round"/>
<path d="M16.3334 25.5002C16.3334 20.9852 19.985 17.3335 24.5 17.3335L23.2751 19.3752" stroke="#FFD166" stroke-width="2" stroke-linecap="round" stroke-linejoin="round"/>
</svg>
