<svg width="40" height="40" viewBox="0 0 40 40" fill="none" xmlns="http://www.w3.org/2000/svg">
<rect width="40" height="40" rx="10" fill="#E9F1FC"/>
<path d="M21.05 24.25H19.17C17.84 24.25 16.75 23.13 16.75 21.75C16.75 21.34 17.09 21 17.5 21C17.91 21 18.25 21.34 18.25 21.75C18.25 22.3 18.66 22.75 19.17 22.75H21.05C21.44 22.75 21.75 22.4 21.75 21.97C21.75 21.43 21.6 21.35 21.26 21.23L18.25 20.18C17.61 19.96 16.75 19.49 16.75 18.02C16.75 16.77 17.74 15.74 18.95 15.74H20.83C22.16 15.74 23.25 16.86 23.25 18.24C23.25 18.65 22.91 18.99 22.5 18.99C22.09 18.99 21.75 18.65 21.75 18.24C21.75 17.69 21.34 17.24 20.83 17.24H18.95C18.56 17.24 18.25 17.59 18.25 18.02C18.25 18.56 18.4 18.64 18.74 18.76L21.75 19.81C22.39 20.03 23.25 20.5 23.25 21.97C23.25 23.23 22.26 24.25 21.05 24.25Z" fill="#1E6FD9"/>
<path d="M20 25.25C19.59 25.25 19.25 24.91 19.25 24.5V15.5C19.25 15.09 19.59 14.75 20 14.75C20.41 14.75 20.75 15.09 20.75 15.5V24.5C20.75 24.91 20.41 25.25 20 25.25Z" fill="#1E6FD9"/>
<path d="M20 30.75C14.07 30.75 9.25 25.93 9.25 20C9.25 14.07 14.07 9.25 20 9.25C20.41 9.25 20.75 9.59 20.75 10C20.75 10.41 20.41 10.75 20 10.75C14.9 10.75 10.75 14.9 10.75 20C10.75 25.1 14.9 29.25 20 29.25C25.1 29.25 29.25 25.1 29.25 20C29.25 19.59 29.59 19.25 30 19.25C30.41 19.25 30.75 19.59 30.75 20C30.75 25.93 25.93 30.75 20 30.75Z" fill="#1E6FD9"/>
<path d="M29 15.75H25C24.59 15.75 24.25 15.41 24.25 15V11C24.25 10.59 24.59 10.25 25 10.25C25.41 10.25 25.75 10.59 25.75 11V14.25H29C29.41 14.25 29.75 14.59 29.75 15C29.75 15.41 29.41 15.75 29 15.75Z" fill="#1E6FD9"/>
<path d="M24.9999 15.75C24.8099 15.75 24.6199 15.68 24.4699 15.53C24.1799 15.24 24.1799 14.76 24.4699 14.47L29.4699 9.47C29.7599 9.18 30.2399 9.18 30.5299 9.47C30.8199 9.76 30.8199 10.24 30.5299 10.53L25.5299 15.53C25.3799 15.68 25.1899 15.75 24.9999 15.75Z" fill="#1E6FD9"/>
</svg>
