<svg width="80" height="80" viewBox="0 0 80 80" fill="none" xmlns="http://www.w3.org/2000/svg">
<path d="M2.82819 39.9883C2.82819 19.382 19.5192 2.76562 40.0151 2.76562C60.4835 2.76562 77.2021 19.3697 77.2021 39.9883C77.1998 49.8597 73.2812 59.3261 66.3078 66.3062C59.3344 73.2863 49.877 77.2087 40.0151 77.211C28.422 77.211 17.8462 71.893 10.8873 63.1307C5.65471 56.5557 2.81261 48.3944 2.82819 39.9883Z" fill="#2B2F46"/>
<path d="M7.14419 69.4262C7.28846 69.1043 7.33426 68.7468 7.27584 68.3988C7.21741 68.0508 7.05737 67.728 6.81589 67.4709C6.5744 67.2139 6.2623 67.0342 5.91891 66.9544C5.57553 66.8747 5.21625 66.8985 4.88636 67.0229C4.55648 67.1472 4.27077 67.3666 4.06525 67.6532C3.85973 67.9399 3.7436 68.2811 3.73152 68.6337C3.71943 68.9863 3.81193 69.3346 3.99734 69.6347C4.18274 69.9348 4.45277 70.1733 4.77336 70.3199C4.98761 70.4174 5.21897 70.4716 5.45418 70.4794C5.68939 70.4873 5.92383 70.4486 6.14407 70.3655C6.36431 70.2825 6.56601 70.1568 6.73763 69.9956C6.90925 69.8344 7.04741 69.6409 7.14419 69.4262Z" fill="#5C6077"/>
<path d="M9.77326 72.9296C9.86496 72.7248 9.89404 72.4974 9.85683 72.2761C9.81963 72.0548 9.7178 71.8495 9.56418 71.686C9.41057 71.5225 9.21204 71.4082 8.99364 71.3575C8.77523 71.3068 8.54671 71.322 8.33689 71.4011C8.12706 71.4801 7.94533 71.6196 7.81459 71.802C7.68386 71.9843 7.60997 72.2013 7.60224 72.4255C7.59451 72.6498 7.65329 72.8714 7.77117 73.0623C7.88905 73.2532 8.06075 73.4049 8.26463 73.4983C8.40096 73.5603 8.54818 73.5947 8.69784 73.5997C8.8475 73.6047 8.99667 73.58 9.1368 73.5272C9.27694 73.4744 9.40529 73.3944 9.5145 73.2919C9.62372 73.1893 9.71165 73.0662 9.77326 72.9296Z" fill="#5C6077"/>
<path d="M72.8963 7.51257C73.1248 7.24415 73.2688 6.91403 73.3101 6.56383C73.3514 6.21362 73.2883 5.85901 73.1286 5.5447C72.9688 5.23038 72.7198 4.97041 72.4127 4.79758C72.1056 4.62475 71.7543 4.54678 71.403 4.57349C71.0517 4.60021 70.7162 4.73043 70.4387 4.94772C70.1612 5.16502 69.9542 5.45967 69.8438 5.79453C69.7334 6.1294 69.7245 6.48949 69.8182 6.82943C69.9119 7.16936 70.1041 7.47391 70.3704 7.7047C70.5488 7.85829 70.7557 7.97518 70.9792 8.04866C71.2028 8.12214 71.4386 8.15078 71.6732 8.13294C71.9078 8.11509 72.1366 8.05111 72.3465 7.94467C72.5564 7.83822 72.7432 7.69139 72.8963 7.51257Z" fill="#5C6077"/>
<path d="M74.4413 11.6119C74.5867 11.4411 74.6783 11.231 74.7046 11.0082C74.7309 10.7853 74.6907 10.5597 74.589 10.3596C74.4874 10.1596 74.3289 9.99417 74.1335 9.88417C73.9381 9.77418 73.7145 9.72455 73.4909 9.74154C73.2674 9.75854 73.0539 9.84138 72.8773 9.97965C72.7007 10.1179 72.569 10.3054 72.4987 10.5185C72.4284 10.7316 72.4227 10.9607 72.4823 11.1771C72.5419 11.3934 72.6641 11.5872 72.8336 11.7341C72.9471 11.832 73.0788 11.9064 73.2211 11.9532C73.3633 12 73.5134 12.0183 73.6628 12.0069C73.8121 11.9956 73.9578 11.9549 74.0914 11.8871C74.2249 11.8193 74.3439 11.7258 74.4413 11.6119Z" fill="#5C6077"/>
<path d="M9.38858 11.0418C9.61707 10.7733 9.76103 10.4432 9.80232 10.0929C9.84361 9.74267 9.78038 9.38803 9.62059 9.0737C9.46081 8.75937 9.21162 8.49943 8.90446 8.32665C8.5973 8.15388 8.2459 8.076 7.89458 8.10284C7.54326 8.12967 7.20775 8.26002 6.93033 8.47746C6.65292 8.69489 6.44603 8.98966 6.33575 9.32462C6.22546 9.65958 6.21673 10.0197 6.31064 10.3596C6.40454 10.6996 6.5969 11.004 6.86344 11.2347C7.04179 11.3882 7.24864 11.505 7.47214 11.5785C7.69565 11.6519 7.93143 11.6804 8.16598 11.6625C8.40053 11.6446 8.62925 11.5805 8.83904 11.474C9.04883 11.3675 9.23557 11.2207 9.38858 11.0418Z" fill="#5C6077"/>
<path d="M68.9498 21.2025V71.6448C68.9502 72.3759 68.8066 73.0998 68.5273 73.7753C68.248 74.4509 67.8384 75.0646 67.322 75.5816C66.8055 76.0985 66.1923 76.5085 65.5175 76.7881C64.8426 77.0677 64.1193 77.2114 63.389 77.211H17.6546C16.9242 77.2115 16.2009 77.0678 15.526 76.7883C14.8511 76.5087 14.2378 76.0988 13.7214 75.5818C13.2049 75.0648 12.7953 74.451 12.516 73.7755C12.2367 73.0999 12.0932 72.3759 12.0938 71.6448V8.33181C12.0932 7.60071 12.2367 6.87668 12.516 6.20113C12.7953 5.52558 13.2049 4.91177 13.7214 4.3948C14.2378 3.87783 14.8511 3.46785 15.526 3.1883C16.2009 2.90875 16.9242 2.76512 17.6546 2.76563H49.3797C49.6658 2.76642 49.9514 2.788 50.2343 2.83018C51.3167 3.00027 52.3245 3.48781 53.1302 4.23114L67.1479 17.1026C67.9781 17.863 68.556 18.8596 68.8039 19.9583C68.9022 20.3657 68.9512 20.7834 68.9498 21.2025Z" fill="url(#paint0_linear_4555_259455)"/>
<path d="M68.804 19.9602H52.9261C52.2122 19.96 51.5275 19.6759 51.0227 19.1705C50.5179 18.6651 50.2344 17.9797 50.2344 17.2651V2.83203C51.3169 3.00212 52.3246 3.48966 53.1303 4.23299L67.148 17.1045C67.9783 17.8649 68.5561 18.8614 68.804 19.9602Z" fill="url(#paint1_linear_4555_259455)"/>
<path d="M41.9452 8.83594H22.3737C22.2579 8.83594 22.1641 8.92987 22.1641 9.04574V11.0769C22.1641 11.1927 22.2579 11.2867 22.3737 11.2867H41.9452C42.061 11.2867 42.1549 11.1927 42.1549 11.0769V9.04574C42.1549 8.92987 42.061 8.83594 41.9452 8.83594Z" fill="#E0E4ED" fill-opacity="0.12"/>
<path d="M33.9399 14.6465H22.3737C22.2579 14.6465 22.1641 14.7404 22.1641 14.8563V16.8874C22.1641 17.0033 22.2579 17.0972 22.3737 17.0972H33.9399C34.0556 17.0972 34.1495 17.0033 34.1495 16.8874V14.8563C34.1495 14.7404 34.0556 14.6465 33.9399 14.6465Z" fill="#E0E4ED" fill-opacity="0.12"/>
<path d="M46.25 66.2129H22.5856C22.3528 66.2129 22.1641 66.4018 22.1641 66.6348V68.2724C22.1641 68.5055 22.3528 68.6943 22.5856 68.6943H46.25C46.4828 68.6943 46.6715 68.5055 46.6715 68.2724V66.6348C46.6715 66.4018 46.4828 66.2129 46.25 66.2129Z" fill="#E0E4ED" fill-opacity="0.12"/>
<path d="M28.6483 27.7656C21.5443 34.8757 21.5443 46.4015 28.6483 53.5101C35.7524 60.6186 47.2656 60.6201 54.3681 53.5101C61.4706 46.4 61.4714 34.8741 54.3681 27.7656C47.2648 20.657 35.7516 20.6555 28.6483 27.7656ZM50.7988 49.9373C48.9615 51.7765 46.6205 53.0289 44.072 53.5363C41.5236 54.0438 38.882 53.7833 36.4814 52.788C34.0807 51.7927 32.0289 50.1072 30.5853 47.9446C29.1417 45.782 28.3712 43.2395 28.3712 40.6386C28.3712 38.0377 29.1417 35.4952 30.5853 33.3326C32.0289 31.17 34.0807 29.4845 36.4814 28.4892C38.882 27.4938 41.5236 27.2334 44.072 27.7408C46.6205 28.2483 48.9615 29.5007 50.7988 31.3398C52.0189 32.5609 52.9867 34.0106 53.647 35.6061C54.3073 37.2016 54.6471 38.9116 54.6471 40.6386C54.6471 42.3656 54.3073 44.0756 53.647 45.6711C52.9867 47.2666 52.0189 48.7163 50.7988 49.9373Z" fill="url(#paint2_linear_4555_259455)"/>
<path d="M59.9508 55.652L56.5113 59.0971L52.5312 55.1194C53.8311 54.1342 54.9902 52.9756 55.9762 51.6758L59.9508 55.652Z" fill="url(#paint3_linear_4555_259455)"/>
<path d="M62.5276 55.0683L70.2259 62.774C70.6594 63.2079 71.0033 63.7231 71.238 64.2901C71.4726 64.8571 71.5934 65.4648 71.5934 66.0785C71.5934 66.6922 71.4726 67.2999 71.238 67.8669C71.0033 68.4339 70.6594 68.949 70.2259 69.383C69.3502 70.2592 68.1627 70.7515 66.9245 70.7515C65.6863 70.7515 64.4988 70.2592 63.6232 69.383L55.9234 61.6789C55.6598 61.4149 55.5117 61.0569 55.5117 60.6837C55.5117 60.3104 55.6598 59.9525 55.9234 59.6885L60.5391 55.0683C60.8028 54.8045 61.1605 54.6563 61.5333 54.6562C61.9062 54.6563 62.2638 54.8045 62.5276 55.0683Z" fill="url(#paint4_linear_4555_259455)"/>
<path d="M43.1601 43.8043C43.0838 43.8045 43.0081 43.7895 42.9376 43.7603C42.867 43.7311 42.8029 43.6882 42.7489 43.6342C42.6949 43.5801 42.6521 43.516 42.623 43.4453C42.5938 43.3747 42.5788 43.299 42.5789 43.2226C42.5789 41.9331 40.6311 41.9331 40.6311 43.2226C40.6311 43.3769 40.5699 43.5249 40.4609 43.634C40.3519 43.7431 40.2041 43.8043 40.0499 43.8043C39.8958 43.8043 39.748 43.7431 39.639 43.634C39.53 43.5249 39.4688 43.3769 39.4688 43.2226C39.4688 40.393 43.7413 40.3961 43.7413 43.2226C43.7413 43.299 43.7263 43.3746 43.6971 43.4452C43.6679 43.5158 43.625 43.5799 43.5711 43.634C43.5171 43.688 43.453 43.7308 43.3825 43.7601C43.312 43.7893 43.2364 43.8043 43.1601 43.8043Z" fill="#5D6177"/>
<path d="M48.1099 38.8627H45.6984C45.5442 38.8627 45.3964 38.8014 45.2874 38.6923C45.1784 38.5832 45.1172 38.4353 45.1172 38.281C45.1172 38.1267 45.1784 37.9787 45.2874 37.8696C45.3964 37.7605 45.5442 37.6992 45.6984 37.6992H48.1099C48.1862 37.6992 48.2618 37.7143 48.3323 37.7435C48.4028 37.7727 48.4669 37.8156 48.5209 37.8696C48.5748 37.9236 48.6176 37.9878 48.6468 38.0583C48.676 38.1289 48.6911 38.2046 48.6911 38.281C48.6911 38.3574 48.676 38.433 48.6468 38.5036C48.6176 38.5742 48.5748 38.6383 48.5209 38.6923C48.4669 38.7463 48.4028 38.7892 48.3323 38.8184C48.2618 38.8477 48.1862 38.8627 48.1099 38.8627Z" fill="#5D6177"/>
<path d="M37.5076 38.8627H35.0968C34.9427 38.8627 34.7948 38.8014 34.6859 38.6923C34.5769 38.5832 34.5156 38.4353 34.5156 38.281C34.5156 38.1267 34.5769 37.9787 34.6859 37.8696C34.7948 37.7605 34.9427 37.6992 35.0968 37.6992H37.5076C37.5839 37.6992 37.6595 37.7143 37.73 37.7435C37.8005 37.7727 37.8646 37.8156 37.9185 37.8696C37.9725 37.9236 38.0153 37.9878 38.0445 38.0583C38.0737 38.1289 38.0888 38.2046 38.0888 38.281C38.0888 38.3574 38.0737 38.433 38.0445 38.5036C38.0153 38.5742 37.9725 38.6383 37.9185 38.6923C37.8646 38.7463 37.8005 38.7892 37.73 38.8184C37.6595 38.8477 37.5839 38.8627 37.5076 38.8627Z" fill="#5D6177"/>
<path d="M56.8213 24.6038C56.8219 24.7744 56.7719 24.9413 56.6775 25.0834C56.5831 25.2255 56.4486 25.3363 56.2912 25.4017C56.1338 25.4671 55.9605 25.4843 55.7933 25.4509C55.6261 25.4175 55.4726 25.3352 55.3523 25.2143C55.232 25.0935 55.1503 24.9395 55.1176 24.7721C55.0848 24.6046 55.1026 24.4312 55.1685 24.2739C55.2344 24.1165 55.3456 23.9824 55.4879 23.8884C55.6302 23.7944 55.7971 23.7449 55.9676 23.7461C56.1942 23.7471 56.4113 23.8379 56.5712 23.9986C56.7312 24.1593 56.8211 24.3769 56.8213 24.6038Z" fill="#616575"/>
<path d="M59.8018 24.6037C59.8024 24.7742 59.7524 24.941 59.6582 25.083C59.564 25.225 59.4298 25.3358 59.2726 25.4013C59.1154 25.4669 58.9423 25.4842 58.7752 25.4512C58.6081 25.4181 58.4546 25.3362 58.3342 25.2157C58.2137 25.0952 58.1317 24.9416 58.0985 24.7744C58.0653 24.6072 58.0825 24.434 58.1479 24.2765C58.2132 24.1191 58.3238 23.9847 58.4655 23.8902C58.6073 23.7958 58.7739 23.7456 58.9442 23.7461C59.1715 23.7461 59.3895 23.8364 59.5503 23.9972C59.7111 24.1581 59.8016 24.3762 59.8018 24.6037Z" fill="#616575"/>
<path d="M62.7784 24.6037C62.779 24.7742 62.729 24.941 62.6348 25.083C62.5406 25.225 62.4063 25.3358 62.2491 25.4013C62.0919 25.4669 61.9188 25.4842 61.7518 25.4512C61.5847 25.4181 61.4312 25.3362 61.3107 25.2157C61.1903 25.0952 61.1082 24.9416 61.0751 24.7744C61.0419 24.6072 61.0591 24.434 61.1244 24.2765C61.1898 24.1191 61.3003 23.9847 61.4421 23.8902C61.5839 23.7958 61.7505 23.7456 61.9208 23.7461C62.1481 23.7461 62.3661 23.8364 62.5269 23.9972C62.6877 24.1581 62.7782 24.3762 62.7784 24.6037Z" fill="#616575"/>
<defs>
<linearGradient id="paint0_linear_4555_259455" x1="40.5218" y1="2.76562" x2="40.5218" y2="77.211" gradientUnits="userSpaceOnUse">
<stop stop-color="#545768"/>
<stop offset="1" stop-color="#2B2F46"/>
</linearGradient>
<linearGradient id="paint1_linear_4555_259455" x1="50.2344" y1="11.3961" x2="68.804" y2="11.3961" gradientUnits="userSpaceOnUse">
<stop stop-color="#5A5E75"/>
<stop offset="1" stop-color="#65697E"/>
</linearGradient>
<linearGradient id="paint2_linear_4555_259455" x1="23.3201" y1="40.6386" x2="59.6971" y2="40.6386" gradientUnits="userSpaceOnUse">
<stop stop-color="#5A5E75"/>
<stop offset="1" stop-color="#65697E"/>
</linearGradient>
<linearGradient id="paint3_linear_4555_259455" x1="52.5313" y1="55.3845" x2="59.9508" y2="55.3845" gradientUnits="userSpaceOnUse">
<stop stop-color="#5B5F76"/>
<stop offset="1" stop-color="#65697E"/>
</linearGradient>
<linearGradient id="paint4_linear_4555_259455" x1="55.5118" y1="62.7048" x2="71.594" y2="62.7048" gradientUnits="userSpaceOnUse">
<stop stop-color="#5A5E75"/>
<stop offset="1" stop-color="#65697E"/>
</linearGradient>
</defs>
</svg>
