<svg width="30" height="30" viewBox="0 0 30 30" fill="none" xmlns="http://www.w3.org/2000/svg">
<path d="M14.115 1.06226C17.0764 1.06226 19.1 1.55617 21.0249 2.46992C21.1619 2.5106 21.2884 2.58055 21.3957 2.67494C21.503 2.76933 21.5886 2.88591 21.6465 3.01661C21.7044 3.14732 21.7332 3.28905 21.731 3.43201C21.7288 3.57496 21.6957 3.71574 21.6338 3.84462C21.572 3.97349 21.4829 4.0874 21.3727 4.17846C21.2626 4.26952 21.134 4.33557 20.9959 4.37205C20.8577 4.40852 20.7133 4.41456 20.5726 4.38973C20.4319 4.36491 20.2983 4.30981 20.1809 4.22826C17.926 3.12827 15.3826 2.76542 12.9103 3.19099C10.4381 3.61656 8.162 4.80902 6.40398 6.59978C4.64595 8.39055 3.49489 10.689 3.11354 13.1702C2.7322 15.6514 3.13985 18.1897 4.27888 20.4264C5.41791 22.663 7.23068 24.4848 9.46089 25.6342C11.6911 26.7835 14.2259 27.2023 16.7069 26.8312C19.188 26.4602 21.4897 25.3181 23.2866 23.5665C25.0836 21.8148 26.2849 19.5423 26.7207 17.0701C26.832 16.2595 26.8962 15.4432 26.9132 14.6252C26.9116 14.3993 26.9855 14.1793 27.1233 14.0003C27.261 13.8213 27.4546 13.6936 27.6732 13.6374C27.882 13.5871 28.1015 13.6084 28.2966 13.698C28.4918 13.7876 28.6512 13.9402 28.7492 14.1313C28.8141 14.2674 28.8511 14.4152 28.8578 14.5659C28.9232 16.3755 28.6297 18.1801 27.9944 19.8756C27.359 21.5711 26.3943 23.1239 25.1561 24.4442C22.9286 26.8965 19.8876 28.4567 16.5976 28.8351C13.4528 29.2013 10.2772 28.484 7.59447 26.8015C4.91175 25.119 2.88214 22.5718 1.84033 19.58C0.798534 16.5882 0.806763 13.3304 1.86366 10.3438C2.92057 7.35731 4.96302 4.82041 7.65421 3.15152C9.58433 1.89361 11.8143 1.1725 14.115 1.06226Z" fill="#11AF50"/>
<path d="M14.7119 17.0849L18.2754 13.593C21.2368 10.6887 24.1867 7.7845 27.125 4.88028C27.2608 4.72146 27.4416 4.60762 27.6434 4.55383C27.8452 4.50003 28.0586 4.5088 28.2553 4.57899C28.4268 4.63133 28.5784 4.73434 28.6903 4.8745C28.8021 5.01466 28.869 5.18541 28.8821 5.36432C28.8984 5.5366 28.8718 5.71023 28.8046 5.86968C28.7374 6.02914 28.6318 6.16945 28.4972 6.27806C26.8026 7.92445 25.1146 9.584 23.4332 11.2567L15.62 18.9223L15.4473 19.0902C15.3546 19.1953 15.2407 19.2795 15.1131 19.3372C14.9854 19.3949 14.847 19.4247 14.7069 19.4247C14.5669 19.4247 14.4284 19.3949 14.3008 19.3372C14.1731 19.2795 14.0592 19.1953 13.9666 19.0902L9.0704 14.2844L7.85623 13.0892C7.74911 13.004 7.66083 12.8976 7.59699 12.7765C7.53316 12.6555 7.49516 12.5224 7.48542 12.3859C7.47567 12.2494 7.49439 12.1123 7.54038 11.9834C7.58637 11.8545 7.65863 11.7365 7.75258 11.637C7.85261 11.5406 7.97133 11.4656 8.10141 11.4168C8.2315 11.3681 8.3702 11.3465 8.50895 11.3534C8.6477 11.3604 8.78356 11.3957 8.90813 11.4572C9.03271 11.5187 9.14337 11.6052 9.23328 11.7111L14.47 16.8676L14.7119 17.0849Z" fill="#11AF50"/>
</svg>
