<svg width="40" height="40" viewBox="0 0 40 40" fill="none" xmlns="http://www.w3.org/2000/svg">
<rect width="40" height="40" rx="10" fill="#E9F1FC"/>
<path d="M20 20.25C17.1061 20.25 14.75 17.8939 14.75 15C14.75 12.1061 17.1061 9.75 20 9.75C22.8939 9.75 25.25 12.1061 25.25 15C25.25 17.8939 22.8939 20.25 20 20.25ZM20 10.25C17.3839 10.25 15.25 12.3839 15.25 15C15.25 17.6161 17.3839 19.75 20 19.75C22.6161 19.75 24.75 17.6161 24.75 15C24.75 12.3839 22.6161 10.25 20 10.25Z" fill="#20232C" stroke="#1E6FD9"/>
<path d="M28.5901 30.25C28.4563 30.25 28.3401 30.1339 28.3401 30C28.3401 26.1738 24.4843 23.25 20.0002 23.25C15.516 23.25 11.6602 26.1738 11.6602 30C11.6602 30.1339 11.544 30.25 11.4102 30.25C11.2763 30.25 11.1602 30.1339 11.1602 30C11.1602 26.0893 15.035 22.75 20.0002 22.75C24.9653 22.75 28.8401 26.0893 28.8401 30C28.8401 30.1339 28.724 30.25 28.5901 30.25Z" fill="#20232C" stroke="#1E6FD9"/>
</svg>
