<svg width="16" height="17" viewBox="0 0 16 17" fill="none" xmlns="http://www.w3.org/2000/svg">
<g id="vuesax/bold/add-circle">
<g id="add-circle">
<path id="Vector" d="M7.99967 1.83334C4.32634 1.83334 1.33301 4.82668 1.33301 8.50001C1.33301 12.1733 4.32634 15.1667 7.99967 15.1667C11.673 15.1667 14.6663 12.1733 14.6663 8.50001C14.6663 4.82668 11.673 1.83334 7.99967 1.83334ZM10.6663 9.00001H8.49967V11.1667C8.49967 11.44 8.27301 11.6667 7.99967 11.6667C7.72634 11.6667 7.49967 11.44 7.49967 11.1667V9.00001H5.33301C5.05967 9.00001 4.83301 8.77334 4.83301 8.50001C4.83301 8.22668 5.05967 8.00001 5.33301 8.00001H7.49967V5.83334C7.49967 5.56001 7.72634 5.33334 7.99967 5.33334C8.27301 5.33334 8.49967 5.56001 8.49967 5.83334V8.00001H10.6663C10.9397 8.00001 11.1663 8.22668 11.1663 8.50001C11.1663 8.77334 10.9397 9.00001 10.6663 9.00001Z" fill="white"/>
</g>
</g>
</svg>
