<svg width="21" height="20" viewBox="0 0 21 20" fill="none" xmlns="http://www.w3.org/2000/svg">
<path d="M9.68674 5.10081C9.93938 5.03266 10.2001 4.99902 10.4617 5.00081C11.3458 5.00081 12.1936 5.35199 12.8188 5.97712C13.4439 6.60224 13.7951 7.45008 13.7951 8.33414V9.45081C13.7951 9.67182 13.8829 9.88378 14.0392 10.0401C14.1954 10.1963 14.4074 10.2841 14.6284 10.2841C14.8494 10.2841 15.0614 10.1963 15.2177 10.0401C15.3739 9.88378 15.4617 9.67182 15.4617 9.45081V8.33414C15.4605 7.15341 15.0415 6.0112 14.2789 5.10978C13.5163 4.20837 12.4593 3.60593 11.2951 3.40914V2.50081C11.2951 2.27979 11.2073 2.06783 11.051 1.91155C10.8947 1.75527 10.6828 1.66747 10.4617 1.66747C10.2407 1.66747 10.0288 1.75527 9.87249 1.91155C9.71621 2.06783 9.62841 2.27979 9.62841 2.50081V3.41747L9.25341 3.48414C9.03903 3.5416 8.85625 3.68188 8.74529 3.8741C8.63433 4.06633 8.60428 4.29476 8.66174 4.50914C8.71921 4.72352 8.85948 4.9063 9.0517 5.01726C9.24393 5.12822 9.47236 5.15827 9.68674 5.10081ZM18.5534 16.9091L3.55341 1.90914C3.39649 1.75222 3.18366 1.66406 2.96174 1.66406C2.73982 1.66406 2.527 1.75222 2.37008 1.90914C2.21316 2.06606 2.125 2.27889 2.125 2.50081C2.125 2.72272 2.21316 2.93555 2.37008 3.09247L5.80341 6.51747C5.5776 7.09653 5.46173 7.71261 5.46174 8.33414V10.9841C4.97545 11.1561 4.55424 11.4742 4.25586 11.8949C3.95748 12.3156 3.79653 12.8184 3.79508 13.3341V15.0008C3.79508 15.2218 3.88287 15.4338 4.03915 15.5901C4.19543 15.7463 4.4074 15.8341 4.62841 15.8341H7.24508C7.43698 16.5403 7.85591 17.1637 8.43724 17.6081C9.01857 18.0525 9.72999 18.2933 10.4617 18.2933C11.1935 18.2933 11.9049 18.0525 12.4862 17.6081C13.0676 17.1637 13.4865 16.5403 13.6784 15.8341H15.1201L17.3701 18.0925C17.4475 18.1706 17.5397 18.2326 17.6413 18.2749C17.7428 18.3172 17.8517 18.339 17.9617 18.339C18.0718 18.339 18.1807 18.3172 18.2822 18.2749C18.3838 18.2326 18.4759 18.1706 18.5534 18.0925C18.6315 18.015 18.6935 17.9228 18.7358 17.8213C18.7781 17.7197 18.7999 17.6108 18.7999 17.5008C18.7999 17.3908 18.7781 17.2819 18.7358 17.1803C18.6935 17.0788 18.6315 16.9866 18.5534 16.9091ZM7.12841 8.33414C7.11569 8.18163 7.11569 8.02832 7.12841 7.87581L10.1201 10.8341H7.12841V8.33414ZM10.4617 16.6675C10.1709 16.6657 9.88555 16.5879 9.6341 16.4417C9.38265 16.2955 9.17383 16.086 9.02841 15.8341H11.8951C11.7497 16.086 11.5408 16.2955 11.2894 16.4417C11.0379 16.5879 10.7526 16.6657 10.4617 16.6675ZM5.46174 14.1675V13.3341C5.46174 13.1131 5.54954 12.9012 5.70582 12.7449C5.8621 12.5886 6.07406 12.5008 6.29508 12.5008H11.7867L13.4534 14.1675H5.46174Z" fill="#414459"/>
</svg>
