<svg width="24" height="24" viewBox="0 0 24 24" fill="none" xmlns="http://www.w3.org/2000/svg">
<path fill-rule="evenodd" clip-rule="evenodd" d="M5.0688 3.42969H13.2064C15.6477 3.42969 17.2752 5.05721 17.2752 7.49849V12.3811C17.2752 14.8223 15.6477 16.4499 13.2064 16.4499H9.95137L6.33013 18.8586C5.79305 19.2248 5.0688 18.8342 5.0688 18.1832V16.4499C2.62752 16.4499 1 14.8223 1 12.3811V7.49849C1 5.05721 2.62752 3.42969 5.0688 3.42969Z" fill="#EFF0F7"/>
<mask id="path-2-outside-1_2501_27801" maskUnits="userSpaceOnUse" x="7" y="6" width="17" height="16" fill="black">
<rect fill="white" x="7" y="6" width="17" height="16"/>
<path fill-rule="evenodd" clip-rule="evenodd" d="M18.75 8H12.25C10.2999 8 8.99993 9.30001 8.99993 11.25V15.15C8.99993 17.1 10.2999 18.4001 12.25 18.4001H14.85L17.7425 20.3241C18.1715 20.6166 18.75 20.3046 18.75 19.7846V18.4001C20.7 18.4001 22 17.1 22 15.15V11.25C22 9.30001 20.7 8 18.75 8Z"/>
</mask>
<path fill-rule="evenodd" clip-rule="evenodd" d="M18.75 8H12.25C10.2999 8 8.99993 9.30001 8.99993 11.25V15.15C8.99993 17.1 10.2999 18.4001 12.25 18.4001H14.85L17.7425 20.3241C18.1715 20.6166 18.75 20.3046 18.75 19.7846V18.4001C20.7 18.4001 22 17.1 22 15.15V11.25C22 9.30001 20.7 8 18.75 8Z" fill="#EFF0F7"/>
<path d="M14.85 18.4001V16.9001H15.3033L15.6807 17.1511L14.85 18.4001ZM17.7425 20.3241L18.5732 19.0751L18.5804 19.0799L18.5875 19.0847L17.7425 20.3241ZM18.75 18.4001H17.25V16.9001H18.75V18.4001ZM12.25 6.5H18.75V9.5H12.25V6.5ZM7.49993 11.25C7.49993 9.93414 7.94511 8.72102 8.83303 7.83309C9.72095 6.94517 10.9341 6.5 12.25 6.5V9.5C11.6158 9.5 11.2039 9.70483 10.9543 9.95441C10.7048 10.204 10.4999 10.6159 10.4999 11.25H7.49993ZM7.49993 15.15V11.25H10.4999V15.15H7.49993ZM12.25 19.9001C10.9341 19.9001 9.72095 19.4549 8.83303 18.567C7.94511 17.679 7.49993 16.4659 7.49993 15.15H10.4999C10.4999 15.7842 10.7048 16.1961 10.9543 16.4456C11.2039 16.6952 11.6158 16.9001 12.25 16.9001V19.9001ZM14.85 19.9001H12.25V16.9001H14.85V19.9001ZM16.9117 21.573L14.0192 19.649L15.6807 17.1511L18.5732 19.0751L16.9117 21.573ZM20.25 19.7846C20.25 21.4817 18.3452 22.5505 16.8975 21.5634L18.5875 19.0847C17.9977 18.6826 17.25 19.1274 17.25 19.7846H20.25ZM20.25 18.4001V19.7846H17.25V18.4001H20.25ZM23.5 15.15C23.5 16.4659 23.0548 17.679 22.1669 18.567C21.279 19.4549 20.0659 19.9001 18.75 19.9001V16.9001C19.3841 16.9001 19.796 16.6952 20.0456 16.4456C20.2952 16.1961 20.5 15.7842 20.5 15.15H23.5ZM23.5 11.25V15.15H20.5V11.25H23.5ZM18.75 6.5C20.0659 6.5 21.279 6.94517 22.1669 7.83309C23.0548 8.72102 23.5 9.93414 23.5 11.25H20.5C20.5 10.6159 20.2952 10.204 20.0456 9.95441C19.796 9.70483 19.3841 9.5 18.75 9.5V6.5Z" fill="#1D2136" mask="url(#path-2-outside-1_2501_27801)"/>
</svg>
