<svg width="20" height="20" viewBox="0 0 20 20" fill="none" xmlns="http://www.w3.org/2000/svg">
<path opacity="0.1" fill-rule="evenodd" clip-rule="evenodd" d="M0 10C0 4.47715 4.47715 0 10 0C15.5228 0 20 4.47715 20 10C20 15.5228 15.5228 20 10 20C4.47715 20 0 15.5228 0 10Z" fill="white"/>
<path d="M14.0392 6.2936C13.3003 5.94916 12.5003 5.69916 11.6669 5.55471C11.6596 5.55448 11.6524 5.55585 11.6457 5.55873C11.6389 5.56161 11.6329 5.56593 11.6281 5.57138C11.5281 5.75471 11.4114 5.9936 11.3336 6.17694C10.4497 6.0436 9.55084 6.0436 8.66695 6.17694C8.58917 5.98805 8.4725 5.75471 8.36695 5.57138C8.36139 5.56027 8.34473 5.55471 8.32806 5.55471C7.49473 5.69916 6.70028 5.94916 5.95584 6.2936C5.95028 6.2936 5.94473 6.29916 5.93917 6.30471C4.42806 8.56582 4.01139 10.7658 4.21695 12.9436C4.21695 12.9547 4.2225 12.9658 4.23362 12.9714C5.23362 13.7047 6.19473 14.1492 7.14473 14.4436C7.16139 14.4492 7.17806 14.4436 7.18362 14.4325C7.40584 14.1269 7.60584 13.8047 7.77806 13.4658C7.78917 13.4436 7.77806 13.4214 7.75584 13.4158C7.43917 13.2936 7.13917 13.1492 6.84473 12.9825C6.8225 12.9714 6.8225 12.938 6.83917 12.9214C6.90028 12.8769 6.96139 12.8269 7.0225 12.7825C7.03362 12.7714 7.05028 12.7714 7.06139 12.7769C8.9725 13.6492 11.0336 13.6492 12.9225 12.7769C12.9336 12.7714 12.9503 12.7714 12.9614 12.7825C13.0225 12.8325 13.0836 12.8769 13.1447 12.9269C13.1669 12.9436 13.1669 12.9769 13.1392 12.988C12.8503 13.1603 12.5447 13.2992 12.2281 13.4214C12.2058 13.4269 12.2003 13.4547 12.2058 13.4714C12.3836 13.8103 12.5836 14.1325 12.8003 14.438C12.8169 14.4436 12.8336 14.4492 12.8503 14.4436C13.8058 14.1492 14.7669 13.7047 15.7669 12.9714C15.7781 12.9658 15.7836 12.9547 15.7836 12.9436C16.0281 10.4269 15.3781 8.2436 14.0614 6.30471C14.0558 6.29916 14.0503 6.2936 14.0392 6.2936ZM8.06695 11.6158C7.49473 11.6158 7.01695 11.088 7.01695 10.438C7.01695 9.78805 7.48362 9.26027 8.06695 9.26027C8.65584 9.26027 9.1225 9.7936 9.11695 10.438C9.11695 11.088 8.65028 11.6158 8.06695 11.6158ZM11.9392 11.6158C11.3669 11.6158 10.8892 11.088 10.8892 10.438C10.8892 9.78805 11.3558 9.26027 11.9392 9.26027C12.5281 9.26027 12.9947 9.7936 12.9892 10.438C12.9892 11.088 12.5281 11.6158 11.9392 11.6158Z" fill="white"/>
</svg>
