<svg width="22" height="22" viewBox="0 0 22 22" fill="none" xmlns="http://www.w3.org/2000/svg">
<g id="Frame" clip-path="url(#clip0_430_550)">
<g id="Group 2610126">
<path id="Vector" d="M2.75 10C2.75 11.0834 2.96339 12.1562 3.37799 13.1571C3.7926 14.1581 4.40029 15.0675 5.16637 15.8336C5.93245 16.5997 6.84193 17.2074 7.84286 17.622C8.8438 18.0366 9.91659 18.25 11 18.25C12.0834 18.25 13.1562 18.0366 14.1571 17.622C15.1581 17.2074 16.0675 16.5997 16.8336 15.8336C17.5997 15.0675 18.2074 14.1581 18.622 13.1571C19.0366 12.1562 19.25 11.0834 19.25 10C19.25 8.91659 19.0366 7.8438 18.622 6.84286C18.2074 5.84193 17.5997 4.93245 16.8336 4.16637C16.0675 3.40029 15.1581 2.7926 14.1571 2.37799C13.1562 1.96339 12.0834 1.75 11 1.75C9.91659 1.75 8.8438 1.96339 7.84286 2.37799C6.84193 2.7926 5.93245 3.40029 5.16637 4.16637C4.40029 4.93245 3.7926 5.84193 3.37799 6.84286C2.96339 7.8438 2.75 8.91659 2.75 10Z" stroke="#FF9B05" stroke-width="1.5" stroke-linecap="round" stroke-linejoin="round"/>
<path id="Vector_2" d="M13.5667 7.24998C13.4006 6.96193 13.1593 6.72446 12.8687 6.56299C12.5781 6.40152 12.249 6.32213 11.9167 6.33331H10.0833C9.5971 6.33331 9.13079 6.52647 8.78697 6.87028C8.44315 7.2141 8.25 7.68042 8.25 8.16665C8.25 8.65288 8.44315 9.11919 8.78697 9.46301C9.13079 9.80683 9.5971 9.99998 10.0833 9.99998H11.9167C12.4029 9.99998 12.8692 10.1931 13.213 10.537C13.5568 10.8808 13.75 11.3471 13.75 11.8333C13.75 12.3195 13.5568 12.7859 13.213 13.1297C12.8692 13.4735 12.4029 13.6666 11.9167 13.6666H10.0833C9.75103 13.6778 9.42195 13.5984 9.1313 13.437C8.84065 13.2755 8.59939 13.038 8.43333 12.75" stroke="#FF9B05" stroke-width="1.5" stroke-linecap="round" stroke-linejoin="round"/>
<path id="Vector_3" d="M11 5.41675V14.5834" stroke="#FF9B05" stroke-width="1.5" stroke-linecap="round" stroke-linejoin="round"/>
</g>
</g>
<defs>
<clipPath id="clip0_430_550">
<rect width="22" height="22" fill="white"/>
</clipPath>
</defs>
</svg>
