<svg xmlns="http://www.w3.org/2000/svg" width="18" height="18" viewBox="0 0 18 18" fill="none">
  <path d="M10.5988 8.5049C10.8913 7.2749 9.81877 6.2024 8.58877 6.4949C8.01127 6.6374 7.53877 7.1099 7.39627 7.6874C7.10377 8.9174 8.17627 9.9899 9.40627 9.6974C9.99127 9.5549 10.4638 9.0824 10.5988 8.5049Z" fill="white"/>
  <path d="M4.51375 13.4775C4.37875 13.4775 4.23625 13.425 4.13125 13.3275C2.67625 11.9775 1.84375 10.0725 1.84375 8.0925C1.84375 4.1475 5.05375 0.9375 8.99875 0.9375C12.9437 0.9375 16.1538 4.1475 16.1538 8.0925C16.1538 10.0875 15.3512 11.9325 13.8962 13.305C13.6712 13.515 13.3112 13.5075 13.1012 13.2825C12.8912 13.0575 12.8987 12.6975 13.1237 12.4875C14.3537 11.3325 15.0288 9.78 15.0288 8.1C15.0288 4.7775 12.3212 2.07 8.99875 2.07C5.67625 2.07 2.96875 4.7775 2.96875 8.1C2.96875 9.795 3.65125 11.355 4.89625 12.51C5.12125 12.72 5.13625 13.08 4.92625 13.305C4.81375 13.4175 4.66375 13.4775 4.51375 13.4775Z" fill="white"/>
  <path d="M12.0006 11.4749C11.8656 11.4749 11.7231 11.4224 11.6181 11.3249C11.3931 11.1149 11.3781 10.7549 11.5956 10.5299C12.2181 9.86992 12.5631 8.99992 12.5631 8.09992C12.5631 6.13492 10.9656 4.54492 9.00813 4.54492C7.05063 4.54492 5.45313 6.14242 5.45313 8.09992C5.45313 9.00742 5.79813 9.86992 6.42063 10.5299C6.63063 10.7549 6.62313 11.1149 6.39812 11.3249C6.17312 11.5424 5.81313 11.5274 5.60312 11.3024C4.78562 10.4324 4.32812 9.29242 4.32812 8.09992C4.32812 5.51992 6.42813 3.41992 9.00813 3.41992C11.5881 3.41992 13.6881 5.51992 13.6881 8.09992C13.6881 9.29242 13.2381 10.4324 12.4131 11.3024C12.3006 11.4149 12.1506 11.4749 12.0006 11.4749Z" fill="white"/>
  <path d="M7.72516 12.495L6.64516 13.8375C5.79016 14.91 6.55516 16.5 7.92016 16.5H10.0727C11.4452 16.5 12.2102 14.91 11.3477 13.845L10.2677 12.5025C9.62266 11.6775 8.37766 11.6775 7.72516 12.495Z" fill="white"/>
</svg>