<svg width="32" height="32" viewBox="0 0 32 32" fill="none" xmlns="http://www.w3.org/2000/svg">
<rect width="32" height="32" rx="8" fill="#1E6FD9"/>
<path d="M19.4916 7.66675H12.5083C9.47496 7.66675 7.66663 9.47508 7.66663 12.5084V19.4834C7.66663 22.5251 9.47496 24.3334 12.5083 24.3334H19.4833C22.5166 24.3334 24.325 22.5251 24.325 19.4917V12.5084C24.3333 9.47508 22.525 7.66675 19.4916 7.66675ZM12.3583 21.1251C12.3583 21.4667 12.075 21.7501 11.7333 21.7501C11.3916 21.7501 11.1083 21.4667 11.1083 21.1251V19.4001C11.1083 19.0584 11.3916 18.7751 11.7333 18.7751C12.075 18.7751 12.3583 19.0584 12.3583 19.4001V21.1251ZM16.625 21.1251C16.625 21.4667 16.3416 21.7501 16 21.7501C15.6583 21.7501 15.375 21.4667 15.375 21.1251V17.6667C15.375 17.3251 15.6583 17.0417 16 17.0417C16.3416 17.0417 16.625 17.3251 16.625 17.6667V21.1251ZM20.8916 21.1251C20.8916 21.4667 20.6083 21.7501 20.2666 21.7501C19.925 21.7501 19.6416 21.4667 19.6416 21.1251V15.9417C19.6416 15.6001 19.925 15.3167 20.2666 15.3167C20.6083 15.3167 20.8916 15.6001 20.8916 15.9417V21.1251ZM20.8916 13.3084C20.8916 13.6501 20.6083 13.9334 20.2666 13.9334C19.925 13.9334 19.6416 13.6501 19.6416 13.3084V12.5001C17.5166 14.6834 14.8583 16.2251 11.8833 16.9667C11.8333 16.9834 11.7833 16.9834 11.7333 16.9834C11.45 16.9834 11.2 16.7917 11.125 16.5084C11.0416 16.1751 11.2416 15.8334 11.5833 15.7501C14.3916 15.0501 16.8916 13.5751 18.875 11.4917H17.8333C17.4916 11.4917 17.2083 11.2084 17.2083 10.8667C17.2083 10.5251 17.4916 10.2417 17.8333 10.2417H20.275C20.3083 10.2417 20.3333 10.2584 20.3666 10.2584C20.4083 10.2667 20.45 10.2667 20.4916 10.2834C20.5333 10.3001 20.5666 10.3251 20.6083 10.3501C20.6333 10.3667 20.6583 10.3751 20.6833 10.3917C20.6916 10.4001 20.6916 10.4084 20.7 10.4084C20.7333 10.4417 20.7583 10.4751 20.7833 10.5084C20.8083 10.5417 20.8333 10.5667 20.8416 10.6001C20.8583 10.6334 20.8583 10.6667 20.8666 10.7084C20.875 10.7501 20.8916 10.7917 20.8916 10.8417C20.8916 10.8501 20.9 10.8584 20.9 10.8667V13.3084H20.8916Z" fill="white"/>
</svg>
