<svg width="32" height="32" viewBox="0 0 32 32" fill="none" xmlns="http://www.w3.org/2000/svg">
<rect width="32" height="32" rx="8" fill="#1E6FD9"/>
<path d="M8.8667 24.0001H13.8884C16.2697 24.0001 18.2 22.06 18.2 19.6667H13.1783C10.7971 19.6667 8.8667 21.6068 8.8667 24.0001Z" fill="white"/>
<path d="M9.20007 13.3175V19.6666C11.5933 19.6666 13.5334 17.7337 13.5334 15.3492V9C11.1402 9 9.20007 10.933 9.20007 13.3175Z" fill="white"/>
<path d="M23.2 9H18.1783C15.7971 9 13.8667 10.9401 13.8667 13.3333H18.8884C21.2697 13.3333 23.2 11.3932 23.2 9Z" fill="white"/>
<path d="M23.2 19.3492V13C20.8068 13 18.8667 14.933 18.8667 17.3175V23.6666C21.2599 23.6666 23.2 21.7337 23.2 19.3492Z" fill="white"/>
</svg>
