<svg width="32" height="32" viewBox="0 0 32 32" fill="none" xmlns="http://www.w3.org/2000/svg">
<rect width="32" height="32" rx="8" fill="#1E6FD9"/>
<path d="M20.1666 8.91675H11.8333C9.33329 8.91675 7.66663 10.1667 7.66663 13.0834V18.9167C7.66663 21.8334 9.33329 23.0834 11.8333 23.0834H20.1666C22.6666 23.0834 24.3333 21.8334 24.3333 18.9167V13.0834C24.3333 10.1667 22.6666 8.91675 20.1666 8.91675ZM20.5583 13.9917L17.95 16.0751C17.4 16.5167 16.7 16.7334 16 16.7334C15.3 16.7334 14.5916 16.5167 14.05 16.0751L11.4416 13.9917C11.175 13.7751 11.1333 13.3751 11.3416 13.1084C11.5583 12.8417 11.95 12.7917 12.2166 13.0084L14.825 15.0917C15.4583 15.6001 16.5333 15.6001 17.1666 15.0917L19.775 13.0084C20.0416 12.7917 20.4416 12.8334 20.65 13.1084C20.8666 13.3751 20.825 13.7751 20.5583 13.9917Z" fill="white"/>
</svg>
