<svg width="32" height="32" viewBox="0 0 32 32" fill="none" xmlns="http://www.w3.org/2000/svg">
<rect width="32" height="32" rx="8" fill="#1E6FD9"/>
<path d="M18.15 15.4167C18.5287 14.9434 18.7371 14.3563 18.7417 13.7501C18.7417 13.0229 18.4528 12.3256 17.9387 11.8114C17.4245 11.2973 16.7271 11.0084 16 11.0084C15.2729 11.0084 14.5755 11.2973 14.0613 11.8114C13.5472 12.3256 13.2583 13.0229 13.2583 13.7501C13.2629 14.3563 13.4713 14.9434 13.85 15.4167C13.1072 15.8688 12.5244 16.5419 12.1833 17.3417C12.1356 17.4432 12.1088 17.5533 12.1046 17.6654C12.1005 17.7775 12.1189 17.8892 12.159 17.994C12.199 18.0987 12.2598 18.1943 12.3377 18.2751C12.4155 18.3558 12.5089 18.4199 12.6122 18.4637C12.7154 18.5075 12.8264 18.53 12.9386 18.5298C13.0508 18.5296 13.1617 18.5068 13.2648 18.4628C13.368 18.4187 13.4612 18.3543 13.5388 18.2733C13.6164 18.1924 13.6769 18.0966 13.7167 17.9917C13.9082 17.544 14.2263 17.162 14.6319 16.8926C15.0376 16.6231 15.5131 16.478 16 16.4751V16.4751C16.4884 16.4764 16.9657 16.6208 17.3729 16.8903C17.7802 17.1598 18.0996 17.5427 18.2917 17.9917C18.3555 18.1424 18.4622 18.2709 18.5985 18.3613C18.7348 18.4517 18.8948 18.4999 19.0583 18.5001C19.1698 18.498 19.28 18.4754 19.3833 18.4334C19.5866 18.3471 19.7472 18.1836 19.83 17.979C19.9128 17.7743 19.911 17.5451 19.825 17.3417C19.4817 16.5407 18.8959 15.8675 18.15 15.4167V15.4167ZM16 14.8084C15.787 14.8084 15.5789 14.7451 15.4019 14.6267C15.2249 14.5082 15.0872 14.3398 15.0061 14.1429C14.9249 13.9459 14.9041 13.7294 14.9463 13.5206C14.9885 13.3119 15.0917 13.1203 15.2429 12.9703C15.394 12.8203 15.5864 12.7186 15.7954 12.6781C16.0045 12.6375 16.2209 12.66 16.4172 12.7427C16.6135 12.8253 16.7808 12.9644 16.8979 13.1423C17.015 13.3201 17.0767 13.5288 17.075 13.7417C17.0728 14.0254 16.9586 14.2967 16.7572 14.4965C16.5558 14.6963 16.2837 14.8084 16 14.8084V14.8084ZM21 7.66675H11C10.337 7.66675 9.70107 7.93014 9.23223 8.39898C8.76339 8.86782 8.5 9.50371 8.5 10.1667V19.3334C8.5 19.9965 8.76339 20.6323 9.23223 21.1012C9.70107 21.57 10.337 21.8334 11 21.8334H13.1583L15.4083 24.0917C15.4862 24.169 15.5785 24.2301 15.6801 24.2716C15.7816 24.313 15.8903 24.334 16 24.3334C16.1986 24.3334 16.3907 24.2625 16.5417 24.1334L19.225 21.8334H21C21.663 21.8334 22.2989 21.57 22.7678 21.1012C23.2366 20.6323 23.5 19.9965 23.5 19.3334V10.1667C23.5 9.50371 23.2366 8.86782 22.7678 8.39898C22.2989 7.93014 21.663 7.66675 21 7.66675ZM21.8333 19.3334C21.8333 19.5544 21.7455 19.7664 21.5893 19.9227C21.433 20.079 21.221 20.1667 21 20.1667H18.9167C18.718 20.1667 18.526 20.2377 18.375 20.3667L16.0417 22.3667L14.0917 20.4084C14.0138 20.3312 13.9215 20.2701 13.8199 20.2286C13.7184 20.1871 13.6097 20.1661 13.5 20.1667H11C10.779 20.1667 10.567 20.079 10.4107 19.9227C10.2545 19.7664 10.1667 19.5544 10.1667 19.3334V10.1667C10.1667 9.94573 10.2545 9.73377 10.4107 9.57749C10.567 9.42121 10.779 9.33341 11 9.33341H21C21.221 9.33341 21.433 9.42121 21.5893 9.57749C21.7455 9.73377 21.8333 9.94573 21.8333 10.1667V19.3334Z" fill="white"/>
</svg>
