<svg width="32" height="32" viewBox="0 0 32 32" fill="none" xmlns="http://www.w3.org/2000/svg">
<rect width="32" height="32" rx="8" fill="#1E6FD9"/>
<path d="M16.0001 6C10.4779 6 6 10.5904 6 16.2532C6 20.7833 8.86533 24.6266 12.8387 25.9824C13.3384 26.0773 13.5219 25.76 13.5219 25.4891C13.5219 25.2446 13.5126 24.437 13.5083 23.5802C10.7263 24.2004 10.1393 22.3705 10.1393 22.3705C9.68437 21.1854 9.02894 20.8702 9.02894 20.8702C8.12163 20.2339 9.09733 20.2469 9.09733 20.2469C10.1015 20.3193 10.6303 21.3035 10.6303 21.3035C11.5222 22.871 12.9697 22.4178 13.5403 22.1559C13.6301 21.4932 13.8892 21.0409 14.1752 20.7848C11.954 20.5256 9.61913 19.6464 9.61913 15.7177C9.61913 14.5982 10.0098 13.6836 10.6495 12.9656C10.5456 12.7073 10.2034 11.6645 10.7463 10.2522C10.7463 10.2522 11.5861 9.97661 13.4971 11.3032C14.2948 11.076 15.1502 10.9621 16.0001 10.9582C16.8499 10.9621 17.7061 11.076 18.5052 11.3032C20.4139 9.97661 21.2525 10.2522 21.2525 10.2522C21.7968 11.6645 21.4544 12.7073 21.3505 12.9656C21.9917 13.6836 22.3797 14.5982 22.3797 15.7177C22.3797 19.6557 20.0403 20.5228 17.8135 20.7767C18.1722 21.0949 18.4918 21.7188 18.4918 22.6754C18.4918 24.0473 18.4802 25.1514 18.4802 25.4891C18.4802 25.762 18.6602 26.0817 19.1671 25.981C23.1383 24.6237 26 20.7818 26 16.2532C26 10.5904 21.5227 6 16.0001 6" fill="white"/>
<path d="M9.817 20.6509C9.79502 20.7013 9.717 20.7165 9.64593 20.6818C9.57353 20.6487 9.53287 20.58 9.55634 20.5294C9.57783 20.4774 9.65601 20.463 9.72824 20.4978C9.8008 20.5309 9.84212 20.6003 9.817 20.6509" fill="white"/>
<path d="M10.2213 21.1096C10.1737 21.1545 10.0806 21.1337 10.0175 21.0627C9.9522 20.9919 9.93997 20.8973 9.98823 20.8517C10.0373 20.8068 10.1276 20.8279 10.193 20.8986C10.2583 20.9703 10.271 21.0642 10.2213 21.1096" fill="white"/>
<path d="M10.6149 21.6942C10.5537 21.7374 10.4537 21.6969 10.3919 21.6066C10.3307 21.5163 10.3307 21.4081 10.3932 21.3647C10.4552 21.3213 10.5537 21.3603 10.6164 21.4499C10.6773 21.5417 10.6773 21.65 10.6149 21.6942" fill="white"/>
<path d="M11.1541 22.2591C11.0994 22.3205 10.9829 22.304 10.8976 22.2203C10.8103 22.1384 10.786 22.0223 10.8409 21.9609C10.8963 21.8994 11.0134 21.9167 11.0994 21.9997C11.186 22.0814 11.2125 22.1984 11.1541 22.2591" fill="white"/>
<path d="M11.8979 22.5872C11.8737 22.6667 11.7615 22.7029 11.6484 22.6691C11.5356 22.6343 11.4617 22.5412 11.4845 22.4608C11.508 22.3808 11.6207 22.3431 11.7346 22.3793C11.8473 22.4139 11.9213 22.5064 11.8979 22.5872" fill="white"/>
<path d="M12.7147 22.6479C12.7175 22.7316 12.6216 22.8011 12.503 22.8026C12.3836 22.8053 12.2871 22.7375 12.2858 22.6552C12.2858 22.5706 12.3795 22.5018 12.4988 22.4998C12.6175 22.4975 12.7147 22.5647 12.7147 22.6479" fill="white"/>
<path d="M13.4749 22.5165C13.4891 22.5982 13.4066 22.6821 13.2888 22.7044C13.1729 22.7259 13.0656 22.6755 13.0509 22.5945C13.0365 22.5108 13.1205 22.4269 13.2362 22.4052C13.3542 22.3843 13.4598 22.4334 13.4749 22.5165" fill="white"/>
</svg>
