<svg width="139" height="45" viewBox="0 0 139 45" fill="none" xmlns="http://www.w3.org/2000/svg">
<path d="M1 45H16.0652C23.2089 45 29 39.1797 29 32H13.9348C6.7911 32 1 37.8203 1 45Z" fill="#1E6FD9"/>
<path opacity="0.5" d="M2 12.9524V32C9.1797 32 15 26.201 15 19.0476V0C7.8203 0 2 5.79898 2 12.9524Z" fill="#1E6FD9"/>
<path d="M44 0H28.9348C21.7911 0 16 5.8203 16 13H31.0652C38.2089 13 44 7.1797 44 0Z" fill="#1E6FD9"/>
<path opacity="0.5" d="M44 31.0476V12C36.8203 12 31 17.799 31 24.9524V44C38.1797 44 44 38.201 44 31.0476Z" fill="#1E6FD9"/>
<path d="M58.9249 32V11.9219H62.5963V29.1317H71.4881V32H58.9249ZM82.3103 32.3442C80.3024 32.3442 78.5432 31.9044 77.0326 31.0248C75.5411 30.1452 74.3651 28.9309 73.5046 27.382C72.6632 25.814 72.2425 24.007 72.2425 21.961C72.2425 19.9149 72.6632 18.1175 73.5046 16.5686C74.3651 15.0006 75.5411 13.7768 77.0326 12.8972C78.5432 12.0176 80.3024 11.5778 82.3103 11.5778C84.2989 11.5778 86.0486 12.0176 87.5592 12.8972C89.0699 13.7768 90.2459 15.0006 91.0872 16.5686C91.9286 18.1175 92.3493 19.9149 92.3493 21.961C92.3493 24.007 91.9286 25.814 91.0872 27.382C90.2459 28.9309 89.0699 30.1452 87.5592 31.0248C86.0486 31.9044 84.2989 32.3442 82.3103 32.3442ZM82.3103 29.0457C84.2224 29.0457 85.7426 28.4146 86.8708 27.1526C88.0182 25.8905 88.5918 24.16 88.5918 21.961C88.5918 19.7619 88.0182 18.0314 86.8708 16.7694C85.7426 15.5073 84.2224 14.8763 82.3103 14.8763C80.3981 14.8763 78.8683 15.5073 77.721 16.7694C76.5737 18.0314 76 19.7619 76 21.961C76 24.16 76.5737 25.8905 77.721 27.1526C78.8683 28.4146 80.3981 29.0457 82.3103 29.0457ZM104.368 32.3442C102.475 32.3442 100.821 31.914 99.4057 31.0535C97.9907 30.193 96.8912 28.9979 96.1072 27.4681C95.3232 25.9192 94.9312 24.1218 94.9312 22.0757C94.9312 20.0105 95.3327 18.1939 96.1359 16.626C96.9581 15.0388 98.115 13.8055 99.6065 12.9259C101.117 12.0271 102.905 11.5778 104.97 11.5778C107.322 11.5778 109.273 12.1419 110.822 13.27C112.37 14.3982 113.374 15.9567 113.833 17.9454H109.732C109.426 17.0084 108.871 16.2818 108.068 15.7655C107.265 15.23 106.232 14.9623 104.97 14.9623C102.962 14.9623 101.414 15.6029 100.324 16.8841C99.2336 18.1461 98.6887 19.8862 98.6887 22.1044C98.6887 24.3225 99.2241 26.0435 100.295 27.2673C101.385 28.472 102.857 29.0743 104.712 29.0743C106.529 29.0743 107.896 28.5867 108.814 27.6115C109.751 26.6172 110.315 25.3169 110.506 23.7106H105.429V20.9571H114.206V32H110.822L110.535 29.3612C109.885 30.3173 109.072 31.0535 108.097 31.5698C107.121 32.086 105.879 32.3442 104.368 32.3442ZM127.183 32.3442C125.176 32.3442 123.416 31.9044 121.906 31.0248C120.414 30.1452 119.238 28.9309 118.378 27.382C117.536 25.814 117.116 24.007 117.116 21.961C117.116 19.9149 117.536 18.1175 118.378 16.5686C119.238 15.0006 120.414 13.7768 121.906 12.8972C123.416 12.0176 125.176 11.5778 127.183 11.5778C129.172 11.5778 130.922 12.0176 132.432 12.8972C133.943 13.7768 135.119 15.0006 135.96 16.5686C136.802 18.1175 137.222 19.9149 137.222 21.961C137.222 24.007 136.802 25.814 135.96 27.382C135.119 28.9309 133.943 30.1452 132.432 31.0248C130.922 31.9044 129.172 32.3442 127.183 32.3442ZM127.183 29.0457C129.096 29.0457 130.616 28.4146 131.744 27.1526C132.891 25.8905 133.465 24.16 133.465 21.961C133.465 19.7619 132.891 18.0314 131.744 16.7694C130.616 15.5073 129.096 14.8763 127.183 14.8763C125.271 14.8763 123.741 15.5073 122.594 16.7694C121.447 18.0314 120.873 19.7619 120.873 21.961C120.873 24.16 121.447 25.8905 122.594 27.1526C123.741 28.4146 125.271 29.0457 127.183 29.0457Z" fill="#1E6FD9"/>
</svg>
