<svg width="32" height="32" viewBox="0 0 32 32" fill="none" xmlns="http://www.w3.org/2000/svg">
<rect width="32" height="32" rx="8" fill="#1E6FD9"/>
<path d="M21.45 9.43337L16.8667 7.7167C16.3917 7.5417 15.6167 7.5417 15.1417 7.7167L10.5584 9.43337C9.67504 9.7667 8.95837 10.8 8.95837 11.7417V18.4917C8.95837 19.1667 9.40004 20.0584 9.94171 20.4584L14.525 23.8834C15.3334 24.4917 16.6584 24.4917 17.4667 23.8834L22.05 20.4584C22.5917 20.05 23.0334 19.1667 23.0334 18.4917V11.7417C23.0417 10.8 22.325 9.7667 21.45 9.43337ZM18.9 14.1L15.3167 17.6834C15.1917 17.8084 15.0334 17.8667 14.875 17.8667C14.7167 17.8667 14.5584 17.8084 14.4334 17.6834L13.1 16.3334C12.8584 16.0917 12.8584 15.6917 13.1 15.45C13.3417 15.2084 13.7417 15.2084 13.9834 15.45L14.8834 16.35L18.025 13.2084C18.2667 12.9667 18.6667 12.9667 18.9084 13.2084C19.15 13.45 19.15 13.8584 18.9 14.1Z" fill="white"/>
</svg>
