<svg width="18" height="18" viewBox="0 0 18 18" fill="none" xmlns="http://www.w3.org/2000/svg">
<path fill-rule="evenodd" clip-rule="evenodd" d="M9.71513 3.9375C9.71513 3.78832 9.65587 3.64524 9.55038 3.53975C9.4449 3.43426 9.30183 3.375 9.15265 3.375H1.68744C1.2399 3.375 0.810694 3.55279 0.494238 3.86926C0.177783 4.18573 0 4.61495 0 5.0625V16.3125C0 16.7601 0.177783 17.1893 0.494238 17.5057C0.810694 17.8222 1.2399 18 1.68744 18H12.937C13.3845 18 13.8137 17.8222 14.1302 17.5057C14.4467 17.1893 14.6244 16.7601 14.6244 16.3125V8.847C14.6244 8.69781 14.5652 8.55474 14.4597 8.44925C14.3542 8.34376 14.2111 8.2845 14.062 8.2845C13.9128 8.2845 13.7697 8.34376 13.6642 8.44925C13.5587 8.55474 13.4995 8.69781 13.4995 8.847V16.3125C13.4995 16.4617 13.4402 16.6048 13.3347 16.7102C13.2293 16.8157 13.0862 16.875 12.937 16.875H1.68744C1.53826 16.875 1.39519 16.8157 1.2897 16.7102C1.18422 16.6048 1.12496 16.4617 1.12496 16.3125V5.0625C1.12496 4.91332 1.18422 4.77024 1.2897 4.66475C1.39519 4.55926 1.53826 4.5 1.68744 4.5H9.15265C9.30183 4.5 9.4449 4.44074 9.55038 4.33525C9.65587 4.22976 9.71513 4.08668 9.71513 3.9375Z" fill="black"/>
<path fill-rule="evenodd" clip-rule="evenodd" d="M18 0.5625C18 0.413316 17.9407 0.270242 17.8353 0.164752C17.7298 0.0592632 17.5867 0 17.4375 0H11.8127C11.6636 0 11.5205 0.0592632 11.415 0.164752C11.3095 0.270242 11.2503 0.413316 11.2503 0.5625C11.2503 0.711684 11.3095 0.854758 11.415 0.960248C11.5205 1.06574 11.6636 1.125 11.8127 1.125H16.0797L6.91467 10.2892C6.86238 10.3415 6.82089 10.4036 6.79259 10.472C6.76429 10.5403 6.74972 10.6135 6.74972 10.6875C6.74972 10.7615 6.76429 10.8347 6.79259 10.903C6.82089 10.9714 6.86238 11.0335 6.91467 11.0858C6.96697 11.138 7.02906 11.1795 7.09739 11.2078C7.16571 11.2361 7.23895 11.2507 7.31291 11.2507C7.38687 11.2507 7.4601 11.2361 7.52843 11.2078C7.59676 11.1795 7.65885 11.138 7.71114 11.0858L16.875 1.92037V6.1875C16.875 6.33668 16.9343 6.47976 17.0398 6.58525C17.1453 6.69074 17.2883 6.75 17.4375 6.75C17.5867 6.75 17.7298 6.69074 17.8353 6.58525C17.9407 6.47976 18 6.33668 18 6.1875V0.5625Z" fill="black"/>
</svg>
