<svg xmlns="http://www.w3.org/2000/svg" width="18" height="18" viewBox="0 0 18 18" fill="none">
<path d="M9.00056 1.125C11.0893 1.125 13.0925 1.95474 14.5694 3.4317C16.0464 4.90865 16.8761 6.91183 16.8761 9.00056C16.8761 11.0893 16.0464 13.0925 14.5694 14.5694C13.0925 16.0464 11.0893 16.8761 9.00056 16.8761C6.91183 16.8761 4.90865 16.0464 3.4317 14.5694C1.95474 13.0925 1.125 11.0893 1.125 9.00056C1.125 6.91183 1.95474 4.90865 3.4317 3.4317C4.90865 1.95474 6.91183 1.125 9.00056 1.125ZM10.1818 5.96025C10.7668 5.96025 11.2416 5.55412 11.2416 4.95225C11.2416 4.35037 10.7657 3.94425 10.1818 3.94425C9.59681 3.94425 9.12431 4.35037 9.12431 4.95225C9.12431 5.55412 9.59681 5.96025 10.1818 5.96025ZM10.3877 12.2906C10.3877 12.1702 10.4293 11.8575 10.4057 11.6798L9.48094 12.744C9.28969 12.9454 9.05006 13.0849 8.93756 13.0477C8.88653 13.029 8.84387 12.9926 8.81726 12.9451C8.79066 12.8977 8.78186 12.8423 8.79244 12.789L10.3337 7.92C10.4597 7.30237 10.1132 6.73875 9.37856 6.66675C8.60344 6.66675 7.46269 7.45312 6.76856 8.451C6.76856 8.57025 6.74606 8.86725 6.76969 9.045L7.69331 7.97962C7.88456 7.7805 8.10731 7.63987 8.21981 7.67812C8.27524 7.69802 8.32066 7.73885 8.34632 7.79185C8.37198 7.84486 8.37584 7.90581 8.35706 7.96163L6.82931 12.807C6.65269 13.374 6.98681 13.9298 7.79681 14.0558C8.98931 14.0558 9.69356 13.2885 10.3888 12.2906H10.3877Z" fill="#6C708A"/>
</svg>