<svg width="56" height="56" viewBox="0 0 56 56" fill="none" xmlns="http://www.w3.org/2000/svg">
<path d="M0 28C0 12.536 12.536 0 28 0C43.464 0 56 12.536 56 28C56 43.464 43.464 56 28 56C12.536 56 0 43.464 0 28Z" fill="#FF7683"/>
<path d="M24.2084 40.6391H31.7918C38.1112 40.6391 40.639 38.1113 40.639 31.7919V24.2085C40.639 17.8891 38.1112 15.3613 31.7918 15.3613H24.2084C17.889 15.3613 15.3612 17.8891 15.3612 24.2085V31.7919C15.3612 38.1113 17.889 40.6391 24.2084 40.6391Z" stroke="white" stroke-width="1.5" stroke-linecap="round" stroke-linejoin="round"/>
<path d="M32.4237 36.2152C33.8139 36.2152 34.9514 35.0777 34.9514 33.6874V22.3124C34.9514 20.9222 33.8139 19.7847 32.4237 19.7847C31.0334 19.7847 29.8959 20.9222 29.8959 22.3124V33.6874C29.8959 35.0777 31.0207 36.2152 32.4237 36.2152Z" stroke="white" stroke-width="1.5" stroke-linecap="round" stroke-linejoin="round"/>
<path d="M23.5765 36.2155C24.9668 36.2155 26.1043 35.078 26.1043 33.6877V29.2641C26.1043 27.8738 24.9668 26.7363 23.5765 26.7363C22.1862 26.7363 21.0487 27.8738 21.0487 29.2641V33.6877C21.0487 35.078 22.1736 36.2155 23.5765 36.2155Z" stroke="white" stroke-width="1.5" stroke-linecap="round" stroke-linejoin="round"/>
</svg>
