<svg width="56" height="56" viewBox="0 0 56 56" fill="none" xmlns="http://www.w3.org/2000/svg">
<path d="M0 28C0 12.536 12.536 0 28 0C43.464 0 56 12.536 56 28C56 43.464 43.464 56 28 56C12.536 56 0 43.464 0 28Z" fill="#FFBC54"/>
<path d="M29.7589 29.0835L29.7572 29.0828L25.9529 27.7558L25.9529 27.7558L25.9507 27.755C25.58 27.6276 25.1992 27.4447 24.9091 27.1214C24.6293 26.8096 24.3923 26.3207 24.3923 25.4979C24.3923 24.1766 25.437 23.1162 26.6729 23.1162H29.049C30.4394 23.1162 31.6076 24.2933 31.6076 25.7759C31.6076 26.018 31.4017 26.2239 31.1597 26.2239C30.9176 26.2239 30.7118 26.018 30.7118 25.7759C30.7118 24.8462 30.0095 24.012 29.049 24.012H26.6729C25.8526 24.012 25.2882 24.7325 25.2882 25.4979C25.2882 25.8626 25.3334 26.2043 25.5425 26.4722C25.7429 26.729 26.0345 26.8318 26.2299 26.9007C26.2336 26.902 26.2374 26.9033 26.241 26.9046L26.2428 26.9052L30.0471 28.2323L30.0471 28.2323L30.0492 28.2331C30.42 28.3605 30.8008 28.5434 31.0909 28.8667C31.3707 29.1785 31.6076 29.6675 31.6076 30.4902C31.6076 31.8227 30.5644 32.8719 29.327 32.8719H26.951C25.5606 32.8719 24.3923 31.6949 24.3923 30.2122C24.3923 29.9701 24.5982 29.7643 24.8403 29.7643C25.0823 29.7643 25.2882 29.9701 25.2882 30.2122C25.2882 31.1419 25.9905 31.9761 26.951 31.9761H29.327C30.1474 31.9761 30.7118 31.2556 30.7118 30.4902C30.7118 30.1255 30.6666 29.7838 30.4574 29.5159C30.257 29.2591 29.9654 29.1563 29.77 29.0874C29.7663 29.0861 29.7626 29.0848 29.7589 29.0835Z" stroke="white"/>
<path d="M28 34.1356C27.7579 34.1356 27.5521 33.9297 27.5521 33.6877V22.3127C27.5521 22.0706 27.7579 21.8647 28 21.8647C28.242 21.8647 28.4479 22.0706 28.4479 22.3127V33.6877C28.4479 33.9297 28.242 34.1356 28 34.1356Z" stroke="white"/>
<path d="M28 41.0872C20.7812 41.0872 14.9131 35.2191 14.9131 28.0004C14.9131 20.7817 20.7812 14.9136 28 14.9136C28.242 14.9136 28.4479 15.1194 28.4479 15.3615C28.4479 15.6035 28.242 15.8094 28 15.8094C21.278 15.8094 15.809 21.2784 15.809 28.0004C15.809 34.7224 21.278 40.1914 28 40.1914C34.7219 40.1914 40.1909 34.7224 40.1909 28.0004C40.1909 27.7583 40.3968 27.5525 40.6388 27.5525C40.8809 27.5525 41.0868 27.7583 41.0868 28.0004C41.0868 35.2191 35.2187 41.0872 28 41.0872Z" stroke="white"/>
<path d="M34.7674 20.7328V21.2328H35.2674H39.375C39.617 21.2328 39.8229 21.4387 39.8229 21.6807C39.8229 21.9228 39.617 22.1286 39.375 22.1286H34.3194C34.0774 22.1286 33.8715 21.9228 33.8715 21.6807V16.6252C33.8715 16.3831 34.0774 16.1772 34.3194 16.1772C34.5615 16.1772 34.7674 16.3831 34.7674 16.6252V20.7328Z" stroke="white"/>
<path d="M34.3193 22.6286C34.0792 22.6286 33.8391 22.5401 33.6495 22.3506C33.2829 21.984 33.2829 21.3774 33.6495 21.0108L39.9689 14.6914C40.3354 14.3249 40.9421 14.3249 41.3086 14.6914C41.6752 15.0579 41.6752 15.6646 41.3086 16.0311L34.9892 22.3506C34.7996 22.5401 34.5595 22.6286 34.3193 22.6286Z" fill="white"/>
</svg>
