<svg width="61" height="60" viewBox="0 0 61 60" fill="none" xmlns="http://www.w3.org/2000/svg">
<path d="M30.4993 0L56.4801 15V45L30.4993 60L4.51855 45V15L30.4993 0Z" fill="url(#paint0_linear_4800_213805)"/>
<path fill-rule="evenodd" clip-rule="evenodd" d="M30.4993 2.88675L7.01855 16.4434V43.5566L30.4993 57.1132L53.9801 43.5566V16.4434L30.4993 2.88675ZM56.4801 15L30.4993 0L4.51855 15V45L30.4993 60L56.4801 45V15Z" fill="#515566"/>
<path d="M36.3024 27.6724L32.5832 27.1318L30.9206 23.7612C30.8752 23.669 30.8005 23.5942 30.7082 23.5488C30.4767 23.4346 30.1955 23.5298 30.0798 23.7612L28.4172 27.1318L24.6979 27.6724C24.5954 27.687 24.5016 27.7354 24.4299 27.8086C24.3431 27.8978 24.2953 28.0178 24.2969 28.1422C24.2986 28.2666 24.3495 28.3853 24.4386 28.4722L27.1296 31.0957L26.4938 34.8003C26.4789 34.8865 26.4885 34.9751 26.5214 35.0561C26.5543 35.1372 26.6092 35.2074 26.68 35.2588C26.7507 35.3102 26.8345 35.3407 26.9217 35.3469C27.0089 35.3531 27.0962 35.3348 27.1735 35.294L30.5002 33.5449L33.8268 35.294C33.9177 35.3423 34.0231 35.3584 34.1242 35.3408C34.3791 35.2969 34.5505 35.0552 34.5065 34.8003L33.8708 31.0957L36.5617 28.4722C36.6349 28.4004 36.6833 28.3066 36.6979 28.2041C36.7375 27.9478 36.5588 27.7105 36.3024 27.6724Z" fill="#515566"/>
<defs>
<linearGradient id="paint0_linear_4800_213805" x1="60.4993" y1="3.71459e-06" x2="0.499316" y2="60" gradientUnits="userSpaceOnUse">
<stop stop-color="#434A58"/>
<stop offset="1" stop-color="#1D2136"/>
</linearGradient>
</defs>
</svg>
