<svg width="40" height="40" viewBox="0 0 40 40" fill="none" xmlns="http://www.w3.org/2000/svg">
<path fill-rule="evenodd" clip-rule="evenodd" d="M16.6215 0.85942C18.7281 -0.286473 21.2719 -0.286474 23.3785 0.85942L35.5914 7.50256C37.8669 8.74033 39.2834 11.1233 39.2834 13.7137V26.2863C39.2834 28.8767 37.8669 31.2597 35.5914 32.4974L23.3785 39.1406C21.2719 40.2865 18.7281 40.2865 16.6215 39.1406L4.40864 32.4974C2.13312 31.2597 0.716614 28.8767 0.716614 26.2863L0.716614 13.7137C0.716614 11.1233 2.13312 8.74033 4.40864 7.50256L16.6215 0.85942Z" fill="#627EEA"/>
<g clip-path="url(#clip0_121_1429)">
<path d="M20 36C28.8366 36 36 28.8366 36 20C36 11.1634 28.8366 4 20 4C11.1634 4 4 11.1634 4 20C4 28.8366 11.1634 36 20 36Z" fill="#627EEA"/>
<path d="M20 8V16.87L27.497 20.22L20 8Z" fill="white" fill-opacity="0.602"/>
<path d="M20.498 8L13 20.22L20.498 16.87V8Z" fill="white"/>
<path d="M20 26.352V32.379L27.502 22L20 26.352Z" fill="white" fill-opacity="0.602"/>
<path d="M20.498 32.379V26.351L13 22L20.498 32.379Z" fill="white"/>
<path d="M20 24.701L27.497 20.348L20 17V24.701Z" fill="white" fill-opacity="0.2"/>
<path d="M13 20.348L20.498 24.701V17L13 20.348Z" fill="white" fill-opacity="0.602"/>
</g>
<defs>
<clipPath id="clip0_121_1429">
<rect width="32" height="32" fill="white" transform="translate(4 4)"/>
</clipPath>
</defs>
</svg>
