<svg width="24" height="24" viewBox="0 0 24 24" fill="none" xmlns="http://www.w3.org/2000/svg">
<path d="M20.9058 8.30338C20.4972 8.65367 20.0811 8.9816 19.7027 9.3468C19.0235 10.0146 18.594 10.8895 18.4845 11.8287C18.3102 12.9438 18.4927 14.0847 19.0066 15.0931C19.4916 15.9764 20.2351 16.6957 21.1404 17.1576C21.5641 17.3886 21.5793 17.3886 21.3977 17.8432C20.7337 19.576 19.7311 21.1637 18.4467 22.5163C18.054 22.9495 17.5356 23.2534 16.9617 23.3867C16.3878 23.52 15.7862 23.4763 15.2384 23.2616C14.7768 23.12 14.3228 22.9485 13.8688 22.7846C12.9263 22.4417 11.8905 22.4417 10.948 22.7846C10.3654 22.9858 9.79034 23.187 9.20014 23.3585C8.86178 23.4524 8.50591 23.4676 8.16057 23.4029C7.81523 23.3382 7.48986 23.1955 7.21009 22.9858C6.69747 22.6344 6.24313 22.207 5.86322 21.7188C4.18865 19.7198 3.08631 17.3167 2.67007 14.7577C2.34999 13.1408 2.48341 11.4685 3.05597 9.92068C3.3639 9.06712 3.86958 8.29601 4.53289 7.66855C5.19619 7.04109 5.99885 6.57455 6.87716 6.30597C7.84145 6.00734 8.8789 6.03092 9.82817 6.37305C10.4032 6.56682 10.9707 6.78296 11.5382 6.98419C11.9751 7.14406 12.4558 7.14406 12.8927 6.98419C13.7091 6.64599 14.555 6.38156 15.42 6.19417C16.4275 5.97943 17.4769 6.05897 18.4392 6.42304C19.4016 6.78711 20.2351 7.41988 20.8377 8.24375L20.9058 8.30338Z" fill="#393D49"/>
<path d="M12.0127 5.78419C11.955 4.47582 12.4122 3.19601 13.2891 2.21156C14.1659 1.22711 15.3946 0.613981 16.7192 0.5C16.7136 0.931385 16.6807 1.36201 16.6208 1.78937C16.4847 2.52063 16.1915 3.2148 15.7609 3.82536C15.3302 4.43592 14.7721 4.94877 14.1238 5.32955C13.4923 5.71134 12.7483 5.87157 12.0127 5.78419Z" fill="#393D49"/>
</svg>
