<svg width="24" height="24" viewBox="0 0 24 24" fill="none" xmlns="http://www.w3.org/2000/svg">
<path d="M12 19.9582C7.05829 19.9582 3.04163 15.9415 3.04163 10.9998C3.04163 6.05817 7.05829 2.0415 12 2.0415C16.9416 2.0415 20.9583 6.05817 20.9583 10.9998C20.9583 15.9415 16.9416 19.9582 12 19.9582ZM12 3.2915C7.74996 3.2915 4.29163 6.74984 4.29163 10.9998C4.29163 15.2498 7.74996 18.7082 12 18.7082C16.25 18.7082 19.7083 15.2498 19.7083 10.9998C19.7083 6.74984 16.25 3.2915 12 3.2915Z" fill="#56607A"/>
<path d="M12.0085 12.8522C11.5846 12.8522 11.233 12.5007 11.233 12.0768V11.8597C11.233 10.6604 12.1118 10.0711 12.4427 9.84362C12.8252 9.58515 12.9493 9.4094 12.9493 9.1406C12.9493 8.62366 12.5254 8.19974 12.0085 8.19974C11.4915 8.19974 11.0677 8.62366 11.0677 9.1406C11.0677 9.56448 10.7161 9.916 10.2923 9.916C9.86836 9.916 9.51685 9.56448 9.51685 9.1406C9.51685 7.76554 10.6334 6.64893 12.0085 6.64893C13.3835 6.64893 14.5001 7.76554 14.5001 9.1406C14.5001 10.3192 13.6316 10.9085 13.3111 11.1256C12.9079 11.3944 12.7839 11.5702 12.7839 11.8597V12.0768C12.7839 12.511 12.4323 12.8522 12.0085 12.8522Z" fill="#56607A"/>
<path d="M12.0088 15.4263C11.5746 15.4263 11.2334 15.0748 11.2334 14.6509C11.2334 14.227 11.5849 13.8755 12.0088 13.8755C12.4327 13.8755 12.7842 14.227 12.7842 14.6509C12.7842 15.0748 12.443 15.4263 12.0088 15.4263Z" fill="#56607A"/>
</svg>
