<svg width="20" height="20" viewBox="0 0 20 20" fill="none" xmlns="http://www.w3.org/2000/svg">
<g id="vuesax/outline/heart-circle">
<path id="Vector" d="M10.0013 18.9584C5.05964 18.9584 1.04297 14.9417 1.04297 10C1.04297 5.05835 5.05964 1.04169 10.0013 1.04169C14.943 1.04169 18.9596 5.05835 18.9596 10C18.9596 14.9417 14.943 18.9584 10.0013 18.9584ZM10.0013 2.29169C5.7513 2.29169 2.29297 5.75002 2.29297 10C2.29297 14.25 5.7513 17.7084 10.0013 17.7084C14.2513 17.7084 17.7096 14.25 17.7096 10C17.7096 5.75002 14.2513 2.29169 10.0013 2.29169Z" fill="#20232C"/>
<g id="Group 2610136">
<path id="Vector_2" d="M10.0072 11.8519C9.58334 11.8519 9.23183 11.5004 9.23183 11.0765V10.8594C9.23183 9.66015 10.1106 9.07083 10.4414 8.84338C10.824 8.58491 10.948 8.40916 10.948 8.14035C10.948 7.62342 10.5242 7.19949 10.0072 7.19949C9.4903 7.19949 9.06644 7.62342 9.06644 8.14035C9.06644 8.56424 8.71492 8.91576 8.29103 8.91576C7.86714 8.91576 7.51562 8.56424 7.51562 8.14035C7.51562 6.7653 8.63218 5.64868 10.0072 5.64868C11.3823 5.64868 12.4988 6.7653 12.4988 8.14035C12.4988 9.31897 11.6304 9.90826 11.3099 10.1254C10.9067 10.3942 10.7826 10.57 10.7826 10.8594V11.0765C10.7826 11.5107 10.4311 11.8519 10.0072 11.8519Z" fill="#20232C"/>
<path id="Vector_3" d="M10.0059 14.4262C9.57165 14.4262 9.23047 14.0747 9.23047 13.6508C9.23047 13.2269 9.58199 12.8754 10.0059 12.8754C10.4298 12.8754 10.7813 13.2269 10.7813 13.6508C10.7813 14.0747 10.4401 14.4262 10.0059 14.4262Z" fill="#20232C"/>
</g>
</g>
</svg>
