<svg width="16" height="18" viewBox="0 0 16 18" fill="none" xmlns="http://www.w3.org/2000/svg">
<g id="Delete">
<path id="Stroke 1" d="M13.8957 6.88965C13.8957 6.88965 13.4432 12.5021 13.1807 14.8663C13.0557 15.9955 12.3582 16.6571 11.2157 16.678C9.04149 16.7171 6.86482 16.7196 4.69149 16.6738C3.59232 16.6513 2.90649 15.9813 2.78399 14.8721C2.51982 12.4871 2.06982 6.88965 2.06982 6.88965" stroke="#FF3033" stroke-width="1.5" stroke-linecap="round" stroke-linejoin="round"/>
<path id="Stroke 3" d="M15.0484 4.19987H0.916748" stroke="#FF3033" stroke-width="1.5" stroke-linecap="round" stroke-linejoin="round"/>
<path id="Stroke 5" d="M12.3255 4.19949C11.6713 4.19949 11.108 3.73699 10.9796 3.09616L10.7771 2.08283C10.6521 1.61533 10.2288 1.29199 9.74631 1.29199H6.21881C5.73631 1.29199 5.31298 1.61533 5.18798 2.08283L4.98548 3.09616C4.85715 3.73699 4.29382 4.19949 3.63965 4.19949" stroke="#FF3033" stroke-width="1.5" stroke-linecap="round" stroke-linejoin="round"/>
</g>
</svg>
