<svg width="40" height="40" viewBox="0 0 40 40" fill="none" xmlns="http://www.w3.org/2000/svg">
<circle cx="20" cy="20" r="17.4" stroke="#E6E8EC" stroke-width="1.2"/>
<path d="M25.8334 21.25H15.8334C15.15 21.25 14.5834 20.6833 14.5834 20C14.5834 19.3167 15.15 18.75 15.8334 18.75H25.8334C26.5167 18.75 27.0834 19.3167 27.0834 20C27.0834 20.6833 26.5167 21.25 25.8334 21.25Z" fill="#20232C"/>
<path d="M19.1666 26.25C18.8499 26.25 18.5333 26.1333 18.2833 25.8833L13.2833 20.8833C12.7999 20.4 12.7999 19.6 13.2833 19.1167L18.2833 14.1167C18.7666 13.6333 19.5666 13.6333 20.0499 14.1167C20.5333 14.6 20.5333 15.4 20.0499 15.8833L15.9333 20L20.0499 24.1167C20.5333 24.6 20.5333 25.4 20.0499 25.8833C19.7999 26.1333 19.4833 26.25 19.1666 26.25Z" fill="#20232C"/>
</svg>
