<svg width="40" height="40" viewBox="0 0 40 40" fill="none" xmlns="http://www.w3.org/2000/svg">
<path d="M40 20C40 31.04 31.04 40 20 40C8.96 40 0 31.04 0 20C0 8.96 8.96 0 20 0C31.04 0 40 8.96 40 20Z" fill="#2081E2"/>
<path d="M33.0401 22.2V23.48C33.0401 23.56 33.0001 23.6 32.9201 23.64C32.5201 23.8 31.1201 24.44 30.5601 25.24C29.0801 27.28 27.9601 30.2 25.4801 30.2H15.0401C11.3601 30.2 8.36011 27.2 8.36011 23.48V23.36C8.36011 23.28 8.44011 23.2 8.52011 23.2H14.4001C14.5201 23.2 14.6001 23.32 14.6001 23.4C14.5601 23.76 14.6401 24.16 14.8001 24.52C15.1601 25.24 15.8801 25.64 16.6401 25.64H19.5201V23.4H16.6801C16.5201 23.4 16.4401 23.24 16.5201 23.12C16.5601 23.08 16.6001 23.04 16.6401 22.96C16.9201 22.56 17.2801 22 17.6801 21.32C17.9601 20.88 18.2001 20.36 18.4001 19.88C18.4401 19.8 18.4801 19.72 18.5201 19.6C18.5601 19.44 18.6401 19.28 18.6801 19.16C18.7201 19.04 18.7601 18.92 18.8001 18.8C18.8801 18.4 18.9201 17.96 18.9201 17.48C18.9201 17.32 18.9201 17.12 18.8801 16.92C18.8801 16.72 18.8401 16.52 18.8401 16.32C18.8401 16.16 18.8001 15.96 18.7601 15.8C18.7201 15.52 18.6801 15.28 18.6001 15L18.5601 14.92C18.5201 14.76 18.4801 14.56 18.4001 14.4C18.2401 13.84 18.0401 13.28 17.8401 12.8C17.7601 12.6 17.6801 12.4 17.6001 12.2C17.4801 11.92 17.3601 11.64 17.2401 11.4C17.2001 11.28 17.1201 11.2 17.0801 11.08C17.0401 10.96 16.9601 10.84 16.9201 10.72C16.8801 10.64 16.8401 10.56 16.8001 10.48L16.4401 9.84C16.4001 9.76 16.4801 9.64 16.5601 9.68L18.7601 10.28L19.0401 10.36L19.3601 10.44L19.4801 10.48V9.16C19.4801 8.52 20.0001 8 20.6001 8C20.9201 8 21.2001 8.12 21.4001 8.32C21.6001 8.52 21.7201 8.8 21.7201 9.12V11.04L21.9601 11.12C21.9601 11.12 22.0001 11.12 22.0001 11.16C22.0401 11.2 22.1201 11.28 22.2401 11.36C22.3201 11.44 22.4001 11.52 22.5201 11.6C22.7201 11.76 23.0001 12 23.2801 12.24C23.3601 12.32 23.4401 12.36 23.4801 12.44C23.8401 12.76 24.2401 13.16 24.6401 13.6C24.7601 13.72 24.8401 13.84 24.9601 13.96C25.0801 14.08 25.1601 14.24 25.2801 14.36C25.4001 14.52 25.5601 14.72 25.6801 14.88C25.7201 14.96 25.8001 15.04 25.8401 15.16C26.0001 15.4 26.1201 15.64 26.2801 15.88C26.3201 16 26.4001 16.12 26.4401 16.24C26.6001 16.56 26.7201 16.88 26.7601 17.24C26.8001 17.32 26.8001 17.4 26.8001 17.44C26.8401 17.52 26.8401 17.64 26.8401 17.76C26.8801 18.12 26.8401 18.44 26.8001 18.8C26.7601 18.96 26.7201 19.08 26.6801 19.24C26.6401 19.36 26.6001 19.52 26.5201 19.68C26.4001 19.96 26.2401 20.24 26.0801 20.52C26.0401 20.6 25.9601 20.72 25.8801 20.84C25.8001 20.96 25.7201 21.04 25.6801 21.16C25.6001 21.28 25.4801 21.4 25.4001 21.52C25.3201 21.64 25.2401 21.76 25.1201 21.88C25.0001 22.04 24.8401 22.2 24.7201 22.36C24.6401 22.44 24.5601 22.56 24.4401 22.64C24.3601 22.72 24.2801 22.84 24.1601 22.92C24.0401 23.04 23.9201 23.16 23.8001 23.24L23.5601 23.44C23.5201 23.48 23.4801 23.48 23.4401 23.48H21.6801V25.72H23.8801C24.3601 25.72 24.8401 25.56 25.2001 25.24C25.3201 25.12 25.8801 24.64 26.5601 23.92C26.6001 23.88 26.6001 23.88 26.6401 23.88L32.7201 22.12C32.9601 22 33.0401 22.08 33.0401 22.2Z" fill="white"/>
</svg>
