<svg width="24" height="24" viewBox="0 0 24 24" fill="none" xmlns="http://www.w3.org/2000/svg">
<path d="M16.0132 17.5595V17.278C16.0132 12.8916 16.0132 8.50631 16.0132 4.12222C15.9856 3.887 16.0408 3.64953 16.1692 3.45052C16.2977 3.25152 16.4913 3.10337 16.717 3.03148C16.8541 2.98817 16.9989 2.97514 17.1415 2.99331C17.2841 3.01148 17.4211 3.0604 17.5429 3.13669C17.6647 3.21298 17.7685 3.31483 17.8471 3.43517C17.9257 3.55552 17.9772 3.6915 17.998 3.8337C18.0051 3.95088 18.0051 4.06838 17.998 4.18555V17.556L18.1704 17.3976C18.5224 17.0458 18.906 16.6552 19.279 16.2928C19.3679 16.1862 19.4781 16.0993 19.6025 16.0376C19.7269 15.9759 19.8628 15.9408 20.0015 15.9346C20.1402 15.9283 20.2787 15.951 20.4081 16.0012C20.5376 16.0514 20.6551 16.1281 20.7533 16.2262C20.8515 16.3244 20.9281 16.4419 20.9784 16.5713C21.0286 16.7008 21.0513 16.8392 21.045 16.9779C21.0387 17.1166 21.0036 17.2524 20.942 17.3768C20.8803 17.5012 20.7933 17.6113 20.6867 17.7002C19.6943 18.7065 18.6948 19.707 17.6883 20.7015C17.5971 20.796 17.4877 20.8712 17.3668 20.9225C17.2459 20.9738 17.1158 21.0003 16.9845 21.0003C16.8531 21.0003 16.7231 20.9738 16.6021 20.9225C16.4812 20.8712 16.3719 20.796 16.2806 20.7015C15.2835 19.7164 14.2923 18.7265 13.3069 17.7319C13.1948 17.6445 13.1026 17.5344 13.0363 17.4087C12.9701 17.283 12.9313 17.1446 12.9226 17.0028C12.9138 16.861 12.9353 16.7189 12.9856 16.5861C13.0359 16.4532 13.1139 16.3325 13.2144 16.232C13.3149 16.1316 13.4356 16.0536 13.5685 16.0033C13.7014 15.953 13.8435 15.9315 13.9853 15.9402C14.1272 15.949 14.2655 15.9878 14.3913 16.054C14.517 16.1202 14.6272 16.2124 14.7146 16.3245C15.1122 16.715 15.5064 17.1162 15.9041 17.5102L16.0132 17.5595Z" fill="#20232C" stroke="white" stroke-width="0.2"/>
<path d="M6.47599 18.9984H6.68362C7.7781 18.9984 8.87258 18.9984 9.96705 18.9984C10.1291 18.9925 10.2903 19.0261 10.4365 19.0963C10.5827 19.1666 10.7096 19.2713 10.8062 19.4016C10.9029 19.5318 10.9664 19.6836 10.9912 19.8438C11.0161 20.0041 11.0016 20.168 10.9489 20.3214C10.8869 20.5076 10.7707 20.671 10.6152 20.7907C10.4597 20.9105 10.272 20.981 10.0762 20.9934H4.09348C3.89778 21.0121 3.70091 20.9727 3.52752 20.88C3.35413 20.7874 3.21191 20.6457 3.11865 20.4727C3.02239 20.3048 2.97927 20.1118 2.99498 19.9189C3.01069 19.7261 3.08448 19.5425 3.20664 19.3925C3.26778 19.3136 3.33484 19.2395 3.40723 19.1708L7.37339 15.209C7.4297 15.1527 7.49656 15.1104 7.55639 15.0612L7.53175 15.0014H7.33468C6.23316 15.0014 5.13165 15.0014 4.03013 15.0014C3.86789 15.0067 3.70678 14.9725 3.56065 14.9018C3.41451 14.8312 3.28772 14.7261 3.19116 14.5956C3.09459 14.4652 3.03114 14.3132 3.00625 14.1529C2.98136 13.9925 2.99578 13.8285 3.04827 13.6749C3.1109 13.4884 3.22774 13.3249 3.38384 13.2052C3.53994 13.0854 3.7282 13.015 3.92456 13.0028H4.12163C6.03609 13.0028 7.95054 13.0028 9.86852 13.0028C9.99851 12.9985 10.1285 13.0103 10.2556 13.038C10.413 13.08 10.5577 13.16 10.6768 13.271C10.796 13.3821 10.8859 13.5207 10.9388 13.6748C10.9917 13.8288 11.0058 13.9935 10.9799 14.1543C10.9541 14.3151 10.889 14.467 10.7906 14.5967C10.7286 14.6727 10.6628 14.7455 10.5935 14.8149L6.6238 18.7908C6.56597 18.8439 6.50485 18.8932 6.4408 18.9386L6.47599 18.9984Z" fill="#20232C" stroke="white" stroke-width="0.2"/>
<path d="M7.09902 3.03455C7.28735 3.04797 7.46818 3.11371 7.62114 3.22436C7.77411 3.33502 7.89311 3.4862 7.96475 3.66085C8.84221 5.42012 9.72084 7.17938 10.6006 8.93865C10.6992 9.14272 10.8083 9.34328 10.9033 9.55087C10.9624 9.66909 10.9975 9.79781 11.0066 9.92964C11.0157 10.0615 10.9987 10.1938 10.9565 10.319C10.9143 10.4443 10.8478 10.5599 10.7608 10.6594C10.6737 10.7588 10.5679 10.8401 10.4493 10.8985C10.3333 10.9597 10.2061 10.9967 10.0754 11.007C9.94462 11.0174 9.81314 11.0011 9.68895 10.9589C9.56476 10.9167 9.45048 10.8497 9.3531 10.7619C9.25571 10.674 9.17727 10.5673 9.12257 10.4481C9.07239 10.293 8.9678 10.1612 8.8281 10.0772C8.6884 9.99312 8.523 9.9624 8.36242 9.99069C7.34536 10.0259 6.32831 10.0083 5.31126 9.99069C5.24814 9.98081 5.1836 9.99481 5.13025 10.0299C5.07689 10.0651 5.03854 10.1188 5.02268 10.1807C4.98778 10.264 4.94782 10.3451 4.90303 10.4235C4.84569 10.5425 4.7653 10.649 4.66651 10.7368C4.56772 10.8246 4.45249 10.892 4.3275 10.9349C4.2025 10.9779 4.07023 10.9957 3.93833 10.9872C3.80642 10.9787 3.67751 10.9441 3.55906 10.8855C3.44061 10.8269 3.33496 10.7453 3.24824 10.6456C3.16152 10.5459 3.09545 10.4299 3.05385 10.3045C3.01225 10.1791 2.99594 10.0466 3.00588 9.91485C3.01582 9.78307 3.0518 9.65458 3.11174 9.5368C3.5798 8.58679 4.05841 7.64031 4.51943 6.69031C5.03558 5.67462 5.54939 4.65659 6.06085 3.63622C6.15235 3.44242 6.30068 3.28106 6.48613 3.17358C6.67157 3.06611 6.88534 3.01762 7.09902 3.03455ZM7.88029 7.98513L7.00048 6.22586L6.12068 7.98513H7.88029Z" fill="#20232C" stroke="white" stroke-width="0.2"/>
</svg>
