<svg width="24" height="23" viewBox="0 0 24 23" fill="none" xmlns="http://www.w3.org/2000/svg">
<path d="M12 21.75C6.07 21.75 1.25 16.93 1.25 11C1.25 5.07 6.07 0.25 12 0.25C17.93 0.25 22.75 5.07 22.75 11C22.75 16.93 17.93 21.75 12 21.75ZM12 1.75C6.9 1.75 2.75 5.9 2.75 11C2.75 16.1 6.9 20.25 12 20.25C17.1 20.25 21.25 16.1 21.25 11C21.25 5.9 17.1 1.75 12 1.75Z" fill="#20232C"/>
<path d="M12.0101 13.2222C11.5014 13.2222 11.0796 12.8004 11.0796 12.2917V12.0312C11.0796 10.5921 12.1341 9.8849 12.5311 9.61196C12.9902 9.3018 13.139 9.09089 13.139 8.76833C13.139 8.148 12.6304 7.63929 12.0101 7.63929C11.3897 7.63929 10.8811 8.148 10.8811 8.76833C10.8811 9.27699 10.4593 9.69881 9.95063 9.69881C9.44196 9.69881 9.02014 9.27699 9.02014 8.76833C9.02014 7.11826 10.36 5.77832 12.0101 5.77832C13.6601 5.77832 15 7.11826 15 8.76833C15 10.1827 13.9579 10.8898 13.5733 11.1503C13.0894 11.4729 12.9406 11.6839 12.9406 12.0312V12.2917C12.9406 12.8128 12.5187 13.2222 12.0101 13.2222Z" fill="#20232C"/>
<path d="M12.0104 16.3112C11.4894 16.3112 11.08 15.8893 11.08 15.3807C11.08 14.872 11.5018 14.4502 12.0104 14.4502C12.5191 14.4502 12.9409 14.872 12.9409 15.3807C12.9409 15.8893 12.5315 16.3112 12.0104 16.3112Z" fill="#20232C"/>
</svg>
