<svg width="24" height="24" viewBox="0 0 24 24" fill="none" xmlns="http://www.w3.org/2000/svg">
<path d="M19.0747 9.46777C19.0747 9.46777 18.5317 16.2028 18.2167 19.0398C18.0667 20.3948 17.2297 21.1888 15.8587 21.2138C13.2497 21.2608 10.6377 21.2638 8.0297 21.2088C6.7107 21.1818 5.8877 20.3778 5.7407 19.0468C5.4237 16.1848 4.8837 9.46777 4.8837 9.46777" stroke="currentColor" stroke-width="1.5" stroke-linecap="round" stroke-linejoin="round"/>
<path d="M20.458 6.23926H3.5" stroke="currentColor" stroke-width="1.5" stroke-linecap="round" stroke-linejoin="round"/>
<path d="M17.1904 6.239C16.4054 6.239 15.7294 5.684 15.5754 4.915L15.3324 3.699C15.1824 3.138 14.6744 2.75 14.0954 2.75H9.8624C9.2834 2.75 8.7754 3.138 8.6254 3.699L8.3824 4.915C8.2284 5.684 7.5524 6.239 6.7674 6.239" stroke="currentColor" stroke-width="1.5" stroke-linecap="round" stroke-linejoin="round"/>
</svg>
