<svg width="25" height="24" viewBox="0 0 25 24" fill="none" xmlns="http://www.w3.org/2000/svg">
<path d="M12.91 2.51814L12.88 2.58814L9.98002 9.31814H7.13002C6.45002 9.31814 5.80002 9.45814 5.21002 9.70814L6.96002 5.52814L7.00002 5.42814L7.07002 5.26814C7.09002 5.20814 7.11002 5.14814 7.14002 5.09814C8.45002 2.06814 9.93002 1.37814 12.91 2.51814Z" stroke="#1E6FD9" stroke-width="1.5" stroke-linecap="round" stroke-linejoin="round"/>
<path d="M18.3 9.51807C17.85 9.37807 17.37 9.31807 16.89 9.31807H9.97998L12.88 2.58807L12.91 2.51807C13.06 2.56807 13.2 2.63807 13.35 2.69807L15.56 3.62807C16.79 4.13807 17.65 4.66807 18.17 5.30807C18.27 5.42807 18.35 5.53807 18.42 5.66807C18.51 5.80807 18.58 5.94807 18.62 6.09807C18.66 6.18807 18.69 6.27807 18.71 6.35807C18.98 7.19807 18.82 8.22807 18.3 9.51807Z" stroke="#1E6FD9" stroke-width="1.5" stroke-linecap="round" stroke-linejoin="round"/>
<path d="M21.7717 14.1984V16.1484C21.7717 16.3484 21.7617 16.5484 21.7517 16.7484C21.5617 20.2384 19.6117 21.9984 15.9117 21.9984H8.11172C7.87172 21.9984 7.63172 21.9784 7.40172 21.9484C4.22172 21.7384 2.52172 20.0384 2.31172 16.8584C2.28172 16.6284 2.26172 16.3884 2.26172 16.1484V14.1984C2.26172 12.1884 3.48172 10.4584 5.22172 9.70836C5.82172 9.45836 6.46172 9.31836 7.14172 9.31836H16.9017C17.3917 9.31836 17.8717 9.38836 18.3117 9.51836C20.3017 10.1284 21.7717 11.9884 21.7717 14.1984Z" stroke="#1E6FD9" stroke-width="1.5" stroke-linecap="round" stroke-linejoin="round"/>
<path d="M6.96 5.52832L5.21 9.70832C3.47 10.4583 2.25 12.1883 2.25 14.1983V11.2683C2.25 8.42832 4.27 6.05832 6.96 5.52832Z" stroke="#1E6FD9" stroke-width="1.5" stroke-linecap="round" stroke-linejoin="round"/>
<path d="M21.7686 11.2677V14.1977C21.7686 11.9977 20.3086 10.1277 18.3086 9.52766C18.8286 8.22766 18.9786 7.20766 18.7286 6.35766C18.7086 6.26766 18.6786 6.17766 18.6386 6.09766C20.4986 7.05766 21.7686 9.02766 21.7686 11.2677Z" stroke="#1E6FD9" stroke-width="1.5" stroke-linecap="round" stroke-linejoin="round"/>
</svg>
