<svg width="24" height="24" viewBox="0 0 24 24" fill="white" xmlns="http://www.w3.org/2000/svg">
<path d="M13.4543 15.5945C13.4191 15.5596 13.3715 15.5401 13.3219 15.5401C13.2723 15.5401 13.2247 15.5596 13.1895 15.5945L10.466 18.318C9.20508 19.5789 7.07695 19.7125 5.68477 18.318C4.29023 16.9234 4.42383 14.7977 5.68477 13.5367L8.4082 10.8133C8.48086 10.7406 8.48086 10.6211 8.4082 10.5484L7.47539 9.61563C7.44015 9.58073 7.39256 9.56116 7.34297 9.56116C7.29338 9.56116 7.24579 9.58073 7.21055 9.61563L4.48711 12.3391C2.5043 14.3219 2.5043 17.5305 4.48711 19.5109C6.46992 21.4914 9.67852 21.4938 11.659 19.5109L14.3824 16.7875C14.4551 16.7148 14.4551 16.5953 14.3824 16.5227L13.4543 15.5945ZM19.5152 4.48516C17.5324 2.50234 14.3238 2.50234 12.3434 4.48516L9.61758 7.20859C9.58268 7.24383 9.56311 7.29142 9.56311 7.34102C9.56311 7.39061 9.58268 7.4382 9.61758 7.47344L10.548 8.40391C10.6207 8.47656 10.7402 8.47656 10.8129 8.40391L13.5363 5.68047C14.7973 4.41953 16.9254 4.28594 18.3176 5.68047C19.7121 7.075 19.5785 9.20078 18.3176 10.4617L15.5941 13.1852C15.5592 13.2204 15.5397 13.268 15.5397 13.3176C15.5397 13.3672 15.5592 13.4148 15.5941 13.45L16.527 14.3828C16.5996 14.4555 16.7191 14.4555 16.7918 14.3828L19.5152 11.6594C21.4957 9.67656 21.4957 6.46797 19.5152 4.48516ZM14.3004 8.725C14.2652 8.69011 14.2176 8.67053 14.168 8.67053C14.1184 8.67053 14.0708 8.69011 14.0355 8.725L8.72695 14.0313C8.69206 14.0665 8.67248 14.1141 8.67248 14.1637C8.67248 14.2133 8.69206 14.2609 8.72695 14.2961L9.65508 15.2242C9.72773 15.2969 9.84727 15.2969 9.91992 15.2242L15.2262 9.91797C15.2988 9.84531 15.2988 9.72578 15.2262 9.65313L14.3004 8.725Z" fill="inherit"/>
</svg>
