<svg width="16" height="17" viewBox="0 0 16 17" fill="none" xmlns="http://www.w3.org/2000/svg">
<g id="icon/outlined/application/link">
<path id="Vector" d="M8.96856 10.8967C8.94506 10.8734 8.91334 10.8604 8.88027 10.8604C8.84721 10.8604 8.81549 10.8734 8.79199 10.8967L6.97637 12.7123C6.13574 13.5529 4.71699 13.642 3.78887 12.7123C2.85918 11.7826 2.94824 10.3654 3.78887 9.52481L5.60449 7.70918C5.65293 7.66074 5.65293 7.58106 5.60449 7.53262L4.98262 6.91074C4.95912 6.88748 4.9274 6.87443 4.89434 6.87443C4.86127 6.87443 4.82955 6.88748 4.80606 6.91074L2.99043 8.72637C1.66855 10.0482 1.66855 12.1873 2.99043 13.5076C4.3123 14.8279 6.45137 14.8295 7.77168 13.5076L9.58731 11.692C9.63574 11.6436 9.63574 11.5639 9.58731 11.5154L8.96856 10.8967ZM13.0092 3.49043C11.6873 2.16855 9.54824 2.16855 8.22793 3.49043L6.41074 5.30606C6.38748 5.32955 6.37443 5.36127 6.37443 5.39434C6.37443 5.4274 6.38748 5.45912 6.41074 5.48262L7.03106 6.10293C7.07949 6.15137 7.15918 6.15137 7.20762 6.10293L9.02324 4.2873C9.86387 3.44668 11.2826 3.35762 12.2107 4.2873C13.1404 5.21699 13.0514 6.63418 12.2107 7.47481L10.3951 9.29043C10.3719 9.31392 10.3588 9.34565 10.3588 9.37871C10.3588 9.41177 10.3719 9.4435 10.3951 9.46699L11.017 10.0889C11.0654 10.1373 11.1451 10.1373 11.1936 10.0889L13.0092 8.27324C14.3295 6.95137 14.3295 4.8123 13.0092 3.49043ZM9.53262 6.31699C9.50912 6.29373 9.4774 6.28068 9.44434 6.28068C9.41128 6.28068 9.37955 6.29373 9.35606 6.31699L5.81699 9.85449C5.79373 9.87799 5.78068 9.90971 5.78068 9.94277C5.78068 9.97584 5.79373 10.0076 5.81699 10.0311L6.43574 10.6498C6.48418 10.6982 6.56387 10.6982 6.61231 10.6498L10.1498 7.11231C10.1982 7.06387 10.1982 6.98418 10.1498 6.93574L9.53262 6.31699Z" fill="white"/>
</g>
</svg>
