<svg xmlns="http://www.w3.org/2000/svg" width="100" height="100" viewBox="0 0 100 100" fill="none">
  <g clip-path="url(#clip0_4555_224654)">
    <path d="M80.031 80.3607C96.7102 63.6167 96.7102 36.4693 80.031 19.7253C63.3517 2.98124 36.3094 2.98124 19.6301 19.7253C2.95088 36.4693 2.95088 63.6167 19.6301 80.3607C36.3094 97.1047 63.3517 97.1047 80.031 80.3607Z" fill="#2B2F46"/>
    <path d="M83.5612 87.8071C83.394 87.436 83.3401 87.0234 83.4066 86.6216C83.473 86.2198 83.6567 85.8468 83.9345 85.5498C84.2122 85.2528 84.5715 85.0453 84.9668 84.9534C85.3621 84.8616 85.7756 84.8895 86.1551 85.0337C86.5346 85.1779 86.8629 85.4319 87.0985 85.7636C87.3341 86.0952 87.4663 86.4896 87.4786 86.8967C87.4908 87.3038 87.3824 87.7055 87.1671 88.0507C86.9518 88.396 86.6393 88.6694 86.2692 88.8362C85.7738 89.0579 85.2113 89.0741 84.7041 88.8813C84.197 88.6886 83.7862 88.3025 83.5612 87.8071Z" fill="#5C6077"/>
    <path d="M80.5307 91.8449C80.4262 91.6093 80.3934 91.3479 80.4364 91.0936C80.4793 90.8394 80.5962 90.6035 80.7723 90.4157C80.9484 90.2279 81.1758 90.0965 81.4261 90.038C81.6763 89.9795 81.9382 89.9966 82.1788 90.087C82.4194 90.1775 82.628 90.3373 82.7785 90.5463C82.9289 90.7554 83.0144 91.0045 83.0243 91.2622C83.0343 91.5199 82.9681 91.7749 82.8341 91.995C82.7002 92.215 82.5044 92.3905 82.2715 92.4993C82.1145 92.572 81.9447 92.6128 81.772 92.6192C81.5993 92.6256 81.427 92.5976 81.2651 92.5367C81.1032 92.4759 80.9549 92.3834 80.8288 92.2647C80.7028 92.1459 80.6014 92.0032 80.5307 91.8449Z" fill="#5C6077"/>
    <path d="M12.0644 12.6359C11.8017 12.3266 11.6361 11.9461 11.5884 11.5425C11.5408 11.1388 11.6133 10.7301 11.7968 10.3677C11.9803 10.0054 12.2666 9.70569 12.6195 9.50644C12.9724 9.3072 13.3762 9.2173 13.7799 9.24811C14.1836 9.27891 14.5692 9.42903 14.8881 9.67953C15.2069 9.93003 15.4448 10.2697 15.5716 10.6557C15.6984 11.0417 15.7086 11.4568 15.6008 11.8486C15.4929 12.2404 15.272 12.5913 14.9657 12.8572C14.7608 13.0341 14.5232 13.1687 14.2664 13.2533C14.0096 13.3379 13.7388 13.3709 13.4693 13.3504C13.1999 13.3298 12.9371 13.2561 12.696 13.1335C12.4549 13.0109 12.2403 12.8418 12.0644 12.6359Z" fill="#5C6077"/>
    <path d="M10.2914 17.3563C10.1246 17.1595 10.0195 16.9176 9.9894 16.6609C9.95932 16.4043 10.0056 16.1444 10.1224 15.9141C10.2392 15.6838 10.4213 15.4934 10.6458 15.3669C10.8702 15.2403 11.1269 15.1833 11.3836 15.203C11.6403 15.2228 11.8854 15.3183 12.088 15.4777C12.2907 15.637 12.4418 15.853 12.5224 16.0985C12.6029 16.3439 12.6093 16.6078 12.5406 16.8569C12.472 17.1059 12.3315 17.329 12.1367 17.498C12.0064 17.6107 11.8553 17.6965 11.6919 17.7504C11.5286 17.8043 11.3562 17.8252 11.1847 17.8121C11.0133 17.7989 10.8461 17.7519 10.6928 17.6736C10.5395 17.5954 10.4031 17.4876 10.2914 17.3563Z" fill="#5C6077"/>
    <path d="M85.0079 16.6995C84.7459 16.3904 84.5808 16.0103 84.5336 15.6072C84.4863 15.2041 84.559 14.7959 84.7424 14.4341C84.9258 14.0724 85.2117 13.7732 85.5642 13.5743C85.9167 13.3754 86.3199 13.2857 86.7231 13.3165C87.1263 13.3472 87.5114 13.4971 87.8299 13.7472C88.1484 13.9973 88.386 14.3364 88.5129 14.7218C88.6397 15.1072 88.6501 15.5217 88.5427 15.9131C88.4352 16.3044 88.2149 16.6551 87.9093 16.9209C87.7044 17.0978 87.4668 17.2324 87.21 17.317C86.9532 17.4016 86.6824 17.4346 86.4129 17.414C86.1434 17.3935 85.8806 17.3198 85.6396 17.1972C85.3985 17.0746 85.1839 16.9055 85.0079 16.6995Z" fill="#5C6077"/>
    <path d="M47.4358 73.7011C47.4358 75.7095 46.641 77.6357 45.2264 79.0559C43.8117 80.4761 41.893 81.2739 39.8923 81.2739H16.4416C15.3204 81.2844 14.2082 81.073 13.1683 80.652C12.1285 80.2309 11.1815 79.6083 10.3813 78.8199C8.7653 77.2274 7.84562 75.0558 7.82459 72.7826C7.80355 70.5095 8.68289 68.3211 10.2692 66.6988C11.8554 65.0765 14.0187 64.1533 16.283 64.1322C17.2048 61.3582 19.0291 58.9761 21.4627 57.369C23.8963 55.7619 26.7976 55.0232 29.7 55.2718C32.6023 55.5203 35.3371 56.7417 37.4643 58.7394C39.5916 60.737 40.9877 63.3949 41.4281 66.2856C43.126 66.64 44.6504 67.5709 45.7446 68.9216C46.8389 70.2722 47.4361 71.9601 47.4358 73.7011Z" fill="url(#paint0_linear_4555_224654)"/>
    <path d="M93.0078 53.0233C93.0063 54.1699 92.5517 55.269 91.7437 56.0794C90.9357 56.8897 89.8405 57.3451 88.6984 57.3457H75.3096C74.0169 57.3575 72.7724 56.8533 71.8499 55.9441C70.9275 55.0348 70.4026 53.7949 70.3908 52.4971C70.379 51.1994 70.8812 49.9501 71.787 49.024C72.6928 48.098 73.9279 47.5711 75.2206 47.5593C75.7462 45.9749 76.7875 44.6141 78.177 43.6959C79.5665 42.7778 81.2233 42.3557 82.8808 42.4976C84.5383 42.6395 86.0999 43.3372 87.3145 44.4783C88.529 45.6194 89.3258 47.1375 89.5765 48.7884C90.5461 48.991 91.4166 49.5227 92.0416 50.294C92.6665 51.0653 93.0077 52.0291 93.0078 53.0233Z" fill="url(#paint1_linear_4555_224654)"/>
    <path d="M60.397 83.7322C55.7684 87.2118 56.0372 87.1594 55.8612 87.0895L55.6484 87.0041L55.9076 86.4215L56.0585 86.4332L58.3409 82.0293L60.397 83.7322Z" fill="#212539"/>
    <path d="M73.0559 71.0029L67.4311 88.6514C67.4064 88.7336 67.3617 88.8082 67.3009 88.8686C67.2402 88.929 67.1654 88.9731 67.0833 88.997C67.0012 89.021 66.9145 89.0239 66.831 89.0056C66.7475 88.9873 66.6699 88.9483 66.6052 88.8922C66.524 88.8242 58.4098 82.0437 58.3402 82.0301C58.2706 82.0165 58.0733 81.9349 48.6555 78.8106C48.5505 78.7768 48.4591 78.7102 48.3946 78.6204C48.33 78.5307 48.2958 78.4226 48.2969 78.3119C48.298 78.2013 48.3343 78.0938 48.4006 78.0054C48.4668 77.9169 48.5595 77.8521 48.6651 77.8204L72.4118 70.3485C72.4813 70.3272 72.5543 70.3198 72.6266 70.3268C72.699 70.3338 72.7693 70.355 72.8334 70.3893C72.8435 70.3934 72.8526 70.3997 72.8599 70.4078C72.8673 70.4158 72.8728 70.4254 72.876 70.4359C72.9641 70.4972 73.0296 70.5861 73.0621 70.6886C73.0947 70.7912 73.0925 70.9017 73.0559 71.0029Z" fill="url(#paint2_linear_4555_224654)"/>
    <path d="M72.8742 70.4353L58.3384 82.0295L55.7872 86.9595C55.7742 86.978 55.7558 86.9919 55.7345 86.9992C55.7132 87.0065 55.6901 87.0068 55.6686 87.0002C55.6471 86.9935 55.6283 86.9801 55.6148 86.962C55.6014 86.9439 55.594 86.9219 55.5938 86.8994L56.1315 81.2858L72.8375 70.3887C72.8465 70.3935 72.8544 70.4001 72.8607 70.4081C72.867 70.4161 72.8716 70.4254 72.8742 70.4353Z" fill="url(#paint3_linear_4555_224654)"/>
    <path d="M45.6119 45.6596L34.198 54.3703C33.9697 54.5276 33.7976 54.3606 33.2695 54.1761L33.9446 52.6538L34.3314 52.681L40.2637 41.2383L45.6119 45.6596Z" fill="url(#paint4_linear_4555_224654)"/>
    <path d="M78.5119 12.5705L63.893 58.4482C63.8278 58.6612 63.7107 58.8546 63.5525 59.0108C63.3942 59.1671 63.1996 59.2813 62.9864 59.3431C62.7731 59.405 62.5479 59.4125 62.331 59.3651C62.1141 59.3177 61.9124 59.2168 61.744 59.0715L40.452 41.3725C40.4044 41.3067 40.3363 41.2589 40.2585 41.2366C40.1676 41.1861 40.0864 41.1705 40.0419 41.1453L34.5081 39.3026L15.0864 32.8676C14.8122 32.781 14.5731 32.6082 14.4042 32.3747C14.2353 32.1412 14.1457 31.8594 14.1485 31.5709C14.1513 31.2824 14.2464 31.0024 14.4198 30.7723C14.5932 30.5422 14.8357 30.3741 15.1115 30.2929L76.8388 10.8754C77.0197 10.819 77.2098 10.7991 77.3984 10.8168C77.5869 10.8344 77.7701 10.8893 77.9375 10.9783C77.9634 10.9891 77.9868 11.0055 78.0058 11.0263C78.0249 11.0471 78.0392 11.0718 78.0477 11.0987C78.2757 11.2585 78.4447 11.4894 78.5287 11.7555C78.6126 12.0216 78.6067 12.3081 78.5119 12.5705Z" fill="url(#paint5_linear_4555_224654)"/>
    <path d="M78.0474 11.093L40.2601 41.2348L33.6296 54.0503C33.6006 54.1083 33.5523 54.1541 33.493 54.1799C33.4338 54.2056 33.3674 54.2095 33.3055 54.191C33.2436 54.1725 33.1902 54.1326 33.1547 54.0785C33.1192 54.0243 33.1038 53.9594 33.1112 53.895L34.5097 39.3047L77.9371 10.9727C77.9631 10.9835 77.9865 10.9998 78.0055 11.0206C78.0245 11.0414 78.0388 11.0661 78.0474 11.093Z" fill="url(#paint6_linear_4555_224654)"/>
    <path d="M40.8855 19.2712C40.8851 21.3886 40.2593 23.4582 39.0872 25.2184C37.915 26.9787 36.2493 28.3504 34.3005 29.1602C32.3518 29.97 30.2076 30.1815 28.1391 29.7679C26.0706 29.3544 24.1708 28.3343 22.6798 26.8367C21.1888 25.3392 20.1737 23.4314 19.7629 21.3546C19.352 19.2779 19.5639 17.1255 20.3716 15.1696C21.1793 13.2137 22.5467 11.5422 24.3008 10.3665C26.0548 9.19081 28.1168 8.56369 30.2259 8.56445C31.6264 8.56394 33.0132 8.84058 34.3071 9.37853C35.601 9.91649 36.7765 10.7052 37.7666 11.6996C38.7566 12.694 39.5416 13.8746 40.0768 15.1738C40.6119 16.473 40.8868 17.8653 40.8855 19.2712Z" fill="#535667"/>
    <path d="M30.2271 30.6653C27.9816 30.6641 25.7868 29.9945 23.9203 28.7412C22.0539 27.4879 20.5995 25.7072 19.7411 23.6241C18.8828 21.5411 18.659 19.2493 19.0981 17.0386C19.5371 14.8278 20.6193 12.7974 22.2078 11.2041C23.7963 9.61082 25.8198 8.52614 28.0223 8.08726C30.2249 7.64837 32.5076 7.87499 34.5819 8.73844C36.6561 9.6019 38.4288 11.0634 39.6756 12.9382C40.9225 14.813 41.5876 17.0168 41.5868 19.2711C41.5827 22.2934 40.3843 25.1907 38.2545 27.3269C36.1248 29.4631 33.2377 30.6637 30.2271 30.6653ZM30.2271 9.25749C28.2545 9.25673 26.3261 9.8432 24.6856 10.9427C23.0451 12.0423 21.7662 13.6055 21.0107 15.4347C20.2552 17.2639 20.0571 19.277 20.4413 21.2192C20.8255 23.1615 21.7748 24.9458 23.1692 26.3464C24.5636 27.747 26.3404 28.7011 28.275 29.0879C30.2095 29.4747 32.2149 29.277 34.0374 28.5196C35.86 27.7623 37.4179 26.4794 38.5142 24.8331C39.6104 23.1869 40.1957 21.2513 40.1961 19.2711C40.1931 16.6173 39.1419 14.0729 37.2732 12.1959C35.4045 10.3188 32.8706 9.26212 30.2271 9.25749Z" fill="#5F6379"/>
    <path d="M37.3302 19.2622C37.3317 20.6317 36.9286 21.9708 36.1718 23.1102C35.4151 24.2496 34.3387 25.138 33.0788 25.6632C31.8189 26.1883 30.4322 26.3265 29.0941 26.0603C27.756 25.794 26.5266 25.1354 25.5615 24.1676C24.5963 23.1998 23.9388 21.9663 23.6721 20.6233C23.4054 19.2803 23.5415 17.8881 24.0632 16.6227C24.5849 15.3574 25.4687 14.2758 26.6028 13.5148C27.737 12.7538 29.0705 12.3477 30.4346 12.3477C32.2621 12.3477 34.0148 13.0759 35.3078 14.3724C36.6007 15.6689 37.3281 17.4276 37.3302 19.2622Z" fill="#474A5D"/>
    <path d="M28.4761 21.4919L26.8803 19.5501C26.7813 19.4336 26.7064 19.2985 26.66 19.1526C26.6135 19.0067 26.5965 18.8529 26.6099 18.7004C26.6233 18.5478 26.6668 18.3994 26.7379 18.2639C26.809 18.1284 26.9063 18.0085 27.0241 17.9112C27.1419 17.8138 27.2778 17.741 27.4239 17.6969C27.5701 17.6529 27.7235 17.6385 27.8752 17.6546C28.0269 17.6707 28.1739 17.717 28.3076 17.7907C28.4413 17.8645 28.5591 17.9642 28.654 18.0841L29.5321 19.154L32.389 16.8764C32.628 16.6915 32.9299 16.6085 33.2294 16.6452C33.5288 16.6819 33.8019 16.8354 33.9896 17.0726C34.1773 17.3097 34.2646 17.6114 34.2325 17.9126C34.2005 18.2138 34.0518 18.4902 33.8184 18.6822L30.0776 21.6666C29.8411 21.8542 29.5408 21.9409 29.2412 21.9083C28.9416 21.8756 28.6668 21.726 28.4761 21.4919Z" fill="url(#paint7_linear_4555_224654)"/>
  </g>
  <defs>
    <linearGradient id="paint0_linear_4555_224654" x1="28.931" y1="56.9593" x2="25.7538" y2="97.4293" gradientUnits="userSpaceOnUse">
      <stop stop-color="#545768"/>
      <stop offset="0.5" stop-color="#3B3E53"/>
    </linearGradient>
    <linearGradient id="paint1_linear_4555_224654" x1="82.4431" y1="43.4661" x2="80.6303" y2="66.5698" gradientUnits="userSpaceOnUse">
      <stop stop-color="#545769"/>
      <stop offset="0.5" stop-color="#3B3F53"/>
    </linearGradient>
    <linearGradient id="paint2_linear_4555_224654" x1="50.3169" y1="85.3111" x2="75.2346" y2="78.1281" gradientUnits="userSpaceOnUse">
      <stop stop-color="#535768"/>
      <stop offset="1" stop-color="#46495C"/>
    </linearGradient>
    <linearGradient id="paint3_linear_4555_224654" x1="54.0955" y1="81.6531" x2="74.4453" y2="75.7869" gradientUnits="userSpaceOnUse">
      <stop stop-color="#383B51"/>
      <stop offset="1" stop-color="#45485C"/>
    </linearGradient>
    <linearGradient id="paint4_linear_4555_224654" x1="31.9068" y1="49.3499" x2="45.5638" y2="45.413" gradientUnits="userSpaceOnUse">
      <stop stop-color="#3F4256"/>
      <stop offset="1" stop-color="#484B5E"/>
    </linearGradient>
    <linearGradient id="paint5_linear_4555_224654" x1="19.3654" y1="49.7852" x2="84.1349" y2="31.114" gradientUnits="userSpaceOnUse">
      <stop stop-color="#535768"/>
      <stop offset="1" stop-color="#464A5D"/>
    </linearGradient>
    <linearGradient id="paint6_linear_4555_224654" x1="29.1889" y1="40.275" x2="82.0861" y2="25.0262" gradientUnits="userSpaceOnUse">
      <stop stop-color="#383C51"/>
      <stop offset="1" stop-color="#32394C"/>
    </linearGradient>
    <linearGradient id="paint7_linear_4555_224654" x1="26.6192" y1="19.2666" x2="34.2517" y2="19.2666" gradientUnits="userSpaceOnUse">
      <stop stop-color="#989FB0"/>
      <stop offset="1" stop-color="#AAB2C5"/>
    </linearGradient>
    <clipPath id="clip0_4555_224654">
      <rect width="100" height="100" fill="white"/>
    </clipPath>
  </defs>
</svg>