<svg width="57" height="56" viewBox="0 0 57 56" fill="none" xmlns="http://www.w3.org/2000/svg">
<circle cx="28.5" cy="28" r="24" stroke="#5C98FF" stroke-width="2"/>
<path d="M28.675 34.25V36.7" stroke="#5C98FF" stroke-width="2" stroke-linecap="round" stroke-linejoin="round"/>
<path d="M22.8417 40.6665H34.5083V39.4998C34.5083 38.2165 33.4583 37.1665 32.175 37.1665H25.175C23.8917 37.1665 22.8417 38.2165 22.8417 39.4998V40.6665V40.6665Z" stroke="#5C98FF" stroke-width="2" stroke-miterlimit="10"/>
<path d="M21.675 40.6665H35.675" stroke="#5C98FF" stroke-width="2" stroke-linecap="round" stroke-linejoin="round"/>
<path d="M28.5 33.6668C23.985 33.6668 20.3334 30.0152 20.3334 25.5002V22.0002C20.3334 19.4218 22.4217 17.3335 25 17.3335H32C34.5784 17.3335 36.6667 19.4218 36.6667 22.0002V25.5002C36.6667 30.0152 33.015 33.6668 28.5 33.6668Z" stroke="#5C98FF" stroke-width="2" stroke-linecap="round" stroke-linejoin="round"/>
<path d="M20.8817 28.5919C20.0067 28.3119 19.2367 27.7985 18.63 27.1919C17.58 26.0252 16.88 24.6252 16.88 22.9919C16.88 21.3585 18.1633 20.0752 19.7967 20.0752H20.555C20.3217 20.6119 20.205 21.2069 20.205 21.8252V25.3252C20.205 26.4919 20.45 27.5885 20.8817 28.5919Z" stroke="#5C98FF" stroke-width="2" stroke-linecap="round" stroke-linejoin="round"/>
<path d="M36.1183 28.5919C36.9933 28.3119 37.7633 27.7985 38.37 27.1919C39.42 26.0252 40.12 24.6252 40.12 22.9919C40.12 21.3585 38.8367 20.0752 37.2033 20.0752H36.445C36.6783 20.6119 36.795 21.2069 36.795 21.8252V25.3252C36.795 26.4919 36.55 27.5885 36.1183 28.5919Z" stroke="#5C98FF" stroke-width="2" stroke-linecap="round" stroke-linejoin="round"/>
</svg>
