<svg width="56" height="56" viewBox="0 0 56 56" fill="none" xmlns="http://www.w3.org/2000/svg">
<circle cx="28" cy="28" r="24" stroke="#58BD7D" stroke-width="2"/>
<path d="M16.2148 26.7021H39.5482" stroke="#58BD7D" stroke-width="2" stroke-miterlimit="10" stroke-linecap="round" stroke-linejoin="round"/>
<path d="M27.3682 38.9516H21.4065C17.2648 38.9516 16.2148 37.9249 16.2148 33.8299V24.2399C16.2148 20.5299 17.0781 19.3399 20.3331 19.1532C20.6598 19.1416 21.0215 19.1299 21.4065 19.1299H34.3682C38.5098 19.1299 39.5598 20.1565 39.5598 24.2515V29.3966" stroke="#58BD7D" stroke-width="2" stroke-linecap="round" stroke-linejoin="round"/>
<path d="M34.8815 40.702C37.4588 40.702 39.5482 38.6126 39.5482 36.0353C39.5482 33.458 37.4588 31.3687 34.8815 31.3687C32.3042 31.3687 30.2148 33.458 30.2148 36.0353C30.2148 38.6126 32.3042 40.702 34.8815 40.702Z" stroke="#58BD7D" stroke-width="2" stroke-miterlimit="10" stroke-linecap="round" stroke-linejoin="round"/>
<path d="M36.1309 37.342L33.6693 34.8687" stroke="#58BD7D" stroke-width="2" stroke-miterlimit="10" stroke-linecap="round" stroke-linejoin="round"/>
<path d="M36.1061 34.9038L33.6328 37.3655" stroke="#58BD7D" stroke-width="2" stroke-miterlimit="10" stroke-linecap="round" stroke-linejoin="round"/>
<path d="M20.8815 33.7021H25.5482" stroke="#58BD7D" stroke-width="2" stroke-miterlimit="10" stroke-linecap="round" stroke-linejoin="round"/>
</svg>
