<svg width="56" height="56" viewBox="0 0 56 56" fill="none" xmlns="http://www.w3.org/2000/svg">
<path d="M47.8333 26.3679V16.428C47.8333 7.02465 45.64 4.66797 36.82 4.66797H19.18C10.36 4.66797 8.16663 7.02465 8.16663 16.428V42.7013C8.16663 48.9079 11.5733 50.378 15.7033 45.9446L15.7266 45.9213C17.6399 43.8913 20.5566 44.0546 22.2133 46.2713L24.57 49.4213" stroke="#1E6FD9" stroke-width="2.7" stroke-linecap="round" stroke-linejoin="round"/>
<path d="M18.6666 16.332H37.3333" stroke="#1E6FD9" stroke-width="2.7" stroke-linecap="round" stroke-linejoin="round"/>
<path d="M21 25.668H35" stroke="#1E6FD9" stroke-width="2.7" stroke-linecap="round" stroke-linejoin="round"/>
<path d="M51.3333 43.1654C51.3333 44.9154 50.8433 46.572 49.98 47.972C49.49 48.812 48.86 49.5587 48.1366 50.1654C46.5033 51.6354 44.3566 52.4987 42 52.4987C38.5933 52.4987 35.63 50.6787 34.02 47.972C33.1566 46.572 32.6666 44.9154 32.6666 43.1654C32.6666 40.2254 34.02 37.5887 36.1666 35.8854C37.7766 34.602 39.8066 33.832 42 33.832C47.1566 33.832 51.3333 38.0087 51.3333 43.1654Z" stroke="#1E6FD9" stroke-width="2.7" stroke-miterlimit="10" stroke-linecap="round" stroke-linejoin="round"/>
<path d="M44.4966 45.5913L39.5499 40.668" stroke="#1E6FD9" stroke-width="2.7" stroke-miterlimit="10" stroke-linecap="round" stroke-linejoin="round"/>
<path d="M44.45 40.7383L39.5033 45.6616" stroke="#1E6FD9" stroke-width="2.7" stroke-miterlimit="10" stroke-linecap="round" stroke-linejoin="round"/>
</svg>
