<svg width="27" height="27" viewBox="0 0 27 27" fill="none" xmlns="http://www.w3.org/2000/svg">
<path d="M18.3751 21.3107C13.8717 23.9107 8.10211 22.3575 5.50711 17.8628C4.57211 16.2433 4.14342 14.4008 4.26409 12.5298C4.29328 12.1204 4.65031 11.7988 5.05976 11.8279C5.4692 11.8571 5.79081 12.2142 5.76162 12.6236C5.65818 14.1844 6.02481 15.7395 6.80981 17.0991C8.99481 20.8836 13.8442 22.183 17.6287 19.998C21.4133 17.813 22.7126 12.9636 20.5276 9.17912C18.3426 5.39459 13.4846 4.1002 9.70007 6.2852C8.90333 6.7452 8.1889 7.30778 7.58278 7.95795C7.29637 8.26187 6.82264 8.28135 6.51872 7.99494C6.21479 7.70853 6.19532 7.23479 6.48173 6.93087C7.19776 6.17106 8.01842 5.5125 8.94507 4.9775C13.4484 2.3775 19.218 3.93079 21.813 8.42546C24.408 12.9201 22.8784 18.7107 18.3751 21.3107Z" fill="#1E6FD9"/>
<path d="M6.45783 8.92888C6.31061 9.01388 6.12472 9.05192 5.94348 9.018C5.52635 8.93551 5.26537 8.54348 5.3442 8.14001L6.18701 3.81981C6.26584 3.41634 6.66153 3.1417 7.07 3.22918C7.47347 3.30801 7.73945 3.7087 7.66062 4.11217L6.81281 8.42372C6.7679 8.64594 6.63104 8.82888 6.45783 8.92888Z" fill="#1E6FD9"/>
<path d="M10.6076 9.37565C10.4777 9.45065 10.3142 9.48735 10.1566 9.47441L5.99441 9.02532C5.58862 8.98248 5.293 8.61045 5.33585 8.20466C5.37369 7.79021 5.74572 7.49459 6.16017 7.53243L10.3087 7.97786C10.7145 8.0207 11.0187 8.38773 10.9722 8.80718C10.956 9.05905 10.8068 9.26065 10.6076 9.37565Z" fill="#1E6FD9"/>
</svg>
