<svg width="25" height="24" viewBox="0 0 25 24" fill="none" xmlns="http://www.w3.org/2000/svg">
<path d="M12.5 5.56006H22.5" stroke="white" stroke-width="1.5" stroke-miterlimit="10" stroke-linecap="round" stroke-linejoin="round"/>
<path d="M14.72 2H20.28C22.06 2 22.5 2.44 22.5 4.2V8.31C22.5 10.07 22.06 10.51 20.28 10.51H14.72C12.94 10.51 12.5 10.07 12.5 8.31V4.2C12.5 2.44 12.94 2 14.72 2Z" stroke="white" stroke-width="1.5" stroke-linecap="round" stroke-linejoin="round"/>
<path d="M2.5 17.0601H12.5" stroke="white" stroke-width="1.5" stroke-miterlimit="10" stroke-linecap="round" stroke-linejoin="round"/>
<path d="M4.72 13.5H10.28C12.06 13.5 12.5 13.94 12.5 15.7V19.81C12.5 21.57 12.06 22.01 10.28 22.01H4.72C2.94 22.01 2.5 21.57 2.5 19.81V15.7C2.5 13.94 2.94 13.5 4.72 13.5Z" stroke="white" stroke-width="1.5" stroke-linecap="round" stroke-linejoin="round"/>
<path d="M22.5 15C22.5 18.87 19.37 22 15.5 22L16.55 20.25" stroke="white" stroke-width="1.5" stroke-linecap="round" stroke-linejoin="round"/>
<path d="M2.5 9C2.5 5.13 5.63 2 9.5 2L8.45001 3.75" stroke="white" stroke-width="1.5" stroke-linecap="round" stroke-linejoin="round"/>
</svg>
