<svg width="22" height="22" viewBox="0 0 22 22" fill="none" xmlns="http://www.w3.org/2000/svg">
<path d="M17.4852 8.67773C17.4852 8.67773 16.9875 14.8515 16.6987 17.4521C16.5612 18.6942 15.794 19.422 14.5372 19.4449C12.1456 19.488 9.75131 19.4907 7.36064 19.4403C6.15156 19.4156 5.39714 18.6786 5.26239 17.4585C4.97181 14.835 4.47681 8.67773 4.47681 8.67773" stroke="#20232C" stroke-width="1.5" stroke-linecap="round" stroke-linejoin="round"/>
<path d="M18.7532 5.71908H3.20837" stroke="#20232C" stroke-width="1.5" stroke-linecap="round" stroke-linejoin="round"/>
<path d="M15.7579 5.71876C15.0383 5.71876 14.4187 5.21001 14.2775 4.50509L14.0547 3.39042C13.9172 2.87617 13.4516 2.52051 12.9208 2.52051H9.04057C8.50982 2.52051 8.04416 2.87617 7.90666 3.39042L7.68391 4.50509C7.54274 5.21001 6.92307 5.71876 6.20349 5.71876" stroke="#20232C" stroke-width="1.5" stroke-linecap="round" stroke-linejoin="round"/>
</svg>
