<svg width="22" height="22" viewBox="0 0 22 22" fill="none" xmlns="http://www.w3.org/2000/svg">
<path d="M11 8.25V12.375" stroke="#DE3030" stroke-width="1.7" stroke-linecap="round" stroke-linejoin="round"/>
<path d="M9.81184 3.43619L2.25138 16.498C2.1304 16.707 2.06661 16.9442 2.06641 17.1857C2.06621 17.4272 2.12961 17.6645 2.25024 17.8737C2.37087 18.0829 2.54448 18.2566 2.75358 18.3774C2.96269 18.4982 3.19992 18.5618 3.44141 18.5618H18.5623C18.8038 18.5618 19.0411 18.4982 19.2502 18.3774C19.4593 18.2566 19.6329 18.0829 19.7535 17.8737C19.8741 17.6645 19.9375 17.4272 19.9373 17.1857C19.9371 16.9442 19.8733 16.707 19.7524 16.498L12.1919 3.43619C12.0711 3.22752 11.8976 3.05427 11.6887 2.93384C11.4798 2.8134 11.243 2.75 11.0019 2.75C10.7608 2.75 10.5239 2.8134 10.315 2.93384C10.1062 3.05427 9.93262 3.22752 9.81184 3.43619V3.43619Z" stroke="#DE3030" stroke-width="1.7" stroke-linecap="round" stroke-linejoin="round"/>
<path d="M11 16.5C11.5695 16.5 12.0312 16.0383 12.0312 15.4688C12.0312 14.8992 11.5695 14.4375 11 14.4375C10.4305 14.4375 9.96875 14.8992 9.96875 15.4688C9.96875 16.0383 10.4305 16.5 11 16.5Z" fill="#DE3030"/>
</svg>
