<svg width="24" height="24" viewBox="0 0 24 24" fill="none" xmlns="http://www.w3.org/2000/svg">
<circle cx="12" cy="12" r="11.5" fill="#22263B" stroke="#2B3048"/>
<path d="M8.54341 11.7784C8.57117 11.7068 8.6128 11.6414 8.66591 11.5859L10.9992 9.25261C11.0536 9.19822 11.1182 9.15508 11.1893 9.12564C11.2603 9.0962 11.3365 9.08105 11.4134 9.08105C11.5688 9.08105 11.7177 9.14276 11.8276 9.25261C11.9374 9.36245 11.9991 9.51143 11.9991 9.66677C11.9991 9.82212 11.9374 9.9711 11.8276 10.0809L10.4859 11.4168H17.2467C17.4015 11.4168 17.5498 11.4782 17.6592 11.5876C17.7686 11.697 17.8301 11.8454 17.8301 12.0001C17.8301 12.1548 17.7686 12.3032 17.6592 12.4126C17.5498 12.522 17.4015 12.5834 17.2467 12.5834H10.4859L11.8276 13.9193C11.8823 13.9735 11.9256 14.038 11.9553 14.1091C11.9849 14.1802 12.0001 14.2564 12.0001 14.3334C12.0001 14.4104 11.9849 14.4867 11.9553 14.5578C11.9256 14.6289 11.8823 14.6934 11.8276 14.7476C11.7733 14.8023 11.7088 14.8457 11.6377 14.8753C11.5667 14.9049 11.4904 14.9202 11.4134 14.9202C11.3364 14.9202 11.2602 14.9049 11.1891 14.8753C11.118 14.8457 11.0535 14.8023 10.9992 14.7476L8.66591 12.4143C8.6128 12.3588 8.57117 12.2934 8.54341 12.2218C8.48507 12.0798 8.48507 11.9205 8.54341 11.7784Z" fill="#6C708A"/>
<mask id="path-3-inside-1_2623_34356" fill="white">
<path d="M6.74935 7.33301C6.59464 7.33301 6.44627 7.39447 6.33687 7.50386C6.22747 7.61326 6.16602 7.76163 6.16602 7.91634V16.083C6.16602 16.2377 6.22747 16.3861 6.33687 16.4955C6.44627 16.6049 6.59464 16.6663 6.74935 16.6663C6.90406 16.6663 7.05243 16.6049 7.16183 16.4955C7.27122 16.3861 7.33268 16.2377 7.33268 16.083V7.91634C7.33268 7.76163 7.27122 7.61326 7.16183 7.50386C7.05243 7.39447 6.90406 7.33301 6.74935 7.33301Z"/>
</mask>
<path d="M6.74935 7.33301C6.59464 7.33301 6.44627 7.39447 6.33687 7.50386C6.22747 7.61326 6.16602 7.76163 6.16602 7.91634V16.083C6.16602 16.2377 6.22747 16.3861 6.33687 16.4955C6.44627 16.6049 6.59464 16.6663 6.74935 16.6663C6.90406 16.6663 7.05243 16.6049 7.16183 16.4955C7.27122 16.3861 7.33268 16.2377 7.33268 16.083V7.91634C7.33268 7.76163 7.27122 7.61326 7.16183 7.50386C7.05243 7.39447 6.90406 7.33301 6.74935 7.33301Z" fill="#6C708A"/>
<path d="M6.74935 7.33301V6.13301V7.33301ZM6.16602 7.91634H4.96602H6.16602ZM6.16602 16.083H4.96602H6.16602ZM7.33268 16.083H8.53268H7.33268ZM7.33268 7.91634H8.53268H7.33268ZM6.74935 6.13301C6.27638 6.13301 5.82278 6.32089 5.48834 6.65533L7.1854 8.35239C7.06975 8.46804 6.9129 8.53301 6.74935 8.53301V6.13301ZM5.48834 6.65533C5.1539 6.98977 4.96602 7.44337 4.96602 7.91634H7.36602C7.36602 8.07989 7.30105 8.23674 7.1854 8.35239L5.48834 6.65533ZM4.96602 7.91634V16.083H7.36602V7.91634H4.96602ZM4.96602 16.083C4.96602 16.556 5.1539 17.0096 5.48834 17.344L7.1854 15.647C7.30105 15.7626 7.36602 15.9195 7.36602 16.083H4.96602ZM5.48834 17.344C5.82278 17.6785 6.27638 17.8663 6.74935 17.8663V15.4663C6.9129 15.4663 7.06975 15.5313 7.1854 15.647L5.48834 17.344ZM6.74935 17.8663C7.22232 17.8663 7.67591 17.6785 8.01036 17.344L6.3133 15.647C6.42895 15.5313 6.5858 15.4663 6.74935 15.4663V17.8663ZM8.01036 17.344C8.3448 17.0096 8.53268 16.556 8.53268 16.083H6.13268C6.13268 15.9195 6.19765 15.7626 6.3133 15.647L8.01036 17.344ZM8.53268 16.083V7.91634H6.13268V16.083H8.53268ZM8.53268 7.91634C8.53268 7.44337 8.3448 6.98977 8.01036 6.65533L6.3133 8.35239C6.19765 8.23674 6.13268 8.07989 6.13268 7.91634H8.53268ZM8.01036 6.65533C7.67592 6.32089 7.22232 6.13301 6.74935 6.13301V8.53301C6.5858 8.53301 6.42895 8.46804 6.3133 8.35239L8.01036 6.65533Z" fill="#6C708A" mask="url(#path-3-inside-1_2623_34356)"/>
</svg>
