<svg width="24" height="24" viewBox="0 0 24 24" fill="none" xmlns="http://www.w3.org/2000/svg">
<circle cx="12" cy="12" r="11.5" fill="#22263B" stroke="#2B3048"/>
<path d="M15.3302 11.5855L12.9968 9.25217C12.9425 9.19779 12.8779 9.15464 12.8068 9.12521C12.7358 9.09577 12.6596 9.08062 12.5827 9.08062C12.5058 9.08062 12.4296 9.09577 12.3585 9.12521C12.2875 9.15464 12.2229 9.19779 12.1685 9.25217C12.1141 9.30656 12.071 9.37113 12.0415 9.4422C12.0121 9.51326 11.997 9.58942 11.997 9.66634C11.997 9.74326 12.0121 9.81942 12.0415 9.89049C12.071 9.96155 12.1141 10.0261 12.1685 10.0805L13.5102 11.4163H6.74935C6.59464 11.4163 6.44627 11.4778 6.33687 11.5872C6.22747 11.6966 6.16602 11.845 6.16602 11.9997C6.16602 12.1544 6.22747 12.3028 6.33687 12.4122C6.44627 12.5215 6.59464 12.583 6.74935 12.583H13.5102L12.1685 13.9188C12.1138 13.9731 12.0704 14.0376 12.0408 14.1087C12.0112 14.1798 11.996 14.256 11.996 14.333C11.996 14.41 12.0112 14.4863 12.0408 14.5573C12.0704 14.6284 12.1138 14.6929 12.1685 14.7472C12.2227 14.8018 12.2873 14.8452 12.3583 14.8749C12.4294 14.9045 12.5057 14.9197 12.5827 14.9197C12.6597 14.9197 12.7359 14.9045 12.807 14.8749C12.8781 14.8452 12.9426 14.8018 12.9968 14.7472L15.3302 12.4138C15.3833 12.3584 15.4249 12.2929 15.4527 12.2213C15.511 12.0793 15.511 11.92 15.4527 11.778C15.4249 11.7064 15.3833 11.641 15.3302 11.5855ZM17.2493 7.33301C17.0946 7.33301 16.9463 7.39447 16.8369 7.50386C16.7275 7.61326 16.666 7.76163 16.666 7.91634V16.083C16.666 16.2377 16.7275 16.3861 16.8369 16.4955C16.9463 16.6049 17.0946 16.6663 17.2493 16.6663C17.4041 16.6663 17.5524 16.6049 17.6618 16.4955C17.7712 16.3861 17.8327 16.2377 17.8327 16.083V7.91634C17.8327 7.76163 17.7712 7.61326 17.6618 7.50386C17.5524 7.39447 17.4041 7.33301 17.2493 7.33301Z" fill="#6C708A"/>
</svg>
