<svg xmlns="http://www.w3.org/2000/svg" width="14" height="14" viewBox="0 0 14 14" fill="none">
  <path d="M10.4562 6.77844C10.4284 6.70684 10.3868 6.64142 10.3337 6.58594L8.00034 4.25261C7.94595 4.19822 7.88138 4.15508 7.81032 4.12564C7.73926 4.0962 7.66309 4.08105 7.58618 4.08105C7.43083 4.08105 7.28185 4.14276 7.17201 4.25261C7.06217 4.36245 7.00046 4.51143 7.00046 4.66677C7.00046 4.82212 7.06217 4.9711 7.17201 5.08094L8.51368 6.41677H1.75284C1.59813 6.41677 1.44976 6.47823 1.34036 6.58763C1.23097 6.69703 1.16951 6.8454 1.16951 7.00011C1.16951 7.15482 1.23097 7.30319 1.34036 7.41259C1.44976 7.52198 1.59813 7.58344 1.75284 7.58344H8.51368L7.17201 8.91927C7.11734 8.9735 7.07394 9.03802 7.04432 9.1091C7.01471 9.18019 6.99946 9.25643 6.99946 9.33344C6.99946 9.41045 7.01471 9.48669 7.04432 9.55778C7.07394 9.62886 7.11734 9.69338 7.17201 9.74761C7.22624 9.80228 7.29076 9.84568 7.36184 9.87529C7.43293 9.90491 7.50917 9.92016 7.58618 9.92016C7.66318 9.92016 7.73943 9.90491 7.81051 9.87529C7.8816 9.84568 7.94611 9.80228 8.00034 9.74761L10.3337 7.41427C10.3868 7.3588 10.4284 7.29338 10.4562 7.22177C10.5145 7.07976 10.5145 6.92046 10.4562 6.77844Z" fill="#6C708A"/>
  <mask id="path-2-inside-1_7711_119923" fill="white">
    <path d="M12.25 2.33301C12.4047 2.33301 12.5531 2.39447 12.6625 2.50386C12.7719 2.61326 12.8333 2.76163 12.8333 2.91634V11.083C12.8333 11.2377 12.7719 11.3861 12.6625 11.4955C12.5531 11.6049 12.4047 11.6663 12.25 11.6663C12.0953 11.6663 11.9469 11.6049 11.8375 11.4955C11.7281 11.3861 11.6667 11.2377 11.6667 11.083V2.91634C11.6667 2.76163 11.7281 2.61326 11.8375 2.50386C11.9469 2.39447 12.0953 2.33301 12.25 2.33301Z"/>
  </mask>
  <path d="M12.25 2.33301C12.4047 2.33301 12.5531 2.39447 12.6625 2.50386C12.7719 2.61326 12.8333 2.76163 12.8333 2.91634V11.083C12.8333 11.2377 12.7719 11.3861 12.6625 11.4955C12.5531 11.6049 12.4047 11.6663 12.25 11.6663C12.0953 11.6663 11.9469 11.6049 11.8375 11.4955C11.7281 11.3861 11.6667 11.2377 11.6667 11.083V2.91634C11.6667 2.76163 11.7281 2.61326 11.8375 2.50386C11.9469 2.39447 12.0953 2.33301 12.25 2.33301Z" fill="#6C708A"/>
  <path d="M12.25 2.33301V1.13301V2.33301ZM12.8333 2.91634H14.0333H12.8333ZM12.8333 11.083H14.0333H12.8333ZM11.6667 11.083H10.4667H11.6667ZM11.6667 2.91634H10.4667H11.6667ZM12.25 1.13301C12.723 1.13301 13.1766 1.32089 13.511 1.65533L11.814 3.35239C11.9296 3.46804 12.0865 3.53301 12.25 3.53301V1.13301ZM13.511 1.65533C13.8454 1.98977 14.0333 2.44337 14.0333 2.91634H11.6333C11.6333 3.07989 11.6983 3.23674 11.814 3.35239L13.511 1.65533ZM14.0333 2.91634V11.083H11.6333V2.91634H14.0333ZM14.0333 11.083C14.0333 11.556 13.8455 12.0096 13.511 12.344L11.814 10.647C11.6983 10.7626 11.6333 10.9195 11.6333 11.083H14.0333ZM13.511 12.344C13.1766 12.6785 12.723 12.8663 12.25 12.8663V10.4663C12.0865 10.4663 11.9296 10.5313 11.814 10.647L13.511 12.344ZM12.25 12.8663C11.777 12.8663 11.3234 12.6785 10.989 12.344L12.6861 10.647C12.5704 10.5313 12.4136 10.4663 12.25 10.4663V12.8663ZM10.989 12.344C10.6546 12.0096 10.4667 11.556 10.4667 11.083H12.8667C12.8667 10.9195 12.8017 10.7626 12.6861 10.647L10.989 12.344ZM10.4667 11.083V2.91634H12.8667V11.083H10.4667ZM10.4667 2.91634C10.4667 2.44337 10.6546 1.98977 10.989 1.65533L12.6861 3.35239C12.8017 3.23674 12.8667 3.07989 12.8667 2.91634H10.4667ZM10.989 1.65533C11.3234 1.32089 11.777 1.13301 12.25 1.13301V3.53301C12.4136 3.53301 12.5704 3.46804 12.6861 3.35239L10.989 1.65533Z" fill="#6C708A" mask="url(#path-2-inside-1_7711_119923)"/>
</svg>