<svg id="chat-user-icon" xmlns="http://www.w3.org/2000/svg" width="18" height="18" viewBox="0 0 18 18" fill="none">
  <path d="M6.75 1.5C4.785 1.5 3.1875 3.0975 3.1875 5.0625C3.1875 6.99 4.695 8.55 6.66 8.6175C6.72 8.61 6.78 8.61 6.825 8.6175C6.84 8.6175 6.8475 8.6175 6.8625 8.6175C6.87 8.6175 6.87 8.6175 6.8775 8.6175C8.7975 8.55 10.305 6.99 10.3125 5.0625C10.3125 3.0975 8.715 1.5 6.75 1.5Z" fill="#6C708A"/>
  <path d="M10.5602 10.6127C8.46771 9.21766 5.05521 9.21766 2.94771 10.6127C1.99521 11.2502 1.47021 12.1127 1.47021 13.0352C1.47021 13.9577 1.99521 14.8127 2.94021 15.4427C3.99021 16.1477 5.37021 16.5002 6.75021 16.5002C8.13021 16.5002 9.51021 16.1477 10.5602 15.4427C11.5052 14.8052 12.0302 13.9502 12.0302 13.0202C12.0227 12.0977 11.5052 11.2427 10.5602 10.6127Z" fill="#6C708A"/>
  <path d="M14.9925 5.50459C15.1125 6.95959 14.0775 8.23459 12.645 8.40709C12.6375 8.40709 12.6375 8.40709 12.63 8.40709H12.6075C12.5625 8.40709 12.5175 8.40709 12.48 8.42209C11.7525 8.45959 11.085 8.22709 10.5825 7.79959C11.355 7.10959 11.7975 6.07459 11.7075 4.94959C11.655 4.34209 11.445 3.78709 11.13 3.31459C11.415 3.17209 11.745 3.08209 12.0825 3.05209C13.5525 2.92459 14.865 4.01959 14.9925 5.50459Z" fill="#6C708A"/>
  <path d="M16.4927 12.4428C16.4327 13.1703 15.9677 13.8003 15.1877 14.2278C14.4377 14.6403 13.4927 14.8353 12.5552 14.8128C13.0952 14.3253 13.4102 13.7178 13.4702 13.0728C13.5452 12.1428 13.1027 11.2503 12.2177 10.5378C11.7152 10.1403 11.1302 9.8253 10.4927 9.5928C12.1502 9.1128 14.2352 9.4353 15.5177 10.4703C16.2077 11.0253 16.5602 11.7228 16.4927 12.4428Z" fill="#6C708A"/>
</svg>