<svg width="20" height="20" viewBox="0 0 20 20" fill="none" xmlns="http://www.w3.org/2000/svg" color="#6C708A">
<path d="M9.375 15.2091H7.5C6.58333 15.2091 5.83333 15.9591 5.83333 16.8758V17.0841H5C4.65833 17.0841 4.375 17.3674 4.375 17.7091C4.375 18.0508 4.65833 18.3341 5 18.3341H15C15.3417 18.3341 15.625 18.0508 15.625 17.7091C15.625 17.3674 15.3417 17.0841 15 17.0841H14.1667V16.8758C14.1667 15.9591 13.4167 15.2091 12.5 15.2091H10.625V13.3008C10.4167 13.3258 10.2083 13.3341 10 13.3341C9.79167 13.3341 9.58333 13.3258 9.375 13.3008V15.2091Z" fill="currentColor"/>
<path d="M15.3984 9.69935C15.9484 9.49102 16.4318 9.14935 16.8151 8.76602C17.5901 7.90768 18.0984 6.88268 18.0984 5.68268C18.0984 4.48268 17.1568 3.54102 15.9568 3.54102H15.4901C14.9484 2.43268 13.8151 1.66602 12.4984 1.66602H7.49844C6.18177 1.66602 5.04844 2.43268 4.50677 3.54102H4.0401C2.8401 3.54102 1.89844 4.48268 1.89844 5.68268C1.89844 6.88268 2.40677 7.90768 3.18177 8.76602C3.5651 9.14935 4.04844 9.49102 4.59844 9.69935C5.4651 11.8327 7.54844 13.3327 9.99844 13.3327C12.4484 13.3327 14.5318 11.8327 15.3984 9.69935ZM12.3651 7.04102L11.8484 7.67435C11.7651 7.76602 11.7068 7.94935 11.7151 8.07435L11.7651 8.89102C11.7984 9.39102 11.4401 9.64935 10.9734 9.46602L10.2151 9.16602C10.0984 9.12435 9.89844 9.12435 9.78177 9.16602L9.02344 9.46602C8.55677 9.64935 8.19844 9.39102 8.23177 8.89102L8.28177 8.07435C8.2901 7.94935 8.23177 7.76602 8.14844 7.67435L7.63177 7.04102C7.30677 6.65768 7.44844 6.23268 7.93177 6.10768L8.72344 5.90768C8.84844 5.87435 8.99844 5.75768 9.0651 5.64935L9.50677 4.96602C9.78177 4.54102 10.2151 4.54102 10.4901 4.96602L10.9318 5.64935C10.9984 5.75768 11.1484 5.87435 11.2734 5.90768L12.0651 6.10768C12.5484 6.23268 12.6901 6.65768 12.3651 7.04102Z" fill="currentColor"/>
</svg>
