<svg width="20" height="20" viewBox="0 0 20 20" fill="none" xmlns="http://www.w3.org/2000/svg">
<path d="M13.9993 7.5H10.6243V12.7083C10.6243 13.05 10.341 13.3333 9.99935 13.3333C9.65768 13.3333 9.37435 13.05 9.37435 12.7083V7.5H5.99935C3.33268 7.5 1.66602 9.16667 1.66602 11.8333V13.9917C1.66602 16.6667 3.33268 18.3333 5.99935 18.3333H13.991C16.6577 18.3333 18.3244 16.6667 18.3244 14V11.8333C18.3327 9.16667 16.666 7.5 13.9993 7.5Z" fill="current"/>
<path d="M10.6255 3.79922L12.3505 5.52422C12.4755 5.64922 12.6339 5.70755 12.7922 5.70755C12.9505 5.70755 13.1089 5.64922 13.2339 5.52422C13.4755 5.28255 13.4755 4.88255 13.2339 4.64089L10.4422 1.84922C10.2005 1.60755 9.80052 1.60755 9.55885 1.84922L6.76719 4.64089C6.52552 4.88255 6.52552 5.28255 6.76719 5.52422C7.00885 5.76589 7.40885 5.76589 7.65052 5.52422L9.37552 3.79922V7.49922H10.6255V3.79922Z" fill="current"/>
</svg>
