<svg width="20" height="20" viewBox="0 0 20 20" fill="none" xmlns="http://www.w3.org/2000/svg">
<path d="M13.1493 1.66602H6.84935C3.69935 1.66602 2.91602 2.50768 2.91602 5.86602V15.2493C2.91602 17.466 4.13268 17.991 5.60768 16.4077L5.61602 16.3994C6.29935 15.6743 7.34102 15.7327 7.93268 16.5243L8.77435 17.6494C9.44935 18.541 10.541 18.541 11.216 17.6494L12.0577 16.5243C12.6577 15.7243 13.6993 15.666 14.3827 16.3994C15.866 17.9827 17.0743 17.4577 17.0743 15.241V5.86602C17.0827 2.50768 16.2993 1.66602 13.1493 1.66602ZM12.4993 9.79102H7.49935C7.15768 9.79102 6.87435 9.50768 6.87435 9.16602C6.87435 8.82435 7.15768 8.54102 7.49935 8.54102H12.4993C12.841 8.54102 13.1243 8.82435 13.1243 9.16602C13.1243 9.50768 12.841 9.79102 12.4993 9.79102ZM13.3327 6.45768H6.66602C6.32435 6.45768 6.04102 6.17435 6.04102 5.83268C6.04102 5.49102 6.32435 5.20768 6.66602 5.20768H13.3327C13.6743 5.20768 13.9577 5.49102 13.9577 5.83268C13.9577 6.17435 13.6743 6.45768 13.3327 6.45768Z" fill="current"/>
</svg>
