<svg width="56" height="60" viewBox="0 0 56 60" fill="none" xmlns="http://www.w3.org/2000/svg">
<g clip-path="url(#clip0_5179_254869)">
<path d="M49.174 12.2891C59.3394 24.9222 56.375 41.2813 46.1179 51.8858C41.4679 56.6967 35.1113 60.0068 28.092 60.0068C25.3696 60.0005 22.6699 59.5056 20.119 58.5451C17.4618 57.5494 15.9 57.3756 13.497 55.8164C11.0538 54.2311 7.92854 51.5934 6.32813 49.0597C5.40932 47.603 4.6382 46.0565 4.02644 44.4436C2.8492 41.2879 2.24969 37.9423 2.25715 34.5701C2.24267 27.6331 4.49933 20.9527 8.07812 15.3881C9.33972 13.4218 10.7906 11.5862 12.4097 9.90804C18.5829 3.52002 24.8044 -0.733793 32.7195 1.12106C37.9454 2.33921 45.1303 7.26707 49.174 12.2891Z" fill="url(#paint0_radial_5179_254869)"/>
<path d="M48.6239 21.553C51.1668 38.0387 41.6641 51.4271 28.9011 55.9863C16.138 60.5454 3.49243 53.6117 0.949471 37.1259C-1.59349 20.6402 7.74516 5.79975 20.5082 1.23409C33.2712 -3.33157 46.0809 5.0656 48.6239 21.553Z" fill="url(#paint1_radial_5179_254869)"/>
<path d="M25.6581 48.8536C20.0317 50.8384 14.5228 50.2666 10.5258 47.2651C7.23328 44.7947 5.17447 40.9095 4.41367 35.7186C2.36612 21.903 11.3686 10.7203 20.8745 7.21853L21.1335 7.12432C26.3207 5.29059 31.6093 5.98737 35.6546 9.01815C39.3411 11.7793 41.7232 16.1907 42.5468 21.7666C44.5557 35.3612 35.3634 45.2787 25.9797 48.7382L25.6581 48.8536Z" fill="url(#paint2_linear_5179_254869)"/>
<path d="M26.4621 48.619C21.1736 50.5112 16.0072 49.9476 12.2724 47.0727C9.2807 44.7664 7.38112 41.1233 6.62837 36.2441C4.56152 22.8379 13.0493 12.0206 22.0823 8.65689L22.3413 8.56106C27.1827 6.82315 32.1271 7.50857 35.915 10.424C39.3169 13.0471 41.5446 17.2262 42.3617 22.5147C44.3835 35.6253 35.7011 45.1773 26.779 48.502L26.4621 48.619Z" fill="url(#paint3_radial_5179_254869)"/>
<path d="M28.3575 13.135L27.3136 12.4463L26.6831 16.9762L27.727 17.6633L28.3575 13.135Z" fill="url(#paint4_linear_5179_254869)"/>
<path d="M20.1283 24.173C20.1589 25.4464 21.0934 25.9158 22.0263 26.5346C21.8991 26.4533 21.7828 26.3555 21.6805 26.2439C20.7846 25.2531 21.1658 23.447 21.8413 22.4481C22.5748 21.3534 23.8294 20.6615 25.0824 20.3724L25.2722 20.3301L25.3992 20.3058C24.9698 20.0232 24.595 19.6366 24.098 19.6756C23.0605 19.7584 21.8912 20.4276 21.2028 21.204C20.4925 22.0249 20.1096 23.0831 20.1283 24.173Z" fill="url(#paint5_linear_5179_254869)"/>
<path d="M21.9727 29.7948C22.2526 29.8517 22.5936 29.9118 23.0005 29.9573L23.5651 30.0303L24.0347 30.0937L22.9892 29.405C22.7094 29.3693 22.3635 29.3206 21.955 29.2702C21.5465 29.2199 21.2087 29.1581 20.9288 29.1078C19.8297 28.9248 18.9579 28.62 18.3135 28.1934L19.3574 28.882C20.004 29.3065 20.8757 29.6108 21.9727 29.7948Z" fill="url(#paint6_linear_5179_254869)"/>
<path d="M32.5946 17.6172L32.133 20.9322L31.8724 20.9614C31.0863 20.4903 30.2506 20.1089 29.3809 19.8245C28.4006 19.5095 27.3739 19.3672 26.3458 19.4038L25.3469 26.6088L26.3924 27.2975L27.3897 20.0925C28.4177 20.0553 29.4444 20.1971 30.4248 20.5115C31.2941 20.797 32.1296 21.1783 32.9163 21.6485L33.1768 21.6209L33.6401 18.3042L32.5946 17.6172Z" fill="url(#paint7_linear_5179_254869)"/>
<path d="M22.6902 39.8179L21.6447 39.1292C20.3976 39.246 19.1419 39.2351 17.897 39.0968C16.8086 38.9923 15.7385 38.7444 14.7139 38.3594L15.7577 39.0464C16.7821 39.4334 17.8523 39.6835 18.9409 39.7903C19.8727 39.894 20.811 39.9255 21.7476 39.8845C22.0618 39.8683 22.376 39.8461 22.6902 39.8179Z" fill="url(#paint8_linear_5179_254869)"/>
<path d="M23.9907 36.4161L25.0346 37.1032L25.9997 30.145C27.0741 30.2571 27.8671 30.4699 28.3818 30.8175L27.3379 30.1288C26.8232 29.791 26.0292 29.5674 24.9558 29.458L23.9907 36.4161Z" fill="url(#paint9_linear_5179_254869)"/>
<path d="M32.5074 30.8985C32.2645 29.4205 31.1242 28.5856 29.9725 27.8125C31.0341 28.3842 31.5134 29.6982 31.5166 30.9131C31.5166 32.7891 30.6014 34.5903 29.2728 35.9011C27.8043 37.3515 25.8388 38.3374 23.8508 38.8052C23.7816 38.8214 23.7156 38.8409 23.6465 38.8555L22.8037 44.9236L20.8108 45.1233L21.8547 45.8104L23.8491 45.6122L24.6904 39.5442C26.6655 39.1203 28.6439 38.1652 30.1334 36.7733C31.552 35.4463 32.546 33.5849 32.5605 31.6326C32.5645 31.3868 32.5467 31.1411 32.5074 30.8985Z" fill="url(#paint10_linear_5179_254869)"/>
<path d="M26.676 16.973C27.7569 16.9009 28.8422 16.933 29.917 17.0688C30.8236 17.163 31.719 17.3463 32.5903 17.6162L32.1287 20.9312L31.8681 20.9604C31.082 20.4892 30.2463 20.1079 29.3766 19.8235C28.3963 19.5085 27.3696 19.3661 26.3415 19.4028L25.3426 26.6078C25.7126 26.6517 26.0648 26.6939 26.3817 26.7426C26.6985 26.7913 26.98 26.8384 27.2181 26.8677C28.7525 27.0658 29.894 27.5623 30.6425 28.3571C31.3909 29.1519 31.659 30.2986 31.4467 31.7972C31.2161 33.4387 30.3637 34.914 28.8893 36.2231C27.3976 37.5477 25.587 38.4524 23.6393 38.8462L22.7964 44.9143L20.8036 45.1141L21.6351 39.1305C20.388 39.2473 19.1324 39.2364 17.8875 39.098C16.7991 38.9935 15.729 38.7456 14.7043 38.3606L15.1756 34.9741L15.441 34.9449C16.3247 35.5433 17.3042 35.9829 18.3362 36.2443C19.5271 36.5536 20.7551 36.6925 21.9842 36.6568L22.9879 29.4144C22.708 29.3787 22.3622 29.33 21.9536 29.2796C21.5451 29.2293 21.2073 29.1676 20.9274 29.1172C19.2418 28.8357 18.088 28.2683 17.4661 27.415C16.8441 26.5618 16.6259 25.4606 16.8114 24.1114C17.22 21.1456 19.8176 18.9139 22.441 17.8598C23.0813 17.6068 23.7422 17.4106 24.4162 17.2735L24.6799 17.2215L25.3137 12.6607L27.3081 12.4561L26.676 16.973ZM23.3819 26.5558L24.347 19.614L24.2215 19.6383C22.3268 20.033 20.4594 21.2625 20.1747 23.3269C20.0412 24.3193 20.1892 25.0648 20.6347 25.5504C21.0802 26.0361 21.9922 26.3788 23.3819 26.5607V26.5558ZM27.5639 30.3126C27.0814 29.866 26.1999 29.5834 24.9389 29.4534L23.9738 36.4116C25.1791 36.1571 26.1259 35.724 26.8144 35.1122C27.5028 34.4966 27.9258 33.6504 28.0738 32.5654C28.2298 31.5081 28.0577 30.7625 27.5687 30.3175L27.5639 30.3126Z" fill="url(#paint11_linear_5179_254869)"/>
</g>
<defs>
<radialGradient id="paint0_radial_5179_254869" cx="0" cy="0" r="1" gradientUnits="userSpaceOnUse" gradientTransform="translate(17.3353 25.7863) rotate(4.94779) scale(38.9787 39.3551)">
<stop offset="0.13" stop-color="#F6D246"/>
<stop offset="0.8" stop-color="#F6D246"/>
<stop offset="0.81" stop-color="#F2BE39"/>
<stop offset="0.83" stop-color="#EFAB2D"/>
<stop offset="0.84" stop-color="#E79A28"/>
<stop offset="0.86" stop-color="#E18E25"/>
<stop offset="0.88" stop-color="#DE8724"/>
<stop offset="0.93" stop-color="#DD8523"/>
<stop offset="1" stop-color="#EFAC2D"/>
</radialGradient>
<radialGradient id="paint1_radial_5179_254869" cx="0" cy="0" r="1" gradientUnits="userSpaceOnUse" gradientTransform="translate(23.5852 28.0255) scale(32.7464 33.0673)">
<stop offset="0.55" stop-color="#EFAC2D"/>
<stop offset="0.72" stop-color="#F8D54E"/>
<stop offset="0.97" stop-color="#FFFDA6"/>
</radialGradient>
<linearGradient id="paint2_linear_5179_254869" x1="7.77935" y1="13.2545" x2="35.9143" y2="42.202" gradientUnits="userSpaceOnUse">
<stop offset="0.13" stop-color="#DD8523"/>
<stop offset="0.26" stop-color="#E79A28"/>
<stop offset="0.39" stop-color="#EDA72C"/>
<stop offset="0.51" stop-color="#EFAC2D"/>
<stop offset="1" stop-color="#F8D54E"/>
</linearGradient>
<radialGradient id="paint3_radial_5179_254869" cx="0" cy="0" r="1" gradientUnits="userSpaceOnUse" gradientTransform="translate(24.1347 28.5795) rotate(-20.8225) scale(27.1635 28.4096)">
<stop stop-color="#F8D54E"/>
<stop offset="0.3" stop-color="#F7D04A"/>
<stop offset="0.66" stop-color="#F3C03D"/>
<stop offset="1" stop-color="#EFAC2D"/>
</radialGradient>
<linearGradient id="paint4_linear_5179_254869" x1="26.4693" y1="11.8692" x2="36.2463" y2="40.975" gradientUnits="userSpaceOnUse">
<stop stop-color="#F8D54E"/>
<stop offset="0.15" stop-color="#E7B235"/>
<stop offset="0.31" stop-color="#D8911E"/>
<stop offset="0.47" stop-color="#CD7A0D"/>
<stop offset="0.62" stop-color="#C66C03"/>
<stop offset="0.75" stop-color="#C46700"/>
<stop offset="1" stop-color="#DD8523"/>
</linearGradient>
<linearGradient id="paint5_linear_5179_254869" x1="20.0071" y1="14.0364" x2="29.7842" y2="43.1438" gradientUnits="userSpaceOnUse">
<stop stop-color="#F8D54E"/>
<stop offset="0.15" stop-color="#E7B235"/>
<stop offset="0.31" stop-color="#D8911E"/>
<stop offset="0.47" stop-color="#CD7A0D"/>
<stop offset="0.62" stop-color="#C66C03"/>
<stop offset="0.75" stop-color="#C46700"/>
<stop offset="1" stop-color="#DD8523"/>
</linearGradient>
<linearGradient id="paint6_linear_5179_254869" x1="16.5759" y1="15.1877" x2="26.3531" y2="44.2967" gradientUnits="userSpaceOnUse">
<stop stop-color="#F8D54E"/>
<stop offset="0.15" stop-color="#E7B235"/>
<stop offset="0.31" stop-color="#D8911E"/>
<stop offset="0.47" stop-color="#CD7A0D"/>
<stop offset="0.62" stop-color="#C66C03"/>
<stop offset="0.75" stop-color="#C46700"/>
<stop offset="1" stop-color="#DD8523"/>
</linearGradient>
<linearGradient id="paint7_linear_5179_254869" x1="26.0513" y1="12.0072" x2="35.8284" y2="41.1145" gradientUnits="userSpaceOnUse">
<stop stop-color="#F8D54E"/>
<stop offset="0.15" stop-color="#E7B235"/>
<stop offset="0.31" stop-color="#D8911E"/>
<stop offset="0.47" stop-color="#CD7A0D"/>
<stop offset="0.62" stop-color="#C66C03"/>
<stop offset="0.75" stop-color="#C46700"/>
<stop offset="1" stop-color="#DD8523"/>
</linearGradient>
<linearGradient id="paint8_linear_5179_254869" x1="11.4009" y1="16.9241" x2="21.1797" y2="46.033" gradientUnits="userSpaceOnUse">
<stop stop-color="#F8D54E"/>
<stop offset="0.15" stop-color="#E7B235"/>
<stop offset="0.31" stop-color="#D8911E"/>
<stop offset="0.47" stop-color="#CD7A0D"/>
<stop offset="0.62" stop-color="#C66C03"/>
<stop offset="0.75" stop-color="#C46700"/>
<stop offset="1" stop-color="#DD8523"/>
</linearGradient>
<linearGradient id="paint9_linear_5179_254869" x1="19.7614" y1="14.1203" x2="29.5384" y2="43.226" gradientUnits="userSpaceOnUse">
<stop stop-color="#F8D54E"/>
<stop offset="0.15" stop-color="#E7B235"/>
<stop offset="0.31" stop-color="#D8911E"/>
<stop offset="0.47" stop-color="#CD7A0D"/>
<stop offset="0.62" stop-color="#C66C03"/>
<stop offset="0.75" stop-color="#C46700"/>
<stop offset="1" stop-color="#DD8523"/>
</linearGradient>
<linearGradient id="paint10_linear_5179_254869" x1="18.9073" y1="14.4098" x2="28.6826" y2="43.5156" gradientUnits="userSpaceOnUse">
<stop stop-color="#F8D54E"/>
<stop offset="0.15" stop-color="#E7B235"/>
<stop offset="0.31" stop-color="#D8911E"/>
<stop offset="0.47" stop-color="#CD7A0D"/>
<stop offset="0.62" stop-color="#C66C03"/>
<stop offset="0.75" stop-color="#C46700"/>
<stop offset="1" stop-color="#DD8523"/>
</linearGradient>
<linearGradient id="paint11_linear_5179_254869" x1="20.227" y1="16.3154" x2="28.2485" y2="43.1428" gradientUnits="userSpaceOnUse">
<stop stop-color="#DD8523"/>
<stop offset="0.14" stop-color="#EFAC2D"/>
<stop offset="0.47" stop-color="#F8D54E"/>
<stop offset="0.97" stop-color="#FFFDA6"/>
</linearGradient>
<clipPath id="clip0_5179_254869">
<rect width="54.9398" height="60" fill="white" transform="translate(0.530273)"/>
</clipPath>
</defs>
</svg>
