<svg width="32" height="32" viewBox="0 0 32 32" fill="none" xmlns="http://www.w3.org/2000/svg">
<rect width="32" height="32" rx="8" fill="#1E6FD9"/>
<path d="M24.3333 8.70825H7.66663C7.32496 8.70825 7.04163 8.42492 7.04163 8.08325C7.04163 7.74159 7.32496 7.45825 7.66663 7.45825H24.3333C24.675 7.45825 24.9583 7.74159 24.9583 8.08325C24.9583 8.42492 24.675 8.70825 24.3333 8.70825Z" fill="white"/>
<path d="M9.05835 8.08325V18.0583C9.05835 18.8749 9.44168 19.6499 10.1 20.1416L14.4417 23.3916C15.3667 24.0833 16.6417 24.0833 17.5667 23.3916L21.9083 20.1416C22.5667 19.6499 22.95 18.8749 22.95 18.0583V8.08325H9.05835ZM19.3333 17.4583H12.6667C12.325 17.4583 12.0417 17.1749 12.0417 16.8333C12.0417 16.4916 12.325 16.2083 12.6667 16.2083H19.3333C19.675 16.2083 19.9583 16.4916 19.9583 16.8333C19.9583 17.1749 19.675 17.4583 19.3333 17.4583ZM19.3333 13.2916H12.6667C12.325 13.2916 12.0417 13.0083 12.0417 12.6666C12.0417 12.3249 12.325 12.0416 12.6667 12.0416H19.3333C19.675 12.0416 19.9583 12.3249 19.9583 12.6666C19.9583 13.0083 19.675 13.2916 19.3333 13.2916Z" fill="white"/>
</svg>
