<svg width="32" height="32" viewBox="0 0 32 32" fill="none" xmlns="http://www.w3.org/2000/svg">
<rect width="32" height="32" rx="8" fill="#1E6FD9"/>
<path d="M24.3333 10.8333C23.7069 11.105 23.0445 11.2846 22.3666 11.3666C23.0818 10.9394 23.6177 10.2672 23.875 9.47493C23.2029 9.87498 22.4673 10.1568 21.7 10.3083C21.1871 9.75207 20.5041 9.38184 19.7581 9.25564C19.0122 9.12944 18.2454 9.2544 17.5781 9.61092C16.9108 9.96745 16.3807 10.5354 16.071 11.2256C15.7612 11.9159 15.6894 12.6894 15.8666 13.4249C14.5078 13.3562 13.1787 13.0024 11.9655 12.3865C10.7523 11.7706 9.68233 10.9063 8.82496 9.84993C8.52424 10.3751 8.36623 10.9698 8.36663 11.5749C8.36556 12.1369 8.50347 12.6904 8.76809 13.1862C9.0327 13.682 9.41581 14.1047 9.88329 14.4166C9.33994 14.4018 8.8082 14.256 8.33329 13.9916V14.0333C8.33737 14.8207 8.61329 15.5825 9.11439 16.1899C9.61549 16.7973 10.311 17.213 11.0833 17.3666C10.786 17.4571 10.4774 17.5048 10.1666 17.5083C9.95153 17.5058 9.73698 17.4862 9.52496 17.4499C9.74488 18.1273 10.1705 18.7192 10.7425 19.1434C11.3146 19.5676 12.0046 19.8029 12.7166 19.8166C11.5143 20.7627 10.0299 21.279 8.49996 21.2833C8.22141 21.2842 7.94307 21.2675 7.66663 21.2333C9.22865 22.2418 11.049 22.7772 12.9083 22.7749C14.1914 22.7883 15.4642 22.5458 16.6526 22.0617C17.8409 21.5775 18.9208 20.8615 19.8293 19.9553C20.7378 19.0492 21.4566 17.9711 21.9438 16.784C22.4309 15.5969 22.6767 14.3247 22.6666 13.0416C22.6666 12.8999 22.6666 12.7499 22.6666 12.5999C23.3205 12.1123 23.8845 11.5145 24.3333 10.8333V10.8333Z" fill="white"/>
</svg>
