<svg width="24" height="24" viewBox="0 0 24 24" fill="none" xmlns="http://www.w3.org/2000/svg">
<g id="u:money-bet">
<path id="Subtract" fill-rule="evenodd" clip-rule="evenodd" d="M1.29289 19.2929C1.48043 19.1054 1.73478 19 2 19H22C22.2652 19 22.5196 19.1054 22.7071 19.2929C22.8946 19.4804 23 19.7348 23 20C23 20.2652 22.8946 20.5196 22.7071 20.7071C22.5196 20.8946 22.2652 21 22 21H2C1.73478 21 1.48043 20.8946 1.29289 20.7071C1.10536 20.5196 1 20.2652 1 20C1 19.7348 1.10536 19.4804 1.29289 19.2929ZM5.44443 9.16853C5.60888 9.05865 5.80222 9 6 9C6.26522 9 6.51957 9.10536 6.70711 9.29289C6.89464 9.48043 7 9.73478 7 10C7 10.1978 6.94135 10.3911 6.83147 10.5556C6.72159 10.72 6.56541 10.8482 6.38268 10.9239C6.19996 10.9996 5.99889 11.0194 5.80491 10.9808C5.61093 10.9422 5.43275 10.847 5.29289 10.7071C5.15304 10.5673 5.0578 10.3891 5.01921 10.1951C4.98063 10.0011 5.00043 9.80004 5.07612 9.61732C5.15181 9.43459 5.27998 9.27841 5.44443 9.16853ZM4 3H20C20.7956 3 21.5587 3.31607 22.1213 3.87868C22.6839 4.44129 23 5.20435 23 6V14C23 14.7956 22.6839 15.5587 22.1213 16.1213C21.5587 16.6839 20.7956 17 20 17H4C3.20435 17 2.44129 16.6839 1.87868 16.1213C1.31607 15.5587 1 14.7956 1 14V6C1 5.20435 1.31607 4.44129 1.87868 3.87868C2.44129 3.31607 3.20435 3 4 3ZM20.7071 14.7071C20.8946 14.5196 21 14.2652 21 14V6C21 5.73478 20.8946 5.48043 20.7071 5.29289C20.5196 5.10536 20.2652 5 20 5H4C3.73478 5 3.48043 5.10536 3.29289 5.29289C3.10536 5.48043 3 5.73478 3 6V14C3 14.2652 3.10536 14.5196 3.29289 14.7071C3.48043 14.8946 3.73478 15 4 15H20C20.2652 15 20.5196 14.8946 20.7071 14.7071ZM10.3333 7.50559C10.8266 7.17595 11.4067 7 12 7C12.7956 7 13.5587 7.31607 14.1213 7.87868C14.6839 8.44129 15 9.20435 15 10C15 10.5933 14.8241 11.1734 14.4944 11.6667C14.1648 12.1601 13.6962 12.5446 13.1481 12.7716C12.5999 12.9987 11.9967 13.0581 11.4147 12.9424C10.8328 12.8266 10.2982 12.5409 9.87868 12.1213C9.45912 11.7018 9.1734 11.1672 9.05764 10.5853C8.94189 10.0033 9.0013 9.40013 9.22836 8.85195C9.45542 8.30377 9.83994 7.83524 10.3333 7.50559ZM11.4444 10.8315C11.6089 10.9414 11.8022 11 12 11C12.2652 11 12.5196 10.8946 12.7071 10.7071C12.8946 10.5196 13 10.2652 13 10C13 9.80222 12.9414 9.60888 12.8315 9.44443C12.7216 9.27998 12.5654 9.15181 12.3827 9.07612C12.2 9.00043 11.9989 8.98063 11.8049 9.01921C11.6109 9.0578 11.4327 9.15304 11.2929 9.29289C11.153 9.43275 11.0578 9.61093 11.0192 9.80491C10.9806 9.99889 11.0004 10.2 11.0761 10.3827C11.1518 10.5654 11.28 10.7216 11.4444 10.8315ZM17.4444 9.16853C17.6089 9.05865 17.8022 9 18 9C18.2652 9 18.5196 9.10536 18.7071 9.29289C18.8946 9.48043 19 9.73478 19 10C19 10.1978 18.9414 10.3911 18.8315 10.5556C18.7216 10.72 18.5654 10.8482 18.3827 10.9239C18.2 10.9996 17.9989 11.0194 17.8049 10.9808C17.6109 10.9422 17.4327 10.847 17.2929 10.7071C17.153 10.5673 17.0578 10.3891 17.0192 10.1951C16.9806 10.0011 17.0004 9.80004 17.0761 9.61732C17.1518 9.43459 17.28 9.27841 17.4444 9.16853Z" fill="white"/>
</g>
</svg>
