<svg width="22" height="22" viewBox="0 0 22 22" fill="none" xmlns="http://www.w3.org/2000/svg">
<path d="M11 1.375C7.47656 2.96742 5.21555 3.71508 1.375 4.125C1.375 7.45895 1.60145 9.85531 2.46168 12.0532C3.16509 13.8454 4.20716 15.4853 5.53094 16.8833C7.66219 19.146 10.007 20.338 11 20.625C11.993 20.338 14.3378 19.146 16.4691 16.8833C17.7928 15.4853 18.8349 13.8454 19.5383 12.0532C20.3986 9.85531 20.625 7.45895 20.625 4.125C16.7845 3.71508 14.5234 2.96742 11 1.375Z" fill="#D80202"/>
<path fill-rule="evenodd" clip-rule="evenodd" d="M7.88729 7.88729C8.07035 7.70424 8.36715 7.70424 8.55021 7.88729L15.1127 14.4498C15.2958 14.6329 15.2958 14.9296 15.1127 15.1127C14.9296 15.2958 14.6329 15.2958 14.4498 15.1127L7.88729 8.55021C7.70424 8.36715 7.70424 8.07035 7.88729 7.88729Z" fill="#21272A"/>
<path fill-rule="evenodd" clip-rule="evenodd" d="M15.1127 7.88729C15.2958 8.07035 15.2958 8.36715 15.1127 8.55021L8.55021 15.1127C8.36715 15.2958 8.07035 15.2958 7.88729 15.1127C7.70424 14.9296 7.70424 14.6329 7.88729 14.4498L14.4498 7.88729C14.6329 7.70424 14.9296 7.70424 15.1127 7.88729Z" fill="#21272A"/>
</svg>
