<svg width="20" height="22" viewBox="0 0 20 22" fill="none" xmlns="http://www.w3.org/2000/svg" color="#B1B6C6">
    <g clip-path="url(#clip0_10035_56328)">
        <path
            d="M19.9605 4.65935L19.9274 4.11584L19.408 4.01998C15.7734 3.34677 14.2562 2.86009 10.8644 1.27857L10.5875 1.14844L10.3106 1.27857C6.91894 2.86009 5.40166 3.34677 1.76709 4.01998L1.24774 4.11584L1.21455 4.65935C1.05278 7.31011 1.39775 9.77998 2.24105 12.0004C2.93163 13.8116 3.95364 15.4686 5.25124 16.8808C7.49795 19.3415 9.88332 20.4103 10.3384 20.5995L10.5905 20.704L10.8426 20.5995C11.2977 20.4103 13.683 19.3415 15.9297 16.8808C17.2252 15.4681 18.2452 13.8111 18.934 12.0004C19.7773 9.77998 20.1223 7.31011 19.9605 4.65935ZM9.33372 14.0287L6.27522 10.9334L7.21643 9.94178L9.25305 12.0017L13.8805 6.48422L14.8974 7.39253L9.33372 14.0287Z"
            fill="currentColor" />
    </g>
    <defs>
        <clipPath id="clip0_10035_56328">
            <rect width="20" height="22" fill="white" />
        </clipPath>
    </defs>
</svg>