<svg width="22" height="22" viewBox="0 0 22 22" fill="none" xmlns="http://www.w3.org/2000/svg">
<path d="M11 2.0625C6.06375 2.0625 2.0625 6.06375 2.0625 11C2.0625 15.9362 6.06375 19.9375 11 19.9375C15.9362 19.9375 19.9375 15.9362 19.9375 11C19.9375 6.06375 15.9362 2.0625 11 2.0625ZM11 18.5625C6.83203 18.5625 3.4375 15.1701 3.4375 11C3.43396 9.98288 3.63734 8.97566 4.03526 8.03961C4.43319 7.10355 5.01735 6.25821 5.75223 5.555L11.9883 10.0117L11.1719 11.3008L5.80078 7.39062C5.24219 8.37891 4.65352 9.36719 4.65352 11C4.65352 14.4994 7.50062 17.3465 11 17.3465C14.4994 17.3465 17.3465 14.4994 17.3465 11C17.3465 7.70559 14.8234 4.98953 11.608 4.68359V7.04688H10.392V3.43277C10.5742 3.43578 10.7761 3.4375 11 3.4375C15.1701 3.4375 18.5625 6.83203 18.5625 11C18.5625 15.168 15.1701 18.5625 11 18.5625Z" fill="#FFB017"/>
</svg>
