<svg width="24" height="24" viewBox="0 0 24 24" fill="none" xmlns="http://www.w3.org/2000/svg">
<path fill-rule="evenodd" clip-rule="evenodd" d="M4.51884 21.7312C4.02656 21.2389 3.75 20.5712 3.75 19.875L3.75 10.875C3.75 10.1788 4.02656 9.51113 4.51884 9.01884C5.01113 8.52656 5.67881 8.25 6.375 8.25L8.25 8.25C8.66421 8.25 9 8.58579 9 9C9 9.41421 8.66421 9.75 8.25 9.75L6.375 9.75C6.07663 9.75 5.79048 9.86853 5.5795 10.0795C5.36853 10.2905 5.25 10.5766 5.25 10.875L5.25 19.875C5.25 20.1734 5.36853 20.4595 5.5795 20.6705C5.79048 20.8815 6.07663 21 6.375 21L17.625 21C17.9234 21 18.2095 20.8815 18.4205 20.6705C18.6315 20.4595 18.75 20.1734 18.75 19.875L18.75 10.875C18.75 10.5766 18.6315 10.2905 18.4205 10.0795C18.2095 9.86852 17.9234 9.75 17.625 9.75L15.75 9.75C15.3358 9.75 15 9.41421 15 9C15 8.58579 15.3358 8.25 15.75 8.25L17.625 8.25C18.3212 8.25 18.9889 8.52656 19.4812 9.01884C19.9734 9.51113 20.25 10.1788 20.25 10.875L20.25 19.875C20.25 20.5712 19.9734 21.2389 19.4812 21.7312C18.9889 22.2234 18.3212 22.5 17.625 22.5L6.375 22.5C5.67881 22.5 5.01113 22.2234 4.51884 21.7312Z" fill="#ADB2C2"/>
<path fill-rule="evenodd" clip-rule="evenodd" d="M7.71967 6.53033C7.42678 6.23744 7.42678 5.76256 7.71967 5.46967L11.4697 1.71967C11.7626 1.42678 12.2374 1.42678 12.5303 1.71967L16.2803 5.46967C16.5732 5.76256 16.5732 6.23744 16.2803 6.53033C15.9874 6.82322 15.5126 6.82322 15.2197 6.53033L12 3.31066L8.78033 6.53033C8.48744 6.82322 8.01256 6.82322 7.71967 6.53033Z" fill="#ADB2C2"/>
<path fill-rule="evenodd" clip-rule="evenodd" d="M12 15.7969C11.5858 15.7969 11.25 15.4611 11.25 15.0469L11.25 2.25C11.25 1.83579 11.5858 1.5 12 1.5C12.4142 1.5 12.75 1.83579 12.75 2.25L12.75 15.0469C12.75 15.4611 12.4142 15.7969 12 15.7969Z" fill="#ADB2C2"/>
</svg>
