<svg width="100" height="101" viewBox="0 0 100 101" fill="none" xmlns="http://www.w3.org/2000/svg">
<g id="Group 5169563">
<g id="Group 5169562">
<g id="Rectangle 1039" filter="url(#filter0_b_1940_24850)">
<rect y="0.5" width="100" height="100" rx="50" fill="url(#paint0_linear_1940_24850)" fill-opacity="0.5"/>
<rect x="0.5" y="1" width="99" height="99" rx="49.5" stroke="url(#paint1_linear_1940_24850)"/>
</g>
<g id="Group 2">
<g id="Ellipse 228" filter="url(#filter1_b_1940_24850)">
<ellipse cx="50.6181" cy="49.4833" rx="27.1063" ry="27.1161" fill="url(#paint2_linear_1940_24850)"/>
<path d="M77.5924 49.4833C77.5924 64.3863 65.5155 76.4675 50.6181 76.4675C35.7206 76.4675 23.6437 64.3863 23.6437 49.4833C23.6437 34.5804 35.7206 22.4992 50.6181 22.4992C65.5155 22.4992 77.5924 34.5804 77.5924 49.4833Z" stroke="url(#paint3_linear_1940_24850)" stroke-opacity="0.5" stroke-width="0.263998"/>
</g>
</g>
</g>
<path id="Subtract" fill-rule="evenodd" clip-rule="evenodd" d="M20.2246 50.0982C20.2246 33.9031 33.3983 20.7246 49.5875 20.7246C65.7768 20.7246 78.9504 33.9098 78.9504 50.105C78.9504 66.3001 65.7768 79.4785 49.5875 79.4785C33.3983 79.4785 20.2246 66.2933 20.2246 50.0982ZM38.9203 42.7498L47.2472 51.0766L47.2479 51.0759L38.9203 42.7498ZM43.0476 63.5257L50.5752 55.9939L58.1059 63.526C58.7583 64.1784 59.6432 64.5449 60.5659 64.5449C61.4886 64.5449 62.3735 64.1784 63.026 63.526C63.6784 62.8735 64.0449 61.9886 64.0449 61.0659C64.0449 60.1432 63.6783 59.2582 63.0258 58.6057L55.493 51.0758L63.0246 43.5457C63.3475 43.2226 63.6036 42.8391 63.7783 42.417C63.9531 41.995 64.0429 41.5426 64.0428 41.0858C64.0427 40.629 63.9526 40.1767 63.7777 39.7547C63.6028 39.3327 63.3465 38.9493 63.0234 38.6264C62.7003 38.3035 62.3168 38.0474 61.8947 37.8726C61.4727 37.6979 61.0203 37.6081 60.5635 37.6082C60.1067 37.6083 59.6544 37.6984 59.2325 37.8733C58.8105 38.0482 58.4271 38.3045 58.1041 38.6276L50.5758 46.1573L43.0523 38.6338C42.7331 38.3051 42.3522 38.0427 41.9312 37.8617C41.507 37.6792 41.0506 37.583 40.5888 37.5788C40.1269 37.5746 39.6689 37.6624 39.2413 37.837C38.8138 38.0117 38.4253 38.2698 38.0986 38.5962C37.7718 38.9227 37.5134 39.3109 37.3383 39.7383C37.1632 40.1657 37.075 40.6236 37.0788 41.0855C37.0826 41.5473 37.1783 42.0038 37.3604 42.4282C37.5411 42.8495 37.8033 43.2309 38.1319 43.5504L45.6588 51.0759L38.1274 58.6059C37.4749 59.2583 37.1084 60.1432 37.1084 61.0659C37.1084 61.9886 37.4749 62.8735 38.1274 63.526C38.7798 64.1784 39.6647 64.5449 40.5874 64.5449C41.5101 64.5449 42.3952 64.1782 43.0476 63.5257Z" fill="url(#paint4_linear_1940_24850)"/>
</g>
<defs>
<filter id="filter0_b_1940_24850" x="-12" y="-11.5" width="124" height="124" filterUnits="userSpaceOnUse" color-interpolation-filters="sRGB">
<feFlood flood-opacity="0" result="BackgroundImageFix"/>
<feGaussianBlur in="BackgroundImageFix" stdDeviation="6"/>
<feComposite in2="SourceAlpha" operator="in" result="effect1_backgroundBlur_1940_24850"/>
<feBlend mode="normal" in="SourceGraphic" in2="effect1_backgroundBlur_1940_24850" result="shape"/>
</filter>
<filter id="filter1_b_1940_24850" x="3.71187" y="2.56734" width="93.8126" height="93.8321" filterUnits="userSpaceOnUse" color-interpolation-filters="sRGB">
<feFlood flood-opacity="0" result="BackgroundImageFix"/>
<feGaussianBlur in="BackgroundImageFix" stdDeviation="9.89992"/>
<feComposite in2="SourceAlpha" operator="in" result="effect1_backgroundBlur_1940_24850"/>
<feBlend mode="normal" in="SourceGraphic" in2="effect1_backgroundBlur_1940_24850" result="shape"/>
</filter>
<linearGradient id="paint0_linear_1940_24850" x1="0" y1="0.5" x2="22.8405" y2="113.102" gradientUnits="userSpaceOnUse">
<stop stop-color="#705E54"/>
<stop offset="1" stop-color="#513131"/>
</linearGradient>
<linearGradient id="paint1_linear_1940_24850" x1="2.66666" y1="1.66995" x2="24.515" y2="113.828" gradientUnits="userSpaceOnUse">
<stop stop-color="white" stop-opacity="0.1"/>
<stop offset="1" stop-color="white" stop-opacity="0"/>
</linearGradient>
<linearGradient id="paint2_linear_1940_24850" x1="73.8808" y1="32.1605" x2="6.32287" y2="22.8224" gradientUnits="userSpaceOnUse">
<stop stop-color="white"/>
<stop offset="1" stop-color="white" stop-opacity="0.61"/>
</linearGradient>
<linearGradient id="paint3_linear_1940_24850" x1="29.3516" y1="40.5595" x2="75.3857" y2="40.8135" gradientUnits="userSpaceOnUse">
<stop stop-color="white"/>
<stop offset="1" stop-color="white" stop-opacity="0"/>
</linearGradient>
<linearGradient id="paint4_linear_1940_24850" x1="59.5507" y1="35.3313" x2="37.6407" y2="67.9157" gradientUnits="userSpaceOnUse">
<stop stop-color="#F27E7E"/>
<stop offset="1" stop-color="#C33617"/>
</linearGradient>
</defs>
</svg>
