<svg width="20" height="20" viewBox="0 0 20 20" fill="none" xmlns="http://www.w3.org/2000/svg">
<g id="vuesax/bold/money-send">
<g id="money-send">
<path id="Vector" d="M8.54175 8.3585C8.54175 8.8085 8.66675 8.87516 8.95008 8.97516L9.37508 9.12516V7.7085H9.12508C8.80841 7.7085 8.54175 8.00016 8.54175 8.3585Z" fill="#6C708A"/>
<path id="Vector_2" d="M10.625 12.2917H10.875C11.2 12.2917 11.4583 12 11.4583 11.6417C11.4583 11.1917 11.3333 11.125 11.05 11.025L10.625 10.875V12.2917Z" fill="#6C708A"/>
<path id="Vector_3" d="M16.3167 4.5665L14.6084 6.27484C14.4834 6.39984 14.3251 6.45817 14.1667 6.45817C14.0084 6.45817 13.8501 6.39984 13.7251 6.27484C13.4834 6.03317 13.4834 5.63317 13.7251 5.3915L15.4334 3.68317C13.9667 2.43317 12.0751 1.6665 10.0001 1.6665C5.40008 1.6665 1.66675 5.39984 1.66675 9.99984C1.66675 14.5998 5.40008 18.3332 10.0001 18.3332C14.6001 18.3332 18.3334 14.5998 18.3334 9.99984C18.3334 7.92484 17.5667 6.03317 16.3167 4.5665ZM11.4584 9.84984C11.9917 10.0415 12.7084 10.4248 12.7084 11.6498C12.7084 12.6915 11.8834 13.5498 10.8751 13.5498H10.6251V13.7582C10.6251 14.0998 10.3417 14.3832 10.0001 14.3832C9.65842 14.3832 9.37508 14.0998 9.37508 13.7582V13.5498H9.30841C8.20008 13.5498 7.29175 12.6165 7.29175 11.4665C7.29175 11.1165 7.57508 10.8332 7.91675 10.8332C8.25842 10.8332 8.54175 11.1165 8.54175 11.4582C8.54175 11.9165 8.88342 12.2915 9.30841 12.2915H9.37508V10.4415L8.54175 10.1498C8.00842 9.95817 7.29175 9.57484 7.29175 8.34984C7.29175 7.30817 8.11675 6.44984 9.12508 6.44984H9.37508V6.24984C9.37508 5.90817 9.65842 5.62484 10.0001 5.62484C10.3417 5.62484 10.6251 5.90817 10.6251 6.24984V6.45817H10.6917C11.8001 6.45817 12.7084 7.3915 12.7084 8.5415C12.7084 8.88317 12.4251 9.1665 12.0834 9.1665C11.7417 9.1665 11.4584 8.88317 11.4584 8.5415C11.4584 8.08317 11.1167 7.70817 10.6917 7.70817H10.6251V9.55817L11.4584 9.84984Z" fill="#6C708A"/>
<path id="Vector_4" d="M18.9083 1.42484C18.8417 1.27484 18.725 1.14984 18.5667 1.08317C18.4917 1.05817 18.4167 1.0415 18.3333 1.0415H15C14.6583 1.0415 14.375 1.32484 14.375 1.6665C14.375 2.00817 14.6583 2.2915 15 2.2915H16.825L15.4333 3.68317C15.75 3.95817 16.0417 4.24984 16.3167 4.5665L17.7083 3.17484V4.99984C17.7083 5.3415 17.9917 5.62484 18.3333 5.62484C18.675 5.62484 18.9583 5.3415 18.9583 4.99984V1.6665C18.9583 1.58317 18.9417 1.50817 18.9083 1.42484Z" fill="#6C708A"/>
</g>
</g>
</svg>
