<svg width="40" height="40" viewBox="0 0 40 40" fill="none" xmlns="http://www.w3.org/2000/svg">
<g id="fluent-emoji-high-contrast:soccer-ball">
<path id="Vector" d="M2.5 20C2.5 10.335 10.335 2.5 20 2.5C29.665 2.5 37.5 10.335 37.5 20C37.5 29.665 29.665 37.5 20 37.5C10.335 37.5 2.5 29.665 2.5 20ZM19.1388 5.025C19.1538 5.23522 19.1086 5.44537 19.0082 5.63072C18.9079 5.81607 18.7567 5.96891 18.5725 6.07125L13.8937 8.67C13.7982 8.72311 13.6961 8.76346 13.59 8.79L13.1062 8.91125L13.3763 10.8L17.745 11.675C17.989 11.7229 18.2128 11.8431 18.3875 12.02L23.75 9.3375V7.02125C23.75 6.72329 23.8564 6.43512 24.05 6.20868C24.2437 5.98225 24.5119 5.83243 24.8062 5.78625C22.9836 5.1706 21.0593 4.91297 19.1388 5.025ZM9.72625 9.07C7.29108 11.3543 5.68953 14.3871 5.17625 17.6863L9.135 15.7075C9.16404 15.6395 9.19918 15.5742 9.24 15.5125L12.0375 11.3212C12.2046 11.0704 12.4568 10.8884 12.7475 10.8088L12.4975 9.06375L10.96 9.4475C10.7398 9.50404 10.5083 9.49883 10.2909 9.43246C10.0735 9.36609 9.87856 9.24112 9.7275 9.07125M5.0825 18.4338C5.02875 18.9462 5.00125 19.4675 5.00125 19.9937V20.0062C5.00125 21.7112 5.2875 23.3512 5.8125 24.8787L9.2 28.6438C9.31114 28.5099 9.44911 28.4009 9.605 28.3237L11.8525 27.1988C11.969 27.141 12.0939 27.1017 12.2225 27.0825L12.7325 20.9688C12.4108 20.9183 12.1216 20.7443 11.9263 20.4837L9.2825 16.9575C9.1691 16.8069 9.09132 16.6325 9.055 16.4475L5.0825 18.4338ZM8.9375 29.2875L6.535 26.6175C7.25129 28.0721 8.1981 29.4014 9.33875 30.5538C9.20043 30.2695 9.08222 29.9758 8.985 29.675C8.94473 29.55 8.92861 29.4185 8.9375 29.2875ZM20 35C23.2075 35 26.18 33.9925 28.6188 32.2775L28.9263 29.8237C28.7825 29.8426 28.6366 29.8363 28.495 29.805L24.7288 28.9675C24.4679 28.9096 24.2326 28.7693 24.0575 28.5675L18.02 31.355C18.0182 31.3717 18.0161 31.3884 18.0138 31.405L17.6875 33.6925C17.6612 33.8725 17.5975 34.0425 17.505 34.1925C18.0538 34.5 18.6287 34.76 19.205 34.98C19.4675 34.9925 19.7325 35 20 35ZM29.5938 29.5225L29.3138 31.76C31.989 29.6422 33.8624 26.6757 34.625 23.35L32.7962 24.2637C32.7708 24.3292 32.7398 24.3923 32.7038 24.4525L29.8388 29.2275C29.7727 29.3378 29.6901 29.4374 29.5938 29.5225ZM32.8512 23.5375L34.78 22.5737C34.925 21.7362 35 20.8775 35 20C35 16.7162 33.945 13.6788 32.155 11.2087C32.1236 11.4906 31.9971 11.7534 31.7962 11.9537L30.69 13.06C30.5681 13.1818 30.4224 13.2771 30.2619 13.34C30.1014 13.4028 29.9297 13.4317 29.7575 13.425L30.2413 19.8563C30.3694 19.941 30.4809 20.0486 30.57 20.1737L32.6488 23.0837C32.7487 23.2212 32.8162 23.3775 32.8512 23.5375ZM13.3638 20.905L12.8438 27.145C12.9353 27.1789 13.0226 27.2233 13.1038 27.2775L17.47 30.1875C17.6647 30.3178 17.8189 30.5001 17.915 30.7137L23.7775 28.0087C23.7591 27.9225 23.7499 27.8345 23.75 27.7463V22.7213C23.7498 22.5409 23.7886 22.3627 23.8638 22.1988L18.2337 18.915C18.1503 18.976 18.0596 19.0264 17.9638 19.065L13.3888 20.8937L13.3638 20.905ZM18.6362 18.4263L24.265 21.71C24.3488 21.6489 24.44 21.5986 24.5362 21.56L29.0887 19.74C29.2511 19.6749 29.4252 19.6446 29.6 19.6512L29.1162 13.22L24.3563 10.3638C24.1838 10.2602 24.0388 10.1165 23.9338 9.945L18.7038 12.56C18.7338 12.6688 18.75 12.7825 18.75 12.9V17.9037C18.7502 18.0841 18.7114 18.2623 18.6362 18.4263Z" fill="white"/>
</g>
</svg>
