<svg width="40" height="40" viewBox="0 0 40 40" fill="none" xmlns="http://www.w3.org/2000/svg">
<rect width="40" height="40" rx="10" fill="#E9F1FC"/>
<path d="M20 30.75C19.21 30.75 18.46 30.35 17.94 29.64L16.93 28.29C16.72 28.01 16.44 27.85 16.14 27.83C15.84 27.81 15.54 27.95 15.3 28.2L14.73 27.7L15.28 28.21C13.83 29.75 12.73 29.63 12.2 29.42C11.66 29.21 10.75 28.52 10.75 26.3V15.04C10.75 10.6 12.03 9.25 16.22 9.25H23.77C27.96 9.25 29.24 10.6 29.24 15.04V26.3C29.24 28.51 28.33 29.2 27.79 29.42C27.26 29.63 26.16 29.75 24.71 28.21C24.47 27.95 24.16 27.82 23.86 27.84C23.56 27.86 23.27 28.02 23.06 28.3L22.05 29.65C21.54 30.35 20.79 30.75 20 30.75ZM16.08 26.33C16.12 26.33 16.17 26.33 16.21 26.33C16.95 26.37 17.65 26.76 18.12 27.39L19.14 28.74C19.63 29.39 20.38 29.39 20.87 28.74L21.88 27.39C22.35 26.76 23.05 26.37 23.8 26.33C24.55 26.29 25.28 26.6 25.82 27.18C26.58 27.99 27.07 28.09 27.25 28.02C27.49 27.92 27.75 27.34 27.75 26.3V15.04C27.75 11.43 27.12 10.75 23.78 10.75H16.22C12.88 10.75 12.25 11.43 12.25 15.04V26.3C12.25 27.35 12.51 27.93 12.75 28.02C12.93 28.09 13.42 27.99 14.18 27.18C14.7 26.63 15.38 26.33 16.08 26.33Z" fill="#1E6FD9"/>
<path d="M23 22C22.44 22 22 21.55 22 21C22 20.45 22.45 20 23 20C23.55 20 24 20.45 24 21C24 21.55 23.56 22 23 22Z" fill="#1E6FD9"/>
<path d="M17 17C16.44 17 16 16.55 16 16C16 15.45 16.45 15 17 15C17.55 15 18 15.45 18 16C18 16.55 17.56 17 17 17Z" fill="#1E6FD9"/>
<path d="M16.6301 22.55C16.4401 22.55 16.2501 22.48 16.1001 22.33C15.8101 22.04 15.8101 21.56 16.1001 21.27L22.8301 14.54C23.1201 14.25 23.6001 14.25 23.8901 14.54C24.1801 14.83 24.1801 15.31 23.8901 15.6L17.1601 22.33C17.0201 22.48 16.8301 22.55 16.6301 22.55Z" fill="#1E6FD9"/>
</svg>
