<svg width="40" height="40" viewBox="0 0 40 40" fill="none" xmlns="http://www.w3.org/2000/svg">
<rect width="40" height="40" rx="10" fill="#E9F1FC"/>
<path d="M14.73 27.7C15.55 26.82 16.8 26.89 17.52 27.85L18.53 29.2C19.34 30.27 20.65 30.27 21.46 29.2L22.47 27.85C23.19 26.89 24.44 26.82 25.26 27.7C27.04 29.6 28.49 28.97 28.49 26.31V15.04C28.5 11.01 27.56 10 23.78 10H16.22C12.44 10 11.5 11.01 11.5 15.04V26.3C11.5 28.97 12.96 29.59 14.73 27.7Z" stroke="#1E6FD9" stroke-width="1.5" stroke-linecap="round" stroke-linejoin="round"/>
<path d="M16.0961 19H16.1051" stroke="#1E6FD9" stroke-width="2" stroke-linecap="round" stroke-linejoin="round"/>
<path d="M18.8984 19H24.3984" stroke="#1E6FD9" stroke-width="1.5" stroke-linecap="round" stroke-linejoin="round"/>
<path d="M16.0961 15H16.1051" stroke="#1E6FD9" stroke-width="2" stroke-linecap="round" stroke-linejoin="round"/>
<path d="M18.8984 15H24.3984" stroke="#1E6FD9" stroke-width="1.5" stroke-linecap="round" stroke-linejoin="round"/>
</svg>
