<svg width="56" height="56" viewBox="0 0 56 56" fill="none" xmlns="http://www.w3.org/2000/svg">
<g id="vuesax/linear/receipt-edit">
<path id="Vector" d="M47.8332 26.366V16.426C47.8332 7.0227 45.6398 4.66602 36.8198 4.66602H19.1798C10.3598 4.66602 8.1665 7.0227 8.1665 16.426V42.6993C8.1665 48.906 11.5732 50.376 15.7032 45.9427L15.7265 45.9193C17.6398 43.8893 20.5565 44.0526 22.2131 46.2693L24.5698 49.4193" stroke="#1E6FD9" stroke-width="2.7" stroke-linecap="round" stroke-linejoin="round"/>
<path id="Vector_2" d="M18.6665 16.334H37.3332" stroke="#1E6FD9" stroke-width="2.7" stroke-linecap="round" stroke-linejoin="round"/>
<path id="Vector_3" d="M21 25.666H35" stroke="#1E6FD9" stroke-width="2.7" stroke-linecap="round" stroke-linejoin="round"/>
<g id="Group">
<path id="Vector_4" d="M51.3332 43.1673C51.3332 44.9173 50.8432 46.574 49.9798 47.974C49.4898 48.814 48.8598 49.5607 48.1365 50.1673C46.5032 51.6373 44.3565 52.5007 41.9998 52.5007C38.5932 52.5007 35.6298 50.6806 34.0198 47.974C33.1565 46.574 32.6665 44.9173 32.6665 43.1673C32.6665 40.2273 34.0198 37.5907 36.1665 35.8873C37.7765 34.604 39.8065 33.834 41.9998 33.834C47.1565 33.834 51.3332 38.0107 51.3332 43.1673Z" stroke="#1E6FD9" stroke-width="2.7" stroke-miterlimit="10" stroke-linecap="round" stroke-linejoin="round"/>
<g id="Group_2">
<path id="Vector_5" d="M44.4965 45.5932L39.5498 40.6699" stroke="#1E6FD9" stroke-width="2.7" stroke-miterlimit="10" stroke-linecap="round" stroke-linejoin="round"/>
<path id="Vector_6" d="M44.4496 40.7402L39.5029 45.6635" stroke="#1E6FD9" stroke-width="2.7" stroke-miterlimit="10" stroke-linecap="round" stroke-linejoin="round"/>
</g>
</g>
</g>
</svg>
