<svg width="15" height="13" viewBox="0 0 15 13" fill="none" xmlns="http://www.w3.org/2000/svg">
<path d="M3.504 12.016L9.44 0.943999H11.216L5.264 12.016H3.504ZM9.2 11.296C8.64533 10.7413 8.368 10.0693 8.368 9.28C8.368 8.49067 8.64533 7.81867 9.2 7.264C9.75467 6.70933 10.4267 6.432 11.216 6.432C11.9947 6.432 12.6613 6.70933 13.216 7.264C13.7813 7.81867 14.064 8.49067 14.064 9.28C14.064 10.0693 13.7813 10.7413 13.216 11.296C12.6613 11.8507 11.9947 12.128 11.216 12.128C10.4267 12.128 9.75467 11.8507 9.2 11.296ZM1.584 5.616C1.02933 5.06133 0.752 4.38933 0.752 3.6C0.752 2.81067 1.02933 2.13867 1.584 1.584C2.13867 1.02933 2.81067 0.752 3.6 0.752C4.38933 0.752 5.06133 1.02933 5.616 1.584C6.17067 2.13867 6.448 2.81067 6.448 3.6C6.448 4.37867 6.16533 5.05067 5.6 5.616C5.04533 6.17067 4.37867 6.448 3.6 6.448C2.81067 6.448 2.13867 6.17067 1.584 5.616ZM2.32 3.6C2.32 3.94133 2.44267 4.24 2.688 4.496C2.944 4.74133 3.248 4.864 3.6 4.864C3.94133 4.864 4.23467 4.74133 4.48 4.496C4.736 4.24 4.864 3.94133 4.864 3.6C4.864 3.248 4.736 2.94933 4.48 2.704C4.23467 2.448 3.94133 2.32 3.6 2.32C3.248 2.32 2.944 2.448 2.688 2.704C2.44267 2.94933 2.32 3.248 2.32 3.6ZM9.952 9.28C9.952 9.62133 10.0747 9.92 10.32 10.176C10.5653 10.4213 10.864 10.544 11.216 10.544C11.5573 10.544 11.8507 10.4213 12.096 10.176C12.352 9.92 12.48 9.62133 12.48 9.28C12.48 8.928 12.352 8.62933 12.096 8.384C11.8507 8.128 11.5573 8 11.216 8C10.864 8 10.5653 8.128 10.32 8.384C10.0747 8.62933 9.952 8.928 9.952 9.28Z" fill="#1E6FD9"/>
</svg>
