<svg width="16" height="16" viewBox="0 0 16 16" fill="none" xmlns="http://www.w3.org/2000/svg">
<path d="M9.81399 5.86065L6.95399 8.72732L5.85399 7.62732C5.79422 7.55753 5.72068 7.50085 5.63797 7.46083C5.55526 7.42082 5.46517 7.39833 5.37336 7.39479C5.28154 7.39124 5.18999 7.40671 5.10444 7.44023C5.01889 7.47374 4.94119 7.52458 4.87622 7.58955C4.81125 7.65452 4.76041 7.73222 4.7269 7.81777C4.69338 7.90332 4.67791 7.99487 4.68146 8.08669C4.685 8.1785 4.70749 8.26859 4.7475 8.3513C4.78752 8.43401 4.8442 8.50755 4.91399 8.56732L6.48065 10.1407C6.54295 10.2024 6.61682 10.2513 6.69805 10.2845C6.77927 10.3177 6.86625 10.3345 6.95399 10.334C7.12888 10.3332 7.29648 10.2638 7.42065 10.1407L10.754 6.80732C10.8165 6.74534 10.8661 6.67161 10.8999 6.59037C10.9338 6.50913 10.9512 6.42199 10.9512 6.33398C10.9512 6.24598 10.9338 6.15884 10.8999 6.0776C10.8661 5.99636 10.8165 5.92263 10.754 5.86065C10.6291 5.73648 10.4601 5.66679 10.284 5.66679C10.1079 5.66679 9.9389 5.73648 9.81399 5.86065ZM8.00065 1.33398C6.68211 1.33398 5.39318 1.72498 4.29685 2.45752C3.20052 3.19006 2.34604 4.23125 1.84146 5.44943C1.33687 6.6676 1.20485 8.00805 1.46209 9.30125C1.71932 10.5945 2.35426 11.7823 3.28661 12.7147C4.21896 13.647 5.40685 14.282 6.70005 14.5392C7.99326 14.7965 9.3337 14.6644 10.5519 14.1598C11.7701 13.6553 12.8112 12.8008 13.5438 11.7045C14.2763 10.6081 14.6673 9.31919 14.6673 8.00065C14.6673 7.12517 14.4949 6.25827 14.1599 5.44943C13.8248 4.64059 13.3338 3.90566 12.7147 3.28661C12.0956 2.66755 11.3607 2.17649 10.5519 1.84145C9.74304 1.50642 8.87613 1.33398 8.00065 1.33398ZM8.00065 13.334C6.94582 13.334 5.91467 13.0212 5.03761 12.4352C4.16055 11.8491 3.47696 11.0162 3.0733 10.0416C2.66963 9.06709 2.56401 7.99474 2.7698 6.96017C2.97559 5.9256 3.48354 4.9753 4.22942 4.22941C4.9753 3.48354 5.92561 2.97558 6.96017 2.7698C7.99474 2.56401 9.06709 2.66963 10.0416 3.07329C11.0162 3.47696 11.8491 4.16055 12.4352 5.03761C13.0212 5.91467 13.334 6.94582 13.334 8.00065C13.334 9.41514 12.7721 10.7717 11.7719 11.7719C10.7717 12.7721 9.41514 13.334 8.00065 13.334Z" fill="currentColor"/>
</svg>
