<svg width="64" height="64" viewBox="0 0 64 64" fill="none" xmlns="http://www.w3.org/2000/svg">
<path d="M48.107 36.1333C46.987 37.2266 46.347 38.8 46.507 40.48C46.747 43.36 49.387 45.4666 52.267 45.4666H57.3337V48.64C57.3337 54.16 52.827 58.6667 47.307 58.6667H20.347C21.1737 57.9733 21.8937 57.12 22.4537 56.16C23.4403 54.56 24.0003 52.6667 24.0003 50.6667C24.0003 44.7733 19.227 40 13.3337 40C10.827 40 8.50699 40.88 6.66699 42.3467V30.6933C6.66699 25.1733 11.1736 20.6667 16.6936 20.6667H47.307C52.827 20.6667 57.3337 25.1733 57.3337 30.6933V34.5334H51.947C50.4536 34.5334 49.0936 35.12 48.107 36.1333Z" stroke="#1E6FD9" stroke-width="2.6" stroke-linecap="round" stroke-linejoin="round"/>
<path d="M6.66699 33.0933V20.9068C6.66699 17.7334 8.61365 14.9067 11.5736 13.7867L32.747 5.78666C36.0537 4.53333 39.6003 6.98674 39.6003 10.5334V20.6667" stroke="#1E6FD9" stroke-width="2.6" stroke-linecap="round" stroke-linejoin="round"/>
<path d="M60.1571 37.2537V42.7472C60.1571 44.2139 58.9838 45.4138 57.4905 45.4671H52.2638C49.3838 45.4671 46.7438 43.3605 46.5038 40.4805C46.3438 38.8005 46.9838 37.2271 48.1038 36.1338C49.0905 35.1205 50.4505 34.5339 51.9438 34.5339H57.4905C58.9838 34.5872 60.1571 35.7871 60.1571 37.2537Z" stroke="#1E6FD9" stroke-width="2.6" stroke-linecap="round" stroke-linejoin="round"/>
<path d="M18.667 32H37.3337" stroke="#1E6FD9" stroke-width="2.6" stroke-linecap="round" stroke-linejoin="round"/>
<path d="M24.0003 50.6667C24.0003 52.6667 23.4403 54.56 22.4537 56.16C21.8937 57.12 21.1737 57.9733 20.347 58.6667C18.4803 60.3467 16.027 61.3333 13.3337 61.3333C9.44033 61.3333 6.05366 59.2533 4.21366 56.16C3.227 54.56 2.66699 52.6667 2.66699 50.6667C2.66699 47.3067 4.21366 44.2933 6.66699 42.3467C8.50699 40.88 10.827 40 13.3337 40C19.227 40 24.0003 44.7733 24.0003 50.6667Z" stroke="#1E6FD9" stroke-width="2.6" stroke-miterlimit="10" stroke-linecap="round" stroke-linejoin="round"/>
<path d="M9.17773 50.6654L11.8177 53.3053L17.4977 48.0521" stroke="#1E6FD9" stroke-width="2.6" stroke-linecap="round" stroke-linejoin="round"/>
</svg>
