<svg width="81" height="85" viewBox="0 0 81 85" fill="none" xmlns="http://www.w3.org/2000/svg">
<g id="Group">
<path id="Vector" opacity="0.5" d="M41.3957 84.9996C39.4393 84.585 37.7917 83.6521 36.9679 81.6827C35.9382 79.506 36.1441 77.3293 37.5858 75.3599C39.1303 73.3905 41.2928 72.665 43.6611 73.2869C46.0295 73.9088 47.5741 75.5672 47.986 77.9512C48.5008 81.0608 46.7503 83.8594 43.7641 84.6887C43.5582 84.896 43.3522 84.9996 43.0433 84.9996C42.5284 84.9996 41.9106 84.9996 41.3957 84.9996Z" fill="#1E6FD9"/>
<path id="Vector_2" d="M42.2175 0C47.675 0 52.1029 4.45706 52.1029 9.95064C52.1029 15.4442 47.675 19.9013 42.2175 19.9013C36.76 19.9013 32.3322 15.3406 32.3322 9.95064C32.3322 4.45706 36.8629 0 42.2175 0Z" fill="#1E6FD9"/>
<path id="Vector_3" opacity="0.8" d="M9.06042 20.004C9.06042 15.0286 13.0763 11.0898 18.019 11.0898C22.8587 11.0898 26.8746 15.2359 26.8746 20.1076C26.8746 24.9793 22.8587 29.0217 18.019 29.0217C13.0763 29.0217 9.06042 24.9793 9.06042 20.004Z" fill="#1E6FD9"/>
<path id="Vector_4" opacity="0.7" d="M0 44.4676C0 40.1142 3.50106 36.59 7.8259 36.4863C12.1507 36.4863 15.7548 40.1142 15.7548 44.4676C15.7548 48.821 12.0478 52.4488 7.8259 52.4488C3.50106 52.3452 0 48.821 0 44.4676Z" fill="#1E6FD9"/>
<path id="Vector_5" opacity="0.6" d="M18.0208 75.8738C14.3138 75.8738 11.1217 72.7642 11.1217 69.0327C11.0187 65.1976 14.2109 61.9844 18.0208 61.9844C21.7278 61.9844 25.023 65.1976 25.023 68.9291C24.817 72.7642 21.7278 75.8738 18.0208 75.8738Z" fill="#1E6FD9"/>
<path id="Vector_6" opacity="0.4" d="M71.4625 68.9284C71.4625 71.6234 69.3001 73.9038 66.5198 73.9038C63.8425 73.9038 61.5771 71.7271 61.5771 68.9284C61.5771 66.2335 63.8425 63.9531 66.5198 63.9531C69.1971 63.9531 71.4625 66.2335 71.4625 68.9284Z" fill="#1E6FD9"/>
<path id="Vector_7" opacity="0.3" d="M80.5251 44.4645C80.5251 46.6412 78.7745 48.4033 76.6121 48.5069C74.4497 48.5069 72.5962 46.7449 72.5962 44.5681C72.5962 42.3914 74.3467 40.6294 76.5091 40.6294C78.6716 40.5257 80.5251 42.2878 80.5251 44.4645Z" fill="#1E6FD9"/>
<path id="Vector_8" opacity="0.2" d="M69.4027 20.0038C69.4027 21.6623 68.0641 23.0098 66.4165 23.0098C64.8719 23.0098 63.5333 21.6623 63.4303 20.1075C63.4303 18.449 64.7689 17.1016 66.4165 17.1016C68.167 17.1016 69.4027 18.449 69.4027 20.0038Z" fill="#1E6FD9"/>
</g>
</svg>
