<svg width="20" height="14" viewBox="0 0 20 14" fill="none" xmlns="http://www.w3.org/2000/svg">
<path fill-rule="evenodd" clip-rule="evenodd" d="M18.8416 1.33713C18.9284 1.40385 19.0012 1.48704 19.0559 1.58192C19.1105 1.67681 19.146 1.78154 19.1601 1.89013C19.1743 1.99872 19.1669 2.10903 19.1384 2.21477C19.1099 2.3205 19.0609 2.41958 18.9941 2.50635L10.6603 13.3402C10.588 13.4342 10.4965 13.5116 10.3919 13.5674C10.2872 13.6232 10.1719 13.656 10.0536 13.6637C9.93528 13.6713 9.81669 13.6536 9.70575 13.6118C9.59481 13.57 9.49407 13.5049 9.41027 13.421L5.2434 9.25417C5.09159 9.097 5.00759 8.88649 5.00949 8.66798C5.01139 8.44947 5.09904 8.24045 5.25355 8.08594C5.40806 7.93142 5.61708 7.84378 5.83559 7.84188C6.0541 7.83998 6.26461 7.92398 6.42179 8.07578L9.91779 11.5718L17.6723 1.48963C17.7391 1.4028 17.8222 1.32998 17.9171 1.27531C18.012 1.22065 18.1168 1.18523 18.2253 1.17106C18.3339 1.1569 18.4442 1.16428 18.55 1.19277C18.6557 1.22126 18.7548 1.27032 18.8416 1.33713Z" fill="#1E6FD9"/>
<path fill-rule="evenodd" clip-rule="evenodd" d="M14.6645 0.505094C14.7513 0.57182 14.8242 0.655005 14.8788 0.749893C14.9335 0.844781 14.9689 0.949512 14.9831 1.0581C14.9972 1.16669 14.9899 1.277 14.9614 1.38273C14.9329 1.48847 14.8838 1.58755 14.817 1.67432L6.48326 12.5082C6.41096 12.6021 6.31944 12.6796 6.21481 12.7354C6.11019 12.7912 5.99486 12.824 5.87654 12.8316C5.75822 12.8393 5.63962 12.8216 5.52868 12.7798C5.41774 12.7379 5.31701 12.6729 5.2332 12.589L1.06634 8.42214C0.91453 8.26497 0.83053 8.05446 0.832429 7.83595C0.834328 7.61744 0.921973 7.40842 1.07649 7.2539C1.231 7.09939 1.44002 7.01175 1.65853 7.00985C1.87704 7.00795 2.08755 7.09195 2.24473 7.24375L5.74073 10.7398L13.4953 0.657601C13.562 0.570772 13.6452 0.497945 13.7401 0.443282C13.835 0.38862 13.9397 0.353195 14.0483 0.339031C14.1569 0.324868 14.2672 0.332244 14.3729 0.360738C14.4786 0.389232 14.5777 0.438285 14.6645 0.505094Z" fill="#1E6FD9"/>
</svg>
