<svg width="24" height="24" viewBox="0 0 24 24" fill="none" xmlns="http://www.w3.org/2000/svg">
<path d="M22.2692 7.20003H7.13077C6.78595 7.20003 6.5 6.74669 6.5 6.20003C6.5 5.65336 6.78595 5.20003 7.13077 5.20003H22.2692C22.6141 5.20003 22.9 5.65336 22.9 6.20003C22.9 6.74669 22.6141 7.20003 22.2692 7.20003Z" fill="#292D32"/>
<path d="M3.26251 7.50002C2.56251 7.50002 2 6.93752 2 6.25002C2 5.56252 2.5625 5.00002 3.25 5.00002C3.9375 5.00002 4.5 5.56252 4.5 6.25002C4.5 6.93752 3.95001 7.50002 3.26251 7.50002Z" fill="#292D32"/>
<path d="M22.2692 12.6H7.13077C6.78595 12.6 6.5 12.1467 6.5 11.6C6.5 11.0534 6.78595 10.6 7.13077 10.6H22.2692C22.6141 10.6 22.9 11.0534 22.9 11.6C22.9 12.1467 22.6141 12.6 22.2692 12.6Z" fill="#292D32"/>
<path d="M3.26251 12.9C2.56251 12.9 2 12.3375 2 11.65C2 10.9625 2.5625 10.4 3.25 10.4C3.9375 10.4 4.5 10.9625 4.5 11.65C4.5 12.3375 3.95001 12.9 3.26251 12.9Z" fill="#292D32"/>
<path d="M22.2692 18H7.13077C6.78595 18 6.5 17.5467 6.5 17C6.5 16.4534 6.78595 16 7.13077 16H22.2692C22.6141 16 22.9 16.4534 22.9 17C22.9 17.5467 22.6141 18 22.2692 18Z" fill="#292D32"/>
<path d="M3.26251 18.3C2.56251 18.3 2 17.7375 2 17.05C2 16.3625 2.5625 15.8 3.25 15.8C3.9375 15.8 4.5 16.3625 4.5 17.05C4.5 17.7375 3.95001 18.3 3.26251 18.3Z" fill="#292D32"/>
</svg>
