<svg width="36" height="36" viewBox="0 0 36 36" fill="none" xmlns="http://www.w3.org/2000/svg">
<path d="M34.2208 0L20.1536 11.253L22.7661 4.614L34.2208 0Z" fill="#E17726"/>
<path d="M1.7793 0L15.7185 11.3595L13.234 4.614L1.7793 0Z" fill="#E27625"/>
<path d="M29.1641 26.0869L25.4219 32.2699L33.4293 34.6444L35.7177 26.2234L29.1641 26.0869Z" fill="#E27625"/>
<path d="M0.296265 26.2234L2.57078 34.6444L10.5782 32.2699L6.84994 26.0869L0.296265 26.2234Z" fill="#E27625"/>
<path d="M10.1398 15.6393L7.90845 19.2798L15.8463 19.6608L15.5778 10.4463L10.1398 15.6393Z" fill="#E27625"/>
<path d="M25.86 15.6393L20.3372 10.3398L20.1536 19.6608L28.0914 19.2798L25.86 15.6393Z" fill="#E27625"/>
<path d="M10.5781 32.2692L15.3664 29.7552L11.2417 26.2842L10.5781 32.2692Z" fill="#E27625"/>
<path d="M20.6335 29.7552L25.4219 32.2692L24.7583 26.2842L20.6335 29.7552Z" fill="#E27625"/>
<path d="M25.4219 32.2699L20.6335 29.7559L21.0147 33.1219L20.973 34.5379L25.4219 32.2699Z" fill="#D5BFB2"/>
<path d="M10.5781 32.2699L15.027 34.5379L14.9992 33.1219L15.3664 29.7559L10.5781 32.2699Z" fill="#D5BFB2"/>
<path d="M15.112 24.0601L11.1292 22.7971L13.9393 21.4111L15.112 24.0601Z" fill="#233447"/>
<path d="M20.8878 24.0601L22.0605 21.4111L24.8846 22.7971L20.8878 24.0601Z" fill="#233447"/>
<path d="M10.5784 32.2699L11.2698 26.0869L6.8501 26.2234L10.5784 32.2699Z" fill="#CC6228"/>
<path d="M24.7305 26.0869L25.4219 32.2699L29.164 26.2234L24.7305 26.0869Z" fill="#CC6228"/>
<path d="M28.0914 19.2793L20.1536 19.6603L20.8881 24.0598L22.0608 21.4108L24.8848 22.7968L28.0914 19.2793Z" fill="#CC6228"/>
<path d="M11.1289 22.7968L13.9391 21.4108L15.1118 24.0598L15.8463 19.6603L7.90845 19.2793L11.1289 22.7968Z" fill="#CC6228"/>
<path d="M7.90845 19.2793L11.2416 26.2843L11.1289 22.7968L7.90845 19.2793Z" fill="#E27525"/>
<path d="M24.8849 22.7968L24.7583 26.2843L28.0915 19.2793L24.8849 22.7968Z" fill="#E27525"/>
<path d="M15.8467 19.6602L15.1122 24.0597L16.0442 29.2527L16.2418 22.4157L15.8467 19.6602Z" fill="#E27525"/>
<path d="M20.1534 19.6602L19.7722 22.4007L19.9558 29.2527L20.8879 24.0597L20.1534 19.6602Z" fill="#E27525"/>
<path d="M20.8879 24.0599L19.9558 29.2529L20.6333 29.7554L24.758 26.2844L24.8846 22.7969L20.8879 24.0599Z" fill="#F5841F"/>
<path d="M11.1292 22.7969L11.2418 26.2844L15.3666 29.7554L16.0441 29.2529L15.112 24.0599L11.1292 22.7969Z" fill="#F5841F"/>
<path d="M20.9727 34.5375L21.0145 33.1215L20.6625 32.787H15.3372L14.9992 33.1215L15.027 34.5375L10.5781 32.2695L12.132 33.639L15.2955 36H20.7043L23.8677 33.639L25.4216 32.2695L20.9727 34.5375Z" fill="#C0AC9D"/>
<path d="M20.6333 29.7554L19.9558 29.2529H16.0439L15.3664 29.7554L14.9991 33.1214L15.3372 32.7869H20.6625L21.0144 33.1214L20.6333 29.7554Z" fill="#161616"/>
<path d="M34.8135 11.985L36.0001 5.772L34.2208 0L20.6335 10.8735L25.8601 15.639L33.2456 17.97L34.8705 15.9135L34.1638 15.366L35.2934 14.253L34.4323 13.5225L35.5619 12.594L34.8135 11.985Z" fill="#763E1A"/>
<path d="M0 5.772L1.20056 11.985L0.43821 12.594L1.56782 13.5225L0.706701 14.253L1.83631 15.366L1.12961 15.9135L2.75446 17.97L10.14 15.639L15.3666 10.8735L1.77927 0L0 5.772Z" fill="#763E1A"/>
<path d="M33.2457 17.9697L25.8601 15.6387L28.0915 19.2792L24.7583 26.2842L29.1641 26.2227H35.7177L33.2457 17.9697Z" fill="#F5841F"/>
<path d="M10.14 15.6387L2.75441 17.9697L0.296265 26.2227H6.84994L11.2418 26.2842L7.9086 19.2792L10.14 15.6387Z" fill="#F5841F"/>
<path d="M20.1536 19.6608L20.6335 10.8738L22.7661 4.61426H13.234L15.3666 10.8738L15.8466 19.6608L16.0302 22.4313L16.0441 29.2533H19.956L19.9699 22.4313L20.1536 19.6608Z" fill="#F5841F"/>
</svg>
