<svg width="24" height="25" viewBox="0 0 24 25" fill="none" xmlns="http://www.w3.org/2000/svg">
<path d="M16.19 2.5H7.81C4.17 2.5 2 4.67 2 8.31V16.68C2 20.33 4.17 22.5 7.81 22.5H16.18C19.82 22.5 21.99 20.33 21.99 16.69V8.31C22 4.67 19.83 2.5 16.19 2.5ZM7 13.81C6.28 13.81 5.69 13.22 5.69 12.5C5.69 11.78 6.28 11.19 7 11.19C7.72 11.19 8.31 11.78 8.31 12.5C8.31 13.22 7.72 13.81 7 13.81ZM12 13.81C11.28 13.81 10.69 13.22 10.69 12.5C10.69 11.78 11.28 11.19 12 11.19C12.72 11.19 13.31 11.78 13.31 12.5C13.31 13.22 12.72 13.81 12 13.81ZM17 13.81C16.28 13.81 15.69 13.22 15.69 12.5C15.69 11.78 16.28 11.19 17 11.19C17.72 11.19 18.31 11.78 18.31 12.5C18.31 13.22 17.72 13.81 17 13.81Z" fill="#414459"/>
</svg>
