<svg width="14" height="14" viewBox="0 0 14 14" fill="none" xmlns="http://www.w3.org/2000/svg">
<g id="icon/outlined/suggested/close">
<path id="Vector" d="M7.70636 7L11.2952 2.72207C11.3554 2.65098 11.3048 2.54297 11.2118 2.54297H10.1208C10.0566 2.54297 9.99503 2.57168 9.95265 2.6209L6.99269 6.14961L4.03273 2.6209C3.99171 2.57168 3.93019 2.54297 3.86456 2.54297H2.77355C2.68058 2.54297 2.62999 2.65098 2.69015 2.72207L6.27902 7L2.69015 11.2779C2.67667 11.2938 2.66803 11.3132 2.66524 11.3338C2.66245 11.3544 2.66564 11.3754 2.67442 11.3942C2.6832 11.4131 2.69721 11.429 2.71478 11.4402C2.73235 11.4513 2.75275 11.4571 2.77355 11.457H3.86456C3.92882 11.457 3.99034 11.4283 4.03273 11.3791L6.99269 7.85039L9.95265 11.3791C9.99366 11.4283 10.0552 11.457 10.1208 11.457H11.2118C11.3048 11.457 11.3554 11.349 11.2952 11.2779L7.70636 7Z" fill="#A4A7BC"/>
</g>
</svg>
