<svg width="21" height="21" viewBox="0 0 21 21" fill="none" xmlns="http://www.w3.org/2000/svg">
<g id="u:lock-alt">
<path id="Vector" d="M10.2096 11.0046C9.98862 11.0046 9.77666 11.0924 9.62038 11.2486C9.4641 11.4049 9.3763 11.6169 9.3763 11.8379V14.3379C9.3763 14.5589 9.4641 14.7709 9.62038 14.9271C9.77666 15.0834 9.98862 15.1712 10.2096 15.1712C10.4306 15.1712 10.6426 15.0834 10.7989 14.9271C10.9552 14.7709 11.043 14.5589 11.043 14.3379V11.8379C11.043 11.6169 10.9552 11.4049 10.7989 11.2486C10.6426 11.0924 10.4306 11.0046 10.2096 11.0046ZM14.3763 7.67122V6.00456C14.3763 4.89949 13.9373 3.83968 13.1559 3.05828C12.3745 2.27688 11.3147 1.83789 10.2096 1.83789C9.10457 1.83789 8.04476 2.27688 7.26336 3.05828C6.48196 3.83968 6.04297 4.89949 6.04297 6.00456V7.67122C5.37993 7.67122 4.74404 7.93462 4.2752 8.40346C3.80636 8.8723 3.54297 9.50818 3.54297 10.1712V16.0046C3.54297 16.6676 3.80636 17.3035 4.2752 17.7723C4.74404 18.2412 5.37993 18.5046 6.04297 18.5046H14.3763C15.0393 18.5046 15.6752 18.2412 16.1441 17.7723C16.6129 17.3035 16.8763 16.6676 16.8763 16.0046V10.1712C16.8763 9.50818 16.6129 8.8723 16.1441 8.40346C15.6752 7.93462 15.0393 7.67122 14.3763 7.67122ZM7.70964 6.00456C7.70964 5.34152 7.97303 4.70563 8.44187 4.23679C8.91071 3.76795 9.54659 3.50456 10.2096 3.50456C10.8727 3.50456 11.5086 3.76795 11.9774 4.23679C12.4462 4.70563 12.7096 5.34152 12.7096 6.00456V7.67122H7.70964V6.00456ZM15.2096 16.0046C15.2096 16.2256 15.1218 16.4375 14.9656 16.5938C14.8093 16.7501 14.5973 16.8379 14.3763 16.8379H6.04297C5.82195 16.8379 5.60999 16.7501 5.45371 16.5938C5.29743 16.4375 5.20964 16.2256 5.20964 16.0046V10.1712C5.20964 9.95021 5.29743 9.73825 5.45371 9.58197C5.60999 9.42569 5.82195 9.33789 6.04297 9.33789H14.3763C14.5973 9.33789 14.8093 9.42569 14.9656 9.58197C15.1218 9.73825 15.2096 9.95021 15.2096 10.1712V16.0046Z" fill="#6C708A"/>
</g>
</svg>
