<svg width="40" height="40" viewBox="0 0 40 40" fill="none" xmlns="http://www.w3.org/2000/svg">
<rect width="40" height="40" rx="10" fill="#E9F1FC"/>
<path d="M16.5703 23.2704L23.1103 16.7305" stroke="#1E6FD9" stroke-width="1.5" stroke-linecap="round" stroke-linejoin="round"/>
<path d="M16.98 18.3701C17.6593 18.3701 18.21 17.8195 18.21 17.1402C18.21 16.4609 17.6593 15.9102 16.98 15.9102C16.3007 15.9102 15.75 16.4609 15.75 17.1402C15.75 17.8195 16.3007 18.3701 16.98 18.3701Z" stroke="#1E6FD9" stroke-width="1.5" stroke-linecap="round" stroke-linejoin="round"/>
<path d="M23.52 24.0909C24.1993 24.0909 24.75 23.5402 24.75 22.8608C24.75 22.1815 24.1993 21.6309 23.52 21.6309C22.8407 21.6309 22.29 22.1815 22.29 22.8608C22.29 23.5402 22.8407 24.0909 23.52 24.0909Z" stroke="#1E6FD9" stroke-width="1.5" stroke-linecap="round" stroke-linejoin="round"/>
<path d="M20 30C25.5228 30 30 25.5228 30 20C30 14.4772 25.5228 10 20 10C14.4772 10 10 14.4772 10 20C10 25.5228 14.4772 30 20 30Z" stroke="#1E6FD9" stroke-width="1.5" stroke-linecap="round" stroke-linejoin="round"/>
</svg>
