<svg width="22" height="22" viewBox="0 0 22 22" fill="none" xmlns="http://www.w3.org/2000/svg">
<g id="Warning">
<path id="Vector" d="M11 8.25V12.375" stroke="#DE3030" stroke-width="1.7" stroke-linecap="round" stroke-linejoin="round"/>
<path id="Vector_2" d="M9.80989 3.43619L2.24943 16.498C2.12845 16.707 2.06465 16.9442 2.06445 17.1857C2.06425 17.4272 2.12766 17.6645 2.24829 17.8737C2.36892 18.0829 2.54252 18.2566 2.75163 18.3774C2.96073 18.4982 3.19797 18.5618 3.43946 18.5618H18.5604C18.8019 18.5618 19.0391 18.4982 19.2482 18.3774C19.4573 18.2566 19.6309 18.0829 19.7515 17.8737C19.8722 17.6645 19.9356 17.4272 19.9354 17.1857C19.9352 16.9442 19.8714 16.707 19.7504 16.498L12.1899 3.43619C12.0692 3.22752 11.8956 3.05427 11.6868 2.93384C11.4779 2.8134 11.241 2.75 10.9999 2.75C10.7588 2.75 10.5219 2.8134 10.3131 2.93384C10.1042 3.05427 9.93067 3.22752 9.80989 3.43619V3.43619Z" stroke="#DE3030" stroke-width="1.7" stroke-linecap="round" stroke-linejoin="round"/>
<path id="Vector_3" d="M11 16.5C11.5695 16.5 12.0312 16.0383 12.0312 15.4688C12.0312 14.8992 11.5695 14.4375 11 14.4375C10.4305 14.4375 9.96875 14.8992 9.96875 15.4688C9.96875 16.0383 10.4305 16.5 11 16.5Z" fill="#DE3030"/>
</g>
</svg>
