<svg width="22" height="22" viewBox="0 0 22 22" fill="none" xmlns="http://www.w3.org/2000/svg">
<g id="CheckCircleOutlined">
<path id="Vector" d="M15.2077 6.94837L9.16683 12.9892L5.876 9.70754L4.5835 11L9.16683 15.5834L16.5002 8.25004L15.2077 6.94837ZM11.0002 1.83337C5.94016 1.83337 1.8335 5.94004 1.8335 11C1.8335 16.06 5.94016 20.1667 11.0002 20.1667C16.0602 20.1667 20.1668 16.06 20.1668 11C20.1668 5.94004 16.0602 1.83337 11.0002 1.83337ZM11.0002 18.3334C6.9485 18.3334 3.66683 15.0517 3.66683 11C3.66683 6.94837 6.9485 3.66671 11.0002 3.66671C15.0518 3.66671 18.3335 6.94837 18.3335 11C18.3335 15.0517 15.0518 18.3334 11.0002 18.3334Z" fill="#64B749"/>
</g>
</svg>
