<svg width="40" height="40" viewBox="0 0 40 40" fill="none" xmlns="http://www.w3.org/2000/svg">
<rect width="40" height="40" rx="10" fill="#E9F1FC"/>
<path d="M26.5 20.6504V24.3504C26.5 27.4704 23.59 30.0004 20 30.0004C16.41 30.0004 13.5 27.4704 13.5 24.3504V20.6504C13.5 23.7704 16.41 26.0004 20 26.0004C23.59 26.0004 26.5 23.7704 26.5 20.6504Z" stroke="#1E6FD9" stroke-width="1.5" stroke-linecap="round" stroke-linejoin="round"/>
<path d="M26.5 15.65C26.5 16.56 26.25 17.4 25.81 18.12C24.74 19.88 22.54 21 20 21C17.46 21 15.26 19.88 14.19 18.12C13.75 17.4 13.5 16.56 13.5 15.65C13.5 14.09 14.23 12.68 15.4 11.66C16.58 10.63 18.2 10 20 10C21.8 10 23.42 10.63 24.6 11.65C25.77 12.68 26.5 14.09 26.5 15.65Z" stroke="#1E6FD9" stroke-width="1.5" stroke-linecap="round" stroke-linejoin="round"/>
<path d="M26.5 15.65V20.65C26.5 23.77 23.59 26 20 26C16.41 26 13.5 23.77 13.5 20.65V15.65C13.5 12.53 16.41 10 20 10C21.8 10 23.42 10.63 24.6 11.65C25.77 12.68 26.5 14.09 26.5 15.65Z" stroke="#1E6FD9" stroke-width="1.5" stroke-linecap="round" stroke-linejoin="round"/>
</svg>
