<svg width="14" height="14" viewBox="0 0 14 14" fill="none" xmlns="http://www.w3.org/2000/svg">
<path d="M12.8333 3.79167H9.33331" stroke="#56607A" stroke-width="1.1" stroke-miterlimit="10" stroke-linecap="round" stroke-linejoin="round"/>
<path d="M3.50002 3.79167H1.16669" stroke="#56607A" stroke-width="1.1" stroke-miterlimit="10" stroke-linecap="round" stroke-linejoin="round"/>
<path d="M5.83335 5.83333C6.96093 5.83333 7.87502 4.91925 7.87502 3.79167C7.87502 2.66409 6.96093 1.75 5.83335 1.75C4.70577 1.75 3.79169 2.66409 3.79169 3.79167C3.79169 4.91925 4.70577 5.83333 5.83335 5.83333Z" stroke="#56607A" stroke-width="1.1" stroke-miterlimit="10" stroke-linecap="round" stroke-linejoin="round"/>
<path d="M12.8333 10.2083H10.5" stroke="#56607A" stroke-width="1.1" stroke-miterlimit="10" stroke-linecap="round" stroke-linejoin="round"/>
<path d="M4.66669 10.2083H1.16669" stroke="#56607A" stroke-width="1.1" stroke-miterlimit="10" stroke-linecap="round" stroke-linejoin="round"/>
<path d="M8.16667 12.25C9.29425 12.25 10.2083 11.3359 10.2083 10.2083C10.2083 9.08076 9.29425 8.16667 8.16667 8.16667C7.03909 8.16667 6.125 9.08076 6.125 10.2083C6.125 11.3359 7.03909 12.25 8.16667 12.25Z" stroke="#56607A" stroke-width="1.1" stroke-miterlimit="10" stroke-linecap="round" stroke-linejoin="round"/>
</svg>
