<svg xmlns="http://www.w3.org/2000/svg" width="25" height="24" viewBox="0 0 25 24" fill="none">
<path d="M12.75 2C10.13 2 8 4.13 8 6.75C8 9.32 10.01 11.4 12.63 11.49C12.71 11.48 12.79 11.48 12.85 11.49C12.87 11.49 12.88 11.49 12.9 11.49C12.91 11.49 12.91 11.49 12.92 11.49C15.48 11.4 17.49 9.32 17.5 6.75C17.5 4.13 15.37 2 12.75 2Z" fill="#EFF0F7"/>
<path d="M17.8309 14.1499C15.0409 12.2899 10.4909 12.2899 7.68094 14.1499C6.41094 14.9999 5.71094 16.1499 5.71094 17.3799C5.71094 18.6099 6.41094 19.7499 7.67094 20.5899C9.07094 21.5299 10.9109 21.9999 12.7509 21.9999C14.5909 21.9999 16.4309 21.5299 17.8309 20.5899C19.0909 19.7399 19.7909 18.5999 19.7909 17.3599C19.7809 16.1299 19.0909 14.9899 17.8309 14.1499Z" fill="#EFF0F7"/>
</svg>