<svg width="32" height="32" viewBox="0 0 32 32" fill="none" xmlns="http://www.w3.org/2000/svg">
<rect width="32" height="32" rx="8" fill="#1E6FD9"/>
<path d="M13.6585 10.1581C11.8007 10.6926 10.4713 11.2934 9.8196 11.9164C13.9017 10.1518 17.9255 10.1739 21.9427 11.9575C20.8529 11.1669 19.6197 10.5843 18.3081 10.2403C18.3405 10.1637 18.3984 10.0999 18.4725 10.0591C18.5466 10.0184 18.6325 10.0032 18.7166 10.0158C21.1451 10.2403 22.8473 11.4421 23.7811 13.6368C24.4185 15.1623 24.8206 16.7716 24.9743 18.4121C25.0456 18.9041 24.9678 19.4057 24.7507 19.8552C24.5335 20.3047 24.1863 20.6824 23.7519 20.942C22.7582 21.5806 21.5989 21.9304 20.4091 21.9509C20.3524 21.9573 20.2949 21.9489 20.2425 21.9267C20.1901 21.9045 20.1447 21.8692 20.1108 21.8244C19.8352 21.4796 19.5466 21.1444 19.2386 20.7776C20.2859 20.4613 21.2132 19.9996 21.8973 19.1616C21.8422 19.19 21.7871 19.2153 21.7352 19.247C20.4611 20.0216 19.0336 20.5249 17.5461 20.7238C16.2121 20.8676 14.8623 20.77 13.5645 20.436C12.3804 20.1649 11.231 19.7661 10.1373 19.247C10.1072 19.2323 10.0737 19.2257 10.0401 19.228C10.7125 19.9947 11.6063 20.5457 12.6048 20.8092C12.2805 21.1982 11.9725 21.5808 11.6548 21.954C11.6315 21.9716 11.605 21.9846 11.5766 21.9922C11.5482 21.9998 11.5186 22.0019 11.4894 21.9983C10.2942 22.002 9.12617 21.6513 8.14006 20.9926C7.73573 20.728 7.41661 20.357 7.21976 19.9226C7.02292 19.4883 6.9564 19.0083 7.02794 18.5386C7.19725 16.8749 7.59193 15.2404 8.20167 13.6779C8.59777 12.6377 9.29909 11.7342 10.2182 11.0801C11.1373 10.4261 12.2334 10.0504 13.37 10C13.4817 10.0132 13.5909 10.0419 13.6942 10.0854L13.6585 10.1581ZM20.3507 16.8562C20.351 16.4423 20.1865 16.0445 19.892 15.7466C19.5974 15.4486 19.1958 15.2739 18.7717 15.2591C18.3379 15.2591 17.9218 15.4272 17.615 15.7264C17.3083 16.0256 17.1359 16.4314 17.1359 16.8546C17.1359 17.2777 17.3083 17.6835 17.615 17.9827C17.9218 18.2819 18.3379 18.45 18.7717 18.45C19.1966 18.4393 19.6001 18.2662 19.8954 17.9681C20.1908 17.67 20.3543 17.2707 20.3507 16.8562ZM11.5672 16.8562C11.5671 17.269 11.7325 17.6656 12.0282 17.961C12.3239 18.2565 12.7263 18.4275 13.1495 18.4374C13.3643 18.4359 13.5767 18.3932 13.7746 18.3117C13.9725 18.2302 14.152 18.1114 14.3028 17.9623C14.4537 17.8131 14.5729 17.6364 14.6537 17.4423C14.7346 17.2481 14.7754 17.0404 14.7739 16.8309C14.7724 16.6213 14.7286 16.4142 14.645 16.2212C14.5615 16.0281 14.4397 15.8531 14.2868 15.706C14.1338 15.5588 13.9527 15.4425 13.7536 15.3637C13.5546 15.2849 13.3416 15.245 13.1268 15.2465C12.7031 15.2621 12.3025 15.4391 12.011 15.7394C11.7194 16.0397 11.5601 16.4395 11.5672 16.853V16.8562Z" fill="white"/>
</svg>
