<svg width="32" height="32" viewBox="0 0 32 32" fill="none" xmlns="http://www.w3.org/2000/svg">
<rect width="32" height="32" rx="8" fill="#1E6FD9"/>
<path d="M19.3333 9.54175C19.3333 10.5751 18.4916 11.4167 17.4583 11.4167H14.5416C14.025 11.4167 13.5583 11.2084 13.2166 10.8667C12.875 10.5251 12.6666 10.0584 12.6666 9.54175C12.6666 8.50841 13.5083 7.66675 14.5416 7.66675H17.4583C17.975 7.66675 18.4416 7.87508 18.7833 8.21675C19.125 8.55841 19.3333 9.02508 19.3333 9.54175Z" fill="white"/>
<path d="M21.6917 10.1918C21.5 10.0334 21.2834 9.90842 21.05 9.81676C20.8084 9.72509 20.5667 9.91676 20.5167 10.1668C20.2334 11.5918 18.975 12.6668 17.4584 12.6668H14.5417C13.7084 12.6668 12.925 12.3418 12.3334 11.7501C11.9 11.3168 11.6 10.7668 11.4834 10.1751C11.4334 9.92509 11.1834 9.72509 10.9417 9.82509C9.97504 10.2168 9.33337 11.1001 9.33337 12.8751V21.0001C9.33337 23.5001 10.825 24.3334 12.6667 24.3334H19.3334C21.175 24.3334 22.6667 23.5001 22.6667 21.0001V12.8751C22.6667 11.5168 22.2917 10.6834 21.6917 10.1918ZM12.6667 16.2084H16C16.3417 16.2084 16.625 16.4918 16.625 16.8334C16.625 17.1751 16.3417 17.4584 16 17.4584H12.6667C12.325 17.4584 12.0417 17.1751 12.0417 16.8334C12.0417 16.4918 12.325 16.2084 12.6667 16.2084ZM19.3334 20.7918H12.6667C12.325 20.7918 12.0417 20.5084 12.0417 20.1668C12.0417 19.8251 12.325 19.5418 12.6667 19.5418H19.3334C19.675 19.5418 19.9584 19.8251 19.9584 20.1668C19.9584 20.5084 19.675 20.7918 19.3334 20.7918Z" fill="white"/>
</svg>
