<svg width="32" height="32" viewBox="0 0 32 32" fill="none" xmlns="http://www.w3.org/2000/svg">
<rect width="32" height="32" rx="8" fill="#1E6FD9"/>
<path d="M21.45 9.47511L16.8667 7.75845C16.3917 7.58345 15.6167 7.58345 15.1417 7.75845L10.5584 9.47511C9.67504 9.80845 8.95837 10.8418 8.95837 11.7834V18.5334C8.95837 19.2084 9.40004 20.1001 9.94171 20.5001L14.525 23.9251C15.3334 24.5334 16.6584 24.5334 17.4667 23.9251L22.05 20.5001C22.5917 20.0918 23.0334 19.2084 23.0334 18.5334V11.7834C23.0417 10.8418 22.325 9.80845 21.45 9.47511ZM16.625 16.7251V18.9168C16.625 19.2584 16.3417 19.5418 16 19.5418C15.6584 19.5418 15.375 19.2584 15.375 18.9168V16.7251C14.5334 16.4584 13.9167 15.6751 13.9167 14.7501C13.9167 13.6001 14.85 12.6668 16 12.6668C17.15 12.6668 18.0834 13.6001 18.0834 14.7501C18.0834 15.6834 17.4667 16.4584 16.625 16.7251Z" fill="white"/>
</svg>
