<svg width="32" height="32" viewBox="0 0 32 32" fill="none" xmlns="http://www.w3.org/2000/svg">
<rect width="32" height="32" rx="8" fill="#1E6FD9"/>
<path fill-rule="evenodd" clip-rule="evenodd" d="M6 16C6 10.4772 10.4772 6 16 6C21.5228 6 26 10.4772 26 16C26 21.5228 21.5228 26 16 26C10.4772 26 6 21.5228 6 16ZM14.3919 13.307L11.1902 11.7252C11.1628 11.7116 11.1367 11.7052 11.1131 11.7052C11.0795 11.7052 11.0511 11.7183 11.0311 11.7421C11.0115 11.7654 11 11.7991 11 11.8413V18.6323C11 18.7479 11.0856 18.8847 11.1902 18.9364L14.1489 20.3983C14.19 20.4186 14.2292 20.4282 14.2646 20.4282C14.3643 20.4282 14.4342 20.352 14.4342 20.2241V13.3747C14.4342 13.3461 14.4178 13.3199 14.3919 13.307ZM21.017 20.396L18.1419 18.9755L21.3022 13.9008V20.2218C21.3022 20.3951 21.1739 20.4735 21.017 20.396ZM14.7377 13.8154V17.2957L17.8684 18.8425L14.7377 13.8154ZM17.9635 11.6782L21.227 13.2906C21.2676 13.3107 21.2821 13.3609 21.2583 13.3991L18.0466 18.5563L15.8012 14.9507L17.8127 11.7207C17.834 11.6864 17.8736 11.6667 17.9132 11.6667C17.9143 11.6667 17.9153 11.667 17.9164 11.667C17.9325 11.6674 17.9487 11.6708 17.9635 11.6782Z" fill="white"/>
</svg>
