<svg width="24" height="25" viewBox="0 0 24 25" fill="none" xmlns="http://www.w3.org/2000/svg">
<path d="M12.75 16.4203H13.4C14.05 16.4203 14.59 15.8403 14.59 15.1403C14.59 14.2703 14.28 14.1003 13.77 13.9203L12.76 13.5703V16.4203H12.75Z" fill="white"/>
<path d="M11.9701 2.40041C6.45007 2.42041 1.98007 6.91041 2.00007 12.4304C2.02007 17.9504 6.51007 22.4204 12.0301 22.4004C17.5501 22.3804 22.0201 17.8904 22.0001 12.3704C21.9801 6.85041 17.4901 2.39041 11.9701 2.40041ZM14.2601 12.5004C15.0401 12.7704 16.0901 13.3504 16.0901 15.1404C16.0901 16.6804 14.8801 17.9204 13.4001 17.9204H12.7501V18.5004C12.7501 18.9104 12.4101 19.2504 12.0001 19.2504C11.5901 19.2504 11.2501 18.9104 11.2501 18.5004V17.9204H10.8901C9.25007 17.9204 7.92007 16.5404 7.92007 14.8404C7.92007 14.4304 8.26007 14.0904 8.67007 14.0904C9.08007 14.0904 9.42007 14.4304 9.42007 14.8404C9.42007 15.7104 10.0801 16.4204 10.8901 16.4204H11.2501V13.0404L9.74007 12.5004C8.96007 12.2304 7.91007 11.6504 7.91007 9.86041C7.91007 8.32041 9.12007 7.08041 10.6001 7.08041H11.2501V6.50041C11.2501 6.09041 11.5901 5.75041 12.0001 5.75041C12.4101 5.75041 12.7501 6.09041 12.7501 6.50041V7.08041H13.1101C14.7501 7.08041 16.0801 8.46041 16.0801 10.1604C16.0801 10.5704 15.7401 10.9104 15.3301 10.9104C14.9201 10.9104 14.5801 10.5704 14.5801 10.1604C14.5801 9.29041 13.9201 8.58041 13.1101 8.58041H12.7501V11.9604L14.2601 12.5004Z" fill="white"/>
<path d="M9.42188 9.87008C9.42188 10.7401 9.73187 10.9101 10.2419 11.0901L11.2519 11.4401V8.58008H10.6019C9.95188 8.58008 9.42188 9.16008 9.42188 9.87008Z" fill="white"/>
</svg>
