<svg width="76" height="30" viewBox="0 0 76 30" fill="none" xmlns="http://www.w3.org/2000/svg">
<g clip-path="url(#clip0_7068_9555)">
<path d="M75.9988 2.5188H72.46V8.80807H75.9988V2.5188Z" fill="#E32828"/>
<path d="M75.9998 2.51873C75.9998 1.12743 74.8838 0 73.5066 0H72.4609V5.03835H73.5066C74.8838 5.03835 75.9998 3.91092 75.9998 2.51962V2.51873Z" fill="#950403"/>
<path d="M3.61844 8.69338C-1.20615 13.5674 -1.20615 21.4701 3.61844 26.344C5.93576 28.6842 9.07798 30 12.3548 30H73.4255C74.8466 30 75.9996 28.8361 75.9996 27.3995V5.03833H12.3539C9.0771 5.03833 5.93488 6.35322 3.61756 8.69427L3.61844 8.69338Z" fill="#E32828"/>
<path d="M14.792 21V12.6H20.072V14.04H16.376V16.068H19.784V17.508H16.376V21H14.792ZM23.9153 21.168C23.3233 21.168 22.7993 21.044 22.3433 20.796C21.8953 20.54 21.5433 20.184 21.2873 19.728C21.0393 19.264 20.9153 18.72 20.9153 18.096V17.952C20.9153 17.328 21.0393 16.788 21.2873 16.332C21.5353 15.868 21.8833 15.512 22.3313 15.264C22.7793 15.008 23.2993 14.88 23.8913 14.88C24.4753 14.88 24.9833 15.012 25.4153 15.276C25.8473 15.532 26.1833 15.892 26.4233 16.356C26.6633 16.812 26.7833 17.344 26.7833 17.952V18.468H22.4513C22.4673 18.876 22.6193 19.208 22.9073 19.464C23.1953 19.72 23.5473 19.848 23.9633 19.848C24.3873 19.848 24.6993 19.756 24.8993 19.572C25.0993 19.388 25.2513 19.184 25.3553 18.96L26.5913 19.608C26.4793 19.816 26.3153 20.044 26.0993 20.292C25.8913 20.532 25.6113 20.74 25.2593 20.916C24.9073 21.084 24.4593 21.168 23.9153 21.168ZM22.4633 17.34H25.2473C25.2153 16.996 25.0753 16.72 24.8273 16.512C24.5873 16.304 24.2713 16.2 23.8793 16.2C23.4713 16.2 23.1473 16.304 22.9073 16.512C22.6673 16.72 22.5193 16.996 22.4633 17.34ZM29.9771 21.168C29.5531 21.168 29.1731 21.096 28.8371 20.952C28.5011 20.8 28.2331 20.584 28.0331 20.304C27.8411 20.016 27.7451 19.668 27.7451 19.26C27.7451 18.852 27.8411 18.512 28.0331 18.24C28.2331 17.96 28.5051 17.752 28.8491 17.616C29.2011 17.472 29.6011 17.4 30.0491 17.4H31.6811V17.064C31.6811 16.784 31.5931 16.556 31.4171 16.38C31.2411 16.196 30.9611 16.104 30.5771 16.104C30.2011 16.104 29.9211 16.192 29.7371 16.368C29.5531 16.536 29.4331 16.756 29.3771 17.028L27.9851 16.56C28.0811 16.256 28.2331 15.98 28.4411 15.732C28.6571 15.476 28.9411 15.272 29.2931 15.12C29.6531 14.96 30.0891 14.88 30.6011 14.88C31.3851 14.88 32.0051 15.076 32.4611 15.468C32.9171 15.86 33.1451 16.428 33.1451 17.172V19.392C33.1451 19.632 33.2571 19.752 33.4811 19.752H33.9611V21H32.9531C32.6571 21 32.4131 20.928 32.2211 20.784C32.0291 20.64 31.9331 20.448 31.9331 20.208V20.196H31.7051C31.6731 20.292 31.6011 20.42 31.4891 20.58C31.3771 20.732 31.2011 20.868 30.9611 20.988C30.7211 21.108 30.3931 21.168 29.9771 21.168ZM30.2411 19.944C30.6651 19.944 31.0091 19.828 31.2731 19.596C31.5451 19.356 31.6811 19.04 31.6811 18.648V18.528H30.1571C29.8771 18.528 29.6571 18.588 29.4971 18.708C29.3371 18.828 29.2571 18.996 29.2571 19.212C29.2571 19.428 29.3411 19.604 29.5091 19.74C29.6771 19.876 29.9211 19.944 30.2411 19.944ZM36.913 21C36.521 21 36.201 20.88 35.953 20.64C35.713 20.392 35.593 20.064 35.593 19.656V16.296H34.105V15.048H35.593V13.2H37.105V15.048H38.737V16.296H37.105V19.392C37.105 19.632 37.217 19.752 37.441 19.752H38.593V21H36.913ZM42.3736 21.096C41.9096 21.096 41.5016 20.992 41.1496 20.784C40.8056 20.568 40.5376 20.272 40.3456 19.896C40.1536 19.52 40.0576 19.088 40.0576 18.6V15.048H41.5696V18.48C41.5696 18.928 41.6776 19.264 41.8936 19.488C42.1176 19.712 42.4336 19.824 42.8416 19.824C43.3056 19.824 43.6656 19.672 43.9216 19.368C44.1776 19.056 44.3056 18.624 44.3056 18.072V15.048H45.8176V21H44.3296V20.22H44.1136C44.0176 20.42 43.8376 20.616 43.5736 20.808C43.3096 21 42.9096 21.096 42.3736 21.096ZM47.5002 21V15.048H48.9882V15.72H49.2042C49.2922 15.48 49.4362 15.304 49.6362 15.192C49.8442 15.08 50.0842 15.024 50.3562 15.024H51.0762V16.368H50.3322C49.9482 16.368 49.6322 16.472 49.3842 16.68C49.1362 16.88 49.0122 17.192 49.0122 17.616V21H47.5002ZM54.759 21.168C54.167 21.168 53.643 21.044 53.187 20.796C52.739 20.54 52.387 20.184 52.131 19.728C51.883 19.264 51.759 18.72 51.759 18.096V17.952C51.759 17.328 51.883 16.788 52.131 16.332C52.379 15.868 52.727 15.512 53.175 15.264C53.623 15.008 54.143 14.88 54.735 14.88C55.319 14.88 55.827 15.012 56.259 15.276C56.691 15.532 57.027 15.892 57.267 16.356C57.507 16.812 57.627 17.344 57.627 17.952V18.468H53.295C53.311 18.876 53.463 19.208 53.751 19.464C54.039 19.72 54.391 19.848 54.807 19.848C55.231 19.848 55.543 19.756 55.743 19.572C55.943 19.388 56.095 19.184 56.199 18.96L57.435 19.608C57.323 19.816 57.159 20.044 56.943 20.292C56.735 20.532 56.455 20.74 56.103 20.916C55.751 21.084 55.303 21.168 54.759 21.168ZM53.307 17.34H56.091C56.059 16.996 55.919 16.72 55.671 16.512C55.431 16.304 55.115 16.2 54.723 16.2C54.315 16.2 53.991 16.304 53.751 16.512C53.511 16.72 53.363 16.996 53.307 17.34ZM61.3728 21.168C60.9008 21.168 60.4568 21.052 60.0408 20.82C59.6328 20.58 59.3048 20.232 59.0568 19.776C58.8088 19.32 58.6848 18.768 58.6848 18.12V17.928C58.6848 17.28 58.8088 16.728 59.0568 16.272C59.3048 15.816 59.6328 15.472 60.0408 15.24C60.4488 15 60.8928 14.88 61.3728 14.88C61.7328 14.88 62.0328 14.924 62.2728 15.012C62.5208 15.092 62.7208 15.196 62.8728 15.324C63.0248 15.452 63.1408 15.588 63.2208 15.732H63.4368V12.6H64.9488V21H63.4608V20.28H63.2448C63.1088 20.504 62.8968 20.708 62.6088 20.892C62.3288 21.076 61.9168 21.168 61.3728 21.168ZM61.8288 19.848C62.2928 19.848 62.6808 19.7 62.9928 19.404C63.3048 19.1 63.4608 18.66 63.4608 18.084V17.964C63.4608 17.388 63.3048 16.952 62.9928 16.656C62.6888 16.352 62.3008 16.2 61.8288 16.2C61.3648 16.2 60.9768 16.352 60.6648 16.656C60.3528 16.952 60.1968 17.388 60.1968 17.964V18.084C60.1968 18.66 60.3528 19.1 60.6648 19.404C60.9768 19.7 61.3648 19.848 61.8288 19.848Z" fill="white"/>
</g>
<defs>
<clipPath id="clip0_7068_9555">
<rect width="76" height="30" fill="white"/>
</clipPath>
</defs>
</svg>
