<svg width="100%" height="100%" viewBox="0 0 24 24" fill="none" xmlns="http://www.w3.org/2000/svg">
<g filter="url(#filter0_b_5259_8528)">
<rect width="24" height="24" rx="12" fill="url(#paint0_linear_5259_8528)" fill-opacity="0.5"/>
<rect x="0.18" y="0.18" width="23.64" height="23.64" rx="11.82" stroke="url(#paint1_linear_5259_8528)" stroke-width="0.36"/>
</g>
<path d="M11.9011 4.8537C8.01569 4.8537 4.854 8.01653 4.854 11.9034C4.854 15.7902 8.01569 18.9546 11.9011 18.9546C15.7865 18.9546 18.9482 15.7918 18.9482 11.905C18.9482 8.01815 15.7865 4.8537 11.9011 4.8537ZM14.9376 10.5595L11.4132 14.3552C11.2538 14.5277 11.0359 14.6155 10.8163 14.6155C10.6276 14.6155 10.4406 14.5504 10.2861 14.4203L8.38812 12.7933C8.04659 12.5005 8.00755 11.988 8.3003 11.6463C8.59305 11.3046 9.10536 11.264 9.4469 11.5584L10.7513 12.6762L13.7438 9.45314C14.0496 9.12449 14.5635 9.10497 14.8936 9.41084C15.2238 9.71671 15.2417 10.2308 14.9376 10.5595Z" fill="url(#paint2_linear_5259_8528)"/>
<defs>
<filter id="filter0_b_5259_8528" x="-4.32" y="-4.32" width="32.64" height="32.64" filterUnits="userSpaceOnUse" color-interpolation-filters="sRGB">
<feFlood flood-opacity="0" result="BackgroundImageFix"/>
<feGaussianBlur in="BackgroundImageFix" stdDeviation="2.16"/>
<feComposite in2="SourceAlpha" operator="in" result="effect1_backgroundBlur_5259_8528"/>
<feBlend mode="normal" in="SourceGraphic" in2="effect1_backgroundBlur_5259_8528" result="shape"/>
</filter>
<linearGradient id="paint0_linear_5259_8528" x1="0" y1="0" x2="5.48173" y2="27.0245" gradientUnits="userSpaceOnUse">
<stop stop-color="#00FF75" stop-opacity="0.14"/>
<stop offset="1" stop-color="#00C2FF" stop-opacity="0.2"/>
</linearGradient>
<linearGradient id="paint1_linear_5259_8528" x1="0.639999" y1="0.280788" x2="5.88361" y2="27.1987" gradientUnits="userSpaceOnUse">
<stop stop-color="white" stop-opacity="0.1"/>
<stop offset="1" stop-color="white" stop-opacity="0"/>
</linearGradient>
<linearGradient id="paint2_linear_5259_8528" x1="18.9482" y1="4.8537" x2="9.00501" y2="16.4772" gradientUnits="userSpaceOnUse">
<stop stop-color="#B2F763"/>
<stop offset="1" stop-color="#26AB3F"/>
</linearGradient>
</defs>
</svg>
