<svg width="100%" height="100%" viewBox="0 0 24 24" fill="none" xmlns="http://www.w3.org/2000/svg">
<g filter="url(#filter0_b_4943_247959)">
<rect width="24" height="24" rx="12" fill="url(#paint0_linear_4943_247959)" fill-opacity="0.5"/>
<rect x="0.12" y="0.12" width="23.76" height="23.76" rx="11.88" stroke="url(#paint1_linear_4943_247959)" stroke-width="0.24"/>
</g>
<path fill-rule="evenodd" clip-rule="evenodd" d="M11.9016 4.85394C8.01618 4.85394 4.85449 8.01677 4.85449 11.9036C4.85449 15.7904 8.01618 18.9549 11.9016 18.9549C15.787 18.9549 18.9487 15.7921 18.9487 11.9052C18.9487 8.0184 15.787 4.85394 11.9016 4.85394ZM14.1369 14.9356L12.139 12.9373V12.937L10.1415 14.9356C10.0355 15.0416 9.89167 15.1012 9.74175 15.1012C9.59182 15.1012 9.44803 15.0416 9.34202 14.9356C9.236 14.8296 9.17645 14.6858 9.17645 14.5359C9.17645 14.386 9.236 14.2422 9.34202 14.1362L11.3403 12.1383L9.34164 10.14C9.28769 10.0879 9.24467 10.0255 9.21509 9.95651C9.1855 9.88755 9.16995 9.81339 9.16933 9.73836C9.16871 9.66332 9.18305 9.58891 9.2115 9.51947C9.23994 9.45004 9.28193 9.38696 9.33502 9.33393C9.3881 9.28089 9.45122 9.23896 9.52069 9.21058C9.59015 9.18219 9.66457 9.16793 9.73961 9.16862C9.81464 9.16931 9.88879 9.18493 9.95772 9.21458C10.0267 9.24423 10.089 9.28731 10.1411 9.34131L12.139 11.3392L14.1365 9.34131C14.189 9.28881 14.2513 9.24717 14.3198 9.21875C14.3884 9.19033 14.4619 9.1757 14.5361 9.17568C14.6103 9.17566 14.6838 9.19026 14.7524 9.21865C14.821 9.24704 14.8833 9.28865 14.9358 9.34112C14.9882 9.39359 15.0299 9.45588 15.0583 9.52444C15.0867 9.59301 15.1014 9.66649 15.1014 9.74071C15.1014 9.81493 15.0868 9.88843 15.0584 9.957C15.03 10.0256 14.9884 10.0879 14.9359 10.1404L12.9377 12.1383L14.9363 14.1362C15.0423 14.2422 15.1019 14.386 15.1019 14.5359C15.1019 14.6858 15.0423 14.8296 14.9363 14.9356C14.8303 15.0416 14.6865 15.1012 14.5366 15.1012C14.3867 15.1012 14.2429 15.0416 14.1369 14.9356Z" fill="url(#paint2_linear_4943_247959)"/>
<defs>
<filter id="filter0_b_4943_247959" x="-2.88" y="-2.88" width="29.76" height="29.76" filterUnits="userSpaceOnUse" color-interpolation-filters="sRGB">
<feFlood flood-opacity="0" result="BackgroundImageFix"/>
<feGaussianBlur in="BackgroundImageFix" stdDeviation="1.44"/>
<feComposite in2="SourceAlpha" operator="in" result="effect1_backgroundBlur_4943_247959"/>
<feBlend mode="normal" in="SourceGraphic" in2="effect1_backgroundBlur_4943_247959" result="shape"/>
</filter>
<linearGradient id="paint0_linear_4943_247959" x1="0" y1="0" x2="5.48173" y2="27.0245" gradientUnits="userSpaceOnUse">
<stop stop-color="#705E54"/>
<stop offset="1" stop-color="#513131"/>
</linearGradient>
<linearGradient id="paint1_linear_4943_247959" x1="0.639999" y1="0.280788" x2="5.88361" y2="27.1987" gradientUnits="userSpaceOnUse">
<stop stop-color="white" stop-opacity="0.1"/>
<stop offset="1" stop-color="white" stop-opacity="0"/>
</linearGradient>
<linearGradient id="paint2_linear_4943_247959" x1="14.2928" y1="8.35956" x2="9.03435" y2="16.1798" gradientUnits="userSpaceOnUse">
<stop stop-color="#F27E7E"/>
<stop offset="1" stop-color="#C33617"/>
</linearGradient>
</defs>
</svg>
