<svg width="82" height="28" viewBox="0 0 82 28" fill="none" xmlns="http://www.w3.org/2000/svg">
<path d="M0.575317 28H10.0685C14.57 28 18.2192 24.3508 18.2192 19.8493H8.726C4.2245 19.8493 0.575317 23.4985 0.575317 28Z" fill="#1E6FD9"/>
<path opacity="0.5" d="M1 8.15069V20.137C5.5015 20.137 9.15069 16.4878 9.15069 11.9863V0C4.64919 0 1 3.64919 1 8.15069Z" fill="#1E6FD9"/>
<path d="M27.4247 0H17.9315C13.43 0 9.78082 3.64919 9.78082 8.15068H19.274C23.7755 8.15068 27.4247 4.5015 27.4247 0Z" fill="#1E6FD9"/>
<path opacity="0.5" d="M27.4247 19.3698V7.38354C22.9232 7.38354 19.274 11.0327 19.274 15.5342V27.5205C23.7755 27.5205 27.4247 23.8713 27.4247 19.3698Z" fill="#1E6FD9"/>
<path d="M36.3458 19V7.8H38.3938V17.4H43.3538V19H36.3458ZM49.3907 19.192C48.2707 19.192 47.2894 18.9467 46.4467 18.456C45.6147 17.9653 44.9587 17.288 44.4787 16.424C44.0094 15.5493 43.7747 14.5413 43.7747 13.4C43.7747 12.2587 44.0094 11.256 44.4787 10.392C44.9587 9.51733 45.6147 8.83467 46.4467 8.344C47.2894 7.85333 48.2707 7.608 49.3907 7.608C50.5 7.608 51.476 7.85333 52.3187 8.344C53.1614 8.83467 53.8174 9.51733 54.2867 10.392C54.756 11.256 54.9907 12.2587 54.9907 13.4C54.9907 14.5413 54.756 15.5493 54.2867 16.424C53.8174 17.288 53.1614 17.9653 52.3187 18.456C51.476 18.9467 50.5 19.192 49.3907 19.192ZM49.3907 17.352C50.4574 17.352 51.3054 17 51.9347 16.296C52.5747 15.592 52.8947 14.6267 52.8947 13.4C52.8947 12.1733 52.5747 11.208 51.9347 10.504C51.3054 9.8 50.4574 9.448 49.3907 9.448C48.324 9.448 47.4707 9.8 46.8307 10.504C46.1907 11.208 45.8707 12.1733 45.8707 13.4C45.8707 14.6267 46.1907 15.592 46.8307 16.296C47.4707 17 48.324 17.352 49.3907 17.352ZM61.6949 19.192C60.6389 19.192 59.7163 18.952 58.9269 18.472C58.1376 17.992 57.5243 17.3253 57.0869 16.472C56.6496 15.608 56.4309 14.6053 56.4309 13.464C56.4309 12.312 56.6549 11.2987 57.1029 10.424C57.5616 9.53867 58.2069 8.85067 59.0389 8.36C59.8816 7.85867 60.8789 7.608 62.0309 7.608C63.3429 7.608 64.4309 7.92267 65.2949 8.552C66.1589 9.18133 66.7189 10.0507 66.9749 11.16H64.6869C64.5163 10.6373 64.2069 10.232 63.7589 9.944C63.3109 9.64533 62.7349 9.496 62.0309 9.496C60.9109 9.496 60.0469 9.85333 59.4389 10.568C58.8309 11.272 58.5269 12.2427 58.5269 13.48C58.5269 14.7173 58.8256 15.6773 59.4229 16.36C60.0309 17.032 60.8523 17.368 61.8869 17.368C62.9003 17.368 63.6629 17.096 64.1749 16.552C64.6976 15.9973 65.0123 15.272 65.1189 14.376H62.2869V12.84H67.1829V19H65.2949L65.1349 17.528C64.7723 18.0613 64.3189 18.472 63.7749 18.76C63.2309 19.048 62.5376 19.192 61.6949 19.192ZM74.4219 19.192C73.3019 19.192 72.3206 18.9467 71.4779 18.456C70.6459 17.9653 69.9899 17.288 69.5099 16.424C69.0406 15.5493 68.8059 14.5413 68.8059 13.4C68.8059 12.2587 69.0406 11.256 69.5099 10.392C69.9899 9.51733 70.6459 8.83467 71.4779 8.344C72.3206 7.85333 73.3019 7.608 74.4219 7.608C75.5313 7.608 76.5073 7.85333 77.3499 8.344C78.1926 8.83467 78.8486 9.51733 79.3179 10.392C79.7873 11.256 80.0219 12.2587 80.0219 13.4C80.0219 14.5413 79.7873 15.5493 79.3179 16.424C78.8486 17.288 78.1926 17.9653 77.3499 18.456C76.5073 18.9467 75.5313 19.192 74.4219 19.192ZM74.4219 17.352C75.4886 17.352 76.3366 17 76.9659 16.296C77.6059 15.592 77.9259 14.6267 77.9259 13.4C77.9259 12.1733 77.6059 11.208 76.9659 10.504C76.3366 9.8 75.4886 9.448 74.4219 9.448C73.3553 9.448 72.5019 9.8 71.8619 10.504C71.2219 11.208 70.9019 12.1733 70.9019 13.4C70.9019 14.6267 71.2219 15.592 71.8619 16.296C72.5019 17 73.3553 17.352 74.4219 17.352Z" fill="#1E6FD9"/>
</svg>
