<svg width="32" height="32" viewBox="0 0 32 32" fill="none" xmlns="http://www.w3.org/2000/svg">
<path d="M6.33333 7C5.59695 7 5 7.59695 5 8.33333C5 9.06971 5.59695 9.66667 6.33333 9.66667H25C25.7364 9.66667 26.3333 9.06971 26.3333 8.33333C26.3333 7.59695 25.7364 7 25 7H6.33333Z" fill="#56607A"/>
<path d="M6.33333 15C5.59695 15 5 15.597 5 16.3333C5 17.0697 5.59695 17.6667 6.33333 17.6667H25C25.7364 17.6667 26.3333 17.0697 26.3333 16.3333C26.3333 15.597 25.7364 15 25 15H6.33333Z" fill="#56607A"/>
<path fill-rule="evenodd" clip-rule="evenodd" d="M5 24.3667C5 23.6303 5.38242 23.0333 5.85417 23.0333H17.8125C18.2843 23.0333 18.6667 23.6303 18.6667 24.3667C18.6667 25.103 18.2843 25.7 17.8125 25.7H5.85417C5.38242 25.7 5 25.103 5 24.3667Z" fill="#56607A"/>
</svg>
