<svg width="24" height="24" viewBox="0 0 24 24" fill="none" xmlns="http://www.w3.org/2000/svg">
<g clip-path="url(#clip0_958_88853)">
<path d="M14.3788 17.6529C14.3798 17.461 14.4033 17.2698 14.4489 17.0834L8.15076 13.4409C7.77696 13.7908 7.30902 14.0238 6.80451 14.1112C6.3 14.1987 5.78094 14.1367 5.31119 13.933C4.84144 13.7293 4.44149 13.3927 4.16054 12.9646C3.8796 12.5365 3.72992 12.0357 3.72992 11.5237C3.72992 11.0116 3.8796 10.5108 4.16054 10.0827C4.44149 9.65465 4.84144 9.31805 5.31119 9.11432C5.78094 8.9106 6.3 8.84865 6.80451 8.93608C7.30902 9.02351 7.77696 9.25652 8.15076 9.60643L14.3871 6.00643C14.3381 5.80568 14.3114 5.60012 14.3077 5.39351C14.3024 4.86752 14.4535 4.35182 14.7419 3.91189C15.0302 3.47196 15.4428 3.12764 15.9273 2.92267C16.4117 2.7177 16.9461 2.66131 17.4627 2.76066C17.9792 2.86002 18.4546 3.11064 18.8284 3.4807C19.2022 3.85076 19.4577 4.32356 19.5623 4.83907C19.6668 5.35459 19.6159 5.88955 19.4158 6.37604C19.2158 6.86253 18.8757 7.27859 18.4387 7.5714C18.0017 7.86421 17.4875 8.02056 16.9615 8.02058C16.292 8.01981 15.6475 7.76629 15.1569 7.31074L8.92061 10.9107C8.96921 11.1113 8.99582 11.3165 8.99999 11.5227C8.99574 11.7293 8.96912 11.9348 8.92061 12.1357L15.2308 15.7698C15.6654 15.3819 16.22 15.155 16.802 15.1271C17.3839 15.0992 17.9577 15.272 18.4274 15.6166C18.8971 15.9612 19.2342 16.4567 19.3823 17.0202C19.5304 17.5836 19.4804 18.1808 19.2408 18.7118C19.0012 19.2429 18.5865 19.6755 18.0661 19.9373C17.5457 20.1991 16.9511 20.2742 16.3819 20.1501C15.8127 20.0259 15.3034 19.71 14.9393 19.2553C14.5752 18.8006 14.3782 18.2345 14.3815 17.652L14.3788 17.6529Z" fill="black"/>
</g>
<defs>
<clipPath id="clip0_958_88853">
<rect width="24" height="24" fill="white"/>
</clipPath>
</defs>
</svg>
