<svg width="24" height="24" viewBox="0 0 24 24" fill="none" xmlns="http://www.w3.org/2000/svg">
<g clip-path="url(#clip0_6408_14048)">
<path d="M12 0C8.81812 0 5.76375 1.26506 3.51562 3.51469C1.26518 5.76521 0.000623381 8.81734 0 12C0 15.1813 1.26562 18.2357 3.51562 20.4853C5.76375 22.7349 8.81812 24 12 24C15.1819 24 18.2362 22.7349 20.4844 20.4853C22.7344 18.2357 24 15.1813 24 12C24 8.81869 22.7344 5.76431 20.4844 3.51469C18.2362 1.26506 15.1819 0 12 0Z" fill="url(#paint0_linear_6408_14048)"/>
<path d="M5.43187 11.873C8.93062 10.349 11.2631 9.34424 12.4294 8.8588C15.7631 7.47261 16.455 7.23186 16.9069 7.2237C17.0062 7.22211 17.2275 7.24667 17.3719 7.36339C17.4919 7.46183 17.5256 7.59495 17.5425 7.68842C17.5575 7.7818 17.5781 7.99461 17.5612 8.16074C17.3812 10.0582 16.5994 14.6629 16.2019 16.7882C16.035 17.6874 15.7031 17.9889 15.3825 18.0184C14.685 18.0825 14.1562 17.5579 13.4812 17.1155C12.4256 16.4231 11.8294 15.9922 10.8037 15.3167C9.61875 14.5359 10.3875 14.1067 11.0625 13.4055C11.2387 13.2219 14.31 10.4291 14.3681 10.1758C14.3756 10.1441 14.3831 10.026 14.3119 9.96373C14.2425 9.9013 14.1394 9.92267 14.0644 9.93955C13.9575 9.96355 12.2719 11.0788 9.00187 13.2851C8.52375 13.614 8.09062 13.7743 7.70062 13.7659C7.27312 13.7567 6.44812 13.5236 5.835 13.3245C5.085 13.0802 4.48687 12.951 4.53937 12.536C4.56562 12.32 4.86375 12.099 5.43187 11.873Z" fill="white"/>
</g>
<defs>
<linearGradient id="paint0_linear_6408_14048" x1="1200" y1="0" x2="1200" y2="2400" gradientUnits="userSpaceOnUse">
<stop stop-color="#2AABEE"/>
<stop offset="1" stop-color="#229ED9"/>
</linearGradient>
<clipPath id="clip0_6408_14048">
<rect width="24" height="24" fill="white"/>
</clipPath>
</defs>
</svg>
