<svg width="19" height="19" viewBox="0 0 19 19" fill="none" xmlns="http://www.w3.org/2000/svg">
<path d="M11.0988 9.00588C11.3913 7.77588 10.3188 6.70338 9.08877 6.99588C8.51127 7.13838 8.03877 7.61088 7.89627 8.18838C7.60377 9.41838 8.67627 10.4909 9.90627 10.1984C10.4913 10.0559 10.9638 9.58338 11.0988 9.00588Z" fill="current"/>
<path d="M5.01375 13.9775C4.87875 13.9775 4.73625 13.925 4.63125 13.8275C3.17625 12.4775 2.34375 10.5725 2.34375 8.5925C2.34375 4.6475 5.55375 1.4375 9.49875 1.4375C13.4437 1.4375 16.6538 4.6475 16.6538 8.5925C16.6538 10.5875 15.8512 12.4325 14.3962 13.805C14.1712 14.015 13.8112 14.0075 13.6012 13.7825C13.3912 13.5575 13.3987 13.1975 13.6237 12.9875C14.8537 11.8325 15.5288 10.28 15.5288 8.6C15.5288 5.2775 12.8212 2.57 9.49875 2.57C6.17625 2.57 3.46875 5.2775 3.46875 8.6C3.46875 10.295 4.15125 11.855 5.39625 13.01C5.62125 13.22 5.63625 13.58 5.42625 13.805C5.31375 13.9175 5.16375 13.9775 5.01375 13.9775Z" fill="current"/>
<path d="M12.5006 11.9749C12.3656 11.9749 12.2231 11.9224 12.1181 11.8249C11.8931 11.6149 11.8781 11.2549 12.0956 11.0299C12.7181 10.3699 13.0631 9.49992 13.0631 8.59992C13.0631 6.63492 11.4656 5.04492 9.50813 5.04492C7.55063 5.04492 5.95313 6.64242 5.95313 8.59992C5.95313 9.50742 6.29813 10.3699 6.92063 11.0299C7.13063 11.2549 7.12313 11.6149 6.89812 11.8249C6.67312 12.0424 6.31313 12.0274 6.10312 11.8024C5.28562 10.9324 4.82812 9.79242 4.82812 8.59992C4.82812 6.01992 6.92813 3.91992 9.50813 3.91992C12.0881 3.91992 14.1881 6.01992 14.1881 8.59992C14.1881 9.79242 13.7381 10.9324 12.9131 11.8024C12.8006 11.9149 12.6506 11.9749 12.5006 11.9749Z" fill="current"/>
<path d="M8.22516 12.995L7.14516 14.3375C6.29016 15.41 7.05516 17 8.42016 17H10.5727C11.9452 17 12.7102 15.41 11.8477 14.345L10.7677 13.0025C10.1227 12.1775 8.87766 12.1775 8.22516 12.995Z" fill="current"/>
</svg>
