<svg width="19" height="19" viewBox="0 0 19 19" fill="none" xmlns="http://www.w3.org/2000/svg">
<path d="M12.6425 2H6.3575C3.6275 2 2 3.6275 2 6.3575V12.635C2 15.3725 3.6275 17 6.3575 17H12.635C15.365 17 16.9925 15.3725 16.9925 12.6425V6.3575C17 3.6275 15.3725 2 12.6425 2ZM7.3325 13.175C7.3325 13.385 7.1675 13.55 6.9575 13.55H4.865C4.655 13.55 4.49 13.385 4.49 13.175V9.71C4.49 9.2375 4.8725 8.855 5.345 8.855H6.9575C7.1675 8.855 7.3325 9.02 7.3325 9.23V13.175ZM10.9175 13.175C10.9175 13.385 10.7525 13.55 10.5425 13.55H8.45C8.24 13.55 8.075 13.385 8.075 13.175V6.305C8.075 5.8325 8.4575 5.45 8.93 5.45H10.07C10.5425 5.45 10.925 5.8325 10.925 6.305V13.175H10.9175ZM14.51 13.175C14.51 13.385 14.345 13.55 14.135 13.55H12.0425C11.8325 13.55 11.6675 13.385 11.6675 13.175V10.5125C11.6675 10.3025 11.8325 10.1375 12.0425 10.1375H13.655C14.1275 10.1375 14.51 10.52 14.51 10.9925V13.175Z" fill="current"/>
</svg>
