<svg width="19" height="19" viewBox="0 0 19 19" fill="none" xmlns="http://www.w3.org/2000/svg">
<path d="M8.9375 14.1882H7.25C6.425 14.1882 5.75 14.8632 5.75 15.6882V15.8757H5C4.6925 15.8757 4.4375 16.1307 4.4375 16.4382C4.4375 16.7457 4.6925 17.0007 5 17.0007H14C14.3075 17.0007 14.5625 16.7457 14.5625 16.4382C14.5625 16.1307 14.3075 15.8757 14 15.8757H13.25V15.6882C13.25 14.8632 12.575 14.1882 11.75 14.1882H10.0625V12.4707C9.875 12.4932 9.6875 12.5007 9.5 12.5007C9.3125 12.5007 9.125 12.4932 8.9375 12.4707V14.1882Z" fill="current"/>
<path d="M14.3609 9.23C14.8559 9.0425 15.2909 8.735 15.6359 8.39C16.3334 7.6175 16.7909 6.695 16.7909 5.615C16.7909 4.535 15.9434 3.6875 14.8634 3.6875H14.4434C13.9559 2.69 12.9359 2 11.7509 2H7.25094C6.06594 2 5.04594 2.69 4.55844 3.6875H4.13844C3.05844 3.6875 2.21094 4.535 2.21094 5.615C2.21094 6.695 2.66844 7.6175 3.36594 8.39C3.71094 8.735 4.14594 9.0425 4.64094 9.23C5.42094 11.15 7.29594 12.5 9.50094 12.5C11.7059 12.5 13.5809 11.15 14.3609 9.23ZM11.6309 6.8375L11.1659 7.4075C11.0909 7.49 11.0384 7.655 11.0459 7.7675L11.0909 8.5025C11.1209 8.9525 10.7984 9.185 10.3784 9.02L9.69594 8.75C9.59094 8.7125 9.41094 8.7125 9.30594 8.75L8.62344 9.02C8.20344 9.185 7.88094 8.9525 7.91094 8.5025L7.95594 7.7675C7.96344 7.655 7.91094 7.49 7.83594 7.4075L7.37094 6.8375C7.07844 6.4925 7.20594 6.11 7.64094 5.9975L8.35344 5.8175C8.46594 5.7875 8.60094 5.6825 8.66094 5.585L9.05844 4.97C9.30594 4.5875 9.69594 4.5875 9.94344 4.97L10.3409 5.585C10.4009 5.6825 10.5359 5.7875 10.6484 5.8175L11.3609 5.9975C11.7959 6.11 11.9234 6.4925 11.6309 6.8375Z" fill="current"/>
</svg>
