<svg width="15" height="15" viewBox="0 0 15 15" xmlns="http://www.w3.org/2000/svg">
<path d="M13.5297 3.61526L9.20969 0.592758C8.03219 -0.232242 6.22469 -0.187241 5.09219 0.690259L1.33469 3.62276C0.584687 4.20776 -0.0078125 5.40776 -0.0078125 6.35276V11.5278C-0.0078125 13.4403 1.54469 15.0003 3.45719 15.0003H11.5422C13.4547 15.0003 15.0072 13.4478 15.0072 11.5353V6.45026C15.0072 5.43776 14.3547 4.19276 13.5297 3.61526ZM8.06219 12.0003C8.06219 12.3078 7.80719 12.5628 7.49969 12.5628C7.19219 12.5628 6.93719 12.3078 6.93719 12.0003V9.75026C6.93719 9.44276 7.19219 9.18776 7.49969 9.18776C7.80719 9.18776 8.06219 9.44276 8.06219 9.75026V12.0003Z" fill="current"/>
</svg>
