<svg xmlns="http://www.w3.org/2000/svg" width="24" height="24" viewBox="0 0 24 24" fill="none">
<path d="M16.0129 17.5595V17.278C16.0129 12.8916 16.0129 8.50631 16.0129 4.12222C15.9854 3.887 16.0406 3.64953 16.169 3.45052C16.2974 3.25152 16.4911 3.10337 16.7168 3.03148C16.8538 2.98817 16.9987 2.97514 17.1413 2.99331C17.2839 3.01148 17.4208 3.0604 17.5426 3.13669C17.6645 3.21298 17.7683 3.31483 17.8468 3.43517C17.9254 3.55552 17.9769 3.6915 17.9978 3.8337C18.0049 3.95088 18.0049 4.06838 17.9978 4.18555V17.556L18.1702 17.3976C18.5221 17.0458 18.9057 16.6552 19.2788 16.2928C19.3677 16.1862 19.4779 16.0993 19.6022 16.0376C19.7266 15.9759 19.8625 15.9408 20.0012 15.9346C20.1399 15.9283 20.2784 15.951 20.4079 16.0012C20.5373 16.0514 20.6549 16.1281 20.7531 16.2262C20.8512 16.3244 20.9279 16.4419 20.9781 16.5713C21.0283 16.7008 21.051 16.8392 21.0448 16.9779C21.0385 17.1166 21.0034 17.2524 20.9417 17.3768C20.88 17.5012 20.7931 17.6113 20.6864 17.7002C19.694 18.7065 18.6946 19.707 17.6881 20.7015C17.5968 20.796 17.4875 20.8712 17.3665 20.9225C17.2456 20.9738 17.1156 21.0003 16.9842 21.0003C16.8529 21.0003 16.7228 20.9738 16.6019 20.9225C16.481 20.8712 16.3716 20.796 16.2804 20.7015C15.2833 19.7164 14.292 18.7265 13.3066 17.7319C13.1946 17.6445 13.1024 17.5344 13.0361 17.4087C12.9698 17.283 12.9311 17.1446 12.9223 17.0028C12.9136 16.861 12.9351 16.7189 12.9854 16.5861C13.0357 16.4532 13.1137 16.3325 13.2142 16.232C13.3147 16.1316 13.4354 16.0536 13.5683 16.0033C13.7012 15.953 13.8432 15.9315 13.9851 15.9402C14.1269 15.949 14.2653 15.9878 14.391 16.054C14.5167 16.1202 14.6269 16.2124 14.7143 16.3245C15.112 16.715 15.5062 17.1162 15.9038 17.5102L16.0129 17.5595Z" fill="#20232C" stroke="white" stroke-width="0.2"/>
<path d="M6.48417 8.99646H6.6918C7.78628 8.99646 8.88076 8.99646 9.97523 8.99646C10.1373 8.99053 10.2984 9.02414 10.4446 9.09437C10.5908 9.16461 10.7177 9.26937 10.8144 9.3996C10.911 9.52983 10.9745 9.68163 10.9994 9.84189C11.0243 10.0021 11.0097 10.166 10.9571 10.3194C10.8951 10.5056 10.7789 10.669 10.6234 10.7888C10.4679 10.9085 10.2802 10.9791 10.0843 10.9915H4.10166C3.90596 11.0101 3.70909 10.9707 3.5357 10.8781C3.36231 10.7854 3.22009 10.6438 3.12683 10.4707C3.03057 10.3029 2.98745 10.1098 3.00316 9.91698C3.01887 9.72414 3.09266 9.54059 3.21481 9.39053C3.27596 9.31166 3.34302 9.23756 3.41541 9.16887L7.38157 5.207C7.43788 5.1507 7.50474 5.10848 7.56457 5.05922L7.53993 4.99941H7.34286C6.24134 4.99941 5.13983 4.99941 4.03831 4.99941C3.87607 5.00471 3.71496 4.97056 3.56883 4.89989C3.42269 4.82922 3.2959 4.72414 3.19933 4.59368C3.10277 4.46323 3.03932 4.31128 3.01443 4.1509C2.98954 3.99052 3.00396 3.8265 3.05645 3.67292C3.11908 3.48646 3.23592 3.32292 3.39202 3.2032C3.54811 3.08349 3.73638 3.01304 3.93273 3.00088H4.12981C6.04427 3.00088 7.95872 3.00088 9.8767 3.00088C10.0067 2.99653 10.1367 3.00835 10.2638 3.03607C10.4212 3.078 10.5659 3.15802 10.685 3.26907C10.8041 3.38012 10.8941 3.51878 10.947 3.67281C10.9998 3.82685 11.014 3.99153 10.9881 4.15232C10.9623 4.31311 10.8972 4.46506 10.7987 4.59477C10.7368 4.67078 10.671 4.74359 10.6017 4.81292L6.63197 8.78886C6.57415 8.84192 6.51302 8.89128 6.44898 8.93664L6.48417 8.99646Z" fill="#20232C" stroke="white" stroke-width="0.2"/>
<path d="M7.09597 13.0033C7.28429 13.0167 7.46513 13.0825 7.61809 13.1931C7.77105 13.3038 7.89006 13.4549 7.96169 13.6296C8.83915 15.3889 9.71779 17.1481 10.5976 18.9074C10.6961 19.1115 10.8052 19.312 10.9002 19.5196C10.9593 19.6378 10.9944 19.7666 11.0035 19.8984C11.0127 20.0302 10.9957 20.1626 10.9535 20.2878C10.9113 20.413 10.8448 20.5287 10.7577 20.6281C10.6707 20.7276 10.5648 20.8088 10.4463 20.8672C10.3303 20.9285 10.2031 20.9654 10.0723 20.9758C9.94157 20.9862 9.81009 20.9698 9.6859 20.9276C9.56171 20.8855 9.44743 20.8184 9.35005 20.7306C9.25266 20.6428 9.17422 20.536 9.11952 20.4168C9.06934 20.2617 8.96475 20.13 8.82505 20.0459C8.68534 19.9619 8.51995 19.9311 8.35937 19.9594C7.34231 19.9946 6.32526 19.977 5.3082 19.9594C5.24509 19.9496 5.18055 19.9636 5.12719 19.9987C5.07384 20.0338 5.03549 20.0876 5.01963 20.1494C4.98473 20.2327 4.94477 20.3138 4.89997 20.3922C4.84264 20.5113 4.76224 20.6178 4.66345 20.7056C4.56466 20.7934 4.44944 20.8607 4.32445 20.9037C4.19945 20.9467 4.06718 20.9644 3.93527 20.9559C3.80337 20.9474 3.67446 20.9129 3.55601 20.8542C3.43756 20.7956 3.33191 20.7141 3.24519 20.6143C3.15847 20.5146 3.0924 20.3987 3.0508 20.2732C3.0092 20.1478 2.99289 20.0154 3.00283 19.8836C3.01277 19.7518 3.04875 19.6233 3.10869 19.5055C3.57675 18.5555 4.05536 17.6091 4.51638 16.6591C5.03253 15.6434 5.54634 14.6253 6.0578 13.605C6.1493 13.4112 6.29763 13.2498 6.48307 13.1423C6.66852 13.0349 6.88229 12.9864 7.09597 13.0033ZM7.87723 17.9539L6.99743 16.1946L6.11762 17.9539H7.87723Z" fill="#20232C" stroke="white" stroke-width="0.2"/>
</svg>