<svg xmlns="http://www.w3.org/2000/svg" width="24" height="24" viewBox="0 0 24 24" fill="none">
<path d="M16.0129 17.5595V17.278C16.0129 12.8916 16.0129 8.50631 16.0129 4.12222C15.9854 3.887 16.0406 3.64953 16.169 3.45052C16.2974 3.25152 16.4911 3.10337 16.7168 3.03148C16.8538 2.98817 16.9987 2.97514 17.1413 2.99331C17.2839 3.01148 17.4208 3.0604 17.5426 3.13669C17.6645 3.21298 17.7683 3.31483 17.8468 3.43517C17.9254 3.55552 17.9769 3.6915 17.9978 3.8337C18.0049 3.95088 18.0049 4.06838 17.9978 4.18555V17.556L18.1702 17.3976C18.5221 17.0458 18.9057 16.6552 19.2788 16.2928C19.3677 16.1862 19.4779 16.0993 19.6022 16.0376C19.7266 15.9759 19.8625 15.9408 20.0012 15.9346C20.1399 15.9283 20.2784 15.951 20.4079 16.0012C20.5373 16.0514 20.6549 16.1281 20.7531 16.2262C20.8512 16.3244 20.9279 16.4419 20.9781 16.5713C21.0283 16.7008 21.051 16.8392 21.0448 16.9779C21.0385 17.1166 21.0034 17.2524 20.9417 17.3768C20.88 17.5012 20.7931 17.6113 20.6864 17.7002C19.694 18.7065 18.6946 19.707 17.6881 20.7015C17.5968 20.796 17.4875 20.8712 17.3665 20.9225C17.2456 20.9738 17.1156 21.0003 16.9842 21.0003C16.8529 21.0003 16.7228 20.9738 16.6019 20.9225C16.481 20.8712 16.3716 20.796 16.2804 20.7015C15.2833 19.7164 14.292 18.7265 13.3066 17.7319C13.1946 17.6445 13.1024 17.5344 13.0361 17.4087C12.9698 17.283 12.9311 17.1446 12.9223 17.0028C12.9136 16.861 12.9351 16.7189 12.9854 16.5861C13.0357 16.4532 13.1137 16.3325 13.2142 16.232C13.3147 16.1316 13.4354 16.0536 13.5683 16.0033C13.7012 15.953 13.8432 15.9315 13.9851 15.9402C14.1269 15.949 14.2653 15.9878 14.391 16.054C14.5167 16.1202 14.6269 16.2124 14.7143 16.3245C15.112 16.715 15.5062 17.1162 15.9038 17.5102L16.0129 17.5595Z" fill="#20232C" stroke="white" stroke-width="0.2"/>
<path d="M6.47587 18.9984H6.6835C7.77798 18.9984 8.87246 18.9984 9.96693 18.9984C10.129 18.9925 10.2901 19.0261 10.4363 19.0963C10.5825 19.1666 10.7094 19.2713 10.8061 19.4016C10.9027 19.5318 10.9662 19.6836 10.9911 19.8438C11.016 20.0041 11.0014 20.168 10.9488 20.3214C10.8868 20.5076 10.7706 20.671 10.6151 20.7907C10.4596 20.9105 10.2719 20.981 10.076 20.9934H4.09336C3.89766 21.0121 3.70079 20.9727 3.5274 20.88C3.35401 20.7874 3.21179 20.6457 3.11853 20.4727C3.02227 20.3048 2.97915 20.1118 2.99486 19.9189C3.01056 19.7261 3.08436 19.5425 3.20651 19.3925C3.26766 19.3136 3.33472 19.2395 3.40711 19.1708L7.37327 15.209C7.42958 15.1527 7.49644 15.1104 7.55627 15.0612L7.53163 15.0014H7.33456C6.23304 15.0014 5.13153 15.0014 4.03001 15.0014C3.86777 15.0067 3.70666 14.9725 3.56053 14.9018C3.41439 14.8312 3.2876 14.7261 3.19103 14.5956C3.09447 14.4652 3.03102 14.3132 3.00613 14.1529C2.98124 13.9925 2.99566 13.8285 3.04815 13.6749C3.11078 13.4884 3.22762 13.3249 3.38372 13.2052C3.53981 13.0854 3.72808 13.015 3.92443 13.0028H4.12151C6.03596 13.0028 7.95042 13.0028 9.86839 13.0028C9.99839 12.9985 10.1284 13.0103 10.2555 13.038C10.4129 13.08 10.5575 13.16 10.6767 13.271C10.7958 13.3821 10.8858 13.5207 10.9387 13.6748C10.9915 13.8288 11.0057 13.9935 10.9798 14.1543C10.954 14.3151 10.8889 14.467 10.7904 14.5967C10.7285 14.6727 10.6627 14.7455 10.5934 14.8149L6.62367 18.7908C6.56585 18.8439 6.50472 18.8932 6.44068 18.9386L6.47587 18.9984Z" fill="#20232C" stroke="white" stroke-width="0.2"/>
<path d="M7.0989 3.03455C7.28722 3.04797 7.46806 3.11371 7.62102 3.22436C7.77398 3.33502 7.89299 3.4862 7.96462 3.66085C8.84208 5.42012 9.72072 7.17938 10.6005 8.93865C10.6991 9.14272 10.8082 9.34328 10.9032 9.55087C10.9622 9.66909 10.9973 9.79781 11.0065 9.92964C11.0156 10.0615 10.9986 10.1938 10.9564 10.319C10.9142 10.4443 10.8477 10.5599 10.7606 10.6594C10.6736 10.7588 10.5678 10.8401 10.4492 10.8985C10.3332 10.9597 10.206 10.9967 10.0752 11.007C9.9445 11.0174 9.81302 11.0011 9.68883 10.9589C9.56464 10.9167 9.45036 10.8497 9.35298 10.7619C9.25559 10.674 9.17715 10.5673 9.12245 10.4481C9.07227 10.293 8.96768 10.1612 8.82798 10.0772C8.68827 9.99312 8.52288 9.9624 8.3623 9.99069C7.34524 10.0259 6.32819 10.0083 5.31113 9.99069C5.24802 9.98081 5.18348 9.99481 5.13012 10.0299C5.07677 10.0651 5.03842 10.1188 5.02256 10.1807C4.98766 10.264 4.9477 10.3451 4.9029 10.4235C4.84557 10.5425 4.76517 10.649 4.66638 10.7368C4.56759 10.8246 4.45237 10.892 4.32738 10.9349C4.20238 10.9779 4.07011 10.9957 3.9382 10.9872C3.8063 10.9787 3.67739 10.9441 3.55894 10.8855C3.44049 10.8269 3.33484 10.7453 3.24812 10.6456C3.1614 10.5459 3.09533 10.4299 3.05373 10.3045C3.01212 10.1791 2.99582 10.0466 3.00576 9.91485C3.0157 9.78307 3.05168 9.65458 3.11162 9.5368C3.57968 8.58679 4.05829 7.64031 4.51931 6.69031C5.03546 5.67462 5.54927 4.65659 6.06073 3.63622C6.15223 3.44242 6.30056 3.28106 6.486 3.17358C6.67145 3.06611 6.88522 3.01762 7.0989 3.03455ZM7.88016 7.98513L7.00036 6.22586L6.12055 7.98513H7.88016Z" fill="#20232C" stroke="white" stroke-width="0.2"/>
</svg>