<svg width="12" height="13" viewBox="0 0 12 13" fill="none" xmlns="http://www.w3.org/2000/svg">
<path d="M12 6.5V11.1667C12 11.5203 11.8595 11.8594 11.6095 12.1095C11.3594 12.3595 11.0203 12.5 10.6667 12.5H1.33333C0.979711 12.5 0.640573 12.3595 0.390524 12.1095C0.140476 11.8594 0 11.5203 0 11.1667V6.5H12ZM8.66667 0.5C8.84348 0.5 9.01305 0.570238 9.13807 0.695262C9.2631 0.820286 9.33333 0.989856 9.33333 1.16667V1.83333H10.6667C11.0203 1.83333 11.3594 1.97381 11.6095 2.22386C11.8595 2.47391 12 2.81304 12 3.16667V5.16667H0V3.16667C0 2.81304 0.140476 2.47391 0.390524 2.22386C0.640573 1.97381 0.979711 1.83333 1.33333 1.83333H2.66667V1.16667C2.66667 0.989856 2.7369 0.820286 2.86193 0.695262C2.98695 0.570238 3.15652 0.5 3.33333 0.5C3.51014 0.5 3.67971 0.570238 3.80474 0.695262C3.92976 0.820286 4 0.989856 4 1.16667V1.83333H8V1.16667C8 0.989856 8.07024 0.820286 8.19526 0.695262C8.32029 0.570238 8.48986 0.5 8.66667 0.5Z" fill="white"/>
</svg>
