<svg xmlns="http://www.w3.org/2000/svg" width="20" height="20" viewBox="0 0 20 20" fill="none">
  <path d="M10.0013 1.66602C5.40964 1.66602 1.66797 5.40768 1.66797 9.99935C1.66797 14.591 5.40964 18.3327 10.0013 18.3327C14.593 18.3327 18.3346 14.591 18.3346 9.99935C18.3346 5.40768 14.593 1.66602 10.0013 1.66602ZM13.3346 10.6243H10.6263V13.3327C10.6263 13.6743 10.343 13.9577 10.0013 13.9577C9.65964 13.9577 9.3763 13.6743 9.3763 13.3327V10.6243H6.66797C6.3263 10.6243 6.04297 10.341 6.04297 9.99935C6.04297 9.65768 6.3263 9.37435 6.66797 9.37435H9.3763V6.66602C9.3763 6.32435 9.65964 6.04102 10.0013 6.04102C10.343 6.04102 10.6263 6.32435 10.6263 6.66602V9.37435H13.3346C13.6763 9.37435 13.9596 9.65768 13.9596 9.99935C13.9596 10.341 13.6763 10.6243 13.3346 10.6243Z" fill="#6C708A"/>
</svg>