<svg xmlns="http://www.w3.org/2000/svg" width="16" height="16" viewBox="0 0 16 16" fill="none">
  <path d="M14.1887 5.51641L10.2215 4.93985L8.4481 1.34454C8.39966 1.2461 8.31998 1.16641 8.22154 1.11797C7.97466 0.9961 7.67466 1.09766 7.55123 1.34454L5.77779 4.93985L1.8106 5.51641C1.70123 5.53204 1.60123 5.5836 1.52466 5.66172C1.4321 5.75686 1.3811 5.88485 1.38286 6.01757C1.38461 6.15029 1.43899 6.27689 1.53404 6.36954L4.40435 9.16797L3.72623 13.1195C3.71032 13.2115 3.7205 13.306 3.75559 13.3924C3.79068 13.4789 3.84929 13.5537 3.92477 13.6086C4.00025 13.6634 4.08958 13.696 4.18263 13.7026C4.27568 13.7092 4.36873 13.6897 4.45123 13.6461L7.99966 11.7805L11.5481 13.6461C11.645 13.6977 11.7575 13.7148 11.8653 13.6961C12.1372 13.6492 12.32 13.3914 12.2731 13.1195L11.595 9.16797L14.4653 6.36954C14.5434 6.29297 14.595 6.19297 14.6106 6.0836C14.6528 5.81016 14.4622 5.55704 14.1887 5.51641Z" fill="#FF9901"/>
</svg>