<svg width="20" height="20" viewBox="0 0 20 20" fill="none" xmlns="http://www.w3.org/2000/svg">
<path opacity="0.1" fill-rule="evenodd" clip-rule="evenodd" d="M0 10C0 4.47715 4.47715 0 10 0C15.5228 0 20 4.47715 20 10C20 15.5228 15.5228 20 10 20C4.47715 20 0 15.5228 0 10Z" fill="white"/>
<path d="M11.1076 10.8342H12.4965L13.0521 8.61198H11.1076V7.50087C11.1076 6.92865 11.1076 6.38976 12.2188 6.38976H13.0521V4.52309C12.871 4.4992 12.1871 4.44531 11.4649 4.44531C9.95653 4.44531 8.88542 5.36587 8.88542 7.05642V8.61198H7.21875V10.8342H8.88542V15.5564H11.1076V10.8342Z" fill="white"/>
</svg>
