<svg xmlns="http://www.w3.org/2000/svg" width="20" height="20" viewBox="0 0 20 20" fill="none">
  <path opacity="0.1" fill-rule="evenodd" clip-rule="evenodd" d="M0 10C0 4.47715 4.47715 0 10 0C15.5228 0 20 4.47715 20 10C20 15.5228 15.5228 20 10 20C4.47715 20 0 15.5228 0 10Z" fill="white"/>
  <path fill-rule="evenodd" clip-rule="evenodd" d="M10.0018 4.66602C8.55334 4.66602 8.37156 4.67235 7.80267 4.69824C7.23488 4.72424 6.84732 4.81413 6.50821 4.94602C6.15743 5.08224 5.85987 5.26447 5.56342 5.56102C5.26675 5.85747 5.08453 6.15503 4.94786 6.5057C4.81564 6.84493 4.72564 7.2326 4.70008 7.80016C4.67464 8.36905 4.66797 8.55094 4.66797 9.9994C4.66797 11.4479 4.67441 11.6291 4.70019 12.198C4.7263 12.7658 4.81619 13.1533 4.94797 13.4924C5.08431 13.8432 5.26653 14.1408 5.56309 14.4372C5.85943 14.7339 6.15698 14.9166 6.50754 15.0528C6.84688 15.1847 7.23455 15.2746 7.80222 15.3006C8.37112 15.3265 8.55279 15.3328 10.0011 15.3328C11.4497 15.3328 11.6309 15.3265 12.1998 15.3006C12.7676 15.2746 13.1556 15.1847 13.495 15.0528C13.8456 14.9166 14.1427 14.7339 14.4391 14.4372C14.7357 14.1408 14.918 13.8432 15.0546 13.4926C15.1857 13.1533 15.2757 12.7657 15.3024 12.1981C15.328 11.6292 15.3346 11.4479 15.3346 9.9994C15.3346 8.55094 15.328 8.36916 15.3024 7.80027C15.2757 7.23249 15.1857 6.84493 15.0546 6.50581C14.918 6.15503 14.7357 5.85747 14.4391 5.56102C14.1424 5.26436 13.8457 5.08213 13.4946 4.94602C13.1546 4.81413 12.7668 4.72424 12.199 4.69824C11.6302 4.67235 11.449 4.66602 10.0001 4.66602H10.0018ZM9.52333 5.62712C9.66533 5.6269 9.82378 5.62712 10.0018 5.62712C11.4258 5.62712 11.5946 5.63223 12.1569 5.65779C12.6769 5.68157 12.9591 5.76846 13.1471 5.84146C13.396 5.93813 13.5735 6.05368 13.76 6.24035C13.9467 6.42702 14.0623 6.6048 14.1592 6.85369C14.2322 7.04147 14.3192 7.32369 14.3428 7.8437C14.3684 8.40593 14.3739 8.57482 14.3739 9.99817C14.3739 11.4215 14.3684 11.5904 14.3428 12.1526C14.319 12.6726 14.2322 12.9549 14.1592 13.1426C14.0625 13.3915 13.9467 13.5688 13.76 13.7553C13.5734 13.942 13.3961 14.0575 13.1471 14.1542C12.9594 14.2275 12.6769 14.3142 12.1569 14.338C11.5947 14.3635 11.4258 14.3691 10.0018 14.3691C8.57765 14.3691 8.40887 14.3635 7.84665 14.338C7.32664 14.314 7.04441 14.2271 6.8563 14.1541C6.60741 14.0574 6.42963 13.9419 6.24296 13.7552C6.05629 13.5685 5.94074 13.3912 5.84385 13.1422C5.77085 12.9544 5.68385 12.6722 5.66018 12.1522C5.63462 11.59 5.62951 11.4211 5.62951 9.99683C5.62951 8.5726 5.63462 8.4046 5.66018 7.84237C5.68396 7.32236 5.77085 7.04014 5.84385 6.85213C5.94051 6.60324 6.05629 6.42546 6.24296 6.23879C6.42963 6.05213 6.60741 5.93657 6.8563 5.83968C7.0443 5.76635 7.32664 5.67968 7.84665 5.65579C8.33865 5.63357 8.52932 5.6269 9.52333 5.62579V5.62712ZM12.8487 6.51269C12.4954 6.51269 12.2087 6.79903 12.2087 7.15247C12.2087 7.50581 12.4954 7.79248 12.8487 7.79248C13.202 7.79248 13.4887 7.50581 13.4887 7.15247C13.4887 6.79914 13.202 6.51269 12.8487 6.51269ZM10.0018 7.26047C8.48924 7.26047 7.26289 8.48682 7.26289 9.99939C7.26289 11.512 8.48924 12.7378 10.0018 12.7378C11.5144 12.7378 12.7403 11.512 12.7403 9.99939C12.7403 8.48682 11.5144 7.26047 10.0018 7.26047ZM10.0018 8.22159C10.9836 8.22159 11.7796 9.01749 11.7796 9.99939C11.7796 10.9812 10.9836 11.7772 10.0018 11.7772C9.01989 11.7772 8.22399 10.9812 8.22399 9.99939C8.22399 9.01749 9.01989 8.22159 10.0018 8.22159Z" fill="white"/>
</svg>