<svg width="40" height="40" viewBox="0 0 40 40" fill="none" xmlns="http://www.w3.org/2000/svg">
<g id="fluent:live-24-filled">
<path id="Vector" d="M10.5715 8.23013C10.7264 8.38492 10.8494 8.56873 10.9332 8.77106C11.0171 8.97339 11.0603 9.19027 11.0603 9.40929C11.0603 9.62832 11.0171 9.8452 10.9332 10.0475C10.8494 10.2499 10.7264 10.4337 10.5715 10.5885C8.07053 13.0898 6.66556 16.4821 6.66556 20.0193C6.66556 23.5565 8.07053 26.9488 10.5715 29.4501C10.7307 29.6039 10.8576 29.7878 10.945 29.9911C11.0323 30.1945 11.0783 30.4132 11.0802 30.6345C11.0821 30.8558 11.04 31.0752 10.9562 31.2801C10.8724 31.4849 10.7486 31.671 10.5921 31.8275C10.4356 31.9839 10.2496 32.1077 10.0447 32.1915C9.8399 32.2753 9.62044 32.3175 9.39914 32.3155C9.17784 32.3136 8.95914 32.2676 8.7558 32.1803C8.55246 32.0929 8.36855 31.966 8.21481 31.8068C1.70314 25.2968 1.70314 14.7401 8.21481 8.23013C8.52735 7.91767 8.9512 7.74215 9.39314 7.74215C9.83508 7.74215 10.2589 7.91767 10.5715 8.23013ZM31.7915 8.23013C38.3015 14.7418 38.3015 25.2968 31.7915 31.8068C31.479 32.1195 31.055 32.2953 30.6129 32.2955C30.1708 32.2956 29.7467 32.1201 29.434 31.8076C29.1212 31.4951 28.9455 31.0712 28.9453 30.629C28.9451 30.1869 29.1206 29.7629 29.4331 29.4501C31.9341 26.9488 33.3391 23.5565 33.3391 20.0193C33.3391 16.4821 31.9341 13.0898 29.4331 10.5885C29.1204 10.2757 28.9447 9.85157 28.9447 9.40929C28.9447 8.96702 29.1204 8.54286 29.4331 8.23013C29.7459 7.91739 30.17 7.7417 30.6123 7.7417C31.0546 7.7417 31.4787 7.91739 31.7915 8.23013ZM15.5165 13.0201C15.8289 13.3327 16.0044 13.7565 16.0044 14.1985C16.0044 14.6404 15.8289 15.0642 15.5165 15.3768C14.9097 15.9835 14.4284 16.7037 14.1001 17.4964C13.7717 18.2891 13.6027 19.1388 13.6027 19.9968C13.6027 20.8548 13.7717 21.7044 14.1001 22.4971C14.4284 23.2898 14.9097 24.0101 15.5165 24.6168C15.6712 24.7716 15.7939 24.9555 15.8776 25.1577C15.9613 25.36 16.0044 25.5768 16.0043 25.7957C16.0042 26.0146 15.961 26.2314 15.8772 26.4336C15.7933 26.6358 15.6705 26.8196 15.5156 26.9743C15.3608 27.129 15.177 27.2518 14.9747 27.3355C14.7724 27.4192 14.5556 27.4622 14.3367 27.4621C14.1178 27.4621 13.901 27.4189 13.6988 27.335C13.4966 27.2512 13.3129 27.1283 13.1581 26.9735C11.3079 25.1231 10.2684 22.6135 10.2684 19.9968C10.2684 17.38 11.3079 14.8705 13.1581 13.0201C13.3129 12.8652 13.4967 12.7422 13.6991 12.6584C13.9014 12.5745 14.1183 12.5313 14.3373 12.5313C14.5563 12.5313 14.7732 12.5745 14.9755 12.6584C15.1779 12.7422 15.3617 12.8652 15.5165 13.0201ZM27.1131 13.0201C28.9634 14.8705 30.0029 17.38 30.0029 19.9968C30.0029 22.6135 28.9634 25.1231 27.1131 26.9735C26.7988 27.2771 26.3778 27.445 25.9408 27.4412C25.5038 27.4375 25.0858 27.2622 24.7768 26.9532C24.4678 26.6441 24.2925 26.2261 24.2887 25.7891C24.2849 25.3521 24.4529 24.9311 24.7565 24.6168C25.3632 24.0101 25.8445 23.2898 26.1729 22.4971C26.5013 21.7044 26.6703 20.8548 26.6703 19.9968C26.6703 19.1388 26.5013 18.2891 26.1729 17.4964C25.8445 16.7037 25.3632 15.9835 24.7565 15.3768C24.4529 15.0625 24.2849 14.6415 24.2887 14.2045C24.2925 13.7675 24.4678 13.3494 24.7768 13.0404C25.0858 12.7314 25.5038 12.5561 25.9408 12.5523C26.3778 12.5485 26.7988 12.7165 27.1131 13.0201ZM20.1365 17.6368C20.7995 17.6368 21.4354 17.9002 21.9042 18.369C22.3731 18.8379 22.6365 19.4738 22.6365 20.1368C22.6365 20.7998 22.3731 21.4357 21.9042 21.9046C21.4354 22.3734 20.7995 22.6368 20.1365 22.6368C19.4734 22.6368 18.8375 22.3734 18.3687 21.9046C17.8999 21.4357 17.6365 20.7998 17.6365 20.1368C17.6365 19.4738 17.8999 18.8379 18.3687 18.369C18.8375 17.9002 19.4734 17.6368 20.1365 17.6368Z" fill="white"/>
</g>
</svg>
