<svg xmlns="http://www.w3.org/2000/svg" width="41" height="40" viewBox="0 0 41 40" fill="none">
  <g filter="url(#filter0_d_6795_88926)">
    <path d="M30.25 26.4701L28.6 26.8601C28.23 26.9501 27.94 27.2301 27.86 27.6001L27.51 29.0701C27.32 29.8701 26.3 30.1201 25.77 29.4901L22.78 26.0501C22.54 25.7701 22.67 25.3301 23.03 25.2401C24.8 24.8101 26.39 23.8201 27.56 22.4101C27.75 22.1801 28.09 22.1501 28.3 22.3601L30.52 24.5801C31.28 25.3401 31.01 26.2901 30.25 26.4701Z" fill="#0075FF"/>
  </g>
  <g filter="url(#filter1_d_6795_88926)">
    <path d="M11.7 26.4701L13.35 26.8601C13.72 26.9501 14.01 27.2301 14.09 27.6001L14.44 29.0701C14.63 29.8701 15.65 30.1201 16.18 29.4901L19.17 26.0501C19.41 25.7701 19.28 25.3301 18.92 25.2401C17.15 24.8101 15.56 23.8201 14.39 22.4101C14.2 22.1801 13.86 22.1501 13.65 22.3601L11.43 24.5801C10.67 25.3401 10.94 26.2901 11.7 26.4701Z" fill="#0075FF"/>
  </g>
  <g filter="url(#filter2_d_6795_88926)">
    <path d="M21 10C17.13 10 14 13.13 14 17C14 18.45 14.43 19.78 15.17 20.89C16.25 22.49 17.96 23.62 19.95 23.91C20.29 23.97 20.64 24 21 24C21.36 24 21.71 23.97 22.05 23.91C24.04 23.62 25.75 22.49 26.83 20.89C27.57 19.78 28 18.45 28 17C28 13.13 24.87 10 21 10ZM24.06 16.78L23.23 17.61C23.09 17.75 23.01 18.02 23.06 18.22L23.3 19.25C23.49 20.06 23.06 20.38 22.34 19.95L21.34 19.36C21.16 19.25 20.86 19.25 20.68 19.36L19.68 19.95C18.96 20.37 18.53 20.06 18.72 19.25L18.96 18.22C19 18.03 18.93 17.75 18.79 17.61L17.94 16.78C17.45 16.29 17.61 15.8 18.29 15.69L19.36 15.51C19.54 15.48 19.75 15.32 19.83 15.16L20.42 13.98C20.74 13.34 21.26 13.34 21.58 13.98L22.17 15.16C22.25 15.32 22.46 15.48 22.65 15.51L23.72 15.69C24.39 15.8 24.55 16.29 24.06 16.78Z" fill="#0075FF"/>
  </g>
  <defs>
    <filter id="filter0_d_6795_88926" x="12.658" y="12.2188" width="28.3147" height="27.627" filterUnits="userSpaceOnUse" color-interpolation-filters="sRGB">
      <feFlood flood-opacity="0" result="BackgroundImageFix"/>
      <feColorMatrix in="SourceAlpha" type="matrix" values="0 0 0 0 0 0 0 0 0 0 0 0 0 0 0 0 0 0 127 0" result="hardAlpha"/>
      <feOffset/>
      <feGaussianBlur stdDeviation="5"/>
      <feComposite in2="hardAlpha" operator="out"/>
      <feColorMatrix type="matrix" values="0 0 0 0 0.156863 0 0 0 0 0.411765 0 0 0 0 0.964706 0 0 0 0.5 0"/>
      <feBlend mode="normal" in2="BackgroundImageFix" result="effect1_dropShadow_6795_88926"/>
      <feBlend mode="normal" in="SourceGraphic" in2="effect1_dropShadow_6795_88926" result="shape"/>
    </filter>
    <filter id="filter1_d_6795_88926" x="0.977417" y="12.2188" width="28.3147" height="27.627" filterUnits="userSpaceOnUse" color-interpolation-filters="sRGB">
      <feFlood flood-opacity="0" result="BackgroundImageFix"/>
      <feColorMatrix in="SourceAlpha" type="matrix" values="0 0 0 0 0 0 0 0 0 0 0 0 0 0 0 0 0 0 127 0" result="hardAlpha"/>
      <feOffset/>
      <feGaussianBlur stdDeviation="5"/>
      <feComposite in2="hardAlpha" operator="out"/>
      <feColorMatrix type="matrix" values="0 0 0 0 0.156863 0 0 0 0 0.411765 0 0 0 0 0.964706 0 0 0 0.5 0"/>
      <feBlend mode="normal" in2="BackgroundImageFix" result="effect1_dropShadow_6795_88926"/>
      <feBlend mode="normal" in="SourceGraphic" in2="effect1_dropShadow_6795_88926" result="shape"/>
    </filter>
    <filter id="filter2_d_6795_88926" x="4" y="0" width="34" height="34" filterUnits="userSpaceOnUse" color-interpolation-filters="sRGB">
      <feFlood flood-opacity="0" result="BackgroundImageFix"/>
      <feColorMatrix in="SourceAlpha" type="matrix" values="0 0 0 0 0 0 0 0 0 0 0 0 0 0 0 0 0 0 127 0" result="hardAlpha"/>
      <feOffset/>
      <feGaussianBlur stdDeviation="5"/>
      <feComposite in2="hardAlpha" operator="out"/>
      <feColorMatrix type="matrix" values="0 0 0 0 0.156863 0 0 0 0 0.411765 0 0 0 0 0.964706 0 0 0 0.5 0"/>
      <feBlend mode="normal" in2="BackgroundImageFix" result="effect1_dropShadow_6795_88926"/>
      <feBlend mode="normal" in="SourceGraphic" in2="effect1_dropShadow_6795_88926" result="shape"/>
    </filter>
  </defs>
</svg>