<svg xmlns="http://www.w3.org/2000/svg" width="21" height="20" viewBox="0 0 21 20" fill="currentColor">
  <path d="M17.2498 7.68287C15.7415 7.68287 15.1248 6.61621 15.8748 5.30787C16.3082 4.54954 16.0498 3.58287 15.2915 3.14954L13.8498 2.32454C13.1915 1.93287 12.3415 2.16621 11.9498 2.82454L11.8582 2.98287C11.1082 4.29121 9.87484 4.29121 9.1165 2.98287L9.02484 2.82454C8.64984 2.16621 7.79984 1.93287 7.1415 2.32454L5.69984 3.14954C4.9415 3.58287 4.68317 4.55787 5.1165 5.31621C5.87484 6.61621 5.25817 7.68287 3.74984 7.68287C2.88317 7.68287 2.1665 8.39121 2.1665 9.26621V10.7329C2.1665 11.5995 2.87484 12.3162 3.74984 12.3162C5.25817 12.3162 5.87484 13.3829 5.1165 14.6912C4.68317 15.4495 4.9415 16.4162 5.69984 16.8495L7.1415 17.6745C7.79984 18.0662 8.64984 17.8329 9.0415 17.1745L9.13317 17.0162C9.88317 15.7079 11.1165 15.7079 11.8748 17.0162L11.9665 17.1745C12.3582 17.8329 13.2082 18.0662 13.8665 17.6745L15.3082 16.8495C16.0665 16.4162 16.3248 15.4412 15.8915 14.6912C15.1332 13.3829 15.7498 12.3162 17.2582 12.3162C18.1248 12.3162 18.8415 11.6079 18.8415 10.7329V9.26621C18.8332 8.39954 18.1248 7.68287 17.2498 7.68287ZM10.4998 12.7079C9.00817 12.7079 7.7915 11.4912 7.7915 9.99954C7.7915 8.50787 9.00817 7.29121 10.4998 7.29121C11.9915 7.29121 13.2082 8.50787 13.2082 9.99954C13.2082 11.4912 11.9915 12.7079 10.4998 12.7079Z" fill="currentColor"/>
</svg>