<svg width="100" height="100" viewBox="0 0 100 100" fill="none" xmlns="http://www.w3.org/2000/svg">
<g clip-path="url(#clip0_1915_22649)">
<path d="M49.9789 6.88086C26.0867 6.88086 6.81445 26.2261 6.81445 49.9658C6.81445 73.679 26.0697 93.0488 49.9789 93.0488C55.6479 93.0505 61.2617 91.9373 66.4996 89.7729C71.7374 87.6084 76.4967 84.435 80.5053 80.434C84.514 76.4331 87.6936 71.683 89.8624 66.4551C92.0312 61.2272 93.1468 55.6241 93.1453 49.9658C93.1453 26.1695 73.8296 6.88086 49.9789 6.88086Z" fill="#2B2F46"/>
<path d="M87.9963 15.9511C87.6214 16.1202 87.2047 16.1746 86.7989 16.1072C86.3931 16.0399 86.0164 15.8539 85.7165 15.5728C85.4166 15.2917 85.207 14.9282 85.1142 14.5281C85.0213 14.1281 85.0495 13.7096 85.195 13.3255C85.3406 12.9415 85.597 12.6092 85.9318 12.3706C86.2667 12.132 86.6649 11.998 87.0761 11.9854C87.4873 11.9727 87.893 12.0822 88.2419 12.2997C88.5907 12.5173 88.8671 12.8333 89.036 13.2077C89.2622 13.7092 89.2798 14.2798 89.0848 14.7942C88.8899 15.3085 88.4984 15.7247 87.9963 15.9511Z" fill="#5C6077"/>
<path d="M92.06 18.9968C91.8216 19.1044 91.5566 19.1391 91.2984 19.0964C91.0403 19.0537 90.8006 18.9356 90.6097 18.757C90.4188 18.5784 90.2853 18.3474 90.2259 18.093C90.1665 17.8387 90.1841 17.5725 90.2763 17.3281C90.3685 17.0836 90.5312 16.872 90.7438 16.7199C90.9565 16.5678 91.2096 16.482 91.4711 16.4734C91.7326 16.4648 91.9908 16.5338 92.213 16.6716C92.4353 16.8094 92.6116 17.0099 92.7197 17.2477C92.7915 17.4058 92.8315 17.5765 92.8372 17.7499C92.8429 17.9234 92.8143 18.0963 92.7531 18.2588C92.6918 18.4212 92.599 18.57 92.4801 18.6966C92.3612 18.8233 92.2184 18.9253 92.06 18.9968Z" fill="#5C6077"/>
<path d="M12.3189 88.0641C12.0069 88.3315 11.6224 88.5006 11.2141 88.55C10.8058 88.5993 10.392 88.5267 10.0251 88.3413C9.65811 88.1559 9.35448 87.8661 9.15258 87.5084C8.95067 87.1508 8.85956 86.7414 8.89076 86.3321C8.92196 85.9228 9.07407 85.5319 9.32786 85.2088C9.58165 84.8858 9.92571 84.6451 10.3165 84.5173C10.7074 84.3894 11.1274 84.3801 11.5235 84.4906C11.9196 84.601 12.2741 84.8262 12.542 85.1377C12.9011 85.5553 13.0794 86.0982 13.0376 86.647C12.9957 87.1958 12.7372 87.7055 12.3189 88.0641Z" fill="#5C6077"/>
<path d="M17.0741 89.85C16.8756 90.0202 16.6309 90.1278 16.3711 90.1593C16.1113 90.1907 15.848 90.1445 15.6144 90.0265C15.3809 89.9086 15.1877 89.7242 15.0592 89.4966C14.9307 89.269 14.8726 89.0085 14.8925 88.748C14.9123 88.4875 15.0091 88.2388 15.1706 88.0332C15.3321 87.8276 15.551 87.6745 15.7997 87.5931C16.0484 87.5117 16.3157 87.5057 16.5678 87.576C16.8199 87.6462 17.0454 87.7895 17.2159 87.9877C17.4445 88.2535 17.558 88.5989 17.5314 88.9482C17.5048 89.2974 17.3403 89.6218 17.0741 89.85Z" fill="#5C6077"/>
<path d="M74.7968 37.405C74.6677 37.2841 74.5915 37.1172 74.5848 36.9407C74.5781 36.7641 74.6413 36.5919 74.7609 36.4616C75.5108 35.6677 76.2055 34.8236 76.8403 33.9352C76.891 33.8628 76.9556 33.8012 77.0302 33.7537C77.1049 33.7063 77.1881 33.6739 77.2753 33.6586C77.3624 33.6433 77.4518 33.6452 77.5382 33.6644C77.6246 33.6835 77.7063 33.7194 77.7788 33.7701C77.8513 33.8208 77.9131 33.8852 77.9606 33.9597C78.0082 34.0342 78.0406 34.1173 78.0559 34.2043C78.0713 34.2913 78.0693 34.3804 78.0502 34.4667C78.031 34.5529 77.995 34.6345 77.9442 34.7069C77.2737 35.6462 76.5392 36.5382 75.7458 37.3767C75.6234 37.5056 75.455 37.581 75.2771 37.5863C75.0993 37.5916 74.9266 37.5264 74.7968 37.405ZM78.742 31.9805C78.6583 31.9518 78.5811 31.907 78.5148 31.8484C78.4486 31.7899 78.3946 31.7189 78.3559 31.6394C78.3172 31.56 78.2947 31.4737 78.2896 31.3856C78.2845 31.2974 78.2969 31.2091 78.3261 31.1257C78.6736 30.1541 78.8139 29.1207 78.7382 28.0918C78.7307 28.0038 78.7407 27.9153 78.7676 27.8311C78.7944 27.747 78.8376 27.669 78.8946 27.6016C78.9517 27.5341 79.0215 27.4785 79.1001 27.438C79.1786 27.3975 79.2644 27.3728 79.3526 27.3654C79.4407 27.3579 79.5294 27.3679 79.6137 27.3947C79.698 27.4215 79.7761 27.4646 79.8437 27.5215C79.9113 27.5785 79.967 27.6481 80.0076 27.7266C80.0482 27.805 80.0729 27.8906 80.0803 27.9786C80.1729 29.1939 80.0094 30.4151 79.6002 31.5635C79.5715 31.6473 79.5265 31.7245 79.4678 31.7909C79.409 31.8573 79.3377 31.9114 79.258 31.9501C79.1782 31.9889 79.0916 32.0115 79.003 32.0167C78.9145 32.0219 78.8257 32.0096 78.742 31.9805ZM36.6096 26.1314C36.5212 26.1119 36.4375 26.0749 36.3636 26.0224C36.2898 25.97 36.2273 25.9033 36.1799 25.8262C36.1324 25.7491 36.101 25.6633 36.0876 25.5739C36.0741 25.4844 36.0788 25.3932 36.1014 25.3056C36.124 25.218 36.164 25.1358 36.2191 25.064C36.2742 24.9922 36.3433 24.9322 36.4221 24.8876C36.5009 24.843 36.588 24.8147 36.678 24.8044C36.768 24.7941 36.8592 24.802 36.9461 24.8276C37.9744 25.0948 39.0353 25.2155 40.0974 25.1861C40.2745 25.1872 40.4446 25.255 40.5737 25.3761C40.7027 25.4972 40.7811 25.6626 40.793 25.839C40.7955 25.9274 40.7806 26.0155 40.7489 26.0982C40.7173 26.1809 40.6697 26.2565 40.6088 26.3208C40.5479 26.3852 40.4749 26.4369 40.3939 26.473C40.313 26.5091 40.2257 26.529 40.1371 26.5314C38.9479 26.5627 37.7602 26.4255 36.6096 26.1239V26.1314ZM43.2259 24.6427C44.2388 24.3147 45.2023 23.8507 46.0898 23.2635C46.1643 23.2147 46.2477 23.181 46.3352 23.1643C46.4227 23.1477 46.5126 23.1484 46.5999 23.1664C46.6871 23.1845 46.7699 23.2195 46.8436 23.2695C46.9173 23.3195 46.9804 23.3835 47.0293 23.4578C47.0782 23.5322 47.112 23.6154 47.1287 23.7027C47.1453 23.7901 47.1446 23.8799 47.1265 23.9669C47.1085 24.054 47.0734 24.1367 47.0233 24.2102C46.9732 24.2838 46.9091 24.3467 46.8346 24.3956C45.8453 25.0506 44.7711 25.5679 43.6418 25.9333C42.7722 26.1956 42.3828 24.905 43.2202 24.6352L43.2259 24.6427ZM77.8478 25.1654C77.3492 24.247 76.6898 23.4252 75.9008 22.739C75.7715 22.6201 75.6939 22.4556 75.6843 22.2804C75.6747 22.1052 75.734 21.9333 75.8494 21.801C75.9649 21.6688 76.1275 21.5868 76.3027 21.5724C76.4778 21.5579 76.6517 21.6123 76.7873 21.7239C77.6959 22.5178 78.4552 23.4673 79.0293 24.5276C79.1078 24.6842 79.1221 24.865 79.0693 25.0319C79.0165 25.1988 78.9007 25.3386 78.7464 25.4218C78.592 25.5049 78.4114 25.5249 78.2426 25.4773C78.0738 25.4298 77.9302 25.3186 77.8422 25.1673L77.8478 25.1654ZM50.6267 24.6823C50.5398 24.6635 50.4575 24.6278 50.3844 24.5772C50.3114 24.5266 50.249 24.4622 50.2009 24.3875C50.1528 24.3129 50.1199 24.2295 50.1041 24.1422C50.0883 24.0549 50.0898 23.9653 50.1087 23.8786C50.1276 23.7919 50.1634 23.7097 50.214 23.6368C50.2647 23.5639 50.3293 23.5016 50.4041 23.4536C50.4789 23.4056 50.5624 23.3728 50.6499 23.357C50.7374 23.3412 50.8271 23.3428 50.914 23.3616C51.9592 23.5879 53.0284 23.6848 54.0974 23.6503C54.2758 23.6461 54.4488 23.712 54.5792 23.8337C54.7096 23.9554 54.787 24.1232 54.7949 24.3012C54.8005 24.4796 54.735 24.6529 54.6127 24.783C54.4904 24.9132 54.3214 24.9896 54.1427 24.9956C52.9626 25.0334 51.7823 24.9256 50.6285 24.6748L50.6267 24.6823ZM33.3261 24.7956C32.2942 24.2043 31.3516 23.47 30.5265 22.6144C30.4094 22.4844 30.3475 22.314 30.354 22.1392C30.3605 21.9645 30.4348 21.7991 30.5612 21.678C30.6876 21.557 30.8563 21.4897 31.0315 21.4906C31.2067 21.4914 31.3747 21.5601 31.5 21.6823C32.2361 22.4466 33.0776 23.1022 33.9991 23.6295C34.0802 23.6712 34.1521 23.7289 34.2103 23.7992C34.2685 23.8694 34.3118 23.9507 34.3376 24.0381C34.3633 24.1256 34.3711 24.2173 34.3603 24.3078C34.3496 24.3983 34.3205 24.4857 34.275 24.5646C34.2294 24.6436 34.1682 24.7125 34.0952 24.7672C34.0222 24.8219 33.9388 24.8612 33.85 24.8828C33.7613 24.9044 33.6692 24.9078 33.5791 24.8928C33.489 24.8778 33.403 24.8447 33.3261 24.7956ZM56.7949 23.9918C56.7451 23.8201 56.7655 23.6358 56.8516 23.4792C56.9377 23.3225 57.0825 23.2063 57.2543 23.1559C57.3734 23.1125 58.1994 22.939 60.2788 21.9465C60.4397 21.8735 60.6228 21.8665 60.7888 21.9268C60.9549 21.9871 61.0906 22.11 61.1668 22.2691C61.2431 22.4282 61.2537 22.6108 61.1966 22.7777C61.1394 22.9446 61.0189 23.0824 60.8611 23.1616C58.6909 24.1956 57.7476 24.4069 57.6323 24.4503C57.57 24.4597 56.8989 24.339 56.7968 23.9842L56.7949 23.9918ZM47.2902 23.471C46.2032 22.9023 45.2546 22.1024 44.5114 21.1276C44.4552 21.0568 44.414 20.9754 44.39 20.8883C44.3661 20.8012 44.3599 20.7102 44.3719 20.6207C44.3839 20.5312 44.4138 20.445 44.4598 20.3673C44.5058 20.2895 44.567 20.2218 44.6398 20.1681C44.7126 20.1145 44.7954 20.076 44.8834 20.0549C44.9714 20.0339 45.0627 20.0307 45.152 20.0456C45.2412 20.0604 45.3266 20.0931 45.4029 20.1415C45.4793 20.19 45.5451 20.2533 45.5964 20.3276C46.2229 21.1439 47.0211 21.813 47.9348 22.288C48.0152 22.3288 48.0865 22.3853 48.1447 22.4541C48.2028 22.5229 48.2466 22.6027 48.2733 22.6886C48.3 22.7746 48.3093 22.8651 48.3004 22.9546C48.2915 23.0442 48.2647 23.1311 48.2217 23.2102C48.1786 23.2893 48.12 23.3589 48.0495 23.415C47.979 23.4712 47.8979 23.5126 47.8111 23.5369C47.7243 23.5612 47.6334 23.5679 47.544 23.5566C47.4545 23.5453 47.3682 23.5162 47.2902 23.471ZM48.5378 22.1182C48.4033 22.0025 48.3201 21.8384 48.3063 21.6617C48.2925 21.4849 48.3492 21.3099 48.4641 21.1748C49.1546 20.4014 49.6933 19.5054 50.052 18.5333C50.0802 18.4494 50.1246 18.3719 50.1828 18.3052C50.241 18.2385 50.3118 18.1838 50.3911 18.1444C50.4705 18.105 50.5568 18.0815 50.6452 18.0754C50.7336 18.0693 50.8224 18.0806 50.9064 18.1088C50.9905 18.1369 51.0681 18.1813 51.135 18.2393C51.2018 18.2974 51.2566 18.3681 51.2961 18.4473C51.3356 18.5264 51.359 18.6126 51.3652 18.7009C51.3713 18.7891 51.3599 18.8777 51.3318 18.9616C50.9195 20.1015 50.2941 21.1528 49.4887 22.0597C49.3692 22.1914 49.2024 22.2706 49.0247 22.2802C48.847 22.2897 48.6726 22.2288 48.5397 22.1106L48.5378 22.1182ZM63.6153 21.7805C63.4604 21.7804 63.3102 21.727 63.19 21.6295C63.0698 21.5319 62.9869 21.3961 62.9552 21.2447C62.9235 21.0934 62.9449 20.9357 63.0159 20.7983C63.0869 20.6608 63.2031 20.5519 63.345 20.4899C64.413 20.0045 65.5322 19.6399 66.6815 19.4031C66.7684 19.3858 66.8578 19.3857 66.9447 19.4028C67.0317 19.42 67.1144 19.4541 67.1881 19.5031C67.2618 19.5522 67.3251 19.6153 67.3744 19.6887C67.4237 19.7622 67.4581 19.8447 67.4754 19.9314C67.4928 20.0181 67.4929 20.1074 67.4757 20.1942C67.4585 20.2809 67.4244 20.3635 67.3752 20.437C67.3261 20.5106 67.2629 20.5738 67.1892 20.623C67.1156 20.6723 67.033 20.7065 66.9461 20.7239C65.8949 20.9413 64.8711 21.2741 63.8932 21.7163C63.8063 21.7545 63.7122 21.7738 63.6172 21.7729L63.6153 21.7805ZM73.2146 21.1503C72.2257 20.7777 71.1864 20.5557 70.1314 20.4918C69.9528 20.4801 69.7861 20.3984 69.6678 20.2643C69.5494 20.1303 69.4891 19.955 69.5 19.7767C69.504 19.688 69.5259 19.601 69.5643 19.5209C69.6027 19.4408 69.6568 19.3693 69.7235 19.3105C69.7902 19.2517 69.868 19.2069 69.9523 19.1787C70.0367 19.1505 70.1259 19.1396 70.2146 19.1465C71.4062 19.2166 72.5806 19.4646 73.6985 19.8823C73.8659 19.9456 74.0013 20.0728 74.0749 20.2357C74.1485 20.3986 74.1542 20.5841 74.0907 20.7512C74.0273 20.9184 73.9 21.0535 73.7367 21.1269C73.5735 21.2003 73.3877 21.206 73.2202 21.1427L73.2146 21.1503ZM43.2769 17.6182C43.2221 16.3805 43.6342 15.0012 44.6002 14.0446C44.6631 13.9827 44.7377 13.9337 44.8196 13.9005C44.9014 13.8673 44.9891 13.8505 45.0775 13.8512C45.1658 13.8518 45.2532 13.8698 45.3347 13.9041C45.4161 13.9384 45.4899 13.9884 45.552 14.0512C45.6141 14.114 45.6631 14.1884 45.6964 14.2702C45.7296 14.3519 45.7464 14.4394 45.7458 14.5276C45.7452 14.6158 45.7272 14.703 45.6928 14.7843C45.6584 14.8656 45.6083 14.9393 45.5454 15.0012C44.4735 16.0578 44.6248 17.4993 44.6153 17.5673C44.6155 17.7416 44.5479 17.9092 44.4268 18.0348C44.3057 18.1604 44.1405 18.2343 43.966 18.2409C43.7915 18.2475 43.6212 18.1863 43.4909 18.0702C43.3606 17.9541 43.2806 17.792 43.2675 17.6182H43.2769ZM50.0312 15.6918C49.6758 14.839 49.001 14.2031 48.0709 14.0899C47.8994 14.0613 47.7455 13.9676 47.6415 13.8286C47.5374 13.6895 47.4912 13.5157 47.5124 13.3434C47.5336 13.1711 47.6207 13.0136 47.7553 12.9038C47.89 12.794 48.062 12.7404 48.2354 12.754C49.638 12.9239 50.7269 13.8559 51.2751 15.1748C51.3437 15.3394 51.3441 15.5246 51.276 15.6894C51.208 15.8543 51.077 15.9855 50.9121 16.054C50.7472 16.1226 50.5617 16.1229 50.3965 16.055C50.2313 15.9871 50.0999 15.8564 50.0312 15.6918Z" fill="white" fill-opacity="0.1"/>
<path d="M84.9706 38.0676V76.6035C84.9686 78.4339 84.2392 80.1887 82.9425 81.483C81.6458 82.7773 79.8876 83.5053 78.0538 83.5073H14.7664C12.9326 83.5053 11.1744 82.7773 9.87771 81.483C8.58099 80.1887 7.85161 78.4339 7.84961 76.6035V38.0676C7.8531 36.2372 8.58278 34.4826 9.87902 33.1878C11.1753 31.8929 12.9325 31.1632 14.7664 31.1582H78.0538C79.8877 31.1632 81.645 31.8929 82.9412 33.1878C84.2374 34.4826 84.9671 36.2372 84.9706 38.0676Z" fill="url(#paint0_linear_1915_22649)"/>
<path d="M83.4263 34.664L52.6721 59.8753C50.9065 61.3229 48.6923 62.1142 46.4074 62.1142C44.1225 62.1142 41.9084 61.3229 40.1428 59.8753L9.3904 34.664C9.27051 34.5673 9.19344 34.4276 9.17576 34.2748C9.15808 34.122 9.20122 33.9683 9.29589 33.847C9.93634 33.0065 10.7638 32.326 11.7129 31.8594C12.662 31.3928 13.7067 31.1528 14.7647 31.1583H78.052C79.11 31.1528 80.1548 31.3928 81.1039 31.8594C82.0529 32.326 82.8804 33.0065 83.5208 33.847C83.6155 33.9683 83.6586 34.122 83.641 34.2748C83.6233 34.4276 83.5462 34.5673 83.4263 34.664Z" fill="url(#paint1_linear_1915_22649)"/>
<path d="M29.4908 71.0586H16.4095C16.0733 71.0586 15.8008 71.3306 15.8008 71.6661V75.1869C15.8008 75.5224 16.0733 75.7944 16.4095 75.7944H29.4908C29.8269 75.7944 30.0995 75.5224 30.0995 75.1869V71.6661C30.0995 71.3306 29.8269 71.0586 29.4908 71.0586Z" fill="url(#paint2_linear_1915_22649)"/>
<path d="M92.1117 79.9276C92.112 82.1157 91.4622 84.2548 90.2445 86.0743C89.0267 87.8938 87.2957 89.312 85.2703 90.1495C83.2449 90.9869 81.0162 91.206 78.866 90.7791C76.7159 90.3522 74.7409 89.2984 73.1908 87.751C71.6408 86.2036 70.5853 84.2321 70.158 82.086C69.7306 79.9398 69.9505 77.7153 70.7899 75.6939C71.6293 73.6725 73.0504 71.945 74.8736 70.7298C76.6967 69.5146 78.84 68.8664 81.0323 68.8672C82.4876 68.8664 83.9288 69.152 85.2735 69.7076C86.6182 70.2632 87.8399 71.0779 88.8689 72.1052C89.8979 73.1324 90.7139 74.352 91.2704 75.6942C91.8268 77.0364 92.1127 78.475 92.1117 79.9276Z" fill="#484B5C"/>
<path d="M81.0332 91.6592C78.7073 91.6603 76.4333 90.9729 74.4989 89.6838C72.5645 88.3948 71.0565 86.5621 70.1658 84.4175C69.2751 82.273 69.0417 79.9129 69.495 77.6359C69.9484 75.3589 71.0682 73.2672 72.7127 71.6255C74.3573 69.9838 76.4527 68.8658 78.7339 68.413C81.0152 67.9601 83.3797 68.1927 85.5285 69.0814C87.6772 69.9701 89.5137 71.4748 90.8055 73.4054C92.0972 75.336 92.7864 77.6056 92.7856 79.9271C92.7811 83.037 91.5415 86.0182 89.3386 88.2173C87.1356 90.4165 84.149 91.6542 81.0332 91.6592ZM81.0332 69.5366C78.9743 69.5343 76.9609 70.1417 75.2478 71.2817C73.5347 72.4218 72.1989 74.0434 71.4093 75.9414C70.6197 77.8394 70.4119 79.9284 70.8121 81.9443C71.2122 83.9602 72.2024 85.8124 73.6574 87.2665C75.1124 88.7206 76.9668 89.7113 78.986 90.1132C81.0052 90.5152 83.0985 90.3104 85.0011 89.5247C86.9036 88.7391 88.53 87.4078 89.6744 85.6994C90.8188 83.991 91.4298 81.9822 91.4302 79.9271C91.4267 77.1747 90.3306 74.5359 88.382 72.5884C86.4333 70.6409 83.7908 69.5435 81.0332 69.5366Z" fill="#606373"/>
<path d="M88.4147 79.9188C88.4166 81.3339 87.9979 82.7177 87.2116 83.8953C86.4253 85.0728 85.3067 85.991 83.9974 86.5339C82.6881 87.0767 81.2469 87.2197 79.8561 86.9448C78.4653 86.6698 77.1875 85.9893 76.1844 84.9894C75.1812 83.9894 74.4977 82.7149 74.2204 81.3271C73.9431 79.9394 74.0845 78.5007 74.6266 77.1931C75.1688 75.8856 76.0873 74.7679 77.266 73.9815C78.4447 73.1951 79.8306 72.7754 81.2484 72.7754C83.1474 72.7754 84.9687 73.5277 86.3124 74.8671C87.6561 76.2064 88.4122 78.0234 88.4147 79.9188Z" fill="#65697E"/>
<path d="M79.206 82.222L77.5482 80.2107C77.4362 80.0917 77.35 79.9509 77.2947 79.7972C77.2395 79.6435 77.2165 79.4802 77.2271 79.3172C77.2378 79.1543 77.2818 78.9953 77.3565 78.85C77.4312 78.7048 77.535 78.5764 77.6615 78.4728C77.788 78.3693 77.9344 78.2927 78.0917 78.2479C78.249 78.2032 78.4139 78.1911 78.576 78.2125C78.7382 78.2339 78.8943 78.2884 79.0345 78.3725C79.1747 78.4565 79.2962 78.5684 79.3913 78.7013L80.3043 79.8069L83.2722 77.4541C83.3942 77.3505 83.5359 77.2724 83.6889 77.2245C83.8418 77.1767 84.0027 77.16 84.1622 77.1755C84.3217 77.1911 84.4765 77.2385 84.6172 77.3149C84.758 77.3913 84.8819 77.4952 84.9816 77.6205C85.0813 77.7457 85.1548 77.8896 85.1976 78.0438C85.2404 78.1979 85.2517 78.359 85.2308 78.5176C85.21 78.6762 85.1574 78.829 85.0761 78.9669C84.9949 79.1047 84.8867 79.2249 84.758 79.3202L80.8714 82.4032C80.6255 82.597 80.3131 82.6867 80.0016 82.6528C79.6901 82.6189 79.4044 82.4642 79.206 82.222Z" fill="url(#paint3_linear_1915_22649)"/>
<path d="M15.3598 12.3521L14.5564 11.7615C14.5134 11.9469 14.4988 12.1378 14.513 12.3276C14.5122 12.4323 14.4908 12.5358 14.4499 12.6323C14.409 12.7287 14.3494 12.8162 14.2746 12.8896C14.1998 12.963 14.1112 13.021 14.014 13.0602C13.9167 13.0994 13.8126 13.1191 13.7077 13.1181C13.5352 13.1239 13.3666 13.0669 13.2332 12.9577C13.1349 12.8838 13.0545 12.7888 12.9979 12.6798C12.9413 12.5707 12.9099 12.4503 12.9061 12.3276C12.9039 11.7965 13.0107 11.2706 13.2199 10.7823L12.8154 10.4879C12.731 10.426 12.6597 10.3481 12.6054 10.2586C12.5512 10.1691 12.5152 10.0699 12.4994 9.9665C12.4836 9.86313 12.4883 9.75767 12.5134 9.65613C12.5384 9.55459 12.5832 9.45897 12.6453 9.37473C12.7073 9.29049 12.7854 9.21927 12.8751 9.16514C12.9647 9.11101 13.0641 9.07504 13.1677 9.05927C13.2713 9.0435 13.3769 9.04825 13.4787 9.07324C13.5804 9.09823 13.6762 9.14297 13.7606 9.20492L14.1632 9.49926C14.5563 9.16894 15.0094 8.91719 15.4978 8.75775C15.5972 8.71665 15.7039 8.69609 15.8115 8.69732C15.9191 8.69854 16.0253 8.72152 16.1237 8.76487C16.2221 8.80822 16.3107 8.87103 16.3841 8.94952C16.4576 9.028 16.5143 9.12053 16.5509 9.22151C16.5874 9.32249 16.6031 9.42982 16.597 9.53702C16.5908 9.64423 16.563 9.74907 16.5151 9.84522C16.4672 9.94137 16.4002 10.0268 16.3183 10.0964C16.2364 10.166 16.1412 10.2184 16.0385 10.2502C15.8533 10.3162 15.6738 10.397 15.5016 10.4917L16.2918 11.0691C16.0988 11.2528 15.9229 11.4536 15.7663 11.6691C15.6108 11.8843 15.4748 12.1129 15.3598 12.3521Z" fill="#626373"/>
<path d="M28.5587 14.8413C28.2474 15.0621 27.9079 15.2404 27.5493 15.3715C26.3497 14.0249 25.0144 12.8053 23.5644 11.7319C23.1854 11.4529 22.7923 11.1935 22.3867 10.9545C22.5053 10.8345 22.6316 10.7223 22.7648 10.6187C24.4207 9.43567 27.0559 9.41868 28.6533 10.5847C30.2506 11.7508 30.2147 13.6602 28.5587 14.8413Z" fill="url(#paint4_linear_1915_22649)"/>
<path d="M18.643 24.2576C17.0437 23.0915 16.263 20.5802 16.8906 18.6463C16.9432 18.4918 17.0063 18.3411 17.0797 18.1953C17.4304 18.5093 17.797 18.8053 18.178 19.0821C19.6422 20.1358 21.2113 21.0361 22.8604 21.7689C22.8531 22.1436 22.7894 22.515 22.6713 22.8708C22.0494 24.8029 20.2403 25.4255 18.643 24.2576Z" fill="url(#paint5_linear_1915_22649)"/>
<path d="M23.57 11.7258C27.7515 14.7786 32.3923 20.6862 30.9046 22.7183C29.4169 24.7503 22.3678 22.1258 18.1863 19.073C14.0048 16.0201 14.2827 13.6975 15.7685 11.6692C17.2543 9.64089 19.3905 8.67863 23.57 11.7258Z" fill="url(#paint6_linear_1915_22649)"/>
</g>
<defs>
<linearGradient id="paint0_linear_1915_22649" x1="45.8175" y1="23.6771" x2="47.0924" y2="96.3734" gradientUnits="userSpaceOnUse">
<stop stop-color="#545768"/>
<stop offset="1" stop-color="#2B2F46"/>
</linearGradient>
<linearGradient id="paint1_linear_1915_22649" x1="9.17301" y1="46.6357" x2="83.6437" y2="46.6357" gradientUnits="userSpaceOnUse">
<stop stop-color="#595D75"/>
<stop offset="1" stop-color="#65697E"/>
</linearGradient>
<linearGradient id="paint2_linear_1915_22649" x1="15.8008" y1="73.4265" x2="30.0995" y2="73.4265" gradientUnits="userSpaceOnUse">
<stop stop-color="#414457"/>
<stop offset="1" stop-color="#5D6177"/>
</linearGradient>
<linearGradient id="paint3_linear_1915_22649" x1="77.2816" y1="79.9239" x2="85.2155" y2="79.9239" gradientUnits="userSpaceOnUse">
<stop stop-color="#FCFCFC"/>
<stop offset="1" stop-color="#CCD6ED"/>
</linearGradient>
<linearGradient id="paint4_linear_1915_22649" x1="23.1419" y1="5.21532" x2="29.1791" y2="9.62112" gradientUnits="userSpaceOnUse">
<stop stop-color="#272833"/>
<stop offset="1" stop-color="#3D3E4E"/>
</linearGradient>
<linearGradient id="paint5_linear_1915_22649" x1="15.793" y1="15.2861" x2="21.8303" y2="19.6919" gradientUnits="userSpaceOnUse">
<stop stop-color="#272833"/>
<stop offset="1" stop-color="#3D3E4E"/>
</linearGradient>
<linearGradient id="paint6_linear_1915_22649" x1="20.6376" y1="20.8873" x2="26.0075" y2="13.5309" gradientUnits="userSpaceOnUse">
<stop stop-color="#79788B"/>
<stop offset="1" stop-color="#4B4C5A"/>
</linearGradient>
<clipPath id="clip0_1915_22649">
<rect width="100" height="100" fill="white"/>
</clipPath>
</defs>
</svg>
