<svg width="20" height="20" viewBox="0 0 20 20" fill="none" xmlns="http://www.w3.org/2000/svg">
<path d="M8.54102 8.35898C8.54102 8.80898 8.66602 8.87565 8.94935 8.97565L9.37435 9.12565V7.70898H9.12435C8.80768 7.70898 8.54102 8.00065 8.54102 8.35898Z" fill="current"/>
<path d="M10.625 12.2917H10.875C11.2 12.2917 11.4583 12 11.4583 11.6417C11.4583 11.1917 11.3333 11.125 11.05 11.025L10.625 10.875V12.2917Z" fill="current"/>
<path d="M16.316 4.56602L14.6077 6.27435C14.4827 6.39935 14.3243 6.45768 14.166 6.45768C14.0077 6.45768 13.8493 6.39935 13.7243 6.27435C13.4827 6.03268 13.4827 5.63268 13.7243 5.39102L15.4327 3.68268C13.966 2.43268 12.0743 1.66602 9.99935 1.66602C5.39935 1.66602 1.66602 5.39935 1.66602 9.99935C1.66602 14.5993 5.39935 18.3327 9.99935 18.3327C14.5993 18.3327 18.3327 14.5993 18.3327 9.99935C18.3327 7.92435 17.566 6.03268 16.316 4.56602ZM11.4577 9.84935C11.991 10.041 12.7077 10.4243 12.7077 11.6493C12.7077 12.691 11.8827 13.5493 10.8743 13.5493H10.6243V13.7577C10.6243 14.0993 10.341 14.3827 9.99935 14.3827C9.65768 14.3827 9.37435 14.0993 9.37435 13.7577V13.5493H9.30768C8.19935 13.5493 7.29102 12.616 7.29102 11.466C7.29102 11.116 7.57435 10.8327 7.91602 10.8327C8.25768 10.8327 8.54102 11.116 8.54102 11.4577C8.54102 11.916 8.88268 12.291 9.30768 12.291H9.37435V10.441L8.54102 10.1493C8.00768 9.95768 7.29102 9.57435 7.29102 8.34935C7.29102 7.30768 8.11602 6.44935 9.12435 6.44935H9.37435V6.24935C9.37435 5.90768 9.65768 5.62435 9.99935 5.62435C10.341 5.62435 10.6243 5.90768 10.6243 6.24935V6.45768H10.691C11.7993 6.45768 12.7077 7.39102 12.7077 8.54102C12.7077 8.88268 12.4243 9.16602 12.0827 9.16602C11.741 9.16602 11.4577 8.88268 11.4577 8.54102C11.4577 8.08268 11.116 7.70768 10.691 7.70768H10.6243V9.55768L11.4577 9.84935Z" fill="current"/>
<path d="M18.9083 1.42435C18.8417 1.27435 18.725 1.14935 18.5667 1.08268C18.4917 1.05768 18.4167 1.04102 18.3333 1.04102H15C14.6583 1.04102 14.375 1.32435 14.375 1.66602C14.375 2.00768 14.6583 2.29102 15 2.29102H16.825L15.4333 3.68268C15.75 3.95768 16.0417 4.24935 16.3167 4.56602L17.7083 3.17435V4.99935C17.7083 5.34102 17.9917 5.62435 18.3333 5.62435C18.675 5.62435 18.9583 5.34102 18.9583 4.99935V1.66602C18.9583 1.58268 18.9417 1.50768 18.9083 1.42435Z" fill="current"/>
</svg>
