<svg width="18" height="19" viewBox="0 0 18 19" fill="none" xmlns="http://www.w3.org/2000/svg">
<path d="M8.55981 2H9.43907C9.47632 2.01041 9.51417 2.01852 9.55242 2.02428C10.711 2.09709 11.8343 2.45133 12.825 3.05629C14.7681 4.24694 15.9639 5.96371 16.3874 8.20903C16.44 8.4899 16.4683 8.77562 16.5039 9.05973V9.93875C16.495 9.99055 16.4845 10.0424 16.4772 10.0942C16.4303 10.4179 16.4035 10.7417 16.3339 11.0655C15.9429 12.8664 15.0174 14.3428 13.5504 15.4541C11.7247 16.8358 9.669 17.2947 7.42794 16.8301C5.62893 16.4505 4.17159 15.51 3.05591 14.0603C1.85118 12.4941 1.35001 10.7109 1.53866 8.74891C1.67955 7.19065 2.32151 5.71994 3.36843 4.55694C4.48767 3.26483 6.02156 2.40209 7.70726 2.11656C7.98901 2.06637 8.27562 2.03804 8.55981 2ZM14.2394 9.50895C14.2216 6.63472 11.9497 4.27527 9.00915 4.26636C8.32178 4.26509 7.64088 4.39918 7.00534 4.66098C6.3698 4.92277 5.79206 5.30715 5.30511 5.79217C4.81816 6.27718 4.43153 6.85334 4.16731 7.48773C3.90308 8.12212 3.76643 8.80233 3.76515 9.48952C3.76388 10.1767 3.898 10.8574 4.15987 11.4928C4.42174 12.1282 4.80622 12.7058 5.29137 13.1926C5.77651 13.6794 6.35282 14.0659 6.98739 14.3301C7.62195 14.5942 8.30235 14.7308 8.98972 14.7321C11.8631 14.741 14.2046 12.4479 14.2394 9.50895ZM3.21298 10.0755V8.92779H2.06654V10.0764L3.21298 10.0755ZM9.54918 3.74267V2.59492H8.40517V3.74267H9.54918ZM8.40598 15.2558V16.4076H9.54756V15.2558H8.40598ZM4.51082 5.80992L5.30508 5.01588L4.53592 4.24937L3.74248 5.03936L4.51082 5.80992ZM12.6881 5.02317L13.4694 5.80425L14.2532 5.01588L13.4767 4.24127L12.6881 5.02317ZM4.52054 13.1869L3.73924 13.9721L4.51811 14.7596L5.30993 13.9794L4.52054 13.1869ZM12.6784 13.9656L13.4654 14.7483L14.2548 13.9818L13.4597 13.1837L12.6784 13.9656ZM15.8821 10.0739V8.92455H14.7422V10.0739H15.8821Z" fill="current"/>
<path d="M7.75407 12.1689C6.87347 12.0723 6.07822 11.4393 5.96421 10.3885C5.91337 9.99987 5.95491 9.60471 6.08552 9.23509C6.21684 8.86351 6.43441 8.5284 6.72035 8.25725C7.10363 7.88533 7.49706 7.51922 7.88366 7.15947C8.00705 7.04464 8.12975 6.93047 8.2512 6.81695C8.31917 6.75288 8.4036 6.68238 8.46608 6.63021C8.48717 6.61259 8.50575 6.59707 8.52037 6.58459L9.01799 6.15946L9.50657 6.59496C9.58536 6.66518 9.66998 6.73899 9.75766 6.81547C9.97135 7.00186 10.2032 7.20412 10.4133 7.40913C10.4673 7.46127 10.5235 7.51492 10.5813 7.57009C10.8999 7.87405 11.2665 8.22386 11.5752 8.61806L11.5809 8.62539L11.5809 8.62542C12.1518 9.37359 12.2265 10.2817 11.8051 11.1176L7.75407 12.1689ZM7.75407 12.1689L7.62541 12.6359H8.61H9.38158H10.3631L10.2332 12.1589C10.8747 12.1016 11.488 11.7468 11.8049 11.1179L7.75407 12.1689ZM12.5194 9.49576C12.5 11.4416 10.9723 13.004 9.01205 13.0129C8.09784 12.9897 7.22854 12.6113 6.58878 11.9578C5.94688 11.3021 5.58699 10.4214 5.58594 9.504C5.58489 8.5866 5.94278 7.70513 6.58319 7.04795C7.22167 6.39275 8.09048 6.01231 9.00498 5.98731C10.934 5.98642 12.4906 7.51898 12.5194 9.49576Z" fill="current" stroke="current" stroke-width="1.5"/>
</svg>
