<svg width="19" height="19" viewBox="0 0 19 19" fill="none" xmlns="http://www.w3.org/2000/svg">
<path d="M15.7698 10.0467C15.4923 10.0467 15.2598 9.8367 15.2298 9.5592C15.0498 7.9092 14.1648 6.4242 12.7998 5.4792C12.5523 5.3067 12.4923 4.9692 12.6648 4.7217C12.8373 4.4742 13.1748 4.4142 13.4223 4.5867C15.0498 5.7192 16.0998 7.4892 16.3173 9.4467C16.3473 9.7467 16.1298 10.0167 15.8298 10.0467C15.8073 10.0467 15.7923 10.0467 15.7698 10.0467Z" fill="current"/>
<mask id="path-2-inside-1_2022_4644" fill="white">
<path d="M3.30448 10.0859C3.28948 10.0859 3.26698 10.0859 3.25198 10.0859C2.95198 10.0559 2.73448 9.78588 2.76448 9.48588C2.96698 7.52838 4.00198 5.75838 5.61448 4.61838C5.85448 4.44588 6.19948 4.50588 6.37198 4.74588C6.54448 4.99338 6.48448 5.33088 6.24448 5.50338C4.89448 6.46338 4.01698 7.94838 3.85198 9.59088C3.82198 9.87588 3.58198 10.0859 3.30448 10.0859Z"/>
</mask>
<path d="M3.25198 10.0859L3.10273 11.5784L3.17717 11.5859H3.25198V10.0859ZM2.76448 9.48588L1.27244 9.33153L1.27193 9.33663L2.76448 9.48588ZM5.61448 4.61838L6.48043 5.84324L6.48994 5.83641L5.61448 4.61838ZM6.37198 4.74588L7.60258 3.88819L7.59636 3.87927L7.59001 3.87043L6.37198 4.74588ZM6.24448 5.50338L7.11378 6.72583L7.11994 6.72141L6.24448 5.50338ZM3.85198 9.59088L5.34376 9.74791L5.34447 9.74081L3.85198 9.59088ZM3.30448 8.58588C3.30445 8.58588 3.30443 8.58588 3.3044 8.58588C3.30437 8.58588 3.30434 8.58588 3.30431 8.58588C3.30428 8.58588 3.30425 8.58588 3.30422 8.58588C3.30419 8.58588 3.30416 8.58588 3.30413 8.58588C3.3041 8.58588 3.30407 8.58588 3.30404 8.58588C3.30401 8.58588 3.30398 8.58588 3.30395 8.58588C3.30392 8.58588 3.30389 8.58588 3.30386 8.58588C3.30383 8.58588 3.30381 8.58588 3.30378 8.58588C3.30375 8.58588 3.30372 8.58588 3.30369 8.58588C3.30366 8.58588 3.30363 8.58588 3.3036 8.58588C3.30357 8.58588 3.30354 8.58588 3.30351 8.58588C3.30348 8.58588 3.30345 8.58588 3.30342 8.58588C3.30339 8.58588 3.30336 8.58588 3.30333 8.58588C3.3033 8.58588 3.30327 8.58588 3.30324 8.58588C3.30321 8.58588 3.30318 8.58588 3.30315 8.58588C3.30312 8.58588 3.30309 8.58588 3.30306 8.58588C3.30303 8.58588 3.303 8.58588 3.30297 8.58588C3.30294 8.58588 3.30291 8.58588 3.30287 8.58588C3.30284 8.58588 3.30281 8.58588 3.30278 8.58588C3.30275 8.58588 3.30272 8.58588 3.30269 8.58588C3.30266 8.58588 3.30263 8.58588 3.3026 8.58588C3.30257 8.58588 3.30254 8.58588 3.30251 8.58588C3.30248 8.58588 3.30245 8.58588 3.30242 8.58588C3.30239 8.58588 3.30236 8.58588 3.30233 8.58588C3.3023 8.58588 3.30227 8.58588 3.30223 8.58588C3.3022 8.58588 3.30217 8.58588 3.30214 8.58588C3.30211 8.58588 3.30208 8.58588 3.30205 8.58588C3.30202 8.58588 3.30199 8.58588 3.30196 8.58588C3.30193 8.58588 3.3019 8.58588 3.30187 8.58588C3.30183 8.58588 3.3018 8.58588 3.30177 8.58588C3.30174 8.58588 3.30171 8.58588 3.30168 8.58588C3.30165 8.58588 3.30162 8.58588 3.30159 8.58588C3.30156 8.58588 3.30153 8.58588 3.30149 8.58588C3.30146 8.58588 3.30143 8.58588 3.3014 8.58588C3.30137 8.58588 3.30134 8.58588 3.30131 8.58588C3.30128 8.58588 3.30125 8.58588 3.30121 8.58588C3.30118 8.58588 3.30115 8.58588 3.30112 8.58588C3.30109 8.58588 3.30106 8.58588 3.30103 8.58588C3.30099 8.58588 3.30096 8.58588 3.30093 8.58588C3.3009 8.58588 3.30087 8.58588 3.30084 8.58588C3.30081 8.58588 3.30078 8.58588 3.30074 8.58588C3.30071 8.58588 3.30068 8.58588 3.30065 8.58588C3.30062 8.58588 3.30059 8.58588 3.30055 8.58588C3.30052 8.58588 3.30049 8.58588 3.30046 8.58588C3.30043 8.58588 3.3004 8.58588 3.30037 8.58588C3.30033 8.58588 3.3003 8.58588 3.30027 8.58588C3.30024 8.58588 3.30021 8.58588 3.30018 8.58588C3.30014 8.58588 3.30011 8.58588 3.30008 8.58588C3.30005 8.58588 3.30002 8.58588 3.29998 8.58588C3.29995 8.58588 3.29992 8.58588 3.29989 8.58588C3.29986 8.58588 3.29983 8.58588 3.29979 8.58588C3.29976 8.58588 3.29973 8.58588 3.2997 8.58588C3.29967 8.58588 3.29963 8.58588 3.2996 8.58588C3.29957 8.58588 3.29954 8.58588 3.29951 8.58588C3.29947 8.58588 3.29944 8.58588 3.29941 8.58588C3.29938 8.58588 3.29934 8.58588 3.29931 8.58588C3.29928 8.58588 3.29925 8.58588 3.29922 8.58588C3.29918 8.58588 3.29915 8.58588 3.29912 8.58588C3.29909 8.58588 3.29905 8.58588 3.29902 8.58588C3.29899 8.58588 3.29896 8.58588 3.29893 8.58588C3.29889 8.58588 3.29886 8.58588 3.29883 8.58588C3.2988 8.58588 3.29876 8.58588 3.29873 8.58588C3.2987 8.58588 3.29867 8.58588 3.29863 8.58588C3.2986 8.58588 3.29857 8.58588 3.29854 8.58588C3.2985 8.58588 3.29847 8.58588 3.29844 8.58588C3.29841 8.58588 3.29837 8.58588 3.29834 8.58588C3.29831 8.58588 3.29828 8.58588 3.29824 8.58588C3.29821 8.58588 3.29818 8.58588 3.29815 8.58588C3.29811 8.58588 3.29808 8.58588 3.29805 8.58588C3.29801 8.58588 3.29798 8.58588 3.29795 8.58588C3.29792 8.58588 3.29788 8.58588 3.29785 8.58588C3.29782 8.58588 3.29779 8.58588 3.29775 8.58588C3.29772 8.58588 3.29769 8.58588 3.29765 8.58588C3.29762 8.58588 3.29759 8.58588 3.29756 8.58588C3.29752 8.58588 3.29749 8.58588 3.29746 8.58588C3.29742 8.58588 3.29739 8.58588 3.29736 8.58588C3.29732 8.58588 3.29729 8.58588 3.29726 8.58588C3.29723 8.58588 3.29719 8.58588 3.29716 8.58588C3.29713 8.58588 3.29709 8.58588 3.29706 8.58588C3.29703 8.58588 3.29699 8.58588 3.29696 8.58588C3.29693 8.58588 3.29689 8.58588 3.29686 8.58588C3.29683 8.58588 3.29679 8.58588 3.29676 8.58588C3.29673 8.58588 3.29669 8.58588 3.29666 8.58588C3.29663 8.58588 3.2966 8.58588 3.29656 8.58588C3.29653 8.58588 3.2965 8.58588 3.29646 8.58588C3.29643 8.58588 3.2964 8.58588 3.29636 8.58588C3.29633 8.58588 3.29629 8.58588 3.29626 8.58588C3.29623 8.58588 3.29619 8.58588 3.29616 8.58588C3.29613 8.58588 3.29609 8.58588 3.29606 8.58588C3.29603 8.58588 3.29599 8.58588 3.29596 8.58588C3.29593 8.58588 3.29589 8.58588 3.29586 8.58588C3.29583 8.58588 3.29579 8.58588 3.29576 8.58588C3.29572 8.58588 3.29569 8.58588 3.29566 8.58588C3.29562 8.58588 3.29559 8.58588 3.29556 8.58588C3.29552 8.58588 3.29549 8.58588 3.29546 8.58588C3.29542 8.58588 3.29539 8.58588 3.29535 8.58588C3.29532 8.58588 3.29529 8.58588 3.29525 8.58588C3.29522 8.58588 3.29519 8.58588 3.29515 8.58588C3.29512 8.58588 3.29508 8.58588 3.29505 8.58588C3.29502 8.58588 3.29498 8.58588 3.29495 8.58588C3.29491 8.58588 3.29488 8.58588 3.29485 8.58588C3.29481 8.58588 3.29478 8.58588 3.29474 8.58588C3.29471 8.58588 3.29468 8.58588 3.29464 8.58588C3.29461 8.58588 3.29457 8.58588 3.29454 8.58588C3.29451 8.58588 3.29447 8.58588 3.29444 8.58588C3.2944 8.58588 3.29437 8.58588 3.29434 8.58588C3.2943 8.58588 3.29427 8.58588 3.29423 8.58588C3.2942 8.58588 3.29417 8.58588 3.29413 8.58588C3.2941 8.58588 3.29406 8.58588 3.29403 8.58588C3.29399 8.58588 3.29396 8.58588 3.29393 8.58588C3.29389 8.58588 3.29386 8.58588 3.29382 8.58588C3.29379 8.58588 3.29375 8.58588 3.29372 8.58588C3.29369 8.58588 3.29365 8.58588 3.29362 8.58588C3.29358 8.58588 3.29355 8.58588 3.29351 8.58588C3.29348 8.58588 3.29345 8.58588 3.29341 8.58588C3.29338 8.58588 3.29334 8.58588 3.29331 8.58588C3.29327 8.58588 3.29324 8.58588 3.2932 8.58588C3.29317 8.58588 3.29314 8.58588 3.2931 8.58588C3.29307 8.58588 3.29303 8.58588 3.293 8.58588C3.29296 8.58588 3.29293 8.58588 3.29289 8.58588C3.29286 8.58588 3.29283 8.58588 3.29279 8.58588C3.29276 8.58588 3.29272 8.58588 3.29269 8.58588C3.29265 8.58588 3.29262 8.58588 3.29258 8.58588C3.29255 8.58588 3.29251 8.58588 3.29248 8.58588C3.29244 8.58588 3.29241 8.58588 3.29237 8.58588C3.29234 8.58588 3.29231 8.58588 3.29227 8.58588C3.29224 8.58588 3.2922 8.58588 3.29217 8.58588C3.29213 8.58588 3.2921 8.58588 3.29206 8.58588C3.29203 8.58588 3.29199 8.58588 3.29196 8.58588C3.29192 8.58588 3.29189 8.58588 3.29185 8.58588C3.29182 8.58588 3.29178 8.58588 3.29175 8.58588C3.29171 8.58588 3.29168 8.58588 3.29164 8.58588C3.29161 8.58588 3.29157 8.58588 3.29154 8.58588C3.2915 8.58588 3.29147 8.58588 3.29143 8.58588C3.2914 8.58588 3.29136 8.58588 3.29133 8.58588C3.29129 8.58588 3.29126 8.58588 3.29122 8.58588C3.29119 8.58588 3.29115 8.58588 3.29112 8.58588C3.29108 8.58588 3.29105 8.58588 3.29101 8.58588C3.29098 8.58588 3.29094 8.58588 3.29091 8.58588C3.29087 8.58588 3.29084 8.58588 3.2908 8.58588C3.29077 8.58588 3.29073 8.58588 3.2907 8.58588C3.29066 8.58588 3.29063 8.58588 3.29059 8.58588C3.29056 8.58588 3.29052 8.58588 3.29049 8.58588C3.29045 8.58588 3.29042 8.58588 3.29038 8.58588C3.29035 8.58588 3.29031 8.58588 3.29028 8.58588C3.29024 8.58588 3.29021 8.58588 3.29017 8.58588C3.29013 8.58588 3.2901 8.58588 3.29006 8.58588C3.29003 8.58588 3.28999 8.58588 3.28996 8.58588C3.28992 8.58588 3.28989 8.58588 3.28985 8.58588C3.28982 8.58588 3.28978 8.58588 3.28975 8.58588C3.28971 8.58588 3.28968 8.58588 3.28964 8.58588C3.2896 8.58588 3.28957 8.58588 3.28953 8.58588C3.2895 8.58588 3.28946 8.58588 3.28943 8.58588C3.28939 8.58588 3.28936 8.58588 3.28932 8.58588C3.28929 8.58588 3.28925 8.58588 3.28922 8.58588C3.28918 8.58588 3.28914 8.58588 3.28911 8.58588C3.28907 8.58588 3.28904 8.58588 3.289 8.58588C3.28897 8.58588 3.28893 8.58588 3.2889 8.58588C3.28886 8.58588 3.28882 8.58588 3.28879 8.58588C3.28875 8.58588 3.28872 8.58588 3.28868 8.58588C3.28865 8.58588 3.28861 8.58588 3.28858 8.58588C3.28854 8.58588 3.2885 8.58588 3.28847 8.58588C3.28843 8.58588 3.2884 8.58588 3.28836 8.58588C3.28833 8.58588 3.28829 8.58588 3.28825 8.58588C3.28822 8.58588 3.28818 8.58588 3.28815 8.58588C3.28811 8.58588 3.28808 8.58588 3.28804 8.58588C3.288 8.58588 3.28797 8.58588 3.28793 8.58588C3.2879 8.58588 3.28786 8.58588 3.28783 8.58588C3.28779 8.58588 3.28775 8.58588 3.28772 8.58588C3.28768 8.58588 3.28765 8.58588 3.28761 8.58588C3.28758 8.58588 3.28754 8.58588 3.2875 8.58588C3.28747 8.58588 3.28743 8.58588 3.2874 8.58588C3.28736 8.58588 3.28732 8.58588 3.28729 8.58588C3.28725 8.58588 3.28722 8.58588 3.28718 8.58588C3.28715 8.58588 3.28711 8.58588 3.28707 8.58588C3.28704 8.58588 3.287 8.58588 3.28697 8.58588C3.28693 8.58588 3.28689 8.58588 3.28686 8.58588C3.28682 8.58588 3.28679 8.58588 3.28675 8.58588C3.28671 8.58588 3.28668 8.58588 3.28664 8.58588C3.28661 8.58588 3.28657 8.58588 3.28653 8.58588C3.2865 8.58588 3.28646 8.58588 3.28643 8.58588C3.28639 8.58588 3.28635 8.58588 3.28632 8.58588C3.28628 8.58588 3.28625 8.58588 3.28621 8.58588C3.28617 8.58588 3.28614 8.58588 3.2861 8.58588C3.28607 8.58588 3.28603 8.58588 3.28599 8.58588C3.28596 8.58588 3.28592 8.58588 3.28589 8.58588C3.28585 8.58588 3.28581 8.58588 3.28578 8.58588C3.28574 8.58588 3.28571 8.58588 3.28567 8.58588C3.28563 8.58588 3.2856 8.58588 3.28556 8.58588C3.28553 8.58588 3.28549 8.58588 3.28545 8.58588C3.28542 8.58588 3.28538 8.58588 3.28534 8.58588C3.28531 8.58588 3.28527 8.58588 3.28524 8.58588C3.2852 8.58588 3.28516 8.58588 3.28513 8.58588C3.28509 8.58588 3.28506 8.58588 3.28502 8.58588C3.28498 8.58588 3.28495 8.58588 3.28491 8.58588C3.28487 8.58588 3.28484 8.58588 3.2848 8.58588C3.28477 8.58588 3.28473 8.58588 3.28469 8.58588C3.28466 8.58588 3.28462 8.58588 3.28458 8.58588C3.28455 8.58588 3.28451 8.58588 3.28448 8.58588C3.28444 8.58588 3.2844 8.58588 3.28437 8.58588C3.28433 8.58588 3.28429 8.58588 3.28426 8.58588C3.28422 8.58588 3.28419 8.58588 3.28415 8.58588C3.28411 8.58588 3.28408 8.58588 3.28404 8.58588C3.284 8.58588 3.28397 8.58588 3.28393 8.58588C3.28389 8.58588 3.28386 8.58588 3.28382 8.58588C3.28379 8.58588 3.28375 8.58588 3.28371 8.58588C3.28368 8.58588 3.28364 8.58588 3.2836 8.58588C3.28357 8.58588 3.28353 8.58588 3.2835 8.58588C3.28346 8.58588 3.28342 8.58588 3.28339 8.58588C3.28335 8.58588 3.28331 8.58588 3.28328 8.58588C3.28324 8.58588 3.2832 8.58588 3.28317 8.58588C3.28313 8.58588 3.28309 8.58588 3.28306 8.58588C3.28302 8.58588 3.28299 8.58588 3.28295 8.58588C3.28291 8.58588 3.28288 8.58588 3.28284 8.58588C3.2828 8.58588 3.28277 8.58588 3.28273 8.58588C3.28269 8.58588 3.28266 8.58588 3.28262 8.58588C3.28258 8.58588 3.28255 8.58588 3.28251 8.58588C3.28248 8.58588 3.28244 8.58588 3.2824 8.58588C3.28237 8.58588 3.28233 8.58588 3.28229 8.58588C3.28226 8.58588 3.28222 8.58588 3.28218 8.58588C3.28215 8.58588 3.28211 8.58588 3.28207 8.58588C3.28204 8.58588 3.282 8.58588 3.28196 8.58588C3.28193 8.58588 3.28189 8.58588 3.28186 8.58588C3.28182 8.58588 3.28178 8.58588 3.28175 8.58588C3.28171 8.58588 3.28167 8.58588 3.28164 8.58588C3.2816 8.58588 3.28156 8.58588 3.28153 8.58588C3.28149 8.58588 3.28145 8.58588 3.28142 8.58588C3.28138 8.58588 3.28134 8.58588 3.28131 8.58588C3.28127 8.58588 3.28123 8.58588 3.2812 8.58588C3.28116 8.58588 3.28113 8.58588 3.28109 8.58588C3.28105 8.58588 3.28102 8.58588 3.28098 8.58588C3.28094 8.58588 3.28091 8.58588 3.28087 8.58588C3.28083 8.58588 3.2808 8.58588 3.28076 8.58588C3.28072 8.58588 3.28069 8.58588 3.28065 8.58588C3.28061 8.58588 3.28058 8.58588 3.28054 8.58588C3.2805 8.58588 3.28047 8.58588 3.28043 8.58588C3.28039 8.58588 3.28036 8.58588 3.28032 8.58588C3.28028 8.58588 3.28025 8.58588 3.28021 8.58588C3.28017 8.58588 3.28014 8.58588 3.2801 8.58588C3.28006 8.58588 3.28003 8.58588 3.27999 8.58588C3.27995 8.58588 3.27992 8.58588 3.27988 8.58588C3.27984 8.58588 3.27981 8.58588 3.27977 8.58588C3.27974 8.58588 3.2797 8.58588 3.27966 8.58588C3.27963 8.58588 3.27959 8.58588 3.27955 8.58588C3.27952 8.58588 3.27948 8.58588 3.27944 8.58588C3.27941 8.58588 3.27937 8.58588 3.27933 8.58588C3.2793 8.58588 3.27926 8.58588 3.27922 8.58588C3.27919 8.58588 3.27915 8.58588 3.27911 8.58588C3.27908 8.58588 3.27904 8.58588 3.279 8.58588C3.27897 8.58588 3.27893 8.58588 3.27889 8.58588C3.27886 8.58588 3.27882 8.58588 3.27878 8.58588C3.27875 8.58588 3.27871 8.58588 3.27867 8.58588C3.27864 8.58588 3.2786 8.58588 3.27856 8.58588C3.27853 8.58588 3.27849 8.58588 3.27845 8.58588C3.27842 8.58588 3.27838 8.58588 3.27834 8.58588C3.27831 8.58588 3.27827 8.58588 3.27823 8.58588C3.2782 8.58588 3.27816 8.58588 3.27812 8.58588C3.27809 8.58588 3.27805 8.58588 3.27801 8.58588C3.27798 8.58588 3.27794 8.58588 3.2779 8.58588C3.27787 8.58588 3.27783 8.58588 3.27779 8.58588C3.27776 8.58588 3.27772 8.58588 3.27768 8.58588C3.27765 8.58588 3.27761 8.58588 3.27757 8.58588C3.27754 8.58588 3.2775 8.58588 3.27746 8.58588C3.27743 8.58588 3.27739 8.58588 3.27736 8.58588C3.27732 8.58588 3.27728 8.58588 3.27725 8.58588C3.27721 8.58588 3.27717 8.58588 3.27714 8.58588C3.2771 8.58588 3.27706 8.58588 3.27703 8.58588C3.27699 8.58588 3.27695 8.58588 3.27692 8.58588C3.27688 8.58588 3.27684 8.58588 3.27681 8.58588C3.27677 8.58588 3.27673 8.58588 3.2767 8.58588C3.27666 8.58588 3.27662 8.58588 3.27659 8.58588C3.27655 8.58588 3.27651 8.58588 3.27648 8.58588C3.27644 8.58588 3.2764 8.58588 3.27637 8.58588C3.27633 8.58588 3.27629 8.58588 3.27626 8.58588C3.27622 8.58588 3.27618 8.58588 3.27615 8.58588C3.27611 8.58588 3.27607 8.58588 3.27604 8.58588C3.276 8.58588 3.27596 8.58588 3.27593 8.58588C3.27589 8.58588 3.27585 8.58588 3.27582 8.58588C3.27578 8.58588 3.27575 8.58588 3.27571 8.58588C3.27567 8.58588 3.27564 8.58588 3.2756 8.58588C3.27556 8.58588 3.27553 8.58588 3.27549 8.58588C3.27545 8.58588 3.27542 8.58588 3.27538 8.58588C3.27534 8.58588 3.27531 8.58588 3.27527 8.58588C3.27523 8.58588 3.2752 8.58588 3.27516 8.58588C3.27512 8.58588 3.27509 8.58588 3.27505 8.58588C3.27501 8.58588 3.27498 8.58588 3.27494 8.58588C3.2749 8.58588 3.27487 8.58588 3.27483 8.58588C3.2748 8.58588 3.27476 8.58588 3.27472 8.58588C3.27469 8.58588 3.27465 8.58588 3.27461 8.58588C3.27458 8.58588 3.27454 8.58588 3.2745 8.58588C3.27447 8.58588 3.27443 8.58588 3.27439 8.58588C3.27436 8.58588 3.27432 8.58588 3.27428 8.58588C3.27425 8.58588 3.27421 8.58588 3.27417 8.58588C3.27414 8.58588 3.2741 8.58588 3.27407 8.58588C3.27403 8.58588 3.27399 8.58588 3.27396 8.58588C3.27392 8.58588 3.27388 8.58588 3.27385 8.58588C3.27381 8.58588 3.27377 8.58588 3.27374 8.58588C3.2737 8.58588 3.27366 8.58588 3.27363 8.58588C3.27359 8.58588 3.27356 8.58588 3.27352 8.58588C3.27348 8.58588 3.27345 8.58588 3.27341 8.58588C3.27337 8.58588 3.27334 8.58588 3.2733 8.58588C3.27326 8.58588 3.27323 8.58588 3.27319 8.58588C3.27315 8.58588 3.27312 8.58588 3.27308 8.58588C3.27305 8.58588 3.27301 8.58588 3.27297 8.58588C3.27294 8.58588 3.2729 8.58588 3.27286 8.58588C3.27283 8.58588 3.27279 8.58588 3.27275 8.58588C3.27272 8.58588 3.27268 8.58588 3.27265 8.58588C3.27261 8.58588 3.27257 8.58588 3.27254 8.58588C3.2725 8.58588 3.27246 8.58588 3.27243 8.58588C3.27239 8.58588 3.27236 8.58588 3.27232 8.58588C3.27228 8.58588 3.27225 8.58588 3.27221 8.58588C3.27217 8.58588 3.27214 8.58588 3.2721 8.58588C3.27206 8.58588 3.27203 8.58588 3.27199 8.58588C3.27196 8.58588 3.27192 8.58588 3.27188 8.58588C3.27185 8.58588 3.27181 8.58588 3.27178 8.58588C3.27174 8.58588 3.2717 8.58588 3.27167 8.58588C3.27163 8.58588 3.27159 8.58588 3.27156 8.58588C3.27152 8.58588 3.27149 8.58588 3.27145 8.58588C3.27141 8.58588 3.27138 8.58588 3.27134 8.58588C3.2713 8.58588 3.27127 8.58588 3.27123 8.58588C3.2712 8.58588 3.27116 8.58588 3.27112 8.58588C3.27109 8.58588 3.27105 8.58588 3.27102 8.58588C3.27098 8.58588 3.27094 8.58588 3.27091 8.58588C3.27087 8.58588 3.27083 8.58588 3.2708 8.58588C3.27076 8.58588 3.27073 8.58588 3.27069 8.58588C3.27065 8.58588 3.27062 8.58588 3.27058 8.58588C3.27055 8.58588 3.27051 8.58588 3.27047 8.58588C3.27044 8.58588 3.2704 8.58588 3.27037 8.58588C3.27033 8.58588 3.27029 8.58588 3.27026 8.58588C3.27022 8.58588 3.27019 8.58588 3.27015 8.58588C3.27011 8.58588 3.27008 8.58588 3.27004 8.58588C3.27001 8.58588 3.26997 8.58588 3.26993 8.58588C3.2699 8.58588 3.26986 8.58588 3.26983 8.58588C3.26979 8.58588 3.26975 8.58588 3.26972 8.58588C3.26968 8.58588 3.26965 8.58588 3.26961 8.58588C3.26957 8.58588 3.26954 8.58588 3.2695 8.58588C3.26947 8.58588 3.26943 8.58588 3.26939 8.58588C3.26936 8.58588 3.26932 8.58588 3.26929 8.58588C3.26925 8.58588 3.26922 8.58588 3.26918 8.58588C3.26914 8.58588 3.26911 8.58588 3.26907 8.58588C3.26904 8.58588 3.269 8.58588 3.26896 8.58588C3.26893 8.58588 3.26889 8.58588 3.26886 8.58588C3.26882 8.58588 3.26879 8.58588 3.26875 8.58588C3.26871 8.58588 3.26868 8.58588 3.26864 8.58588C3.26861 8.58588 3.26857 8.58588 3.26853 8.58588C3.2685 8.58588 3.26846 8.58588 3.26843 8.58588C3.26839 8.58588 3.26836 8.58588 3.26832 8.58588C3.26828 8.58588 3.26825 8.58588 3.26821 8.58588C3.26818 8.58588 3.26814 8.58588 3.26811 8.58588C3.26807 8.58588 3.26804 8.58588 3.268 8.58588C3.26796 8.58588 3.26793 8.58588 3.26789 8.58588C3.26786 8.58588 3.26782 8.58588 3.26779 8.58588C3.26775 8.58588 3.26771 8.58588 3.26768 8.58588C3.26764 8.58588 3.26761 8.58588 3.26757 8.58588C3.26754 8.58588 3.2675 8.58588 3.26747 8.58588C3.26743 8.58588 3.26739 8.58588 3.26736 8.58588C3.26732 8.58588 3.26729 8.58588 3.26725 8.58588C3.26722 8.58588 3.26718 8.58588 3.26715 8.58588C3.26711 8.58588 3.26708 8.58588 3.26704 8.58588C3.267 8.58588 3.26697 8.58588 3.26693 8.58588C3.2669 8.58588 3.26686 8.58588 3.26683 8.58588C3.26679 8.58588 3.26676 8.58588 3.26672 8.58588C3.26669 8.58588 3.26665 8.58588 3.26662 8.58588C3.26658 8.58588 3.26654 8.58588 3.26651 8.58588C3.26647 8.58588 3.26644 8.58588 3.2664 8.58588C3.26637 8.58588 3.26633 8.58588 3.2663 8.58588C3.26626 8.58588 3.26623 8.58588 3.26619 8.58588C3.26616 8.58588 3.26612 8.58588 3.26609 8.58588C3.26605 8.58588 3.26602 8.58588 3.26598 8.58588C3.26595 8.58588 3.26591 8.58588 3.26588 8.58588C3.26584 8.58588 3.2658 8.58588 3.26577 8.58588C3.26573 8.58588 3.2657 8.58588 3.26566 8.58588C3.26563 8.58588 3.26559 8.58588 3.26556 8.58588C3.26552 8.58588 3.26549 8.58588 3.26545 8.58588C3.26542 8.58588 3.26538 8.58588 3.26535 8.58588C3.26531 8.58588 3.26528 8.58588 3.26524 8.58588C3.26521 8.58588 3.26517 8.58588 3.26514 8.58588C3.2651 8.58588 3.26507 8.58588 3.26503 8.58588C3.265 8.58588 3.26496 8.58588 3.26493 8.58588C3.26489 8.58588 3.26486 8.58588 3.26482 8.58588C3.26479 8.58588 3.26475 8.58588 3.26472 8.58588C3.26468 8.58588 3.26465 8.58588 3.26461 8.58588C3.26458 8.58588 3.26455 8.58588 3.26451 8.58588C3.26448 8.58588 3.26444 8.58588 3.26441 8.58588C3.26437 8.58588 3.26434 8.58588 3.2643 8.58588C3.26427 8.58588 3.26423 8.58588 3.2642 8.58588C3.26416 8.58588 3.26413 8.58588 3.26409 8.58588C3.26406 8.58588 3.26402 8.58588 3.26399 8.58588C3.26395 8.58588 3.26392 8.58588 3.26389 8.58588C3.26385 8.58588 3.26382 8.58588 3.26378 8.58588C3.26375 8.58588 3.26371 8.58588 3.26368 8.58588C3.26364 8.58588 3.26361 8.58588 3.26357 8.58588C3.26354 8.58588 3.2635 8.58588 3.26347 8.58588C3.26344 8.58588 3.2634 8.58588 3.26337 8.58588C3.26333 8.58588 3.2633 8.58588 3.26326 8.58588C3.26323 8.58588 3.26319 8.58588 3.26316 8.58588C3.26313 8.58588 3.26309 8.58588 3.26306 8.58588C3.26302 8.58588 3.26299 8.58588 3.26295 8.58588C3.26292 8.58588 3.26288 8.58588 3.26285 8.58588C3.26282 8.58588 3.26278 8.58588 3.26275 8.58588C3.26271 8.58588 3.26268 8.58588 3.26264 8.58588C3.26261 8.58588 3.26258 8.58588 3.26254 8.58588C3.26251 8.58588 3.26247 8.58588 3.26244 8.58588C3.2624 8.58588 3.26237 8.58588 3.26234 8.58588C3.2623 8.58588 3.26227 8.58588 3.26223 8.58588C3.2622 8.58588 3.26217 8.58588 3.26213 8.58588C3.2621 8.58588 3.26206 8.58588 3.26203 8.58588C3.262 8.58588 3.26196 8.58588 3.26193 8.58588C3.26189 8.58588 3.26186 8.58588 3.26183 8.58588C3.26179 8.58588 3.26176 8.58588 3.26172 8.58588C3.26169 8.58588 3.26166 8.58588 3.26162 8.58588C3.26159 8.58588 3.26155 8.58588 3.26152 8.58588C3.26149 8.58588 3.26145 8.58588 3.26142 8.58588C3.26138 8.58588 3.26135 8.58588 3.26132 8.58588C3.26128 8.58588 3.26125 8.58588 3.26121 8.58588C3.26118 8.58588 3.26115 8.58588 3.26111 8.58588C3.26108 8.58588 3.26105 8.58588 3.26101 8.58588C3.26098 8.58588 3.26094 8.58588 3.26091 8.58588C3.26088 8.58588 3.26084 8.58588 3.26081 8.58588C3.26078 8.58588 3.26074 8.58588 3.26071 8.58588C3.26068 8.58588 3.26064 8.58588 3.26061 8.58588C3.26057 8.58588 3.26054 8.58588 3.26051 8.58588C3.26047 8.58588 3.26044 8.58588 3.26041 8.58588C3.26037 8.58588 3.26034 8.58588 3.26031 8.58588C3.26027 8.58588 3.26024 8.58588 3.26021 8.58588C3.26017 8.58588 3.26014 8.58588 3.26011 8.58588C3.26007 8.58588 3.26004 8.58588 3.26001 8.58588C3.25997 8.58588 3.25994 8.58588 3.25991 8.58588C3.25987 8.58588 3.25984 8.58588 3.25981 8.58588C3.25977 8.58588 3.25974 8.58588 3.25971 8.58588C3.25967 8.58588 3.25964 8.58588 3.25961 8.58588C3.25957 8.58588 3.25954 8.58588 3.25951 8.58588C3.25947 8.58588 3.25944 8.58588 3.25941 8.58588C3.25937 8.58588 3.25934 8.58588 3.25931 8.58588C3.25928 8.58588 3.25924 8.58588 3.25921 8.58588C3.25918 8.58588 3.25914 8.58588 3.25911 8.58588C3.25908 8.58588 3.25904 8.58588 3.25901 8.58588C3.25898 8.58588 3.25895 8.58588 3.25891 8.58588C3.25888 8.58588 3.25885 8.58588 3.25881 8.58588C3.25878 8.58588 3.25875 8.58588 3.25872 8.58588C3.25868 8.58588 3.25865 8.58588 3.25862 8.58588C3.25858 8.58588 3.25855 8.58588 3.25852 8.58588C3.25849 8.58588 3.25845 8.58588 3.25842 8.58588C3.25839 8.58588 3.25835 8.58588 3.25832 8.58588C3.25829 8.58588 3.25826 8.58588 3.25822 8.58588C3.25819 8.58588 3.25816 8.58588 3.25813 8.58588C3.25809 8.58588 3.25806 8.58588 3.25803 8.58588C3.258 8.58588 3.25796 8.58588 3.25793 8.58588C3.2579 8.58588 3.25787 8.58588 3.25783 8.58588C3.2578 8.58588 3.25777 8.58588 3.25774 8.58588C3.2577 8.58588 3.25767 8.58588 3.25764 8.58588C3.25761 8.58588 3.25757 8.58588 3.25754 8.58588C3.25751 8.58588 3.25748 8.58588 3.25745 8.58588C3.25741 8.58588 3.25738 8.58588 3.25735 8.58588C3.25732 8.58588 3.25728 8.58588 3.25725 8.58588C3.25722 8.58588 3.25719 8.58588 3.25716 8.58588C3.25712 8.58588 3.25709 8.58588 3.25706 8.58588C3.25703 8.58588 3.25699 8.58588 3.25696 8.58588C3.25693 8.58588 3.2569 8.58588 3.25687 8.58588C3.25683 8.58588 3.2568 8.58588 3.25677 8.58588C3.25674 8.58588 3.25671 8.58588 3.25667 8.58588C3.25664 8.58588 3.25661 8.58588 3.25658 8.58588C3.25655 8.58588 3.25652 8.58588 3.25648 8.58588C3.25645 8.58588 3.25642 8.58588 3.25639 8.58588C3.25636 8.58588 3.25632 8.58588 3.25629 8.58588C3.25626 8.58588 3.25623 8.58588 3.2562 8.58588C3.25617 8.58588 3.25613 8.58588 3.2561 8.58588C3.25607 8.58588 3.25604 8.58588 3.25601 8.58588C3.25598 8.58588 3.25594 8.58588 3.25591 8.58588C3.25588 8.58588 3.25585 8.58588 3.25582 8.58588C3.25579 8.58588 3.25576 8.58588 3.25572 8.58588C3.25569 8.58588 3.25566 8.58588 3.25563 8.58588C3.2556 8.58588 3.25557 8.58588 3.25554 8.58588C3.2555 8.58588 3.25547 8.58588 3.25544 8.58588C3.25541 8.58588 3.25538 8.58588 3.25535 8.58588C3.25532 8.58588 3.25529 8.58588 3.25525 8.58588C3.25522 8.58588 3.25519 8.58588 3.25516 8.58588C3.25513 8.58588 3.2551 8.58588 3.25507 8.58588C3.25504 8.58588 3.255 8.58588 3.25497 8.58588C3.25494 8.58588 3.25491 8.58588 3.25488 8.58588C3.25485 8.58588 3.25482 8.58588 3.25479 8.58588C3.25476 8.58588 3.25473 8.58588 3.25469 8.58588C3.25466 8.58588 3.25463 8.58588 3.2546 8.58588C3.25457 8.58588 3.25454 8.58588 3.25451 8.58588C3.25448 8.58588 3.25445 8.58588 3.25442 8.58588C3.25439 8.58588 3.25436 8.58588 3.25433 8.58588C3.25429 8.58588 3.25426 8.58588 3.25423 8.58588C3.2542 8.58588 3.25417 8.58588 3.25414 8.58588C3.25411 8.58588 3.25408 8.58588 3.25405 8.58588C3.25402 8.58588 3.25399 8.58588 3.25396 8.58588C3.25393 8.58588 3.2539 8.58588 3.25387 8.58588C3.25384 8.58588 3.25381 8.58588 3.25378 8.58588C3.25374 8.58588 3.25371 8.58588 3.25368 8.58588C3.25365 8.58588 3.25362 8.58588 3.25359 8.58588C3.25356 8.58588 3.25353 8.58588 3.2535 8.58588C3.25347 8.58588 3.25344 8.58588 3.25341 8.58588C3.25338 8.58588 3.25335 8.58588 3.25332 8.58588C3.25329 8.58588 3.25326 8.58588 3.25323 8.58588C3.2532 8.58588 3.25317 8.58588 3.25314 8.58588C3.25311 8.58588 3.25308 8.58588 3.25305 8.58588C3.25302 8.58588 3.25299 8.58588 3.25296 8.58588C3.25293 8.58588 3.2529 8.58588 3.25287 8.58588C3.25284 8.58588 3.25281 8.58588 3.25278 8.58588C3.25275 8.58588 3.25272 8.58588 3.25269 8.58588C3.25266 8.58588 3.25263 8.58588 3.2526 8.58588C3.25257 8.58588 3.25254 8.58588 3.25251 8.58588C3.25248 8.58588 3.25246 8.58588 3.25243 8.58588C3.2524 8.58588 3.25237 8.58588 3.25234 8.58588C3.25231 8.58588 3.25228 8.58588 3.25225 8.58588C3.25222 8.58588 3.25219 8.58588 3.25216 8.58588C3.25213 8.58588 3.2521 8.58588 3.25207 8.58588C3.25204 8.58588 3.25201 8.58588 3.25198 8.58588V11.5859C3.25201 11.5859 3.25204 11.5859 3.25207 11.5859C3.2521 11.5859 3.25213 11.5859 3.25216 11.5859C3.25219 11.5859 3.25222 11.5859 3.25225 11.5859C3.25228 11.5859 3.25231 11.5859 3.25234 11.5859C3.25237 11.5859 3.2524 11.5859 3.25243 11.5859C3.25246 11.5859 3.25248 11.5859 3.25251 11.5859C3.25254 11.5859 3.25257 11.5859 3.2526 11.5859C3.25263 11.5859 3.25266 11.5859 3.25269 11.5859C3.25272 11.5859 3.25275 11.5859 3.25278 11.5859C3.25281 11.5859 3.25284 11.5859 3.25287 11.5859C3.2529 11.5859 3.25293 11.5859 3.25296 11.5859C3.25299 11.5859 3.25302 11.5859 3.25305 11.5859C3.25308 11.5859 3.25311 11.5859 3.25314 11.5859C3.25317 11.5859 3.2532 11.5859 3.25323 11.5859C3.25326 11.5859 3.25329 11.5859 3.25332 11.5859C3.25335 11.5859 3.25338 11.5859 3.25341 11.5859C3.25344 11.5859 3.25347 11.5859 3.2535 11.5859C3.25353 11.5859 3.25356 11.5859 3.25359 11.5859C3.25362 11.5859 3.25365 11.5859 3.25368 11.5859C3.25371 11.5859 3.25374 11.5859 3.25378 11.5859C3.25381 11.5859 3.25384 11.5859 3.25387 11.5859C3.2539 11.5859 3.25393 11.5859 3.25396 11.5859C3.25399 11.5859 3.25402 11.5859 3.25405 11.5859C3.25408 11.5859 3.25411 11.5859 3.25414 11.5859C3.25417 11.5859 3.2542 11.5859 3.25423 11.5859C3.25426 11.5859 3.25429 11.5859 3.25433 11.5859C3.25436 11.5859 3.25439 11.5859 3.25442 11.5859C3.25445 11.5859 3.25448 11.5859 3.25451 11.5859C3.25454 11.5859 3.25457 11.5859 3.2546 11.5859C3.25463 11.5859 3.25466 11.5859 3.25469 11.5859C3.25473 11.5859 3.25476 11.5859 3.25479 11.5859C3.25482 11.5859 3.25485 11.5859 3.25488 11.5859C3.25491 11.5859 3.25494 11.5859 3.25497 11.5859C3.255 11.5859 3.25504 11.5859 3.25507 11.5859C3.2551 11.5859 3.25513 11.5859 3.25516 11.5859C3.25519 11.5859 3.25522 11.5859 3.25525 11.5859C3.25529 11.5859 3.25532 11.5859 3.25535 11.5859C3.25538 11.5859 3.25541 11.5859 3.25544 11.5859C3.25547 11.5859 3.2555 11.5859 3.25554 11.5859C3.25557 11.5859 3.2556 11.5859 3.25563 11.5859C3.25566 11.5859 3.25569 11.5859 3.25572 11.5859C3.25576 11.5859 3.25579 11.5859 3.25582 11.5859C3.25585 11.5859 3.25588 11.5859 3.25591 11.5859C3.25594 11.5859 3.25598 11.5859 3.25601 11.5859C3.25604 11.5859 3.25607 11.5859 3.2561 11.5859C3.25613 11.5859 3.25617 11.5859 3.2562 11.5859C3.25623 11.5859 3.25626 11.5859 3.25629 11.5859C3.25632 11.5859 3.25636 11.5859 3.25639 11.5859C3.25642 11.5859 3.25645 11.5859 3.25648 11.5859C3.25652 11.5859 3.25655 11.5859 3.25658 11.5859C3.25661 11.5859 3.25664 11.5859 3.25667 11.5859C3.25671 11.5859 3.25674 11.5859 3.25677 11.5859C3.2568 11.5859 3.25683 11.5859 3.25687 11.5859C3.2569 11.5859 3.25693 11.5859 3.25696 11.5859C3.25699 11.5859 3.25703 11.5859 3.25706 11.5859C3.25709 11.5859 3.25712 11.5859 3.25716 11.5859C3.25719 11.5859 3.25722 11.5859 3.25725 11.5859C3.25728 11.5859 3.25732 11.5859 3.25735 11.5859C3.25738 11.5859 3.25741 11.5859 3.25745 11.5859C3.25748 11.5859 3.25751 11.5859 3.25754 11.5859C3.25757 11.5859 3.25761 11.5859 3.25764 11.5859C3.25767 11.5859 3.2577 11.5859 3.25774 11.5859C3.25777 11.5859 3.2578 11.5859 3.25783 11.5859C3.25787 11.5859 3.2579 11.5859 3.25793 11.5859C3.25796 11.5859 3.258 11.5859 3.25803 11.5859C3.25806 11.5859 3.25809 11.5859 3.25813 11.5859C3.25816 11.5859 3.25819 11.5859 3.25822 11.5859C3.25826 11.5859 3.25829 11.5859 3.25832 11.5859C3.25835 11.5859 3.25839 11.5859 3.25842 11.5859C3.25845 11.5859 3.25849 11.5859 3.25852 11.5859C3.25855 11.5859 3.25858 11.5859 3.25862 11.5859C3.25865 11.5859 3.25868 11.5859 3.25872 11.5859C3.25875 11.5859 3.25878 11.5859 3.25881 11.5859C3.25885 11.5859 3.25888 11.5859 3.25891 11.5859C3.25895 11.5859 3.25898 11.5859 3.25901 11.5859C3.25904 11.5859 3.25908 11.5859 3.25911 11.5859C3.25914 11.5859 3.25918 11.5859 3.25921 11.5859C3.25924 11.5859 3.25928 11.5859 3.25931 11.5859C3.25934 11.5859 3.25937 11.5859 3.25941 11.5859C3.25944 11.5859 3.25947 11.5859 3.25951 11.5859C3.25954 11.5859 3.25957 11.5859 3.25961 11.5859C3.25964 11.5859 3.25967 11.5859 3.25971 11.5859C3.25974 11.5859 3.25977 11.5859 3.25981 11.5859C3.25984 11.5859 3.25987 11.5859 3.25991 11.5859C3.25994 11.5859 3.25997 11.5859 3.26001 11.5859C3.26004 11.5859 3.26007 11.5859 3.26011 11.5859C3.26014 11.5859 3.26017 11.5859 3.26021 11.5859C3.26024 11.5859 3.26027 11.5859 3.26031 11.5859C3.26034 11.5859 3.26037 11.5859 3.26041 11.5859C3.26044 11.5859 3.26047 11.5859 3.26051 11.5859C3.26054 11.5859 3.26057 11.5859 3.26061 11.5859C3.26064 11.5859 3.26068 11.5859 3.26071 11.5859C3.26074 11.5859 3.26078 11.5859 3.26081 11.5859C3.26084 11.5859 3.26088 11.5859 3.26091 11.5859C3.26094 11.5859 3.26098 11.5859 3.26101 11.5859C3.26105 11.5859 3.26108 11.5859 3.26111 11.5859C3.26115 11.5859 3.26118 11.5859 3.26121 11.5859C3.26125 11.5859 3.26128 11.5859 3.26132 11.5859C3.26135 11.5859 3.26138 11.5859 3.26142 11.5859C3.26145 11.5859 3.26149 11.5859 3.26152 11.5859C3.26155 11.5859 3.26159 11.5859 3.26162 11.5859C3.26166 11.5859 3.26169 11.5859 3.26172 11.5859C3.26176 11.5859 3.26179 11.5859 3.26183 11.5859C3.26186 11.5859 3.26189 11.5859 3.26193 11.5859C3.26196 11.5859 3.262 11.5859 3.26203 11.5859C3.26206 11.5859 3.2621 11.5859 3.26213 11.5859C3.26217 11.5859 3.2622 11.5859 3.26223 11.5859C3.26227 11.5859 3.2623 11.5859 3.26234 11.5859C3.26237 11.5859 3.2624 11.5859 3.26244 11.5859C3.26247 11.5859 3.26251 11.5859 3.26254 11.5859C3.26258 11.5859 3.26261 11.5859 3.26264 11.5859C3.26268 11.5859 3.26271 11.5859 3.26275 11.5859C3.26278 11.5859 3.26282 11.5859 3.26285 11.5859C3.26288 11.5859 3.26292 11.5859 3.26295 11.5859C3.26299 11.5859 3.26302 11.5859 3.26306 11.5859C3.26309 11.5859 3.26313 11.5859 3.26316 11.5859C3.26319 11.5859 3.26323 11.5859 3.26326 11.5859C3.2633 11.5859 3.26333 11.5859 3.26337 11.5859C3.2634 11.5859 3.26344 11.5859 3.26347 11.5859C3.2635 11.5859 3.26354 11.5859 3.26357 11.5859C3.26361 11.5859 3.26364 11.5859 3.26368 11.5859C3.26371 11.5859 3.26375 11.5859 3.26378 11.5859C3.26382 11.5859 3.26385 11.5859 3.26389 11.5859C3.26392 11.5859 3.26395 11.5859 3.26399 11.5859C3.26402 11.5859 3.26406 11.5859 3.26409 11.5859C3.26413 11.5859 3.26416 11.5859 3.2642 11.5859C3.26423 11.5859 3.26427 11.5859 3.2643 11.5859C3.26434 11.5859 3.26437 11.5859 3.26441 11.5859C3.26444 11.5859 3.26448 11.5859 3.26451 11.5859C3.26455 11.5859 3.26458 11.5859 3.26461 11.5859C3.26465 11.5859 3.26468 11.5859 3.26472 11.5859C3.26475 11.5859 3.26479 11.5859 3.26482 11.5859C3.26486 11.5859 3.26489 11.5859 3.26493 11.5859C3.26496 11.5859 3.265 11.5859 3.26503 11.5859C3.26507 11.5859 3.2651 11.5859 3.26514 11.5859C3.26517 11.5859 3.26521 11.5859 3.26524 11.5859C3.26528 11.5859 3.26531 11.5859 3.26535 11.5859C3.26538 11.5859 3.26542 11.5859 3.26545 11.5859C3.26549 11.5859 3.26552 11.5859 3.26556 11.5859C3.26559 11.5859 3.26563 11.5859 3.26566 11.5859C3.2657 11.5859 3.26573 11.5859 3.26577 11.5859C3.2658 11.5859 3.26584 11.5859 3.26588 11.5859C3.26591 11.5859 3.26595 11.5859 3.26598 11.5859C3.26602 11.5859 3.26605 11.5859 3.26609 11.5859C3.26612 11.5859 3.26616 11.5859 3.26619 11.5859C3.26623 11.5859 3.26626 11.5859 3.2663 11.5859C3.26633 11.5859 3.26637 11.5859 3.2664 11.5859C3.26644 11.5859 3.26647 11.5859 3.26651 11.5859C3.26654 11.5859 3.26658 11.5859 3.26662 11.5859C3.26665 11.5859 3.26669 11.5859 3.26672 11.5859C3.26676 11.5859 3.26679 11.5859 3.26683 11.5859C3.26686 11.5859 3.2669 11.5859 3.26693 11.5859C3.26697 11.5859 3.267 11.5859 3.26704 11.5859C3.26708 11.5859 3.26711 11.5859 3.26715 11.5859C3.26718 11.5859 3.26722 11.5859 3.26725 11.5859C3.26729 11.5859 3.26732 11.5859 3.26736 11.5859C3.26739 11.5859 3.26743 11.5859 3.26747 11.5859C3.2675 11.5859 3.26754 11.5859 3.26757 11.5859C3.26761 11.5859 3.26764 11.5859 3.26768 11.5859C3.26771 11.5859 3.26775 11.5859 3.26779 11.5859C3.26782 11.5859 3.26786 11.5859 3.26789 11.5859C3.26793 11.5859 3.26796 11.5859 3.268 11.5859C3.26804 11.5859 3.26807 11.5859 3.26811 11.5859C3.26814 11.5859 3.26818 11.5859 3.26821 11.5859C3.26825 11.5859 3.26828 11.5859 3.26832 11.5859C3.26836 11.5859 3.26839 11.5859 3.26843 11.5859C3.26846 11.5859 3.2685 11.5859 3.26853 11.5859C3.26857 11.5859 3.26861 11.5859 3.26864 11.5859C3.26868 11.5859 3.26871 11.5859 3.26875 11.5859C3.26879 11.5859 3.26882 11.5859 3.26886 11.5859C3.26889 11.5859 3.26893 11.5859 3.26896 11.5859C3.269 11.5859 3.26904 11.5859 3.26907 11.5859C3.26911 11.5859 3.26914 11.5859 3.26918 11.5859C3.26922 11.5859 3.26925 11.5859 3.26929 11.5859C3.26932 11.5859 3.26936 11.5859 3.26939 11.5859C3.26943 11.5859 3.26947 11.5859 3.2695 11.5859C3.26954 11.5859 3.26957 11.5859 3.26961 11.5859C3.26965 11.5859 3.26968 11.5859 3.26972 11.5859C3.26975 11.5859 3.26979 11.5859 3.26983 11.5859C3.26986 11.5859 3.2699 11.5859 3.26993 11.5859C3.26997 11.5859 3.27001 11.5859 3.27004 11.5859C3.27008 11.5859 3.27011 11.5859 3.27015 11.5859C3.27019 11.5859 3.27022 11.5859 3.27026 11.5859C3.27029 11.5859 3.27033 11.5859 3.27037 11.5859C3.2704 11.5859 3.27044 11.5859 3.27047 11.5859C3.27051 11.5859 3.27055 11.5859 3.27058 11.5859C3.27062 11.5859 3.27065 11.5859 3.27069 11.5859C3.27073 11.5859 3.27076 11.5859 3.2708 11.5859C3.27083 11.5859 3.27087 11.5859 3.27091 11.5859C3.27094 11.5859 3.27098 11.5859 3.27102 11.5859C3.27105 11.5859 3.27109 11.5859 3.27112 11.5859C3.27116 11.5859 3.2712 11.5859 3.27123 11.5859C3.27127 11.5859 3.2713 11.5859 3.27134 11.5859C3.27138 11.5859 3.27141 11.5859 3.27145 11.5859C3.27149 11.5859 3.27152 11.5859 3.27156 11.5859C3.27159 11.5859 3.27163 11.5859 3.27167 11.5859C3.2717 11.5859 3.27174 11.5859 3.27178 11.5859C3.27181 11.5859 3.27185 11.5859 3.27188 11.5859C3.27192 11.5859 3.27196 11.5859 3.27199 11.5859C3.27203 11.5859 3.27206 11.5859 3.2721 11.5859C3.27214 11.5859 3.27217 11.5859 3.27221 11.5859C3.27225 11.5859 3.27228 11.5859 3.27232 11.5859C3.27236 11.5859 3.27239 11.5859 3.27243 11.5859C3.27246 11.5859 3.2725 11.5859 3.27254 11.5859C3.27257 11.5859 3.27261 11.5859 3.27265 11.5859C3.27268 11.5859 3.27272 11.5859 3.27275 11.5859C3.27279 11.5859 3.27283 11.5859 3.27286 11.5859C3.2729 11.5859 3.27294 11.5859 3.27297 11.5859C3.27301 11.5859 3.27305 11.5859 3.27308 11.5859C3.27312 11.5859 3.27315 11.5859 3.27319 11.5859C3.27323 11.5859 3.27326 11.5859 3.2733 11.5859C3.27334 11.5859 3.27337 11.5859 3.27341 11.5859C3.27345 11.5859 3.27348 11.5859 3.27352 11.5859C3.27356 11.5859 3.27359 11.5859 3.27363 11.5859C3.27366 11.5859 3.2737 11.5859 3.27374 11.5859C3.27377 11.5859 3.27381 11.5859 3.27385 11.5859C3.27388 11.5859 3.27392 11.5859 3.27396 11.5859C3.27399 11.5859 3.27403 11.5859 3.27407 11.5859C3.2741 11.5859 3.27414 11.5859 3.27417 11.5859C3.27421 11.5859 3.27425 11.5859 3.27428 11.5859C3.27432 11.5859 3.27436 11.5859 3.27439 11.5859C3.27443 11.5859 3.27447 11.5859 3.2745 11.5859C3.27454 11.5859 3.27458 11.5859 3.27461 11.5859C3.27465 11.5859 3.27469 11.5859 3.27472 11.5859C3.27476 11.5859 3.2748 11.5859 3.27483 11.5859C3.27487 11.5859 3.2749 11.5859 3.27494 11.5859C3.27498 11.5859 3.27501 11.5859 3.27505 11.5859C3.27509 11.5859 3.27512 11.5859 3.27516 11.5859C3.2752 11.5859 3.27523 11.5859 3.27527 11.5859C3.27531 11.5859 3.27534 11.5859 3.27538 11.5859C3.27542 11.5859 3.27545 11.5859 3.27549 11.5859C3.27553 11.5859 3.27556 11.5859 3.2756 11.5859C3.27564 11.5859 3.27567 11.5859 3.27571 11.5859C3.27575 11.5859 3.27578 11.5859 3.27582 11.5859C3.27585 11.5859 3.27589 11.5859 3.27593 11.5859C3.27596 11.5859 3.276 11.5859 3.27604 11.5859C3.27607 11.5859 3.27611 11.5859 3.27615 11.5859C3.27618 11.5859 3.27622 11.5859 3.27626 11.5859C3.27629 11.5859 3.27633 11.5859 3.27637 11.5859C3.2764 11.5859 3.27644 11.5859 3.27648 11.5859C3.27651 11.5859 3.27655 11.5859 3.27659 11.5859C3.27662 11.5859 3.27666 11.5859 3.2767 11.5859C3.27673 11.5859 3.27677 11.5859 3.27681 11.5859C3.27684 11.5859 3.27688 11.5859 3.27692 11.5859C3.27695 11.5859 3.27699 11.5859 3.27703 11.5859C3.27706 11.5859 3.2771 11.5859 3.27714 11.5859C3.27717 11.5859 3.27721 11.5859 3.27725 11.5859C3.27728 11.5859 3.27732 11.5859 3.27736 11.5859C3.27739 11.5859 3.27743 11.5859 3.27746 11.5859C3.2775 11.5859 3.27754 11.5859 3.27757 11.5859C3.27761 11.5859 3.27765 11.5859 3.27768 11.5859C3.27772 11.5859 3.27776 11.5859 3.27779 11.5859C3.27783 11.5859 3.27787 11.5859 3.2779 11.5859C3.27794 11.5859 3.27798 11.5859 3.27801 11.5859C3.27805 11.5859 3.27809 11.5859 3.27812 11.5859C3.27816 11.5859 3.2782 11.5859 3.27823 11.5859C3.27827 11.5859 3.27831 11.5859 3.27834 11.5859C3.27838 11.5859 3.27842 11.5859 3.27845 11.5859C3.27849 11.5859 3.27853 11.5859 3.27856 11.5859C3.2786 11.5859 3.27864 11.5859 3.27867 11.5859C3.27871 11.5859 3.27875 11.5859 3.27878 11.5859C3.27882 11.5859 3.27886 11.5859 3.27889 11.5859C3.27893 11.5859 3.27897 11.5859 3.279 11.5859C3.27904 11.5859 3.27908 11.5859 3.27911 11.5859C3.27915 11.5859 3.27919 11.5859 3.27922 11.5859C3.27926 11.5859 3.2793 11.5859 3.27933 11.5859C3.27937 11.5859 3.27941 11.5859 3.27944 11.5859C3.27948 11.5859 3.27952 11.5859 3.27955 11.5859C3.27959 11.5859 3.27963 11.5859 3.27966 11.5859C3.2797 11.5859 3.27974 11.5859 3.27977 11.5859C3.27981 11.5859 3.27984 11.5859 3.27988 11.5859C3.27992 11.5859 3.27995 11.5859 3.27999 11.5859C3.28003 11.5859 3.28006 11.5859 3.2801 11.5859C3.28014 11.5859 3.28017 11.5859 3.28021 11.5859C3.28025 11.5859 3.28028 11.5859 3.28032 11.5859C3.28036 11.5859 3.28039 11.5859 3.28043 11.5859C3.28047 11.5859 3.2805 11.5859 3.28054 11.5859C3.28058 11.5859 3.28061 11.5859 3.28065 11.5859C3.28069 11.5859 3.28072 11.5859 3.28076 11.5859C3.2808 11.5859 3.28083 11.5859 3.28087 11.5859C3.28091 11.5859 3.28094 11.5859 3.28098 11.5859C3.28102 11.5859 3.28105 11.5859 3.28109 11.5859C3.28113 11.5859 3.28116 11.5859 3.2812 11.5859C3.28123 11.5859 3.28127 11.5859 3.28131 11.5859C3.28134 11.5859 3.28138 11.5859 3.28142 11.5859C3.28145 11.5859 3.28149 11.5859 3.28153 11.5859C3.28156 11.5859 3.2816 11.5859 3.28164 11.5859C3.28167 11.5859 3.28171 11.5859 3.28175 11.5859C3.28178 11.5859 3.28182 11.5859 3.28186 11.5859C3.28189 11.5859 3.28193 11.5859 3.28196 11.5859C3.282 11.5859 3.28204 11.5859 3.28207 11.5859C3.28211 11.5859 3.28215 11.5859 3.28218 11.5859C3.28222 11.5859 3.28226 11.5859 3.28229 11.5859C3.28233 11.5859 3.28237 11.5859 3.2824 11.5859C3.28244 11.5859 3.28248 11.5859 3.28251 11.5859C3.28255 11.5859 3.28258 11.5859 3.28262 11.5859C3.28266 11.5859 3.28269 11.5859 3.28273 11.5859C3.28277 11.5859 3.2828 11.5859 3.28284 11.5859C3.28288 11.5859 3.28291 11.5859 3.28295 11.5859C3.28299 11.5859 3.28302 11.5859 3.28306 11.5859C3.28309 11.5859 3.28313 11.5859 3.28317 11.5859C3.2832 11.5859 3.28324 11.5859 3.28328 11.5859C3.28331 11.5859 3.28335 11.5859 3.28339 11.5859C3.28342 11.5859 3.28346 11.5859 3.2835 11.5859C3.28353 11.5859 3.28357 11.5859 3.2836 11.5859C3.28364 11.5859 3.28368 11.5859 3.28371 11.5859C3.28375 11.5859 3.28379 11.5859 3.28382 11.5859C3.28386 11.5859 3.28389 11.5859 3.28393 11.5859C3.28397 11.5859 3.284 11.5859 3.28404 11.5859C3.28408 11.5859 3.28411 11.5859 3.28415 11.5859C3.28419 11.5859 3.28422 11.5859 3.28426 11.5859C3.28429 11.5859 3.28433 11.5859 3.28437 11.5859C3.2844 11.5859 3.28444 11.5859 3.28448 11.5859C3.28451 11.5859 3.28455 11.5859 3.28458 11.5859C3.28462 11.5859 3.28466 11.5859 3.28469 11.5859C3.28473 11.5859 3.28477 11.5859 3.2848 11.5859C3.28484 11.5859 3.28487 11.5859 3.28491 11.5859C3.28495 11.5859 3.28498 11.5859 3.28502 11.5859C3.28506 11.5859 3.28509 11.5859 3.28513 11.5859C3.28516 11.5859 3.2852 11.5859 3.28524 11.5859C3.28527 11.5859 3.28531 11.5859 3.28534 11.5859C3.28538 11.5859 3.28542 11.5859 3.28545 11.5859C3.28549 11.5859 3.28553 11.5859 3.28556 11.5859C3.2856 11.5859 3.28563 11.5859 3.28567 11.5859C3.28571 11.5859 3.28574 11.5859 3.28578 11.5859C3.28581 11.5859 3.28585 11.5859 3.28589 11.5859C3.28592 11.5859 3.28596 11.5859 3.28599 11.5859C3.28603 11.5859 3.28607 11.5859 3.2861 11.5859C3.28614 11.5859 3.28617 11.5859 3.28621 11.5859C3.28625 11.5859 3.28628 11.5859 3.28632 11.5859C3.28635 11.5859 3.28639 11.5859 3.28643 11.5859C3.28646 11.5859 3.2865 11.5859 3.28653 11.5859C3.28657 11.5859 3.28661 11.5859 3.28664 11.5859C3.28668 11.5859 3.28671 11.5859 3.28675 11.5859C3.28679 11.5859 3.28682 11.5859 3.28686 11.5859C3.28689 11.5859 3.28693 11.5859 3.28697 11.5859C3.287 11.5859 3.28704 11.5859 3.28707 11.5859C3.28711 11.5859 3.28715 11.5859 3.28718 11.5859C3.28722 11.5859 3.28725 11.5859 3.28729 11.5859C3.28732 11.5859 3.28736 11.5859 3.2874 11.5859C3.28743 11.5859 3.28747 11.5859 3.2875 11.5859C3.28754 11.5859 3.28758 11.5859 3.28761 11.5859C3.28765 11.5859 3.28768 11.5859 3.28772 11.5859C3.28775 11.5859 3.28779 11.5859 3.28783 11.5859C3.28786 11.5859 3.2879 11.5859 3.28793 11.5859C3.28797 11.5859 3.288 11.5859 3.28804 11.5859C3.28808 11.5859 3.28811 11.5859 3.28815 11.5859C3.28818 11.5859 3.28822 11.5859 3.28825 11.5859C3.28829 11.5859 3.28833 11.5859 3.28836 11.5859C3.2884 11.5859 3.28843 11.5859 3.28847 11.5859C3.2885 11.5859 3.28854 11.5859 3.28858 11.5859C3.28861 11.5859 3.28865 11.5859 3.28868 11.5859C3.28872 11.5859 3.28875 11.5859 3.28879 11.5859C3.28882 11.5859 3.28886 11.5859 3.2889 11.5859C3.28893 11.5859 3.28897 11.5859 3.289 11.5859C3.28904 11.5859 3.28907 11.5859 3.28911 11.5859C3.28914 11.5859 3.28918 11.5859 3.28922 11.5859C3.28925 11.5859 3.28929 11.5859 3.28932 11.5859C3.28936 11.5859 3.28939 11.5859 3.28943 11.5859C3.28946 11.5859 3.2895 11.5859 3.28953 11.5859C3.28957 11.5859 3.2896 11.5859 3.28964 11.5859C3.28968 11.5859 3.28971 11.5859 3.28975 11.5859C3.28978 11.5859 3.28982 11.5859 3.28985 11.5859C3.28989 11.5859 3.28992 11.5859 3.28996 11.5859C3.28999 11.5859 3.29003 11.5859 3.29006 11.5859C3.2901 11.5859 3.29013 11.5859 3.29017 11.5859C3.29021 11.5859 3.29024 11.5859 3.29028 11.5859C3.29031 11.5859 3.29035 11.5859 3.29038 11.5859C3.29042 11.5859 3.29045 11.5859 3.29049 11.5859C3.29052 11.5859 3.29056 11.5859 3.29059 11.5859C3.29063 11.5859 3.29066 11.5859 3.2907 11.5859C3.29073 11.5859 3.29077 11.5859 3.2908 11.5859C3.29084 11.5859 3.29087 11.5859 3.29091 11.5859C3.29094 11.5859 3.29098 11.5859 3.29101 11.5859C3.29105 11.5859 3.29108 11.5859 3.29112 11.5859C3.29115 11.5859 3.29119 11.5859 3.29122 11.5859C3.29126 11.5859 3.29129 11.5859 3.29133 11.5859C3.29136 11.5859 3.2914 11.5859 3.29143 11.5859C3.29147 11.5859 3.2915 11.5859 3.29154 11.5859C3.29157 11.5859 3.29161 11.5859 3.29164 11.5859C3.29168 11.5859 3.29171 11.5859 3.29175 11.5859C3.29178 11.5859 3.29182 11.5859 3.29185 11.5859C3.29189 11.5859 3.29192 11.5859 3.29196 11.5859C3.29199 11.5859 3.29203 11.5859 3.29206 11.5859C3.2921 11.5859 3.29213 11.5859 3.29217 11.5859C3.2922 11.5859 3.29224 11.5859 3.29227 11.5859C3.29231 11.5859 3.29234 11.5859 3.29237 11.5859C3.29241 11.5859 3.29244 11.5859 3.29248 11.5859C3.29251 11.5859 3.29255 11.5859 3.29258 11.5859C3.29262 11.5859 3.29265 11.5859 3.29269 11.5859C3.29272 11.5859 3.29276 11.5859 3.29279 11.5859C3.29283 11.5859 3.29286 11.5859 3.29289 11.5859C3.29293 11.5859 3.29296 11.5859 3.293 11.5859C3.29303 11.5859 3.29307 11.5859 3.2931 11.5859C3.29314 11.5859 3.29317 11.5859 3.2932 11.5859C3.29324 11.5859 3.29327 11.5859 3.29331 11.5859C3.29334 11.5859 3.29338 11.5859 3.29341 11.5859C3.29345 11.5859 3.29348 11.5859 3.29351 11.5859C3.29355 11.5859 3.29358 11.5859 3.29362 11.5859C3.29365 11.5859 3.29369 11.5859 3.29372 11.5859C3.29375 11.5859 3.29379 11.5859 3.29382 11.5859C3.29386 11.5859 3.29389 11.5859 3.29393 11.5859C3.29396 11.5859 3.29399 11.5859 3.29403 11.5859C3.29406 11.5859 3.2941 11.5859 3.29413 11.5859C3.29417 11.5859 3.2942 11.5859 3.29423 11.5859C3.29427 11.5859 3.2943 11.5859 3.29434 11.5859C3.29437 11.5859 3.2944 11.5859 3.29444 11.5859C3.29447 11.5859 3.29451 11.5859 3.29454 11.5859C3.29457 11.5859 3.29461 11.5859 3.29464 11.5859C3.29468 11.5859 3.29471 11.5859 3.29474 11.5859C3.29478 11.5859 3.29481 11.5859 3.29485 11.5859C3.29488 11.5859 3.29491 11.5859 3.29495 11.5859C3.29498 11.5859 3.29502 11.5859 3.29505 11.5859C3.29508 11.5859 3.29512 11.5859 3.29515 11.5859C3.29519 11.5859 3.29522 11.5859 3.29525 11.5859C3.29529 11.5859 3.29532 11.5859 3.29535 11.5859C3.29539 11.5859 3.29542 11.5859 3.29546 11.5859C3.29549 11.5859 3.29552 11.5859 3.29556 11.5859C3.29559 11.5859 3.29562 11.5859 3.29566 11.5859C3.29569 11.5859 3.29572 11.5859 3.29576 11.5859C3.29579 11.5859 3.29583 11.5859 3.29586 11.5859C3.29589 11.5859 3.29593 11.5859 3.29596 11.5859C3.29599 11.5859 3.29603 11.5859 3.29606 11.5859C3.29609 11.5859 3.29613 11.5859 3.29616 11.5859C3.29619 11.5859 3.29623 11.5859 3.29626 11.5859C3.29629 11.5859 3.29633 11.5859 3.29636 11.5859C3.2964 11.5859 3.29643 11.5859 3.29646 11.5859C3.2965 11.5859 3.29653 11.5859 3.29656 11.5859C3.2966 11.5859 3.29663 11.5859 3.29666 11.5859C3.29669 11.5859 3.29673 11.5859 3.29676 11.5859C3.29679 11.5859 3.29683 11.5859 3.29686 11.5859C3.29689 11.5859 3.29693 11.5859 3.29696 11.5859C3.29699 11.5859 3.29703 11.5859 3.29706 11.5859C3.29709 11.5859 3.29713 11.5859 3.29716 11.5859C3.29719 11.5859 3.29723 11.5859 3.29726 11.5859C3.29729 11.5859 3.29732 11.5859 3.29736 11.5859C3.29739 11.5859 3.29742 11.5859 3.29746 11.5859C3.29749 11.5859 3.29752 11.5859 3.29756 11.5859C3.29759 11.5859 3.29762 11.5859 3.29765 11.5859C3.29769 11.5859 3.29772 11.5859 3.29775 11.5859C3.29779 11.5859 3.29782 11.5859 3.29785 11.5859C3.29788 11.5859 3.29792 11.5859 3.29795 11.5859C3.29798 11.5859 3.29801 11.5859 3.29805 11.5859C3.29808 11.5859 3.29811 11.5859 3.29815 11.5859C3.29818 11.5859 3.29821 11.5859 3.29824 11.5859C3.29828 11.5859 3.29831 11.5859 3.29834 11.5859C3.29837 11.5859 3.29841 11.5859 3.29844 11.5859C3.29847 11.5859 3.2985 11.5859 3.29854 11.5859C3.29857 11.5859 3.2986 11.5859 3.29863 11.5859C3.29867 11.5859 3.2987 11.5859 3.29873 11.5859C3.29876 11.5859 3.2988 11.5859 3.29883 11.5859C3.29886 11.5859 3.29889 11.5859 3.29893 11.5859C3.29896 11.5859 3.29899 11.5859 3.29902 11.5859C3.29905 11.5859 3.29909 11.5859 3.29912 11.5859C3.29915 11.5859 3.29918 11.5859 3.29922 11.5859C3.29925 11.5859 3.29928 11.5859 3.29931 11.5859C3.29934 11.5859 3.29938 11.5859 3.29941 11.5859C3.29944 11.5859 3.29947 11.5859 3.29951 11.5859C3.29954 11.5859 3.29957 11.5859 3.2996 11.5859C3.29963 11.5859 3.29967 11.5859 3.2997 11.5859C3.29973 11.5859 3.29976 11.5859 3.29979 11.5859C3.29983 11.5859 3.29986 11.5859 3.29989 11.5859C3.29992 11.5859 3.29995 11.5859 3.29998 11.5859C3.30002 11.5859 3.30005 11.5859 3.30008 11.5859C3.30011 11.5859 3.30014 11.5859 3.30018 11.5859C3.30021 11.5859 3.30024 11.5859 3.30027 11.5859C3.3003 11.5859 3.30033 11.5859 3.30037 11.5859C3.3004 11.5859 3.30043 11.5859 3.30046 11.5859C3.30049 11.5859 3.30052 11.5859 3.30055 11.5859C3.30059 11.5859 3.30062 11.5859 3.30065 11.5859C3.30068 11.5859 3.30071 11.5859 3.30074 11.5859C3.30078 11.5859 3.30081 11.5859 3.30084 11.5859C3.30087 11.5859 3.3009 11.5859 3.30093 11.5859C3.30096 11.5859 3.30099 11.5859 3.30103 11.5859C3.30106 11.5859 3.30109 11.5859 3.30112 11.5859C3.30115 11.5859 3.30118 11.5859 3.30121 11.5859C3.30125 11.5859 3.30128 11.5859 3.30131 11.5859C3.30134 11.5859 3.30137 11.5859 3.3014 11.5859C3.30143 11.5859 3.30146 11.5859 3.30149 11.5859C3.30153 11.5859 3.30156 11.5859 3.30159 11.5859C3.30162 11.5859 3.30165 11.5859 3.30168 11.5859C3.30171 11.5859 3.30174 11.5859 3.30177 11.5859C3.3018 11.5859 3.30183 11.5859 3.30187 11.5859C3.3019 11.5859 3.30193 11.5859 3.30196 11.5859C3.30199 11.5859 3.30202 11.5859 3.30205 11.5859C3.30208 11.5859 3.30211 11.5859 3.30214 11.5859C3.30217 11.5859 3.3022 11.5859 3.30223 11.5859C3.30227 11.5859 3.3023 11.5859 3.30233 11.5859C3.30236 11.5859 3.30239 11.5859 3.30242 11.5859C3.30245 11.5859 3.30248 11.5859 3.30251 11.5859C3.30254 11.5859 3.30257 11.5859 3.3026 11.5859C3.30263 11.5859 3.30266 11.5859 3.30269 11.5859C3.30272 11.5859 3.30275 11.5859 3.30278 11.5859C3.30281 11.5859 3.30284 11.5859 3.30287 11.5859C3.30291 11.5859 3.30294 11.5859 3.30297 11.5859C3.303 11.5859 3.30303 11.5859 3.30306 11.5859C3.30309 11.5859 3.30312 11.5859 3.30315 11.5859C3.30318 11.5859 3.30321 11.5859 3.30324 11.5859C3.30327 11.5859 3.3033 11.5859 3.30333 11.5859C3.30336 11.5859 3.30339 11.5859 3.30342 11.5859C3.30345 11.5859 3.30348 11.5859 3.30351 11.5859C3.30354 11.5859 3.30357 11.5859 3.3036 11.5859C3.30363 11.5859 3.30366 11.5859 3.30369 11.5859C3.30372 11.5859 3.30375 11.5859 3.30378 11.5859C3.30381 11.5859 3.30383 11.5859 3.30386 11.5859C3.30389 11.5859 3.30392 11.5859 3.30395 11.5859C3.30398 11.5859 3.30401 11.5859 3.30404 11.5859C3.30407 11.5859 3.3041 11.5859 3.30413 11.5859C3.30416 11.5859 3.30419 11.5859 3.30422 11.5859C3.30425 11.5859 3.30428 11.5859 3.30431 11.5859C3.30434 11.5859 3.30437 11.5859 3.3044 11.5859C3.30443 11.5859 3.30445 11.5859 3.30448 11.5859V8.58588ZM3.40124 8.59333C3.93879 8.64708 4.30814 9.12412 4.25704 9.63514L1.27193 9.33663C1.16083 10.4476 1.96518 11.4647 3.10273 11.5784L3.40124 8.59333ZM4.25652 9.64023C4.41442 8.11383 5.2207 6.73379 6.4804 5.8432L4.74856 3.39356C2.78327 4.78298 1.51954 6.94293 1.27245 9.33153L4.25652 9.64023ZM6.48994 5.83641C6.04292 6.1577 5.4546 6.03962 5.15396 5.62134L7.59001 3.87043C6.94437 2.97215 5.66605 2.73406 4.73903 3.40036L6.48994 5.83641ZM5.14139 5.60357C4.84484 5.17809 4.94353 4.59119 5.36903 4.28536L7.11994 6.72141C8.02544 6.07058 8.24413 4.80868 7.60258 3.88819L5.14139 5.60357ZM5.3752 4.28095C3.68015 5.48632 2.56869 7.35847 2.3595 9.44095L5.34447 9.74081C5.46527 8.53829 6.10882 7.44045 7.11377 6.72582L5.3752 4.28095ZM2.36023 9.43386C2.41137 8.948 2.82184 8.58588 3.30448 8.58588V11.5859C4.34212 11.5859 5.2326 10.8038 5.34374 9.74791L2.36023 9.43386Z" fill="current" mask="url(#path-2-inside-1_2022_4644)"/>
<mask id="path-4-inside-2_2022_4644" fill="white">
<path d="M12.4934 16.3253C11.5709 16.7678 10.5809 16.9928 9.54593 16.9928C8.46593 16.9928 7.43843 16.7528 6.47843 16.2653C6.20843 16.1378 6.10343 15.8077 6.23843 15.5377C6.36593 15.2677 6.69593 15.1627 6.96593 15.2902C7.43843 15.5302 7.94093 15.6952 8.45093 15.7927C9.14093 15.9277 9.84593 15.9353 10.5359 15.8153C11.0459 15.7253 11.5484 15.5678 12.0134 15.3428C12.2909 15.2153 12.6209 15.3202 12.7409 15.5977C12.8759 15.8677 12.7709 16.1978 12.4934 16.3253Z"/>
</mask>
<path d="M12.4934 16.3253L11.8672 14.9622L11.8559 14.9674L11.8447 14.9728L12.4934 16.3253ZM6.47843 16.2653L7.1576 14.9278L7.1384 14.9181L7.11894 14.9089L6.47843 16.2653ZM6.23843 15.5377L7.58007 16.2086L7.58761 16.1935L7.5948 16.1783L6.23843 15.5377ZM6.96593 15.2902L7.64523 13.9529L7.62597 13.9431L7.60644 13.9339L6.96593 15.2902ZM8.45093 15.7927L8.73895 14.3206L8.73259 14.3194L8.45093 15.7927ZM10.5359 15.8153L10.7929 17.2931L10.7966 17.2924L10.5359 15.8153ZM12.0134 15.3428L11.3872 13.9797L11.3736 13.986L11.3601 13.9925L12.0134 15.3428ZM12.7409 15.5977L11.3641 16.1931L11.3807 16.2313L11.3993 16.2686L12.7409 15.5977ZM11.8447 14.9728C11.126 15.3175 10.3579 15.4928 9.54593 15.4928V18.4928C10.804 18.4928 12.0158 18.218 13.1422 17.6777L11.8447 14.9728ZM9.54593 15.4928C8.69589 15.4928 7.90181 15.3057 7.1576 14.9278L5.79926 17.6027C6.97505 18.1998 8.23597 18.4928 9.54593 18.4928V15.4928ZM7.11894 14.9089C7.65519 15.1621 7.7987 15.7713 7.58007 16.2086L4.89679 14.8669C4.40816 15.8442 4.76167 17.1134 5.83792 17.6216L7.11894 14.9089ZM7.5948 16.1783C7.34173 16.7142 6.74642 16.8454 6.32542 16.6466L7.60644 13.9339C6.64544 13.4801 5.39013 13.8213 4.88206 14.8972L7.5948 16.1783ZM6.28663 16.6276C6.89422 16.9362 7.53197 17.1442 8.16927 17.2661L8.73259 14.3194C8.34989 14.2463 7.98264 14.1243 7.64523 13.9529L6.28663 16.6276ZM8.16291 17.2648C9.03223 17.4349 9.92195 17.4445 10.7929 17.2931L10.2789 14.3374C9.76991 14.426 9.24963 14.4206 8.73895 14.3207L8.16291 17.2648ZM10.7966 17.2924C11.4334 17.1801 12.0691 16.9822 12.6668 16.693L11.3601 13.9925C11.0278 14.1533 10.6585 14.2704 10.2753 14.3381L10.7966 17.2924ZM12.6397 16.7058C12.2526 16.8836 11.6204 16.7857 11.3641 16.1931L14.1177 15.0024C13.6215 13.8548 12.3293 13.5469 11.3872 13.9797L12.6397 16.7058ZM11.3993 16.2686C11.1765 15.823 11.3316 15.2083 11.8672 14.9622L13.1197 17.6883C14.2103 17.1872 14.5754 15.9125 14.0826 14.9269L11.3993 16.2686Z" fill="current" mask="url(#path-4-inside-2_2022_4644)"/>
<path d="M9.53688 2.00781C8.37438 2.00781 7.42188 2.95281 7.42188 4.12281C7.42188 5.29281 8.36688 6.23781 9.53688 6.23781C10.7069 6.23781 11.6519 5.29281 11.6519 4.12281C11.6519 2.95281 10.7069 2.00781 9.53688 2.00781Z" fill="current"/>
<path d="M4.28688 10.9023C3.12438 10.9023 2.17188 11.8473 2.17188 13.0173C2.17188 14.1873 3.11688 15.1323 4.28688 15.1323C5.45688 15.1323 6.40188 14.1873 6.40188 13.0173C6.40188 11.8473 5.44938 10.9023 4.28688 10.9023Z" fill="current"/>
<path d="M14.7127 10.9023C13.5502 10.9023 12.5977 11.8473 12.5977 13.0173C12.5977 14.1873 13.5427 15.1323 14.7127 15.1323C15.8827 15.1323 16.8277 14.1873 16.8277 13.0173C16.8277 11.8473 15.8827 10.9023 14.7127 10.9023Z" fill="current"/>
</svg>
