<svg width="17" height="15" viewBox="0 0 17 15" fill="none" xmlns="http://www.w3.org/2000/svg">
<path d="M16 6.5625C16.3075 6.5625 16.5625 6.3075 16.5625 6V5.25C16.5625 1.9425 15.5575 0.9375 12.25 0.9375H7.5625V2.625C7.5625 2.9325 7.3075 3.1875 7 3.1875C6.6925 3.1875 6.4375 2.9325 6.4375 2.625V0.9375H4.75C1.4425 0.9375 0.4375 1.9425 0.4375 5.25V5.625C0.4375 5.9325 0.6925 6.1875 1 6.1875C1.72 6.1875 2.3125 6.78 2.3125 7.5C2.3125 8.22 1.72 8.8125 1 8.8125C0.6925 8.8125 0.4375 9.0675 0.4375 9.375V9.75C0.4375 13.0575 1.4425 14.0625 4.75 14.0625H6.4375V12.375C6.4375 12.0675 6.6925 11.8125 7 11.8125C7.3075 11.8125 7.5625 12.0675 7.5625 12.375V14.0625H12.25C15.5575 14.0625 16.5625 13.0575 16.5625 9.75C16.5625 9.4425 16.3075 9.1875 16 9.1875C15.28 9.1875 14.6875 8.595 14.6875 7.875C14.6875 7.155 15.28 6.5625 16 6.5625ZM7.5625 9.1275C7.5625 9.435 7.3075 9.69 7 9.69C6.6925 9.69 6.4375 9.435 6.4375 9.1275V5.8725C6.4375 5.565 6.6925 5.31 7 5.31C7.3075 5.31 7.5625 5.565 7.5625 5.8725V9.1275Z" fill="current"/>
</svg>
