<svg width="19" height="19" viewBox="0 0 19 19" fill="none" xmlns="http://www.w3.org/2000/svg">
<path d="M6.53906 8.10461V8.97461H8.98406V6.53711H8.11406C7.24406 6.53711 6.53906 7.24211 6.53906 8.10461Z" fill="current"/>
<path d="M8.10656 11.7129C7.65828 11.7129 7.28906 11.3437 7.28906 10.8954V10.7754H8.22656V11.7129H8.10656Z" stroke="current" stroke-width="1.5"/>
<path d="M10.8934 11.7129H10.7734V10.7754H11.7109V10.8954C11.7109 11.3437 11.3417 11.7129 10.8934 11.7129Z" stroke="current" stroke-width="1.5"/>
<path d="M12.6425 2H6.3575C3.6275 2 2 3.6275 2 6.3575V12.635C2 15.3725 3.6275 17 6.3575 17H12.635C15.365 17 16.9925 15.3725 16.9925 12.6425V6.3575C17 3.6275 15.3725 2 12.6425 2ZM13.5125 10.895C13.5125 12.335 12.335 13.5125 10.895 13.5125H8.105C6.665 13.5125 5.4875 12.3425 5.4875 10.895V8.105C5.4875 6.665 6.665 5.4875 8.105 5.4875H10.895C12.335 5.4875 13.5125 6.6575 13.5125 8.105V10.895Z" fill="current"/>
<path d="M10.8934 6.53711H10.0234V8.98211H12.4684V8.11211C12.4609 7.24211 11.7559 6.53711 10.8934 6.53711Z" fill="current"/>
</svg>
