<svg id="chat-collapse-icon" xmlns="http://www.w3.org/2000/svg" width="14" height="14" viewBox="0 0 14 14" fill="none">
  <path d="M10.4566 6.77844C10.4288 6.70684 10.3872 6.64142 10.3341 6.58594L8.00076 4.25261C7.94637 4.19822 7.8818 4.15508 7.81073 4.12564C7.73967 4.0962 7.66351 4.08105 7.58659 4.08105C7.43125 4.08105 7.28227 4.14276 7.17242 4.25261C7.06258 4.36245 7.00087 4.51143 7.00087 4.66677C7.00087 4.82212 7.06258 4.9711 7.17242 5.08094L8.51409 6.41677H1.75326C1.59855 6.41677 1.45017 6.47823 1.34078 6.58763C1.23138 6.69703 1.16992 6.8454 1.16992 7.00011C1.16992 7.15482 1.23138 7.30319 1.34078 7.41259C1.45017 7.52198 1.59855 7.58344 1.75326 7.58344H8.51409L7.17242 8.91927C7.11775 8.9735 7.07435 9.03802 7.04474 9.1091C7.01512 9.18019 6.99987 9.25643 6.99987 9.33344C6.99987 9.41045 7.01512 9.48669 7.04474 9.55778C7.07435 9.62886 7.11775 9.69338 7.17242 9.74761C7.22665 9.80228 7.29117 9.84568 7.36225 9.87529C7.43334 9.90491 7.50958 9.92016 7.58659 9.92016C7.6636 9.92016 7.73984 9.90491 7.81093 9.87529C7.88201 9.84568 7.94653 9.80228 8.00076 9.74761L10.3341 7.41427C10.3872 7.3588 10.4288 7.29338 10.4566 7.22177C10.5149 7.07976 10.5149 6.92046 10.4566 6.77844Z" fill="#6C708A"/>
  <mask id="path-2-inside-1_6795_69952" fill="white">
    <path d="M12.2497 2.33301C12.4044 2.33301 12.5528 2.39447 12.6622 2.50386C12.7715 2.61326 12.833 2.76163 12.833 2.91634V11.083C12.833 11.2377 12.7715 11.3861 12.6622 11.4955C12.5528 11.6049 12.4044 11.6663 12.2497 11.6663C12.095 11.6663 11.9466 11.6049 11.8372 11.4955C11.7278 11.3861 11.6663 11.2377 11.6663 11.083V2.91634C11.6663 2.76163 11.7278 2.61326 11.8372 2.50386C11.9466 2.39447 12.095 2.33301 12.2497 2.33301Z"/>
  </mask>
  <path d="M12.2497 2.33301C12.4044 2.33301 12.5528 2.39447 12.6622 2.50386C12.7715 2.61326 12.833 2.76163 12.833 2.91634V11.083C12.833 11.2377 12.7715 11.3861 12.6622 11.4955C12.5528 11.6049 12.4044 11.6663 12.2497 11.6663C12.095 11.6663 11.9466 11.6049 11.8372 11.4955C11.7278 11.3861 11.6663 11.2377 11.6663 11.083V2.91634C11.6663 2.76163 11.7278 2.61326 11.8372 2.50386C11.9466 2.39447 12.095 2.33301 12.2497 2.33301Z" fill="#6C708A"/>
  <path d="M12.2497 2.33301V1.13301V2.33301ZM12.833 2.91634H14.033H12.833ZM12.833 11.083H14.033H12.833ZM11.6663 11.083H10.4663H11.6663ZM11.6663 2.91634H10.4663H11.6663ZM12.2497 1.13301C12.7226 1.13301 13.1762 1.32089 13.5107 1.65533L11.8136 3.35239C11.9293 3.46804 12.0861 3.53301 12.2497 3.53301V1.13301ZM13.5107 1.65533C13.8451 1.98977 14.033 2.44337 14.033 2.91634H11.633C11.633 3.07989 11.698 3.23674 11.8136 3.35239L13.5107 1.65533ZM14.033 2.91634V11.083H11.633V2.91634H14.033ZM14.033 11.083C14.033 11.556 13.8451 12.0096 13.5107 12.344L11.8136 10.647C11.698 10.7626 11.633 10.9195 11.633 11.083H14.033ZM13.5107 12.344C13.1762 12.6785 12.7226 12.8663 12.2497 12.8663V10.4663C12.0861 10.4663 11.9293 10.5313 11.8136 10.647L13.5107 12.344ZM12.2497 12.8663C11.7767 12.8663 11.3231 12.6785 10.9887 12.344L12.6857 10.647C12.5701 10.5313 12.4132 10.4663 12.2497 10.4663V12.8663ZM10.9887 12.344C10.6542 12.0096 10.4663 11.556 10.4663 11.083H12.8663C12.8663 10.9195 12.8014 10.7626 12.6857 10.647L10.9887 12.344ZM10.4663 11.083V2.91634H12.8663V11.083H10.4663ZM10.4663 2.91634C10.4663 2.44337 10.6542 1.98977 10.9887 1.65533L12.6857 3.35239C12.8014 3.23674 12.8663 3.07989 12.8663 2.91634H10.4663ZM10.9887 1.65533C11.3231 1.32089 11.7767 1.13301 12.2497 1.13301V3.53301C12.4132 3.53301 12.5701 3.46804 12.6857 3.35239L10.9887 1.65533Z" fill="#6C708A" mask="url(#path-2-inside-1_6795_69952)"/>
</svg>