<svg xmlns="http://www.w3.org/2000/svg" width="41" height="38" viewBox="0 0 41 38" fill="none">
  <g filter="url(#filter0_d_6795_76982)">
    <path fill-rule="evenodd" clip-rule="evenodd" d="M27.75 15H21.25C19.2999 15 17.9999 16.3 17.9999 18.25V22.15C17.9999 24.1 19.2999 25.4001 21.25 25.4001H23.85L26.7425 27.3241C27.1715 27.6166 27.75 27.3046 27.75 26.7846V25.4001C29.7 25.4001 31 24.1 31 22.15V18.25C31 16.3 29.7 15 27.75 15Z" fill="#0075FF"/>
  </g>
  <g filter="url(#filter1_d_6795_76982)">
    <path fill-rule="evenodd" clip-rule="evenodd" d="M22.2064 10.4297H14.0688C11.6275 10.4297 10 12.0572 10 14.4985V19.3811C10 21.8223 11.6275 23.4499 14.0688 23.4499V25.1832C14.0688 25.8342 14.7931 26.2248 15.3301 25.8586L17.1368 24.6568C16.7125 23.9191 16.4999 23.0588 16.4999 22.1495V18.2495C16.4999 16.9337 16.9451 15.7205 17.833 14.8326C18.721 13.9447 19.9341 13.4995 21.25 13.4995H26.1769C25.791 11.6233 24.2971 10.4297 22.2064 10.4297ZM26.2752 14.9995H21.25C19.2999 14.9995 17.9999 16.2995 17.9999 18.2495V22.1495C17.9999 22.7836 18.1374 23.349 18.39 23.8233L18.9514 23.4499H22.2064C24.6477 23.4499 26.2752 21.8223 26.2752 19.3811V14.9995Z" fill="#0075FF"/>
  </g>
  <defs>
    <filter id="filter0_d_6795_76982" x="8" y="5" width="33" height="32.4365" filterUnits="userSpaceOnUse" color-interpolation-filters="sRGB">
      <feFlood flood-opacity="0" result="BackgroundImageFix"/>
      <feColorMatrix in="SourceAlpha" type="matrix" values="0 0 0 0 0 0 0 0 0 0 0 0 0 0 0 0 0 0 127 0" result="hardAlpha"/>
      <feOffset/>
      <feGaussianBlur stdDeviation="5"/>
      <feComposite in2="hardAlpha" operator="out"/>
      <feColorMatrix type="matrix" values="0 0 0 0 0.156863 0 0 0 0 0.411765 0 0 0 0 0.964706 0 0 0 0.5 0"/>
      <feBlend mode="normal" in2="BackgroundImageFix" result="effect1_dropShadow_6795_76982"/>
      <feBlend mode="normal" in="SourceGraphic" in2="effect1_dropShadow_6795_76982" result="shape"/>
    </filter>
    <filter id="filter1_d_6795_76982" x="0" y="0.429688" width="36.2751" height="35.5703" filterUnits="userSpaceOnUse" color-interpolation-filters="sRGB">
      <feFlood flood-opacity="0" result="BackgroundImageFix"/>
      <feColorMatrix in="SourceAlpha" type="matrix" values="0 0 0 0 0 0 0 0 0 0 0 0 0 0 0 0 0 0 127 0" result="hardAlpha"/>
      <feOffset/>
      <feGaussianBlur stdDeviation="5"/>
      <feComposite in2="hardAlpha" operator="out"/>
      <feColorMatrix type="matrix" values="0 0 0 0 0.156863 0 0 0 0 0.411765 0 0 0 0 0.964706 0 0 0 0.5 0"/>
      <feBlend mode="normal" in2="BackgroundImageFix" result="effect1_dropShadow_6795_76982"/>
      <feBlend mode="normal" in="SourceGraphic" in2="effect1_dropShadow_6795_76982" result="shape"/>
    </filter>
  </defs>
</svg>