<svg width="22" height="24" viewBox="0 0 22 24" fill="none" xmlns="http://www.w3.org/2000/svg">
<g clip-path="url(#clip0_1801_8455)">
<path d="M19.4787 4.91565C23.5494 9.9689 22.3623 16.5125 18.255 20.7543C16.3929 22.6787 13.8475 24.0027 11.0367 24.0027C9.94654 24.0002 8.86548 23.8022 7.84399 23.418C6.77997 23.0198 6.15456 22.9502 5.1923 22.3266C4.21393 21.6925 2.96248 20.6374 2.32161 19.6239C1.95368 19.0412 1.6449 18.4226 1.39993 17.7775C0.928513 16.5151 0.688448 15.1769 0.691434 13.828C0.685637 11.0532 1.58929 8.38107 3.02238 6.15525C3.52757 5.36874 4.10856 4.63449 4.7569 3.96322C7.22889 1.40801 9.72021 -0.293517 12.8898 0.448423C14.9824 0.935686 17.8595 2.90683 19.4787 4.91565Z" fill="url(#paint0_radial_1801_8455)"/>
<path d="M19.2585 8.62119C20.2768 15.2155 16.4716 20.5708 11.3608 22.3945C6.24995 24.2182 1.18616 21.4447 0.167863 14.8504C-0.850435 8.25607 2.88912 2.3199 7.99993 0.493635C13.1107 -1.33263 18.2402 2.02624 19.2585 8.62119Z" fill="url(#paint1_radial_1801_8455)"/>
<path d="M10.0621 19.5414C7.80911 20.3353 5.60312 20.1067 4.00257 18.906C2.68413 17.9179 1.8597 16.3638 1.55505 14.2874C0.735131 8.76121 4.34007 4.28813 8.14661 2.88741L8.25031 2.84973C10.3275 2.11624 12.4452 2.39495 14.0651 3.60726C15.5413 4.71173 16.4952 6.47627 16.825 8.70664C17.6295 14.1445 13.9485 18.1115 10.1909 19.4953L10.0621 19.5414Z" fill="url(#paint2_linear_1801_8455)"/>
<path d="M10.3842 19.4476C8.26647 20.2045 6.19767 19.979 4.70211 18.8291C3.50411 17.9065 2.74344 16.4493 2.44201 14.4976C1.61436 9.13515 5.0132 4.80825 8.63038 3.46276L8.73408 3.42442C10.6728 2.72926 12.6527 3.00343 14.1695 4.16961C15.5317 5.21885 16.4238 6.89049 16.751 9.00587C17.5606 14.2501 14.0838 18.0709 10.5111 19.4008L10.3842 19.4476Z" fill="url(#paint3_radial_1801_8455)"/>
<path d="M11.1431 5.25398L10.7251 4.97852L10.4727 6.79049L10.8907 7.0653L11.1431 5.25398Z" fill="url(#paint4_linear_1801_8455)"/>
<path d="M7.84792 9.66921C7.86016 10.1786 8.23437 10.3663 8.60794 10.6139C8.55698 10.5813 8.51043 10.5422 8.46946 10.4976C8.11071 10.1012 8.26335 9.3788 8.53387 8.97924C8.82757 8.54136 9.32996 8.26459 9.8317 8.14895L9.9077 8.13206L9.95858 8.12231C9.78661 8.00927 9.63654 7.85464 9.43752 7.87023C9.02209 7.90337 8.55384 8.17104 8.27817 8.48159C7.99375 8.80997 7.84041 9.23322 7.84792 9.66921Z" fill="url(#paint5_linear_1801_8455)"/>
<path d="M8.58639 11.9179C8.69846 11.9407 8.835 11.9647 8.99796 11.9829L9.22403 12.0121L9.4121 12.0375L8.99345 11.762C8.88138 11.7477 8.7429 11.7282 8.5793 11.7081C8.4157 11.6879 8.28045 11.6633 8.16837 11.6431C7.72825 11.5699 7.37916 11.448 7.12109 11.2773L7.5391 11.5528C7.79803 11.7226 8.14712 11.8443 8.58639 11.9179Z" fill="url(#paint6_linear_1801_8455)"/>
<path d="M12.8397 7.04688L12.6549 8.37288L12.5506 8.38458C12.2358 8.1961 11.9011 8.04357 11.5529 7.9298C11.1603 7.80378 10.7492 7.74686 10.3375 7.76153L9.9375 10.6435L10.3562 10.919L10.7555 8.03699C11.1671 8.02212 11.5783 8.07882 11.9709 8.20461C12.319 8.31881 12.6536 8.47133 12.9686 8.65939L13.0729 8.64835L13.2584 7.32169L12.8397 7.04688Z" fill="url(#paint7_linear_1801_8455)"/>
<path d="M8.8737 15.9272L8.45505 15.6517C7.95565 15.6984 7.45286 15.6941 6.95433 15.6387C6.51851 15.5969 6.08999 15.4978 5.67969 15.3438L6.0977 15.6186C6.5079 15.7734 6.93642 15.8734 7.37234 15.9161C7.74548 15.9576 8.12122 15.9702 8.49627 15.9538C8.62208 15.9473 8.74789 15.9384 8.8737 15.9272Z" fill="url(#paint8_linear_1801_8455)"/>
<path d="M9.39453 14.5665L9.81254 14.8413L10.199 12.058C10.6292 12.1028 10.9468 12.188 11.1529 12.327L10.7349 12.0515C10.5288 11.9164 10.2108 11.8269 9.78098 11.7832L9.39453 14.5665Z" fill="url(#paint9_linear_1801_8455)"/>
<path d="M12.8049 12.3594C12.7076 11.7682 12.251 11.4342 11.7898 11.125C12.2149 11.3537 12.4068 11.8793 12.4081 12.3652C12.4081 13.1156 12.0416 13.8361 11.5096 14.3604C10.9216 14.9406 10.1345 15.335 9.33841 15.5221C9.31072 15.5286 9.28431 15.5364 9.25662 15.5422L8.91911 17.9694L8.12109 18.0493L8.53911 18.3242L9.33777 18.2449L9.67463 15.8177C10.4656 15.6481 11.2578 15.2661 11.8542 14.7093C12.4223 14.1785 12.8203 13.434 12.8261 12.6531C12.8277 12.5547 12.8206 12.4565 12.8049 12.3594Z" fill="url(#paint10_linear_1801_8455)"/>
<path d="M10.4697 6.7892C10.9025 6.76036 11.3371 6.77319 11.7675 6.82753C12.1306 6.8652 12.4891 6.93853 12.838 7.04647L12.6532 8.37248L12.5488 8.38417C12.234 8.1957 11.8994 8.04316 11.5511 7.92939C11.1586 7.80338 10.7474 7.74646 10.3357 7.76112L9.93576 10.6431C10.0839 10.6607 10.225 10.6776 10.3518 10.697C10.4787 10.7165 10.5914 10.7354 10.6868 10.7471C11.3012 10.8263 11.7583 11.0249 12.058 11.3428C12.3577 11.6607 12.4651 12.1194 12.3801 12.7189C12.2877 13.3755 11.9464 13.9656 11.356 14.4893C10.7587 15.0191 10.0336 15.381 9.25367 15.5385L8.91617 17.9657L8.11815 18.0456L8.45114 15.6522C7.95175 15.6989 7.44895 15.6946 6.95042 15.6392C6.5146 15.5974 6.08608 15.4983 5.67578 15.3442L5.8645 13.9896L5.97077 13.978C6.32464 14.2173 6.71687 14.3931 7.13012 14.4977C7.60699 14.6214 8.09872 14.677 8.59091 14.6627L8.99282 11.7658C8.88075 11.7515 8.74227 11.732 8.57867 11.7119C8.41507 11.6917 8.27982 11.667 8.16774 11.6469C7.49274 11.5343 7.03072 11.3073 6.78167 10.966C6.53263 10.6247 6.44525 10.1842 6.51953 9.64456C6.68313 8.45824 7.72333 7.56557 8.77383 7.14392C9.03022 7.04273 9.29487 6.96426 9.56476 6.90939L9.67039 6.8886L9.92416 5.06428L10.7228 4.98242L10.4697 6.7892ZM9.15062 10.6223L9.53707 7.84558L9.48683 7.85533C8.7281 8.0132 7.98032 8.50501 7.86631 9.33076C7.81285 9.72772 7.87211 10.0259 8.05052 10.2202C8.22893 10.4144 8.59413 10.5515 9.15062 10.6243V10.6223ZM10.8252 12.1251C10.632 11.9464 10.2791 11.8333 9.77409 11.7814L9.38764 14.5646C9.87028 14.4628 10.2494 14.2896 10.5251 14.0449C10.8008 13.7986 10.9702 13.4602 11.0294 13.0262C11.0919 12.6032 11.023 12.305 10.8272 12.127L10.8252 12.1251Z" fill="url(#paint11_linear_1801_8455)"/>
</g>
<defs>
<radialGradient id="paint0_radial_1801_8455" cx="0" cy="0" r="1" gradientUnits="userSpaceOnUse" gradientTransform="translate(6.72929 10.3145) rotate(4.94239) scale(15.6085 15.7422)">
<stop offset="0.13" stop-color="#F6D246"/>
<stop offset="0.8" stop-color="#F6D246"/>
<stop offset="0.81" stop-color="#F2BE39"/>
<stop offset="0.83" stop-color="#EFAB2D"/>
<stop offset="0.84" stop-color="#E79A28"/>
<stop offset="0.86" stop-color="#E18E25"/>
<stop offset="0.88" stop-color="#DE8724"/>
<stop offset="0.93" stop-color="#DD8523"/>
<stop offset="1" stop-color="#EFAC2D"/>
</radialGradient>
<radialGradient id="paint1_radial_1801_8455" cx="0" cy="0" r="1" gradientUnits="userSpaceOnUse" gradientTransform="translate(9.23207 11.2102) scale(13.1129 13.2269)">
<stop offset="0.55" stop-color="#EFAC2D"/>
<stop offset="0.72" stop-color="#F8D54E"/>
<stop offset="0.97" stop-color="#FFFDA6"/>
</radialGradient>
<linearGradient id="paint2_linear_1801_8455" x1="2.9028" y1="5.3018" x2="14.1564" y2="16.8931" gradientUnits="userSpaceOnUse">
<stop offset="0.13" stop-color="#DD8523"/>
<stop offset="0.26" stop-color="#E79A28"/>
<stop offset="0.39" stop-color="#EDA72C"/>
<stop offset="0.51" stop-color="#EFAC2D"/>
<stop offset="1" stop-color="#F8D54E"/>
</linearGradient>
<radialGradient id="paint3_radial_1801_8455" cx="0" cy="0" r="1" gradientUnits="userSpaceOnUse" gradientTransform="translate(9.45224 11.4318) rotate(-20.8017) scale(10.8758 11.3654)">
<stop stop-color="#F8D54E"/>
<stop offset="0.3" stop-color="#F7D04A"/>
<stop offset="0.66" stop-color="#F3C03D"/>
<stop offset="1" stop-color="#EFAC2D"/>
</radialGradient>
<linearGradient id="paint4_linear_1801_8455" x1="10.387" y1="4.74769" x2="14.2944" y2="16.3926" gradientUnits="userSpaceOnUse">
<stop stop-color="#F8D54E"/>
<stop offset="0.15" stop-color="#E7B235"/>
<stop offset="0.31" stop-color="#D8911E"/>
<stop offset="0.47" stop-color="#CD7A0D"/>
<stop offset="0.62" stop-color="#C66C03"/>
<stop offset="0.75" stop-color="#C46700"/>
<stop offset="1" stop-color="#DD8523"/>
</linearGradient>
<linearGradient id="paint5_linear_1801_8455" x1="7.79937" y1="5.61457" x2="11.7068" y2="17.2601" gradientUnits="userSpaceOnUse">
<stop stop-color="#F8D54E"/>
<stop offset="0.15" stop-color="#E7B235"/>
<stop offset="0.31" stop-color="#D8911E"/>
<stop offset="0.47" stop-color="#CD7A0D"/>
<stop offset="0.62" stop-color="#C66C03"/>
<stop offset="0.75" stop-color="#C46700"/>
<stop offset="1" stop-color="#DD8523"/>
</linearGradient>
<linearGradient id="paint6_linear_1801_8455" x1="6.4253" y1="6.07508" x2="10.3328" y2="17.7212" gradientUnits="userSpaceOnUse">
<stop stop-color="#F8D54E"/>
<stop offset="0.15" stop-color="#E7B235"/>
<stop offset="0.31" stop-color="#D8911E"/>
<stop offset="0.47" stop-color="#CD7A0D"/>
<stop offset="0.62" stop-color="#C66C03"/>
<stop offset="0.75" stop-color="#C46700"/>
<stop offset="1" stop-color="#DD8523"/>
</linearGradient>
<linearGradient id="paint7_linear_1801_8455" x1="10.2195" y1="4.80287" x2="14.127" y2="16.4484" gradientUnits="userSpaceOnUse">
<stop stop-color="#F8D54E"/>
<stop offset="0.15" stop-color="#E7B235"/>
<stop offset="0.31" stop-color="#D8911E"/>
<stop offset="0.47" stop-color="#CD7A0D"/>
<stop offset="0.62" stop-color="#C66C03"/>
<stop offset="0.75" stop-color="#C46700"/>
<stop offset="1" stop-color="#DD8523"/>
</linearGradient>
<linearGradient id="paint8_linear_1801_8455" x1="4.35303" y1="6.76965" x2="8.26115" y2="18.4158" gradientUnits="userSpaceOnUse">
<stop stop-color="#F8D54E"/>
<stop offset="0.15" stop-color="#E7B235"/>
<stop offset="0.31" stop-color="#D8911E"/>
<stop offset="0.47" stop-color="#CD7A0D"/>
<stop offset="0.62" stop-color="#C66C03"/>
<stop offset="0.75" stop-color="#C46700"/>
<stop offset="1" stop-color="#DD8523"/>
</linearGradient>
<linearGradient id="paint9_linear_1801_8455" x1="7.70095" y1="5.64813" x2="11.6083" y2="17.293" gradientUnits="userSpaceOnUse">
<stop stop-color="#F8D54E"/>
<stop offset="0.15" stop-color="#E7B235"/>
<stop offset="0.31" stop-color="#D8911E"/>
<stop offset="0.47" stop-color="#CD7A0D"/>
<stop offset="0.62" stop-color="#C66C03"/>
<stop offset="0.75" stop-color="#C46700"/>
<stop offset="1" stop-color="#DD8523"/>
</linearGradient>
<linearGradient id="paint10_linear_1801_8455" x1="7.35884" y1="5.7639" x2="11.2656" y2="17.4088" gradientUnits="userSpaceOnUse">
<stop stop-color="#F8D54E"/>
<stop offset="0.15" stop-color="#E7B235"/>
<stop offset="0.31" stop-color="#D8911E"/>
<stop offset="0.47" stop-color="#CD7A0D"/>
<stop offset="0.62" stop-color="#C66C03"/>
<stop offset="0.75" stop-color="#C46700"/>
<stop offset="1" stop-color="#DD8523"/>
</linearGradient>
<linearGradient id="paint11_linear_1801_8455" x1="7.88725" y1="6.52615" x2="11.0929" y2="17.259" gradientUnits="userSpaceOnUse">
<stop stop-color="#DD8523"/>
<stop offset="0.14" stop-color="#EFAC2D"/>
<stop offset="0.47" stop-color="#F8D54E"/>
<stop offset="0.97" stop-color="#FFFDA6"/>
</linearGradient>
<clipPath id="clip0_1801_8455">
<rect width="22" height="24" fill="white"/>
</clipPath>
</defs>
</svg>
