<svg width="82" height="28" viewBox="0 0 82 28" fill="none" xmlns="http://www.w3.org/2000/svg">
<path d="M0.575439 28H10.0686C14.5701 28 18.2193 24.3508 18.2193 19.8493H8.72612C4.22463 19.8493 0.575439 23.4985 0.575439 28Z" fill="#1E6FD9"/>
<path opacity="0.5" d="M1 8.15069V20.137C5.5015 20.137 9.15069 16.4878 9.15069 11.9863V0C4.64919 0 1 3.64919 1 8.15069Z" fill="#1E6FD9"/>
<path d="M27.4246 0H17.9314C13.4299 0 9.78076 3.64919 9.78076 8.15068H19.2739C23.7754 8.15068 27.4246 4.5015 27.4246 0Z" fill="#1E6FD9"/>
<path opacity="0.5" d="M27.4246 19.3698V7.38354C22.9231 7.38354 19.2739 11.0327 19.2739 15.5342V27.5205C23.7754 27.5205 27.4246 23.8713 27.4246 19.3698Z" fill="#1E6FD9"/>
<path d="M39.0526 19V9.2H40.8446V17.6H45.1846V19H39.0526ZM50.4669 19.168C49.4869 19.168 48.6282 18.9533 47.8909 18.524C47.1629 18.0947 46.5889 17.502 46.1689 16.746C45.7582 15.9807 45.5529 15.0987 45.5529 14.1C45.5529 13.1013 45.7582 12.224 46.1689 11.468C46.5889 10.7027 47.1629 10.1053 47.8909 9.676C48.6282 9.24667 49.4869 9.032 50.4669 9.032C51.4375 9.032 52.2915 9.24667 53.0289 9.676C53.7662 10.1053 54.3402 10.7027 54.7509 11.468C55.1615 12.224 55.3669 13.1013 55.3669 14.1C55.3669 15.0987 55.1615 15.9807 54.7509 16.746C54.3402 17.502 53.7662 18.0947 53.0289 18.524C52.2915 18.9533 51.4375 19.168 50.4669 19.168ZM50.4669 17.558C51.4002 17.558 52.1422 17.25 52.6929 16.634C53.2529 16.018 53.5329 15.1733 53.5329 14.1C53.5329 13.0267 53.2529 12.182 52.6929 11.566C52.1422 10.95 51.4002 10.642 50.4669 10.642C49.5335 10.642 48.7869 10.95 48.2269 11.566C47.6669 12.182 47.3869 13.0267 47.3869 14.1C47.3869 15.1733 47.6669 16.018 48.2269 16.634C48.7869 17.25 49.5335 17.558 50.4669 17.558ZM61.2331 19.168C60.3091 19.168 59.5017 18.958 58.8111 18.538C58.1204 18.118 57.5837 17.5347 57.2011 16.788C56.8184 16.032 56.6271 15.1547 56.6271 14.156C56.6271 13.148 56.8231 12.2613 57.2151 11.496C57.6164 10.7213 58.1811 10.1193 58.9091 9.69C59.6464 9.25133 60.5191 9.032 61.5271 9.032C62.6751 9.032 63.6271 9.30733 64.3831 9.858C65.1391 10.4087 65.6291 11.1693 65.8531 12.14H63.8511C63.7017 11.6827 63.4311 11.328 63.0391 11.076C62.6471 10.8147 62.1431 10.684 61.5271 10.684C60.5471 10.684 59.7911 10.9967 59.2591 11.622C58.7271 12.238 58.4611 13.0873 58.4611 14.17C58.4611 15.2527 58.7224 16.0927 59.2451 16.69C59.7771 17.278 60.4957 17.572 61.4011 17.572C62.2877 17.572 62.9551 17.334 63.4031 16.858C63.8604 16.3727 64.1357 15.738 64.2291 14.954H61.7511V13.61H66.0351V19H64.3831L64.2431 17.712C63.9257 18.1787 63.5291 18.538 63.0531 18.79C62.5771 19.042 61.9704 19.168 61.2331 19.168ZM72.3692 19.168C71.3892 19.168 70.5305 18.9533 69.7932 18.524C69.0652 18.0947 68.4912 17.502 68.0712 16.746C67.6605 15.9807 67.4552 15.0987 67.4552 14.1C67.4552 13.1013 67.6605 12.224 68.0712 11.468C68.4912 10.7027 69.0652 10.1053 69.7932 9.676C70.5305 9.24667 71.3892 9.032 72.3692 9.032C73.3399 9.032 74.1939 9.24667 74.9312 9.676C75.6685 10.1053 76.2425 10.7027 76.6532 11.468C77.0639 12.224 77.2692 13.1013 77.2692 14.1C77.2692 15.0987 77.0639 15.9807 76.6532 16.746C76.2425 17.502 75.6685 18.0947 74.9312 18.524C74.1939 18.9533 73.3399 19.168 72.3692 19.168ZM72.3692 17.558C73.3025 17.558 74.0445 17.25 74.5952 16.634C75.1552 16.018 75.4352 15.1733 75.4352 14.1C75.4352 13.0267 75.1552 12.182 74.5952 11.566C74.0445 10.95 73.3025 10.642 72.3692 10.642C71.4359 10.642 70.6892 10.95 70.1292 11.566C69.5692 12.182 69.2892 13.0267 69.2892 14.1C69.2892 15.1733 69.5692 16.018 70.1292 16.634C70.6892 17.25 71.4359 17.558 72.3692 17.558Z" fill="#20232C"/>
</svg>
