<svg width="90" height="90" viewBox="0 0 90 90" fill="none" xmlns="http://www.w3.org/2000/svg">
<g id="Frame 1261154180">
<g id="Group 5169563">
<g id="Group 5169562">
<g id="Rectangle 1039" filter="url(#filter0_b_2542_30581)">
<rect width="90" height="90" rx="44.5" fill="url(#paint0_linear_2542_30581)" fill-opacity="0.5"/>
<rect x="0.5" y="0.5" width="89" height="89" rx="44" stroke="url(#paint1_linear_2542_30581)"/>
</g>
<g id="Group 2">
<g id="Ellipse 228" filter="url(#filter1_b_2542_30581)">
<ellipse cx="45.5578" cy="44.0862" rx="24.3957" ry="24.4045" fill="url(#paint2_linear_2542_30581)"/>
<path d="M69.8215 44.0862C69.8215 57.4916 58.9582 68.3587 45.5578 68.3587C32.1574 68.3587 21.2941 57.4916 21.2941 44.0862C21.2941 30.6808 32.1574 19.8136 45.5578 19.8136C58.9582 19.8136 69.8215 30.6808 69.8215 44.0862Z" stroke="url(#paint3_linear_2542_30581)" stroke-opacity="0.5" stroke-width="0.263998"/>
</g>
</g>
</g>
<path id="Subtract" fill-rule="evenodd" clip-rule="evenodd" d="M44.6278 18.2012C30.0575 18.2012 18.2012 30.0618 18.2012 44.6374C18.2012 59.213 30.0575 71.0797 44.6278 71.0797C59.1981 71.0797 71.0544 59.2191 71.0544 44.6435C71.0544 30.0679 59.1981 18.2012 44.6278 18.2012ZM46.8987 55.4155H42.8345V59.6627H46.8987V55.4155ZM51.6403 45.0382C55.9484 39.3045 52.7919 31.6596 45.544 31.3481C43.3882 31.3481 41.3207 32.2431 39.7963 33.8361C38.2719 35.4291 37.4155 37.5896 37.4155 39.8425H41.4798C41.4798 38.7161 41.908 37.6358 42.6701 36.8393C43.4323 36.0428 44.4661 35.5953 45.544 35.5953C50.0417 35.9634 50.8546 40.4513 47.5761 43.6225C47.2169 43.921 46.7871 44.2094 46.3394 44.5099C45.3857 45.1499 44.3507 45.8445 43.7422 46.8079C42.8345 48.2236 42.8345 50.2198 42.8345 52.5841H46.8987C46.8987 51.1683 46.8987 49.7526 47.8064 48.5776C48.2437 47.996 48.9012 47.4754 49.5906 46.9296C50.3108 46.3594 51.0658 45.7616 51.6403 45.0382Z" fill="url(#paint4_linear_2542_30581)"/>
</g>
</g>
<defs>
<filter id="filter0_b_2542_30581" x="-12" y="-12" width="114" height="114" filterUnits="userSpaceOnUse" color-interpolation-filters="sRGB">
<feFlood flood-opacity="0" result="BackgroundImageFix"/>
<feGaussianBlur in="BackgroundImageFix" stdDeviation="6"/>
<feComposite in2="SourceAlpha" operator="in" result="effect1_backgroundBlur_2542_30581"/>
<feBlend mode="normal" in="SourceGraphic" in2="effect1_backgroundBlur_2542_30581" result="shape"/>
</filter>
<filter id="filter1_b_2542_30581" x="1.36226" y="-0.118204" width="88.3907" height="88.4083" filterUnits="userSpaceOnUse" color-interpolation-filters="sRGB">
<feFlood flood-opacity="0" result="BackgroundImageFix"/>
<feGaussianBlur in="BackgroundImageFix" stdDeviation="9.89992"/>
<feComposite in2="SourceAlpha" operator="in" result="effect1_backgroundBlur_2542_30581"/>
<feBlend mode="normal" in="SourceGraphic" in2="effect1_backgroundBlur_2542_30581" result="shape"/>
</filter>
<linearGradient id="paint0_linear_2542_30581" x1="0" y1="0" x2="20.5565" y2="101.342" gradientUnits="userSpaceOnUse">
<stop stop-color="#6F678E"/>
<stop offset="1" stop-color="#3C2F52"/>
</linearGradient>
<linearGradient id="paint1_linear_2542_30581" x1="2.4" y1="1.05296" x2="22.0635" y2="101.995" gradientUnits="userSpaceOnUse">
<stop stop-color="white" stop-opacity="0.1"/>
<stop offset="1" stop-color="white" stop-opacity="0"/>
</linearGradient>
<linearGradient id="paint2_linear_2542_30581" x1="66.4942" y1="28.4956" x2="5.69215" y2="20.0914" gradientUnits="userSpaceOnUse">
<stop stop-color="white"/>
<stop offset="1" stop-color="white" stop-opacity="0.61"/>
</linearGradient>
<linearGradient id="paint3_linear_2542_30581" x1="26.418" y1="36.0547" x2="67.8487" y2="36.2834" gradientUnits="userSpaceOnUse">
<stop stop-color="white"/>
<stop offset="1" stop-color="white" stop-opacity="0"/>
</linearGradient>
<linearGradient id="paint4_linear_2542_30581" x1="53.5947" y1="31.3472" x2="33.8756" y2="60.6732" gradientUnits="userSpaceOnUse">
<stop stop-color="#7E8AF2"/>
<stop offset="1" stop-color="#693AEF"/>
</linearGradient>
</defs>
</svg>
