<svg width="39" height="40" viewBox="0 0 39 40" fill="none" xmlns="http://www.w3.org/2000/svg">
<g clip-path="url(#clip0_904_69498)">
<path d="M0.831055 40H14.5434C21.0455 40 26.3166 34.7869 26.3166 28.3562H12.6043C6.1021 28.3562 0.831055 33.5693 0.831055 40Z" fill="#1E6FD9"/>
<path opacity="0.5" d="M1.44446 11.6438V28.7671C7.94662 28.7671 13.2177 23.554 13.2177 17.1233V0C6.71551 0 1.44446 5.21312 1.44446 11.6438Z" fill="#1E6FD9"/>
<path d="M39.6134 0H25.9011C19.3989 0 14.1279 5.21312 14.1279 11.6438H27.8402C34.3424 11.6438 39.6134 6.43071 39.6134 0Z" fill="#1E6FD9"/>
<path opacity="0.5" d="M39.6134 27.6713V10.548C33.1113 10.548 27.8402 15.7611 27.8402 22.1918V39.3151C34.3424 39.3151 39.6134 34.102 39.6134 27.6713Z" fill="#1E6FD9"/>
</g>
<defs>
<clipPath id="clip0_904_69498">
<rect width="39" height="40" fill="white"/>
</clipPath>
</defs>
</svg>
