<svg width="18" height="18" viewBox="0 0 18 18" fill="none" xmlns="http://www.w3.org/2000/svg">
<g id="u:search">
<path id="Vector" d="M13.11 12.1447L12.8285 12.4957L13.1479 12.8125L15.9257 15.5678C15.9691 15.6141 15.9933 15.6753 15.9933 15.7388C15.9933 15.8026 15.9689 15.8639 15.9253 15.9102C15.9025 15.9326 15.8757 15.9504 15.8462 15.9627C15.8157 15.9754 15.7831 15.9819 15.7501 15.9819C15.717 15.9819 15.6844 15.9754 15.6539 15.9627C15.6234 15.95 15.5958 15.9314 15.5726 15.9079L15.5711 15.9065L12.8111 13.1465L12.4943 12.8297L12.1447 13.11C10.8978 14.1101 9.31507 14.5944 7.72201 14.4633C6.12896 14.3323 4.64666 13.5959 3.57989 12.4055C2.51313 11.2151 1.94299 9.66126 1.98672 8.06342C2.03044 6.46558 2.6847 4.94522 3.81496 3.81496C4.94522 2.6847 6.46558 2.03044 8.06342 1.98672C9.66126 1.94299 11.2151 2.51313 12.4055 3.57989C13.5959 4.64666 14.3323 6.12896 14.4633 7.72201C14.5944 9.31507 14.1101 10.8978 13.11 12.1447ZM5.05552 13.031L5.33331 12.6153L5.05552 13.031C6.0011 13.6628 7.11281 14.0001 8.25005 14.0001C9.77505 14.0001 11.2376 13.3942 12.3159 12.3159C13.3942 11.2376 14.0001 9.77505 14.0001 8.25005C14.0001 7.11281 13.6628 6.0011 13.031 5.05552L12.6153 5.33331L13.031 5.05552C12.3992 4.10994 11.5012 3.37295 10.4505 2.93774C9.39981 2.50254 8.24367 2.38867 7.12828 2.61053C6.01289 2.8324 4.98834 3.38003 4.18419 4.18419C3.38003 4.98834 2.8324 6.01289 2.61053 7.12828C2.38867 8.24367 2.50254 9.39981 2.93774 10.4505C3.37295 11.5012 4.10994 12.3992 5.05552 13.031Z" stroke="#6C708A"/>
</g>
</svg>
