<svg width="18" height="19" viewBox="0 0 18 19" fill="none" xmlns="http://www.w3.org/2000/svg">
<path d="M16.5 16.4375C16.5 16.745 16.245 17 15.9375 17H2.0625C1.755 17 1.5 16.745 1.5 16.4375C1.5 16.13 1.755 15.875 2.0625 15.875H15.9375C16.245 15.875 16.5 16.13 16.5 16.4375Z" fill="white"/>
<path d="M11.5406 3.89031L3.48563 11.9453C3.17813 12.2528 2.68313 12.2528 2.38313 11.9453H2.37563C1.33312 10.8953 1.33312 9.20031 2.37563 8.15781L7.73812 2.79531C8.78813 1.74531 10.4831 1.74531 11.5331 2.79531C11.8406 3.08781 11.8406 3.59031 11.5406 3.89031Z" fill="white"/>
<path d="M15.6131 6.86773L13.3256 4.58023C13.0181 4.27273 12.5231 4.27273 12.2231 4.58023L4.16813 12.6352C3.86062 12.9352 3.86062 13.4302 4.16813 13.7377L6.45562 16.0327C7.50563 17.0752 9.20063 17.0752 10.2506 16.0327L15.6056 10.6702C16.6706 9.62024 16.6706 7.91773 15.6131 6.86773ZM9.56813 13.6402L8.66063 14.5552C8.47313 14.7427 8.16563 14.7427 7.97063 14.5552C7.78313 14.3677 7.78313 14.0602 7.97063 13.8652L8.88563 12.9502C9.06563 12.7702 9.38063 12.7702 9.56813 12.9502C9.75563 13.1377 9.75563 13.4602 9.56813 13.6402ZM12.5456 10.6627L10.7156 12.5002C10.5281 12.6802 10.2206 12.6802 10.0256 12.5002C9.83813 12.3127 9.83813 12.0052 10.0256 11.8102L11.8631 9.97273C12.0431 9.79273 12.3581 9.79273 12.5456 9.97273C12.7331 10.1677 12.7331 10.4752 12.5456 10.6627Z" fill="white"/>
</svg>
