<svg width="19" height="18" viewBox="0 0 19 18" fill="none" xmlns="http://www.w3.org/2000/svg">
<path fill-rule="evenodd" clip-rule="evenodd" d="M9.66675 15C12.9805 15 15.6667 12.3137 15.6667 9C15.6667 5.68629 12.9805 3 9.66675 3C6.35304 3 3.66675 5.68629 3.66675 9C3.66675 12.3137 6.35304 15 9.66675 15ZM9.66675 16.5C13.8089 16.5 17.1667 13.1421 17.1667 9C17.1667 4.85786 13.8089 1.5 9.66675 1.5C5.52461 1.5 2.16675 4.85786 2.16675 9C2.16675 13.1421 5.52461 16.5 9.66675 16.5Z" fill="#56607A"/>
<path fill-rule="evenodd" clip-rule="evenodd" d="M9.66675 5.25C9.25253 5.25 8.91675 5.58579 8.91675 6C8.91675 6.41421 9.25253 6.75 9.66675 6.75C10.081 6.75 10.4167 6.41421 10.4167 6C10.4167 5.58579 10.081 5.25 9.66675 5.25ZM9.66675 8.25C9.25253 8.25 8.91675 8.58579 8.91675 9V12C8.91675 12.4142 9.25253 12.75 9.66675 12.75C10.081 12.75 10.4167 12.4142 10.4167 12V9C10.4167 8.58579 10.081 8.25 9.66675 8.25Z" fill="#56607A"/>
</svg>
