<svg width="56" height="56" viewBox="0 0 56 56" fill="none" xmlns="http://www.w3.org/2000/svg">
<path d="M26.3445 1.98291C31.8724 1.98291 35.6498 2.90489 39.243 4.61054C39.4987 4.68649 39.7348 4.81707 39.9351 4.99326C40.1354 5.16945 40.2951 5.38706 40.4032 5.63104C40.5113 5.87503 40.5651 6.13959 40.5611 6.40644C40.557 6.67329 40.4951 6.93608 40.3796 7.17665C40.2641 7.41722 40.0978 7.62984 39.8922 7.79982C39.6866 7.9698 39.4466 8.0931 39.1887 8.16119C38.9309 8.22928 38.6613 8.24054 38.3987 8.1942C38.136 8.14786 37.8866 8.04502 37.6675 7.89278C33.4583 5.83948 28.7106 5.16214 24.0957 5.95654C19.4809 6.75094 15.2322 8.97687 11.9506 12.3196C8.66892 15.6624 6.52028 19.9528 5.80843 24.5844C5.09658 29.2159 5.85755 33.9542 7.98373 38.1293C10.1099 42.3044 13.4938 45.7051 17.6568 47.8505C21.8199 49.9959 26.5515 50.7776 31.1828 50.085C35.814 49.3923 40.1105 47.2605 43.4648 43.9907C46.8192 40.721 49.0616 36.4789 49.8751 31.8642C50.0828 30.3511 50.2028 28.8273 50.2344 27.3004C50.2314 26.8787 50.3695 26.4681 50.6266 26.134C50.8837 25.7998 51.245 25.5613 51.6532 25.4564C52.0428 25.3625 52.4526 25.4024 52.8169 25.5696C53.1811 25.7368 53.4787 26.0216 53.6617 26.3784C53.7829 26.6325 53.8518 26.9084 53.8644 27.1897C53.9864 30.5676 53.4386 33.9363 52.2526 37.1012C51.0666 40.2661 49.2659 43.1646 46.9545 45.6293C42.7964 50.2068 37.12 53.1191 30.9787 53.8256C25.1084 54.5091 19.1806 53.1702 14.1728 50.0295C9.16509 46.8889 5.37647 42.1341 3.43178 36.5494C1.48708 30.9646 1.50244 24.8834 3.47532 19.3085C5.44821 13.7337 9.26079 8.99814 14.2843 5.88287C17.8872 3.53476 22.0498 2.18869 26.3445 1.98291Z" fill="#11AF50"/>
<path d="M27.4628 31.8919L34.1147 25.3735C39.6427 19.9523 45.1491 14.5311 50.6341 9.10985C50.8875 8.81339 51.2249 8.6009 51.6016 8.50048C51.9784 8.40005 52.3767 8.41643 52.7439 8.54745C53.0639 8.64514 53.347 8.83744 53.5558 9.09907C53.7646 9.36071 53.8895 9.67944 53.914 10.0134C53.9444 10.335 53.8946 10.6591 53.7692 10.9567C53.6438 11.2544 53.4466 11.5163 53.1953 11.719C50.0321 14.7923 46.8812 17.8901 43.7426 21.0126L29.158 35.3216L28.8356 35.6351C28.6626 35.8313 28.45 35.9885 28.2117 36.0961C27.9734 36.2037 27.715 36.2594 27.4536 36.2594C27.1922 36.2594 26.9337 36.2037 26.6954 36.0961C26.4572 35.9885 26.2445 35.8313 26.0716 35.6351L16.9321 26.6643L14.6656 24.4331C14.4656 24.2742 14.3009 24.0755 14.1817 23.8495C14.0625 23.6235 13.9916 23.3752 13.9734 23.1204C13.9552 22.8655 13.9902 22.6096 14.076 22.369C14.1619 22.1284 14.2968 21.9082 14.4721 21.7225C14.6588 21.5424 14.8805 21.4025 15.1233 21.3114C15.3661 21.2204 15.625 21.1801 15.884 21.1931C16.143 21.206 16.3966 21.272 16.6292 21.3868C16.8617 21.5016 17.0683 21.663 17.2361 21.8608L27.0113 31.4862L27.4628 31.8919Z" fill="#11AF50"/>
</svg>
