<svg width="90" height="90" viewBox="0 0 90 90" fill="none" xmlns="http://www.w3.org/2000/svg">
<path d="M33.75 82.5H56.25C75 82.5 82.5 75 82.5 56.25V33.75C82.5 15 75 7.5 56.25 7.5H33.75C15 7.5 7.5 15 7.5 33.75V56.25C7.5 75 15 82.5 33.75 82.5Z" stroke="#1E6FD9" stroke-width="4" stroke-linecap="round" stroke-linejoin="round"/>
<path d="M33.75 37.5C37.8921 37.5 41.25 34.1421 41.25 30C41.25 25.8579 37.8921 22.5 33.75 22.5C29.6079 22.5 26.25 25.8579 26.25 30C26.25 34.1421 29.6079 37.5 33.75 37.5Z" stroke="#1E6FD9" stroke-width="4" stroke-linecap="round" stroke-linejoin="round"/>
<path d="M10.0125 71.0621L28.5 58.6496C31.4625 56.6621 35.7375 56.8871 38.4 59.1746L39.6375 60.2621C42.5625 62.7746 47.2875 62.7746 50.2125 60.2621L65.8125 46.8746C68.7375 44.3621 73.4625 44.3621 76.3875 46.8746L82.5 52.1246" stroke="#1E6FD9" stroke-width="4" stroke-linecap="round" stroke-linejoin="round"/>
</svg>
