<svg width="18" height="18" viewBox="0 0 18 18" fill="none" xmlns="http://www.w3.org/2000/svg">
<path d="M8.5122 0.666016H9.48916C9.53054 0.67758 9.5726 0.68659 9.6151 0.692996C10.9024 0.773893 12.1505 1.16749 13.2513 1.83967C15.4103 3.16261 16.739 5.07014 17.2095 7.56494C17.2679 7.87701 17.2994 8.19448 17.339 8.51015V9.48685C17.3291 9.54441 17.3174 9.60197 17.3093 9.65952C17.2571 10.0193 17.2275 10.379 17.1501 10.7387C16.7156 12.7398 15.6874 14.3802 14.0573 15.615C12.0287 17.1502 9.74464 17.6602 7.25457 17.1439C5.25567 16.7221 3.6364 15.6771 2.39676 14.0663C1.05816 12.3261 0.501316 10.3448 0.710921 8.1648C0.86747 6.43341 1.58076 4.79928 2.744 3.50707C3.9876 2.07138 5.69193 1.11278 7.56492 0.795522C7.87798 0.739762 8.19644 0.708285 8.5122 0.666016ZM14.8228 9.00929C14.8031 5.8157 12.2788 3.19409 9.01147 3.1842C8.24772 3.18278 7.49117 3.33177 6.78501 3.62266C6.07885 3.91354 5.43692 4.34063 4.89587 4.87954C4.35481 5.41844 3.92523 6.05861 3.63164 6.76349C3.33806 7.46838 3.18622 8.22416 3.1848 8.98771C3.18339 9.75126 3.33241 10.5076 3.62338 11.2136C3.91434 11.9195 4.34155 12.5613 4.8806 13.1022C5.41965 13.6431 6.05999 14.0726 6.76506 14.3661C7.47014 14.6596 8.22613 14.8114 8.98988 14.8128C12.1825 14.8227 14.7842 12.2748 14.8228 9.00929ZM2.57128 9.63884V8.36356H1.29746V9.63974L2.57128 9.63884ZM9.6115 2.60232V1.32704H8.34037V2.60232H9.6115ZM8.34127 15.3947V16.6745H9.6097V15.3947H8.34127ZM4.01333 4.89926L4.89583 4.017L4.04122 3.16531L3.15962 4.04308L4.01333 4.89926ZM13.0992 4.02509L13.9673 4.89296L14.8381 4.017L13.9754 3.15632L13.0992 4.02509ZM4.02412 13.0959L3.15602 13.9683L4.02143 14.8434L4.90123 13.9764L4.02412 13.0959ZM13.0884 13.9611L13.9628 14.8308L14.8399 13.9791L13.9565 13.0923L13.0884 13.9611ZM16.6481 9.63704V8.35996H15.3815V9.63704H16.6481Z" fill="white"/>
<path d="M13.7456 8.9924C13.7249 11.6068 11.6612 13.7302 9.0065 13.7356C7.76951 13.7075 6.59255 13.1969 5.72711 12.3128C4.86168 11.4288 4.37641 10.2414 4.375 9.00442C4.37359 7.76743 4.85615 6.57895 5.71957 5.69293C6.58298 4.80691 7.75878 4.29361 8.99571 4.26271C11.6108 4.25552 13.7123 6.33931 13.7456 8.9924ZM9.17203 10.7281C9.2314 10.774 9.25659 10.7911 9.27908 10.8109C9.91869 11.3631 10.9937 11.1769 11.3742 10.4215C11.7017 9.77214 11.6441 9.10572 11.2069 8.53283C10.8471 8.07326 10.4108 7.67845 9.99156 7.27374C9.6794 6.96886 9.34205 6.68916 9.0101 6.39328C8.91115 6.47782 8.82209 6.54796 8.74022 6.62531C8.17348 7.15503 7.60134 7.68025 7.04539 8.21986C6.82173 8.43099 6.65162 8.69238 6.54915 8.98234C6.44667 9.27231 6.4148 9.58252 6.45615 9.88726C6.54611 10.7587 7.29728 11.2363 8.08802 11.132C8.36689 11.0942 8.58999 10.9458 8.82299 10.729C8.73303 11.06 8.65116 11.3496 8.5684 11.65H9.42571C9.34295 11.346 9.26289 11.0564 9.17203 10.7281Z" fill="white"/>
</svg>
