<svg xmlns="http://www.w3.org/2000/svg" width="18" height="18" viewBox="0 0 18 18" fill="none">
<path d="M15.2698 9.54768C14.9923 9.54768 14.7598 9.33768 14.7298 9.06018C14.5498 7.41018 13.6648 5.92518 12.2998 4.98018C12.0523 4.80768 11.9923 4.47018 12.1648 4.22268C12.3373 3.97518 12.6748 3.91518 12.9223 4.08768C14.5498 5.22018 15.5998 6.99018 15.8173 8.94768C15.8473 9.24768 15.6298 9.51768 15.3298 9.54768C15.3073 9.54768 15.2923 9.54768 15.2698 9.54768Z" fill="white"/>
<mask id="path-2-inside-1_2360_20349" fill="white">
<path d="M2.80448 9.58491C2.78948 9.58491 2.76698 9.58491 2.75198 9.58491C2.45198 9.55491 2.23448 9.28491 2.26448 8.98491C2.46698 7.02741 3.50198 5.25741 5.11448 4.11741C5.35448 3.94491 5.69948 4.00491 5.87198 4.24491C6.04448 4.49241 5.98448 4.82991 5.74448 5.00241C4.39448 5.96241 3.51698 7.44741 3.35198 9.08991C3.32198 9.37491 3.08198 9.58491 2.80448 9.58491Z"/>
</mask>
<path d="M2.75198 9.58491L2.60273 11.0775L2.67717 11.0849H2.75198V9.58491ZM2.26448 8.98491L0.772438 8.83056L0.771928 8.83565L2.26448 8.98491ZM5.11448 4.11741L5.98043 5.34226L5.98994 5.33543L5.11448 4.11741ZM5.87198 4.24491L7.10258 3.38722L7.09636 3.37829L7.09001 3.36945L5.87198 4.24491ZM5.74448 5.00241L6.61378 6.22486L6.61994 6.22043L5.74448 5.00241ZM3.35198 9.08991L4.84376 9.24694L4.84447 9.23984L3.35198 9.08991ZM2.80448 8.08491C2.80445 8.08491 2.80443 8.08491 2.8044 8.08491C2.80437 8.08491 2.80434 8.08491 2.80431 8.08491C2.80428 8.08491 2.80425 8.08491 2.80422 8.08491C2.80419 8.08491 2.80416 8.08491 2.80413 8.08491C2.8041 8.08491 2.80407 8.08491 2.80404 8.08491C2.80401 8.08491 2.80398 8.08491 2.80395 8.08491C2.80392 8.08491 2.80389 8.08491 2.80386 8.08491C2.80383 8.08491 2.80381 8.08491 2.80378 8.08491C2.80375 8.08491 2.80372 8.08491 2.80369 8.08491C2.80366 8.08491 2.80363 8.08491 2.8036 8.08491C2.80357 8.08491 2.80354 8.08491 2.80351 8.08491C2.80348 8.08491 2.80345 8.08491 2.80342 8.08491C2.80339 8.08491 2.80336 8.08491 2.80333 8.08491C2.8033 8.08491 2.80327 8.08491 2.80324 8.08491C2.80321 8.08491 2.80318 8.08491 2.80315 8.08491C2.80312 8.08491 2.80309 8.08491 2.80306 8.08491C2.80303 8.08491 2.803 8.08491 2.80297 8.08491C2.80294 8.08491 2.80291 8.08491 2.80287 8.08491C2.80284 8.08491 2.80281 8.08491 2.80278 8.08491C2.80275 8.08491 2.80272 8.08491 2.80269 8.08491C2.80266 8.08491 2.80263 8.08491 2.8026 8.08491C2.80257 8.08491 2.80254 8.08491 2.80251 8.08491C2.80248 8.08491 2.80245 8.08491 2.80242 8.08491C2.80239 8.08491 2.80236 8.08491 2.80233 8.08491C2.8023 8.08491 2.80227 8.08491 2.80223 8.08491C2.8022 8.08491 2.80217 8.08491 2.80214 8.08491C2.80211 8.08491 2.80208 8.08491 2.80205 8.08491C2.80202 8.08491 2.80199 8.08491 2.80196 8.08491C2.80193 8.08491 2.8019 8.08491 2.80187 8.08491C2.80183 8.08491 2.8018 8.08491 2.80177 8.08491C2.80174 8.08491 2.80171 8.08491 2.80168 8.08491C2.80165 8.08491 2.80162 8.08491 2.80159 8.08491C2.80156 8.08491 2.80153 8.08491 2.80149 8.08491C2.80146 8.08491 2.80143 8.08491 2.8014 8.08491C2.80137 8.08491 2.80134 8.08491 2.80131 8.08491C2.80128 8.08491 2.80125 8.08491 2.80121 8.08491C2.80118 8.08491 2.80115 8.08491 2.80112 8.08491C2.80109 8.08491 2.80106 8.08491 2.80103 8.08491C2.80099 8.08491 2.80096 8.08491 2.80093 8.08491C2.8009 8.08491 2.80087 8.08491 2.80084 8.08491C2.80081 8.08491 2.80078 8.08491 2.80074 8.08491C2.80071 8.08491 2.80068 8.08491 2.80065 8.08491C2.80062 8.08491 2.80059 8.08491 2.80055 8.08491C2.80052 8.08491 2.80049 8.08491 2.80046 8.08491C2.80043 8.08491 2.8004 8.08491 2.80037 8.08491C2.80033 8.08491 2.8003 8.08491 2.80027 8.08491C2.80024 8.08491 2.80021 8.08491 2.80018 8.08491C2.80014 8.08491 2.80011 8.08491 2.80008 8.08491C2.80005 8.08491 2.80002 8.08491 2.79998 8.08491C2.79995 8.08491 2.79992 8.08491 2.79989 8.08491C2.79986 8.08491 2.79983 8.08491 2.79979 8.08491C2.79976 8.08491 2.79973 8.08491 2.7997 8.08491C2.79967 8.08491 2.79963 8.08491 2.7996 8.08491C2.79957 8.08491 2.79954 8.08491 2.79951 8.08491C2.79947 8.08491 2.79944 8.08491 2.79941 8.08491C2.79938 8.08491 2.79934 8.08491 2.79931 8.08491C2.79928 8.08491 2.79925 8.08491 2.79922 8.08491C2.79918 8.08491 2.79915 8.08491 2.79912 8.08491C2.79909 8.08491 2.79905 8.08491 2.79902 8.08491C2.79899 8.08491 2.79896 8.08491 2.79893 8.08491C2.79889 8.08491 2.79886 8.08491 2.79883 8.08491C2.7988 8.08491 2.79876 8.08491 2.79873 8.08491C2.7987 8.08491 2.79867 8.08491 2.79863 8.08491C2.7986 8.08491 2.79857 8.08491 2.79854 8.08491C2.7985 8.08491 2.79847 8.08491 2.79844 8.08491C2.79841 8.08491 2.79837 8.08491 2.79834 8.08491C2.79831 8.08491 2.79828 8.08491 2.79824 8.08491C2.79821 8.08491 2.79818 8.08491 2.79815 8.08491C2.79811 8.08491 2.79808 8.08491 2.79805 8.08491C2.79801 8.08491 2.79798 8.08491 2.79795 8.08491C2.79792 8.08491 2.79788 8.08491 2.79785 8.08491C2.79782 8.08491 2.79779 8.08491 2.79775 8.08491C2.79772 8.08491 2.79769 8.08491 2.79765 8.08491C2.79762 8.08491 2.79759 8.08491 2.79756 8.08491C2.79752 8.08491 2.79749 8.08491 2.79746 8.08491C2.79742 8.08491 2.79739 8.08491 2.79736 8.08491C2.79732 8.08491 2.79729 8.08491 2.79726 8.08491C2.79723 8.08491 2.79719 8.08491 2.79716 8.08491C2.79713 8.08491 2.79709 8.08491 2.79706 8.08491C2.79703 8.08491 2.79699 8.08491 2.79696 8.08491C2.79693 8.08491 2.79689 8.08491 2.79686 8.08491C2.79683 8.08491 2.79679 8.08491 2.79676 8.08491C2.79673 8.08491 2.79669 8.08491 2.79666 8.08491C2.79663 8.08491 2.7966 8.08491 2.79656 8.08491C2.79653 8.08491 2.7965 8.08491 2.79646 8.08491C2.79643 8.08491 2.7964 8.08491 2.79636 8.08491C2.79633 8.08491 2.79629 8.08491 2.79626 8.08491C2.79623 8.08491 2.79619 8.08491 2.79616 8.08491C2.79613 8.08491 2.79609 8.08491 2.79606 8.08491C2.79603 8.08491 2.79599 8.08491 2.79596 8.08491C2.79593 8.08491 2.79589 8.08491 2.79586 8.08491C2.79583 8.08491 2.79579 8.08491 2.79576 8.08491C2.79572 8.08491 2.79569 8.08491 2.79566 8.08491C2.79562 8.08491 2.79559 8.08491 2.79556 8.08491C2.79552 8.08491 2.79549 8.08491 2.79546 8.08491C2.79542 8.08491 2.79539 8.08491 2.79535 8.08491C2.79532 8.08491 2.79529 8.08491 2.79525 8.08491C2.79522 8.08491 2.79519 8.08491 2.79515 8.08491C2.79512 8.08491 2.79508 8.08491 2.79505 8.08491C2.79502 8.08491 2.79498 8.08491 2.79495 8.08491C2.79491 8.08491 2.79488 8.08491 2.79485 8.08491C2.79481 8.08491 2.79478 8.08491 2.79474 8.08491C2.79471 8.08491 2.79468 8.08491 2.79464 8.08491C2.79461 8.08491 2.79457 8.08491 2.79454 8.08491C2.79451 8.08491 2.79447 8.08491 2.79444 8.08491C2.7944 8.08491 2.79437 8.08491 2.79434 8.08491C2.7943 8.08491 2.79427 8.08491 2.79423 8.08491C2.7942 8.08491 2.79417 8.08491 2.79413 8.08491C2.7941 8.08491 2.79406 8.08491 2.79403 8.08491C2.79399 8.08491 2.79396 8.08491 2.79393 8.08491C2.79389 8.08491 2.79386 8.08491 2.79382 8.08491C2.79379 8.08491 2.79375 8.08491 2.79372 8.08491C2.79369 8.08491 2.79365 8.08491 2.79362 8.08491C2.79358 8.08491 2.79355 8.08491 2.79351 8.08491C2.79348 8.08491 2.79345 8.08491 2.79341 8.08491C2.79338 8.08491 2.79334 8.08491 2.79331 8.08491C2.79327 8.08491 2.79324 8.08491 2.7932 8.08491C2.79317 8.08491 2.79314 8.08491 2.7931 8.08491C2.79307 8.08491 2.79303 8.08491 2.793 8.08491C2.79296 8.08491 2.79293 8.08491 2.79289 8.08491C2.79286 8.08491 2.79283 8.08491 2.79279 8.08491C2.79276 8.08491 2.79272 8.08491 2.79269 8.08491C2.79265 8.08491 2.79262 8.08491 2.79258 8.08491C2.79255 8.08491 2.79251 8.08491 2.79248 8.08491C2.79244 8.08491 2.79241 8.08491 2.79237 8.08491C2.79234 8.08491 2.79231 8.08491 2.79227 8.08491C2.79224 8.08491 2.7922 8.08491 2.79217 8.08491C2.79213 8.08491 2.7921 8.08491 2.79206 8.08491C2.79203 8.08491 2.79199 8.08491 2.79196 8.08491C2.79192 8.08491 2.79189 8.08491 2.79185 8.08491C2.79182 8.08491 2.79178 8.08491 2.79175 8.08491C2.79171 8.08491 2.79168 8.08491 2.79164 8.08491C2.79161 8.08491 2.79157 8.08491 2.79154 8.08491C2.7915 8.08491 2.79147 8.08491 2.79143 8.08491C2.7914 8.08491 2.79136 8.08491 2.79133 8.08491C2.79129 8.08491 2.79126 8.08491 2.79122 8.08491C2.79119 8.08491 2.79115 8.08491 2.79112 8.08491C2.79108 8.08491 2.79105 8.08491 2.79101 8.08491C2.79098 8.08491 2.79094 8.08491 2.79091 8.08491C2.79087 8.08491 2.79084 8.08491 2.7908 8.08491C2.79077 8.08491 2.79073 8.08491 2.7907 8.08491C2.79066 8.08491 2.79063 8.08491 2.79059 8.08491C2.79056 8.08491 2.79052 8.08491 2.79049 8.08491C2.79045 8.08491 2.79042 8.08491 2.79038 8.08491C2.79035 8.08491 2.79031 8.08491 2.79028 8.08491C2.79024 8.08491 2.79021 8.08491 2.79017 8.08491C2.79013 8.08491 2.7901 8.08491 2.79006 8.08491C2.79003 8.08491 2.78999 8.08491 2.78996 8.08491C2.78992 8.08491 2.78989 8.08491 2.78985 8.08491C2.78982 8.08491 2.78978 8.08491 2.78975 8.08491C2.78971 8.08491 2.78968 8.08491 2.78964 8.08491C2.7896 8.08491 2.78957 8.08491 2.78953 8.08491C2.7895 8.08491 2.78946 8.08491 2.78943 8.08491C2.78939 8.08491 2.78936 8.08491 2.78932 8.08491C2.78929 8.08491 2.78925 8.08491 2.78922 8.08491C2.78918 8.08491 2.78914 8.08491 2.78911 8.08491C2.78907 8.08491 2.78904 8.08491 2.789 8.08491C2.78897 8.08491 2.78893 8.08491 2.7889 8.08491C2.78886 8.08491 2.78882 8.08491 2.78879 8.08491C2.78875 8.08491 2.78872 8.08491 2.78868 8.08491C2.78865 8.08491 2.78861 8.08491 2.78858 8.08491C2.78854 8.08491 2.7885 8.08491 2.78847 8.08491C2.78843 8.08491 2.7884 8.08491 2.78836 8.08491C2.78833 8.08491 2.78829 8.08491 2.78825 8.08491C2.78822 8.08491 2.78818 8.08491 2.78815 8.08491C2.78811 8.08491 2.78808 8.08491 2.78804 8.08491C2.788 8.08491 2.78797 8.08491 2.78793 8.08491C2.7879 8.08491 2.78786 8.08491 2.78783 8.08491C2.78779 8.08491 2.78775 8.08491 2.78772 8.08491C2.78768 8.08491 2.78765 8.08491 2.78761 8.08491C2.78758 8.08491 2.78754 8.08491 2.7875 8.08491C2.78747 8.08491 2.78743 8.08491 2.7874 8.08491C2.78736 8.08491 2.78732 8.08491 2.78729 8.08491C2.78725 8.08491 2.78722 8.08491 2.78718 8.08491C2.78715 8.08491 2.78711 8.08491 2.78707 8.08491C2.78704 8.08491 2.787 8.08491 2.78697 8.08491C2.78693 8.08491 2.78689 8.08491 2.78686 8.08491C2.78682 8.08491 2.78679 8.08491 2.78675 8.08491C2.78671 8.08491 2.78668 8.08491 2.78664 8.08491C2.78661 8.08491 2.78657 8.08491 2.78653 8.08491C2.7865 8.08491 2.78646 8.08491 2.78643 8.08491C2.78639 8.08491 2.78635 8.08491 2.78632 8.08491C2.78628 8.08491 2.78625 8.08491 2.78621 8.08491C2.78617 8.08491 2.78614 8.08491 2.7861 8.08491C2.78607 8.08491 2.78603 8.08491 2.78599 8.08491C2.78596 8.08491 2.78592 8.08491 2.78589 8.08491C2.78585 8.08491 2.78581 8.08491 2.78578 8.08491C2.78574 8.08491 2.78571 8.08491 2.78567 8.08491C2.78563 8.08491 2.7856 8.08491 2.78556 8.08491C2.78553 8.08491 2.78549 8.08491 2.78545 8.08491C2.78542 8.08491 2.78538 8.08491 2.78534 8.08491C2.78531 8.08491 2.78527 8.08491 2.78524 8.08491C2.7852 8.08491 2.78516 8.08491 2.78513 8.08491C2.78509 8.08491 2.78506 8.08491 2.78502 8.08491C2.78498 8.08491 2.78495 8.08491 2.78491 8.08491C2.78487 8.08491 2.78484 8.08491 2.7848 8.08491C2.78477 8.08491 2.78473 8.08491 2.78469 8.08491C2.78466 8.08491 2.78462 8.08491 2.78458 8.08491C2.78455 8.08491 2.78451 8.08491 2.78448 8.08491C2.78444 8.08491 2.7844 8.08491 2.78437 8.08491C2.78433 8.08491 2.78429 8.08491 2.78426 8.08491C2.78422 8.08491 2.78419 8.08491 2.78415 8.08491C2.78411 8.08491 2.78408 8.08491 2.78404 8.08491C2.784 8.08491 2.78397 8.08491 2.78393 8.08491C2.78389 8.08491 2.78386 8.08491 2.78382 8.08491C2.78379 8.08491 2.78375 8.08491 2.78371 8.08491C2.78368 8.08491 2.78364 8.08491 2.7836 8.08491C2.78357 8.08491 2.78353 8.08491 2.7835 8.08491C2.78346 8.08491 2.78342 8.08491 2.78339 8.08491C2.78335 8.08491 2.78331 8.08491 2.78328 8.08491C2.78324 8.08491 2.7832 8.08491 2.78317 8.08491C2.78313 8.08491 2.78309 8.08491 2.78306 8.08491C2.78302 8.08491 2.78299 8.08491 2.78295 8.08491C2.78291 8.08491 2.78288 8.08491 2.78284 8.08491C2.7828 8.08491 2.78277 8.08491 2.78273 8.08491C2.78269 8.08491 2.78266 8.08491 2.78262 8.08491C2.78258 8.08491 2.78255 8.08491 2.78251 8.08491C2.78248 8.08491 2.78244 8.08491 2.7824 8.08491C2.78237 8.08491 2.78233 8.08491 2.78229 8.08491C2.78226 8.08491 2.78222 8.08491 2.78218 8.08491C2.78215 8.08491 2.78211 8.08491 2.78207 8.08491C2.78204 8.08491 2.782 8.08491 2.78196 8.08491C2.78193 8.08491 2.78189 8.08491 2.78186 8.08491C2.78182 8.08491 2.78178 8.08491 2.78175 8.08491C2.78171 8.08491 2.78167 8.08491 2.78164 8.08491C2.7816 8.08491 2.78156 8.08491 2.78153 8.08491C2.78149 8.08491 2.78145 8.08491 2.78142 8.08491C2.78138 8.08491 2.78134 8.08491 2.78131 8.08491C2.78127 8.08491 2.78123 8.08491 2.7812 8.08491C2.78116 8.08491 2.78113 8.08491 2.78109 8.08491C2.78105 8.08491 2.78102 8.08491 2.78098 8.08491C2.78094 8.08491 2.78091 8.08491 2.78087 8.08491C2.78083 8.08491 2.7808 8.08491 2.78076 8.08491C2.78072 8.08491 2.78069 8.08491 2.78065 8.08491C2.78061 8.08491 2.78058 8.08491 2.78054 8.08491C2.7805 8.08491 2.78047 8.08491 2.78043 8.08491C2.78039 8.08491 2.78036 8.08491 2.78032 8.08491C2.78028 8.08491 2.78025 8.08491 2.78021 8.08491C2.78017 8.08491 2.78014 8.08491 2.7801 8.08491C2.78006 8.08491 2.78003 8.08491 2.77999 8.08491C2.77995 8.08491 2.77992 8.08491 2.77988 8.08491C2.77984 8.08491 2.77981 8.08491 2.77977 8.08491C2.77974 8.08491 2.7797 8.08491 2.77966 8.08491C2.77963 8.08491 2.77959 8.08491 2.77955 8.08491C2.77952 8.08491 2.77948 8.08491 2.77944 8.08491C2.77941 8.08491 2.77937 8.08491 2.77933 8.08491C2.7793 8.08491 2.77926 8.08491 2.77922 8.08491C2.77919 8.08491 2.77915 8.08491 2.77911 8.08491C2.77908 8.08491 2.77904 8.08491 2.779 8.08491C2.77897 8.08491 2.77893 8.08491 2.77889 8.08491C2.77886 8.08491 2.77882 8.08491 2.77878 8.08491C2.77875 8.08491 2.77871 8.08491 2.77867 8.08491C2.77864 8.08491 2.7786 8.08491 2.77856 8.08491C2.77853 8.08491 2.77849 8.08491 2.77845 8.08491C2.77842 8.08491 2.77838 8.08491 2.77834 8.08491C2.77831 8.08491 2.77827 8.08491 2.77823 8.08491C2.7782 8.08491 2.77816 8.08491 2.77812 8.08491C2.77809 8.08491 2.77805 8.08491 2.77801 8.08491C2.77798 8.08491 2.77794 8.08491 2.7779 8.08491C2.77787 8.08491 2.77783 8.08491 2.77779 8.08491C2.77776 8.08491 2.77772 8.08491 2.77768 8.08491C2.77765 8.08491 2.77761 8.08491 2.77757 8.08491C2.77754 8.08491 2.7775 8.08491 2.77746 8.08491C2.77743 8.08491 2.77739 8.08491 2.77736 8.08491C2.77732 8.08491 2.77728 8.08491 2.77725 8.08491C2.77721 8.08491 2.77717 8.08491 2.77714 8.08491C2.7771 8.08491 2.77706 8.08491 2.77703 8.08491C2.77699 8.08491 2.77695 8.08491 2.77692 8.08491C2.77688 8.08491 2.77684 8.08491 2.77681 8.08491C2.77677 8.08491 2.77673 8.08491 2.7767 8.08491C2.77666 8.08491 2.77662 8.08491 2.77659 8.08491C2.77655 8.08491 2.77651 8.08491 2.77648 8.08491C2.77644 8.08491 2.7764 8.08491 2.77637 8.08491C2.77633 8.08491 2.77629 8.08491 2.77626 8.08491C2.77622 8.08491 2.77618 8.08491 2.77615 8.08491C2.77611 8.08491 2.77607 8.08491 2.77604 8.08491C2.776 8.08491 2.77596 8.08491 2.77593 8.08491C2.77589 8.08491 2.77585 8.08491 2.77582 8.08491C2.77578 8.08491 2.77575 8.08491 2.77571 8.08491C2.77567 8.08491 2.77564 8.08491 2.7756 8.08491C2.77556 8.08491 2.77553 8.08491 2.77549 8.08491C2.77545 8.08491 2.77542 8.08491 2.77538 8.08491C2.77534 8.08491 2.77531 8.08491 2.77527 8.08491C2.77523 8.08491 2.7752 8.08491 2.77516 8.08491C2.77512 8.08491 2.77509 8.08491 2.77505 8.08491C2.77501 8.08491 2.77498 8.08491 2.77494 8.08491C2.7749 8.08491 2.77487 8.08491 2.77483 8.08491C2.7748 8.08491 2.77476 8.08491 2.77472 8.08491C2.77469 8.08491 2.77465 8.08491 2.77461 8.08491C2.77458 8.08491 2.77454 8.08491 2.7745 8.08491C2.77447 8.08491 2.77443 8.08491 2.77439 8.08491C2.77436 8.08491 2.77432 8.08491 2.77428 8.08491C2.77425 8.08491 2.77421 8.08491 2.77417 8.08491C2.77414 8.08491 2.7741 8.08491 2.77407 8.08491C2.77403 8.08491 2.77399 8.08491 2.77396 8.08491C2.77392 8.08491 2.77388 8.08491 2.77385 8.08491C2.77381 8.08491 2.77377 8.08491 2.77374 8.08491C2.7737 8.08491 2.77366 8.08491 2.77363 8.08491C2.77359 8.08491 2.77356 8.08491 2.77352 8.08491C2.77348 8.08491 2.77345 8.08491 2.77341 8.08491C2.77337 8.08491 2.77334 8.08491 2.7733 8.08491C2.77326 8.08491 2.77323 8.08491 2.77319 8.08491C2.77315 8.08491 2.77312 8.08491 2.77308 8.08491C2.77305 8.08491 2.77301 8.08491 2.77297 8.08491C2.77294 8.08491 2.7729 8.08491 2.77286 8.08491C2.77283 8.08491 2.77279 8.08491 2.77275 8.08491C2.77272 8.08491 2.77268 8.08491 2.77265 8.08491C2.77261 8.08491 2.77257 8.08491 2.77254 8.08491C2.7725 8.08491 2.77246 8.08491 2.77243 8.08491C2.77239 8.08491 2.77236 8.08491 2.77232 8.08491C2.77228 8.08491 2.77225 8.08491 2.77221 8.08491C2.77217 8.08491 2.77214 8.08491 2.7721 8.08491C2.77206 8.08491 2.77203 8.08491 2.77199 8.08491C2.77196 8.08491 2.77192 8.08491 2.77188 8.08491C2.77185 8.08491 2.77181 8.08491 2.77178 8.08491C2.77174 8.08491 2.7717 8.08491 2.77167 8.08491C2.77163 8.08491 2.77159 8.08491 2.77156 8.08491C2.77152 8.08491 2.77149 8.08491 2.77145 8.08491C2.77141 8.08491 2.77138 8.08491 2.77134 8.08491C2.7713 8.08491 2.77127 8.08491 2.77123 8.08491C2.7712 8.08491 2.77116 8.08491 2.77112 8.08491C2.77109 8.08491 2.77105 8.08491 2.77102 8.08491C2.77098 8.08491 2.77094 8.08491 2.77091 8.08491C2.77087 8.08491 2.77083 8.08491 2.7708 8.08491C2.77076 8.08491 2.77073 8.08491 2.77069 8.08491C2.77065 8.08491 2.77062 8.08491 2.77058 8.08491C2.77055 8.08491 2.77051 8.08491 2.77047 8.08491C2.77044 8.08491 2.7704 8.08491 2.77037 8.08491C2.77033 8.08491 2.77029 8.08491 2.77026 8.08491C2.77022 8.08491 2.77019 8.08491 2.77015 8.08491C2.77011 8.08491 2.77008 8.08491 2.77004 8.08491C2.77001 8.08491 2.76997 8.08491 2.76993 8.08491C2.7699 8.08491 2.76986 8.08491 2.76983 8.08491C2.76979 8.08491 2.76975 8.08491 2.76972 8.08491C2.76968 8.08491 2.76965 8.08491 2.76961 8.08491C2.76957 8.08491 2.76954 8.08491 2.7695 8.08491C2.76947 8.08491 2.76943 8.08491 2.76939 8.08491C2.76936 8.08491 2.76932 8.08491 2.76929 8.08491C2.76925 8.08491 2.76922 8.08491 2.76918 8.08491C2.76914 8.08491 2.76911 8.08491 2.76907 8.08491C2.76904 8.08491 2.769 8.08491 2.76896 8.08491C2.76893 8.08491 2.76889 8.08491 2.76886 8.08491C2.76882 8.08491 2.76879 8.08491 2.76875 8.08491C2.76871 8.08491 2.76868 8.08491 2.76864 8.08491C2.76861 8.08491 2.76857 8.08491 2.76853 8.08491C2.7685 8.08491 2.76846 8.08491 2.76843 8.08491C2.76839 8.08491 2.76836 8.08491 2.76832 8.08491C2.76828 8.08491 2.76825 8.08491 2.76821 8.08491C2.76818 8.08491 2.76814 8.08491 2.76811 8.08491C2.76807 8.08491 2.76804 8.08491 2.768 8.08491C2.76796 8.08491 2.76793 8.08491 2.76789 8.08491C2.76786 8.08491 2.76782 8.08491 2.76779 8.08491C2.76775 8.08491 2.76771 8.08491 2.76768 8.08491C2.76764 8.08491 2.76761 8.08491 2.76757 8.08491C2.76754 8.08491 2.7675 8.08491 2.76747 8.08491C2.76743 8.08491 2.76739 8.08491 2.76736 8.08491C2.76732 8.08491 2.76729 8.08491 2.76725 8.08491C2.76722 8.08491 2.76718 8.08491 2.76715 8.08491C2.76711 8.08491 2.76708 8.08491 2.76704 8.08491C2.767 8.08491 2.76697 8.08491 2.76693 8.08491C2.7669 8.08491 2.76686 8.08491 2.76683 8.08491C2.76679 8.08491 2.76676 8.08491 2.76672 8.08491C2.76669 8.08491 2.76665 8.08491 2.76662 8.08491C2.76658 8.08491 2.76654 8.08491 2.76651 8.08491C2.76647 8.08491 2.76644 8.08491 2.7664 8.08491C2.76637 8.08491 2.76633 8.08491 2.7663 8.08491C2.76626 8.08491 2.76623 8.08491 2.76619 8.08491C2.76616 8.08491 2.76612 8.08491 2.76609 8.08491C2.76605 8.08491 2.76602 8.08491 2.76598 8.08491C2.76595 8.08491 2.76591 8.08491 2.76588 8.08491C2.76584 8.08491 2.7658 8.08491 2.76577 8.08491C2.76573 8.08491 2.7657 8.08491 2.76566 8.08491C2.76563 8.08491 2.76559 8.08491 2.76556 8.08491C2.76552 8.08491 2.76549 8.08491 2.76545 8.08491C2.76542 8.08491 2.76538 8.08491 2.76535 8.08491C2.76531 8.08491 2.76528 8.08491 2.76524 8.08491C2.76521 8.08491 2.76517 8.08491 2.76514 8.08491C2.7651 8.08491 2.76507 8.08491 2.76503 8.08491C2.765 8.08491 2.76496 8.08491 2.76493 8.08491C2.76489 8.08491 2.76486 8.08491 2.76482 8.08491C2.76479 8.08491 2.76475 8.08491 2.76472 8.08491C2.76468 8.08491 2.76465 8.08491 2.76461 8.08491C2.76458 8.08491 2.76455 8.08491 2.76451 8.08491C2.76448 8.08491 2.76444 8.08491 2.76441 8.08491C2.76437 8.08491 2.76434 8.08491 2.7643 8.08491C2.76427 8.08491 2.76423 8.08491 2.7642 8.08491C2.76416 8.08491 2.76413 8.08491 2.76409 8.08491C2.76406 8.08491 2.76402 8.08491 2.76399 8.08491C2.76395 8.08491 2.76392 8.08491 2.76389 8.08491C2.76385 8.08491 2.76382 8.08491 2.76378 8.08491C2.76375 8.08491 2.76371 8.08491 2.76368 8.08491C2.76364 8.08491 2.76361 8.08491 2.76357 8.08491C2.76354 8.08491 2.7635 8.08491 2.76347 8.08491C2.76344 8.08491 2.7634 8.08491 2.76337 8.08491C2.76333 8.08491 2.7633 8.08491 2.76326 8.08491C2.76323 8.08491 2.76319 8.08491 2.76316 8.08491C2.76313 8.08491 2.76309 8.08491 2.76306 8.08491C2.76302 8.08491 2.76299 8.08491 2.76295 8.08491C2.76292 8.08491 2.76288 8.08491 2.76285 8.08491C2.76282 8.08491 2.76278 8.08491 2.76275 8.08491C2.76271 8.08491 2.76268 8.08491 2.76264 8.08491C2.76261 8.08491 2.76258 8.08491 2.76254 8.08491C2.76251 8.08491 2.76247 8.08491 2.76244 8.08491C2.7624 8.08491 2.76237 8.08491 2.76234 8.08491C2.7623 8.08491 2.76227 8.08491 2.76223 8.08491C2.7622 8.08491 2.76217 8.08491 2.76213 8.08491C2.7621 8.08491 2.76206 8.08491 2.76203 8.08491C2.762 8.08491 2.76196 8.08491 2.76193 8.08491C2.76189 8.08491 2.76186 8.08491 2.76183 8.08491C2.76179 8.08491 2.76176 8.08491 2.76172 8.08491C2.76169 8.08491 2.76166 8.08491 2.76162 8.08491C2.76159 8.08491 2.76155 8.08491 2.76152 8.08491C2.76149 8.08491 2.76145 8.08491 2.76142 8.08491C2.76138 8.08491 2.76135 8.08491 2.76132 8.08491C2.76128 8.08491 2.76125 8.08491 2.76121 8.08491C2.76118 8.08491 2.76115 8.08491 2.76111 8.08491C2.76108 8.08491 2.76105 8.08491 2.76101 8.08491C2.76098 8.08491 2.76094 8.08491 2.76091 8.08491C2.76088 8.08491 2.76084 8.08491 2.76081 8.08491C2.76078 8.08491 2.76074 8.08491 2.76071 8.08491C2.76068 8.08491 2.76064 8.08491 2.76061 8.08491C2.76057 8.08491 2.76054 8.08491 2.76051 8.08491C2.76047 8.08491 2.76044 8.08491 2.76041 8.08491C2.76037 8.08491 2.76034 8.08491 2.76031 8.08491C2.76027 8.08491 2.76024 8.08491 2.76021 8.08491C2.76017 8.08491 2.76014 8.08491 2.76011 8.08491C2.76007 8.08491 2.76004 8.08491 2.76001 8.08491C2.75997 8.08491 2.75994 8.08491 2.75991 8.08491C2.75987 8.08491 2.75984 8.08491 2.75981 8.08491C2.75977 8.08491 2.75974 8.08491 2.75971 8.08491C2.75967 8.08491 2.75964 8.08491 2.75961 8.08491C2.75957 8.08491 2.75954 8.08491 2.75951 8.08491C2.75947 8.08491 2.75944 8.08491 2.75941 8.08491C2.75937 8.08491 2.75934 8.08491 2.75931 8.08491C2.75928 8.08491 2.75924 8.08491 2.75921 8.08491C2.75918 8.08491 2.75914 8.08491 2.75911 8.08491C2.75908 8.08491 2.75904 8.08491 2.75901 8.08491C2.75898 8.08491 2.75895 8.08491 2.75891 8.08491C2.75888 8.08491 2.75885 8.08491 2.75881 8.08491C2.75878 8.08491 2.75875 8.08491 2.75872 8.08491C2.75868 8.08491 2.75865 8.08491 2.75862 8.08491C2.75858 8.08491 2.75855 8.08491 2.75852 8.08491C2.75849 8.08491 2.75845 8.08491 2.75842 8.08491C2.75839 8.08491 2.75835 8.08491 2.75832 8.08491C2.75829 8.08491 2.75826 8.08491 2.75822 8.08491C2.75819 8.08491 2.75816 8.08491 2.75813 8.08491C2.75809 8.08491 2.75806 8.08491 2.75803 8.08491C2.758 8.08491 2.75796 8.08491 2.75793 8.08491C2.7579 8.08491 2.75787 8.08491 2.75783 8.08491C2.7578 8.08491 2.75777 8.08491 2.75774 8.08491C2.7577 8.08491 2.75767 8.08491 2.75764 8.08491C2.75761 8.08491 2.75757 8.08491 2.75754 8.08491C2.75751 8.08491 2.75748 8.08491 2.75745 8.08491C2.75741 8.08491 2.75738 8.08491 2.75735 8.08491C2.75732 8.08491 2.75728 8.08491 2.75725 8.08491C2.75722 8.08491 2.75719 8.08491 2.75716 8.08491C2.75712 8.08491 2.75709 8.08491 2.75706 8.08491C2.75703 8.08491 2.75699 8.08491 2.75696 8.08491C2.75693 8.08491 2.7569 8.08491 2.75687 8.08491C2.75683 8.08491 2.7568 8.08491 2.75677 8.08491C2.75674 8.08491 2.75671 8.08491 2.75667 8.08491C2.75664 8.08491 2.75661 8.08491 2.75658 8.08491C2.75655 8.08491 2.75652 8.08491 2.75648 8.08491C2.75645 8.08491 2.75642 8.08491 2.75639 8.08491C2.75636 8.08491 2.75632 8.08491 2.75629 8.08491C2.75626 8.08491 2.75623 8.08491 2.7562 8.08491C2.75617 8.08491 2.75613 8.08491 2.7561 8.08491C2.75607 8.08491 2.75604 8.08491 2.75601 8.08491C2.75598 8.08491 2.75594 8.08491 2.75591 8.08491C2.75588 8.08491 2.75585 8.08491 2.75582 8.08491C2.75579 8.08491 2.75576 8.08491 2.75572 8.08491C2.75569 8.08491 2.75566 8.08491 2.75563 8.08491C2.7556 8.08491 2.75557 8.08491 2.75554 8.08491C2.7555 8.08491 2.75547 8.08491 2.75544 8.08491C2.75541 8.08491 2.75538 8.08491 2.75535 8.08491C2.75532 8.08491 2.75529 8.08491 2.75525 8.08491C2.75522 8.08491 2.75519 8.08491 2.75516 8.08491C2.75513 8.08491 2.7551 8.08491 2.75507 8.08491C2.75504 8.08491 2.755 8.08491 2.75497 8.08491C2.75494 8.08491 2.75491 8.08491 2.75488 8.08491C2.75485 8.08491 2.75482 8.08491 2.75479 8.08491C2.75476 8.08491 2.75473 8.08491 2.75469 8.08491C2.75466 8.08491 2.75463 8.08491 2.7546 8.08491C2.75457 8.08491 2.75454 8.08491 2.75451 8.08491C2.75448 8.08491 2.75445 8.08491 2.75442 8.08491C2.75439 8.08491 2.75436 8.08491 2.75433 8.08491C2.75429 8.08491 2.75426 8.08491 2.75423 8.08491C2.7542 8.08491 2.75417 8.08491 2.75414 8.08491C2.75411 8.08491 2.75408 8.08491 2.75405 8.08491C2.75402 8.08491 2.75399 8.08491 2.75396 8.08491C2.75393 8.08491 2.7539 8.08491 2.75387 8.08491C2.75384 8.08491 2.75381 8.08491 2.75378 8.08491C2.75374 8.08491 2.75371 8.08491 2.75368 8.08491C2.75365 8.08491 2.75362 8.08491 2.75359 8.08491C2.75356 8.08491 2.75353 8.08491 2.7535 8.08491C2.75347 8.08491 2.75344 8.08491 2.75341 8.08491C2.75338 8.08491 2.75335 8.08491 2.75332 8.08491C2.75329 8.08491 2.75326 8.08491 2.75323 8.08491C2.7532 8.08491 2.75317 8.08491 2.75314 8.08491C2.75311 8.08491 2.75308 8.08491 2.75305 8.08491C2.75302 8.08491 2.75299 8.08491 2.75296 8.08491C2.75293 8.08491 2.7529 8.08491 2.75287 8.08491C2.75284 8.08491 2.75281 8.08491 2.75278 8.08491C2.75275 8.08491 2.75272 8.08491 2.75269 8.08491C2.75266 8.08491 2.75263 8.08491 2.7526 8.08491C2.75257 8.08491 2.75254 8.08491 2.75251 8.08491C2.75248 8.08491 2.75246 8.08491 2.75243 8.08491C2.7524 8.08491 2.75237 8.08491 2.75234 8.08491C2.75231 8.08491 2.75228 8.08491 2.75225 8.08491C2.75222 8.08491 2.75219 8.08491 2.75216 8.08491C2.75213 8.08491 2.7521 8.08491 2.75207 8.08491C2.75204 8.08491 2.75201 8.08491 2.75198 8.08491V11.0849C2.75201 11.0849 2.75204 11.0849 2.75207 11.0849C2.7521 11.0849 2.75213 11.0849 2.75216 11.0849C2.75219 11.0849 2.75222 11.0849 2.75225 11.0849C2.75228 11.0849 2.75231 11.0849 2.75234 11.0849C2.75237 11.0849 2.7524 11.0849 2.75243 11.0849C2.75246 11.0849 2.75248 11.0849 2.75251 11.0849C2.75254 11.0849 2.75257 11.0849 2.7526 11.0849C2.75263 11.0849 2.75266 11.0849 2.75269 11.0849C2.75272 11.0849 2.75275 11.0849 2.75278 11.0849C2.75281 11.0849 2.75284 11.0849 2.75287 11.0849C2.7529 11.0849 2.75293 11.0849 2.75296 11.0849C2.75299 11.0849 2.75302 11.0849 2.75305 11.0849C2.75308 11.0849 2.75311 11.0849 2.75314 11.0849C2.75317 11.0849 2.7532 11.0849 2.75323 11.0849C2.75326 11.0849 2.75329 11.0849 2.75332 11.0849C2.75335 11.0849 2.75338 11.0849 2.75341 11.0849C2.75344 11.0849 2.75347 11.0849 2.7535 11.0849C2.75353 11.0849 2.75356 11.0849 2.75359 11.0849C2.75362 11.0849 2.75365 11.0849 2.75368 11.0849C2.75371 11.0849 2.75374 11.0849 2.75378 11.0849C2.75381 11.0849 2.75384 11.0849 2.75387 11.0849C2.7539 11.0849 2.75393 11.0849 2.75396 11.0849C2.75399 11.0849 2.75402 11.0849 2.75405 11.0849C2.75408 11.0849 2.75411 11.0849 2.75414 11.0849C2.75417 11.0849 2.7542 11.0849 2.75423 11.0849C2.75426 11.0849 2.75429 11.0849 2.75433 11.0849C2.75436 11.0849 2.75439 11.0849 2.75442 11.0849C2.75445 11.0849 2.75448 11.0849 2.75451 11.0849C2.75454 11.0849 2.75457 11.0849 2.7546 11.0849C2.75463 11.0849 2.75466 11.0849 2.75469 11.0849C2.75473 11.0849 2.75476 11.0849 2.75479 11.0849C2.75482 11.0849 2.75485 11.0849 2.75488 11.0849C2.75491 11.0849 2.75494 11.0849 2.75497 11.0849C2.755 11.0849 2.75504 11.0849 2.75507 11.0849C2.7551 11.0849 2.75513 11.0849 2.75516 11.0849C2.75519 11.0849 2.75522 11.0849 2.75525 11.0849C2.75529 11.0849 2.75532 11.0849 2.75535 11.0849C2.75538 11.0849 2.75541 11.0849 2.75544 11.0849C2.75547 11.0849 2.7555 11.0849 2.75554 11.0849C2.75557 11.0849 2.7556 11.0849 2.75563 11.0849C2.75566 11.0849 2.75569 11.0849 2.75572 11.0849C2.75576 11.0849 2.75579 11.0849 2.75582 11.0849C2.75585 11.0849 2.75588 11.0849 2.75591 11.0849C2.75594 11.0849 2.75598 11.0849 2.75601 11.0849C2.75604 11.0849 2.75607 11.0849 2.7561 11.0849C2.75613 11.0849 2.75617 11.0849 2.7562 11.0849C2.75623 11.0849 2.75626 11.0849 2.75629 11.0849C2.75632 11.0849 2.75636 11.0849 2.75639 11.0849C2.75642 11.0849 2.75645 11.0849 2.75648 11.0849C2.75652 11.0849 2.75655 11.0849 2.75658 11.0849C2.75661 11.0849 2.75664 11.0849 2.75667 11.0849C2.75671 11.0849 2.75674 11.0849 2.75677 11.0849C2.7568 11.0849 2.75683 11.0849 2.75687 11.0849C2.7569 11.0849 2.75693 11.0849 2.75696 11.0849C2.75699 11.0849 2.75703 11.0849 2.75706 11.0849C2.75709 11.0849 2.75712 11.0849 2.75716 11.0849C2.75719 11.0849 2.75722 11.0849 2.75725 11.0849C2.75728 11.0849 2.75732 11.0849 2.75735 11.0849C2.75738 11.0849 2.75741 11.0849 2.75745 11.0849C2.75748 11.0849 2.75751 11.0849 2.75754 11.0849C2.75757 11.0849 2.75761 11.0849 2.75764 11.0849C2.75767 11.0849 2.7577 11.0849 2.75774 11.0849C2.75777 11.0849 2.7578 11.0849 2.75783 11.0849C2.75787 11.0849 2.7579 11.0849 2.75793 11.0849C2.75796 11.0849 2.758 11.0849 2.75803 11.0849C2.75806 11.0849 2.75809 11.0849 2.75813 11.0849C2.75816 11.0849 2.75819 11.0849 2.75822 11.0849C2.75826 11.0849 2.75829 11.0849 2.75832 11.0849C2.75835 11.0849 2.75839 11.0849 2.75842 11.0849C2.75845 11.0849 2.75849 11.0849 2.75852 11.0849C2.75855 11.0849 2.75858 11.0849 2.75862 11.0849C2.75865 11.0849 2.75868 11.0849 2.75872 11.0849C2.75875 11.0849 2.75878 11.0849 2.75881 11.0849C2.75885 11.0849 2.75888 11.0849 2.75891 11.0849C2.75895 11.0849 2.75898 11.0849 2.75901 11.0849C2.75904 11.0849 2.75908 11.0849 2.75911 11.0849C2.75914 11.0849 2.75918 11.0849 2.75921 11.0849C2.75924 11.0849 2.75928 11.0849 2.75931 11.0849C2.75934 11.0849 2.75937 11.0849 2.75941 11.0849C2.75944 11.0849 2.75947 11.0849 2.75951 11.0849C2.75954 11.0849 2.75957 11.0849 2.75961 11.0849C2.75964 11.0849 2.75967 11.0849 2.75971 11.0849C2.75974 11.0849 2.75977 11.0849 2.75981 11.0849C2.75984 11.0849 2.75987 11.0849 2.75991 11.0849C2.75994 11.0849 2.75997 11.0849 2.76001 11.0849C2.76004 11.0849 2.76007 11.0849 2.76011 11.0849C2.76014 11.0849 2.76017 11.0849 2.76021 11.0849C2.76024 11.0849 2.76027 11.0849 2.76031 11.0849C2.76034 11.0849 2.76037 11.0849 2.76041 11.0849C2.76044 11.0849 2.76047 11.0849 2.76051 11.0849C2.76054 11.0849 2.76057 11.0849 2.76061 11.0849C2.76064 11.0849 2.76068 11.0849 2.76071 11.0849C2.76074 11.0849 2.76078 11.0849 2.76081 11.0849C2.76084 11.0849 2.76088 11.0849 2.76091 11.0849C2.76094 11.0849 2.76098 11.0849 2.76101 11.0849C2.76105 11.0849 2.76108 11.0849 2.76111 11.0849C2.76115 11.0849 2.76118 11.0849 2.76121 11.0849C2.76125 11.0849 2.76128 11.0849 2.76132 11.0849C2.76135 11.0849 2.76138 11.0849 2.76142 11.0849C2.76145 11.0849 2.76149 11.0849 2.76152 11.0849C2.76155 11.0849 2.76159 11.0849 2.76162 11.0849C2.76166 11.0849 2.76169 11.0849 2.76172 11.0849C2.76176 11.0849 2.76179 11.0849 2.76183 11.0849C2.76186 11.0849 2.76189 11.0849 2.76193 11.0849C2.76196 11.0849 2.762 11.0849 2.76203 11.0849C2.76206 11.0849 2.7621 11.0849 2.76213 11.0849C2.76217 11.0849 2.7622 11.0849 2.76223 11.0849C2.76227 11.0849 2.7623 11.0849 2.76234 11.0849C2.76237 11.0849 2.7624 11.0849 2.76244 11.0849C2.76247 11.0849 2.76251 11.0849 2.76254 11.0849C2.76258 11.0849 2.76261 11.0849 2.76264 11.0849C2.76268 11.0849 2.76271 11.0849 2.76275 11.0849C2.76278 11.0849 2.76282 11.0849 2.76285 11.0849C2.76288 11.0849 2.76292 11.0849 2.76295 11.0849C2.76299 11.0849 2.76302 11.0849 2.76306 11.0849C2.76309 11.0849 2.76313 11.0849 2.76316 11.0849C2.76319 11.0849 2.76323 11.0849 2.76326 11.0849C2.7633 11.0849 2.76333 11.0849 2.76337 11.0849C2.7634 11.0849 2.76344 11.0849 2.76347 11.0849C2.7635 11.0849 2.76354 11.0849 2.76357 11.0849C2.76361 11.0849 2.76364 11.0849 2.76368 11.0849C2.76371 11.0849 2.76375 11.0849 2.76378 11.0849C2.76382 11.0849 2.76385 11.0849 2.76389 11.0849C2.76392 11.0849 2.76395 11.0849 2.76399 11.0849C2.76402 11.0849 2.76406 11.0849 2.76409 11.0849C2.76413 11.0849 2.76416 11.0849 2.7642 11.0849C2.76423 11.0849 2.76427 11.0849 2.7643 11.0849C2.76434 11.0849 2.76437 11.0849 2.76441 11.0849C2.76444 11.0849 2.76448 11.0849 2.76451 11.0849C2.76455 11.0849 2.76458 11.0849 2.76461 11.0849C2.76465 11.0849 2.76468 11.0849 2.76472 11.0849C2.76475 11.0849 2.76479 11.0849 2.76482 11.0849C2.76486 11.0849 2.76489 11.0849 2.76493 11.0849C2.76496 11.0849 2.765 11.0849 2.76503 11.0849C2.76507 11.0849 2.7651 11.0849 2.76514 11.0849C2.76517 11.0849 2.76521 11.0849 2.76524 11.0849C2.76528 11.0849 2.76531 11.0849 2.76535 11.0849C2.76538 11.0849 2.76542 11.0849 2.76545 11.0849C2.76549 11.0849 2.76552 11.0849 2.76556 11.0849C2.76559 11.0849 2.76563 11.0849 2.76566 11.0849C2.7657 11.0849 2.76573 11.0849 2.76577 11.0849C2.7658 11.0849 2.76584 11.0849 2.76588 11.0849C2.76591 11.0849 2.76595 11.0849 2.76598 11.0849C2.76602 11.0849 2.76605 11.0849 2.76609 11.0849C2.76612 11.0849 2.76616 11.0849 2.76619 11.0849C2.76623 11.0849 2.76626 11.0849 2.7663 11.0849C2.76633 11.0849 2.76637 11.0849 2.7664 11.0849C2.76644 11.0849 2.76647 11.0849 2.76651 11.0849C2.76654 11.0849 2.76658 11.0849 2.76662 11.0849C2.76665 11.0849 2.76669 11.0849 2.76672 11.0849C2.76676 11.0849 2.76679 11.0849 2.76683 11.0849C2.76686 11.0849 2.7669 11.0849 2.76693 11.0849C2.76697 11.0849 2.767 11.0849 2.76704 11.0849C2.76708 11.0849 2.76711 11.0849 2.76715 11.0849C2.76718 11.0849 2.76722 11.0849 2.76725 11.0849C2.76729 11.0849 2.76732 11.0849 2.76736 11.0849C2.76739 11.0849 2.76743 11.0849 2.76747 11.0849C2.7675 11.0849 2.76754 11.0849 2.76757 11.0849C2.76761 11.0849 2.76764 11.0849 2.76768 11.0849C2.76771 11.0849 2.76775 11.0849 2.76779 11.0849C2.76782 11.0849 2.76786 11.0849 2.76789 11.0849C2.76793 11.0849 2.76796 11.0849 2.768 11.0849C2.76804 11.0849 2.76807 11.0849 2.76811 11.0849C2.76814 11.0849 2.76818 11.0849 2.76821 11.0849C2.76825 11.0849 2.76828 11.0849 2.76832 11.0849C2.76836 11.0849 2.76839 11.0849 2.76843 11.0849C2.76846 11.0849 2.7685 11.0849 2.76853 11.0849C2.76857 11.0849 2.76861 11.0849 2.76864 11.0849C2.76868 11.0849 2.76871 11.0849 2.76875 11.0849C2.76879 11.0849 2.76882 11.0849 2.76886 11.0849C2.76889 11.0849 2.76893 11.0849 2.76896 11.0849C2.769 11.0849 2.76904 11.0849 2.76907 11.0849C2.76911 11.0849 2.76914 11.0849 2.76918 11.0849C2.76922 11.0849 2.76925 11.0849 2.76929 11.0849C2.76932 11.0849 2.76936 11.0849 2.76939 11.0849C2.76943 11.0849 2.76947 11.0849 2.7695 11.0849C2.76954 11.0849 2.76957 11.0849 2.76961 11.0849C2.76965 11.0849 2.76968 11.0849 2.76972 11.0849C2.76975 11.0849 2.76979 11.0849 2.76983 11.0849C2.76986 11.0849 2.7699 11.0849 2.76993 11.0849C2.76997 11.0849 2.77001 11.0849 2.77004 11.0849C2.77008 11.0849 2.77011 11.0849 2.77015 11.0849C2.77019 11.0849 2.77022 11.0849 2.77026 11.0849C2.77029 11.0849 2.77033 11.0849 2.77037 11.0849C2.7704 11.0849 2.77044 11.0849 2.77047 11.0849C2.77051 11.0849 2.77055 11.0849 2.77058 11.0849C2.77062 11.0849 2.77065 11.0849 2.77069 11.0849C2.77073 11.0849 2.77076 11.0849 2.7708 11.0849C2.77083 11.0849 2.77087 11.0849 2.77091 11.0849C2.77094 11.0849 2.77098 11.0849 2.77102 11.0849C2.77105 11.0849 2.77109 11.0849 2.77112 11.0849C2.77116 11.0849 2.7712 11.0849 2.77123 11.0849C2.77127 11.0849 2.7713 11.0849 2.77134 11.0849C2.77138 11.0849 2.77141 11.0849 2.77145 11.0849C2.77149 11.0849 2.77152 11.0849 2.77156 11.0849C2.77159 11.0849 2.77163 11.0849 2.77167 11.0849C2.7717 11.0849 2.77174 11.0849 2.77178 11.0849C2.77181 11.0849 2.77185 11.0849 2.77188 11.0849C2.77192 11.0849 2.77196 11.0849 2.77199 11.0849C2.77203 11.0849 2.77206 11.0849 2.7721 11.0849C2.77214 11.0849 2.77217 11.0849 2.77221 11.0849C2.77225 11.0849 2.77228 11.0849 2.77232 11.0849C2.77236 11.0849 2.77239 11.0849 2.77243 11.0849C2.77246 11.0849 2.7725 11.0849 2.77254 11.0849C2.77257 11.0849 2.77261 11.0849 2.77265 11.0849C2.77268 11.0849 2.77272 11.0849 2.77275 11.0849C2.77279 11.0849 2.77283 11.0849 2.77286 11.0849C2.7729 11.0849 2.77294 11.0849 2.77297 11.0849C2.77301 11.0849 2.77305 11.0849 2.77308 11.0849C2.77312 11.0849 2.77315 11.0849 2.77319 11.0849C2.77323 11.0849 2.77326 11.0849 2.7733 11.0849C2.77334 11.0849 2.77337 11.0849 2.77341 11.0849C2.77345 11.0849 2.77348 11.0849 2.77352 11.0849C2.77356 11.0849 2.77359 11.0849 2.77363 11.0849C2.77366 11.0849 2.7737 11.0849 2.77374 11.0849C2.77377 11.0849 2.77381 11.0849 2.77385 11.0849C2.77388 11.0849 2.77392 11.0849 2.77396 11.0849C2.77399 11.0849 2.77403 11.0849 2.77407 11.0849C2.7741 11.0849 2.77414 11.0849 2.77417 11.0849C2.77421 11.0849 2.77425 11.0849 2.77428 11.0849C2.77432 11.0849 2.77436 11.0849 2.77439 11.0849C2.77443 11.0849 2.77447 11.0849 2.7745 11.0849C2.77454 11.0849 2.77458 11.0849 2.77461 11.0849C2.77465 11.0849 2.77469 11.0849 2.77472 11.0849C2.77476 11.0849 2.7748 11.0849 2.77483 11.0849C2.77487 11.0849 2.7749 11.0849 2.77494 11.0849C2.77498 11.0849 2.77501 11.0849 2.77505 11.0849C2.77509 11.0849 2.77512 11.0849 2.77516 11.0849C2.7752 11.0849 2.77523 11.0849 2.77527 11.0849C2.77531 11.0849 2.77534 11.0849 2.77538 11.0849C2.77542 11.0849 2.77545 11.0849 2.77549 11.0849C2.77553 11.0849 2.77556 11.0849 2.7756 11.0849C2.77564 11.0849 2.77567 11.0849 2.77571 11.0849C2.77575 11.0849 2.77578 11.0849 2.77582 11.0849C2.77585 11.0849 2.77589 11.0849 2.77593 11.0849C2.77596 11.0849 2.776 11.0849 2.77604 11.0849C2.77607 11.0849 2.77611 11.0849 2.77615 11.0849C2.77618 11.0849 2.77622 11.0849 2.77626 11.0849C2.77629 11.0849 2.77633 11.0849 2.77637 11.0849C2.7764 11.0849 2.77644 11.0849 2.77648 11.0849C2.77651 11.0849 2.77655 11.0849 2.77659 11.0849C2.77662 11.0849 2.77666 11.0849 2.7767 11.0849C2.77673 11.0849 2.77677 11.0849 2.77681 11.0849C2.77684 11.0849 2.77688 11.0849 2.77692 11.0849C2.77695 11.0849 2.77699 11.0849 2.77703 11.0849C2.77706 11.0849 2.7771 11.0849 2.77714 11.0849C2.77717 11.0849 2.77721 11.0849 2.77725 11.0849C2.77728 11.0849 2.77732 11.0849 2.77736 11.0849C2.77739 11.0849 2.77743 11.0849 2.77746 11.0849C2.7775 11.0849 2.77754 11.0849 2.77757 11.0849C2.77761 11.0849 2.77765 11.0849 2.77768 11.0849C2.77772 11.0849 2.77776 11.0849 2.77779 11.0849C2.77783 11.0849 2.77787 11.0849 2.7779 11.0849C2.77794 11.0849 2.77798 11.0849 2.77801 11.0849C2.77805 11.0849 2.77809 11.0849 2.77812 11.0849C2.77816 11.0849 2.7782 11.0849 2.77823 11.0849C2.77827 11.0849 2.77831 11.0849 2.77834 11.0849C2.77838 11.0849 2.77842 11.0849 2.77845 11.0849C2.77849 11.0849 2.77853 11.0849 2.77856 11.0849C2.7786 11.0849 2.77864 11.0849 2.77867 11.0849C2.77871 11.0849 2.77875 11.0849 2.77878 11.0849C2.77882 11.0849 2.77886 11.0849 2.77889 11.0849C2.77893 11.0849 2.77897 11.0849 2.779 11.0849C2.77904 11.0849 2.77908 11.0849 2.77911 11.0849C2.77915 11.0849 2.77919 11.0849 2.77922 11.0849C2.77926 11.0849 2.7793 11.0849 2.77933 11.0849C2.77937 11.0849 2.77941 11.0849 2.77944 11.0849C2.77948 11.0849 2.77952 11.0849 2.77955 11.0849C2.77959 11.0849 2.77963 11.0849 2.77966 11.0849C2.7797 11.0849 2.77974 11.0849 2.77977 11.0849C2.77981 11.0849 2.77984 11.0849 2.77988 11.0849C2.77992 11.0849 2.77995 11.0849 2.77999 11.0849C2.78003 11.0849 2.78006 11.0849 2.7801 11.0849C2.78014 11.0849 2.78017 11.0849 2.78021 11.0849C2.78025 11.0849 2.78028 11.0849 2.78032 11.0849C2.78036 11.0849 2.78039 11.0849 2.78043 11.0849C2.78047 11.0849 2.7805 11.0849 2.78054 11.0849C2.78058 11.0849 2.78061 11.0849 2.78065 11.0849C2.78069 11.0849 2.78072 11.0849 2.78076 11.0849C2.7808 11.0849 2.78083 11.0849 2.78087 11.0849C2.78091 11.0849 2.78094 11.0849 2.78098 11.0849C2.78102 11.0849 2.78105 11.0849 2.78109 11.0849C2.78113 11.0849 2.78116 11.0849 2.7812 11.0849C2.78123 11.0849 2.78127 11.0849 2.78131 11.0849C2.78134 11.0849 2.78138 11.0849 2.78142 11.0849C2.78145 11.0849 2.78149 11.0849 2.78153 11.0849C2.78156 11.0849 2.7816 11.0849 2.78164 11.0849C2.78167 11.0849 2.78171 11.0849 2.78175 11.0849C2.78178 11.0849 2.78182 11.0849 2.78186 11.0849C2.78189 11.0849 2.78193 11.0849 2.78196 11.0849C2.782 11.0849 2.78204 11.0849 2.78207 11.0849C2.78211 11.0849 2.78215 11.0849 2.78218 11.0849C2.78222 11.0849 2.78226 11.0849 2.78229 11.0849C2.78233 11.0849 2.78237 11.0849 2.7824 11.0849C2.78244 11.0849 2.78248 11.0849 2.78251 11.0849C2.78255 11.0849 2.78258 11.0849 2.78262 11.0849C2.78266 11.0849 2.78269 11.0849 2.78273 11.0849C2.78277 11.0849 2.7828 11.0849 2.78284 11.0849C2.78288 11.0849 2.78291 11.0849 2.78295 11.0849C2.78299 11.0849 2.78302 11.0849 2.78306 11.0849C2.78309 11.0849 2.78313 11.0849 2.78317 11.0849C2.7832 11.0849 2.78324 11.0849 2.78328 11.0849C2.78331 11.0849 2.78335 11.0849 2.78339 11.0849C2.78342 11.0849 2.78346 11.0849 2.7835 11.0849C2.78353 11.0849 2.78357 11.0849 2.7836 11.0849C2.78364 11.0849 2.78368 11.0849 2.78371 11.0849C2.78375 11.0849 2.78379 11.0849 2.78382 11.0849C2.78386 11.0849 2.78389 11.0849 2.78393 11.0849C2.78397 11.0849 2.784 11.0849 2.78404 11.0849C2.78408 11.0849 2.78411 11.0849 2.78415 11.0849C2.78419 11.0849 2.78422 11.0849 2.78426 11.0849C2.78429 11.0849 2.78433 11.0849 2.78437 11.0849C2.7844 11.0849 2.78444 11.0849 2.78448 11.0849C2.78451 11.0849 2.78455 11.0849 2.78458 11.0849C2.78462 11.0849 2.78466 11.0849 2.78469 11.0849C2.78473 11.0849 2.78477 11.0849 2.7848 11.0849C2.78484 11.0849 2.78487 11.0849 2.78491 11.0849C2.78495 11.0849 2.78498 11.0849 2.78502 11.0849C2.78506 11.0849 2.78509 11.0849 2.78513 11.0849C2.78516 11.0849 2.7852 11.0849 2.78524 11.0849C2.78527 11.0849 2.78531 11.0849 2.78534 11.0849C2.78538 11.0849 2.78542 11.0849 2.78545 11.0849C2.78549 11.0849 2.78553 11.0849 2.78556 11.0849C2.7856 11.0849 2.78563 11.0849 2.78567 11.0849C2.78571 11.0849 2.78574 11.0849 2.78578 11.0849C2.78581 11.0849 2.78585 11.0849 2.78589 11.0849C2.78592 11.0849 2.78596 11.0849 2.78599 11.0849C2.78603 11.0849 2.78607 11.0849 2.7861 11.0849C2.78614 11.0849 2.78617 11.0849 2.78621 11.0849C2.78625 11.0849 2.78628 11.0849 2.78632 11.0849C2.78635 11.0849 2.78639 11.0849 2.78643 11.0849C2.78646 11.0849 2.7865 11.0849 2.78653 11.0849C2.78657 11.0849 2.78661 11.0849 2.78664 11.0849C2.78668 11.0849 2.78671 11.0849 2.78675 11.0849C2.78679 11.0849 2.78682 11.0849 2.78686 11.0849C2.78689 11.0849 2.78693 11.0849 2.78697 11.0849C2.787 11.0849 2.78704 11.0849 2.78707 11.0849C2.78711 11.0849 2.78715 11.0849 2.78718 11.0849C2.78722 11.0849 2.78725 11.0849 2.78729 11.0849C2.78732 11.0849 2.78736 11.0849 2.7874 11.0849C2.78743 11.0849 2.78747 11.0849 2.7875 11.0849C2.78754 11.0849 2.78758 11.0849 2.78761 11.0849C2.78765 11.0849 2.78768 11.0849 2.78772 11.0849C2.78775 11.0849 2.78779 11.0849 2.78783 11.0849C2.78786 11.0849 2.7879 11.0849 2.78793 11.0849C2.78797 11.0849 2.788 11.0849 2.78804 11.0849C2.78808 11.0849 2.78811 11.0849 2.78815 11.0849C2.78818 11.0849 2.78822 11.0849 2.78825 11.0849C2.78829 11.0849 2.78833 11.0849 2.78836 11.0849C2.7884 11.0849 2.78843 11.0849 2.78847 11.0849C2.7885 11.0849 2.78854 11.0849 2.78858 11.0849C2.78861 11.0849 2.78865 11.0849 2.78868 11.0849C2.78872 11.0849 2.78875 11.0849 2.78879 11.0849C2.78882 11.0849 2.78886 11.0849 2.7889 11.0849C2.78893 11.0849 2.78897 11.0849 2.789 11.0849C2.78904 11.0849 2.78907 11.0849 2.78911 11.0849C2.78914 11.0849 2.78918 11.0849 2.78922 11.0849C2.78925 11.0849 2.78929 11.0849 2.78932 11.0849C2.78936 11.0849 2.78939 11.0849 2.78943 11.0849C2.78946 11.0849 2.7895 11.0849 2.78953 11.0849C2.78957 11.0849 2.7896 11.0849 2.78964 11.0849C2.78968 11.0849 2.78971 11.0849 2.78975 11.0849C2.78978 11.0849 2.78982 11.0849 2.78985 11.0849C2.78989 11.0849 2.78992 11.0849 2.78996 11.0849C2.78999 11.0849 2.79003 11.0849 2.79006 11.0849C2.7901 11.0849 2.79013 11.0849 2.79017 11.0849C2.79021 11.0849 2.79024 11.0849 2.79028 11.0849C2.79031 11.0849 2.79035 11.0849 2.79038 11.0849C2.79042 11.0849 2.79045 11.0849 2.79049 11.0849C2.79052 11.0849 2.79056 11.0849 2.79059 11.0849C2.79063 11.0849 2.79066 11.0849 2.7907 11.0849C2.79073 11.0849 2.79077 11.0849 2.7908 11.0849C2.79084 11.0849 2.79087 11.0849 2.79091 11.0849C2.79094 11.0849 2.79098 11.0849 2.79101 11.0849C2.79105 11.0849 2.79108 11.0849 2.79112 11.0849C2.79115 11.0849 2.79119 11.0849 2.79122 11.0849C2.79126 11.0849 2.79129 11.0849 2.79133 11.0849C2.79136 11.0849 2.7914 11.0849 2.79143 11.0849C2.79147 11.0849 2.7915 11.0849 2.79154 11.0849C2.79157 11.0849 2.79161 11.0849 2.79164 11.0849C2.79168 11.0849 2.79171 11.0849 2.79175 11.0849C2.79178 11.0849 2.79182 11.0849 2.79185 11.0849C2.79189 11.0849 2.79192 11.0849 2.79196 11.0849C2.79199 11.0849 2.79203 11.0849 2.79206 11.0849C2.7921 11.0849 2.79213 11.0849 2.79217 11.0849C2.7922 11.0849 2.79224 11.0849 2.79227 11.0849C2.79231 11.0849 2.79234 11.0849 2.79237 11.0849C2.79241 11.0849 2.79244 11.0849 2.79248 11.0849C2.79251 11.0849 2.79255 11.0849 2.79258 11.0849C2.79262 11.0849 2.79265 11.0849 2.79269 11.0849C2.79272 11.0849 2.79276 11.0849 2.79279 11.0849C2.79283 11.0849 2.79286 11.0849 2.79289 11.0849C2.79293 11.0849 2.79296 11.0849 2.793 11.0849C2.79303 11.0849 2.79307 11.0849 2.7931 11.0849C2.79314 11.0849 2.79317 11.0849 2.7932 11.0849C2.79324 11.0849 2.79327 11.0849 2.79331 11.0849C2.79334 11.0849 2.79338 11.0849 2.79341 11.0849C2.79345 11.0849 2.79348 11.0849 2.79351 11.0849C2.79355 11.0849 2.79358 11.0849 2.79362 11.0849C2.79365 11.0849 2.79369 11.0849 2.79372 11.0849C2.79375 11.0849 2.79379 11.0849 2.79382 11.0849C2.79386 11.0849 2.79389 11.0849 2.79393 11.0849C2.79396 11.0849 2.79399 11.0849 2.79403 11.0849C2.79406 11.0849 2.7941 11.0849 2.79413 11.0849C2.79417 11.0849 2.7942 11.0849 2.79423 11.0849C2.79427 11.0849 2.7943 11.0849 2.79434 11.0849C2.79437 11.0849 2.7944 11.0849 2.79444 11.0849C2.79447 11.0849 2.79451 11.0849 2.79454 11.0849C2.79457 11.0849 2.79461 11.0849 2.79464 11.0849C2.79468 11.0849 2.79471 11.0849 2.79474 11.0849C2.79478 11.0849 2.79481 11.0849 2.79485 11.0849C2.79488 11.0849 2.79491 11.0849 2.79495 11.0849C2.79498 11.0849 2.79502 11.0849 2.79505 11.0849C2.79508 11.0849 2.79512 11.0849 2.79515 11.0849C2.79519 11.0849 2.79522 11.0849 2.79525 11.0849C2.79529 11.0849 2.79532 11.0849 2.79535 11.0849C2.79539 11.0849 2.79542 11.0849 2.79546 11.0849C2.79549 11.0849 2.79552 11.0849 2.79556 11.0849C2.79559 11.0849 2.79562 11.0849 2.79566 11.0849C2.79569 11.0849 2.79572 11.0849 2.79576 11.0849C2.79579 11.0849 2.79583 11.0849 2.79586 11.0849C2.79589 11.0849 2.79593 11.0849 2.79596 11.0849C2.79599 11.0849 2.79603 11.0849 2.79606 11.0849C2.79609 11.0849 2.79613 11.0849 2.79616 11.0849C2.79619 11.0849 2.79623 11.0849 2.79626 11.0849C2.79629 11.0849 2.79633 11.0849 2.79636 11.0849C2.7964 11.0849 2.79643 11.0849 2.79646 11.0849C2.7965 11.0849 2.79653 11.0849 2.79656 11.0849C2.7966 11.0849 2.79663 11.0849 2.79666 11.0849C2.79669 11.0849 2.79673 11.0849 2.79676 11.0849C2.79679 11.0849 2.79683 11.0849 2.79686 11.0849C2.79689 11.0849 2.79693 11.0849 2.79696 11.0849C2.79699 11.0849 2.79703 11.0849 2.79706 11.0849C2.79709 11.0849 2.79713 11.0849 2.79716 11.0849C2.79719 11.0849 2.79723 11.0849 2.79726 11.0849C2.79729 11.0849 2.79732 11.0849 2.79736 11.0849C2.79739 11.0849 2.79742 11.0849 2.79746 11.0849C2.79749 11.0849 2.79752 11.0849 2.79756 11.0849C2.79759 11.0849 2.79762 11.0849 2.79765 11.0849C2.79769 11.0849 2.79772 11.0849 2.79775 11.0849C2.79779 11.0849 2.79782 11.0849 2.79785 11.0849C2.79788 11.0849 2.79792 11.0849 2.79795 11.0849C2.79798 11.0849 2.79801 11.0849 2.79805 11.0849C2.79808 11.0849 2.79811 11.0849 2.79815 11.0849C2.79818 11.0849 2.79821 11.0849 2.79824 11.0849C2.79828 11.0849 2.79831 11.0849 2.79834 11.0849C2.79837 11.0849 2.79841 11.0849 2.79844 11.0849C2.79847 11.0849 2.7985 11.0849 2.79854 11.0849C2.79857 11.0849 2.7986 11.0849 2.79863 11.0849C2.79867 11.0849 2.7987 11.0849 2.79873 11.0849C2.79876 11.0849 2.7988 11.0849 2.79883 11.0849C2.79886 11.0849 2.79889 11.0849 2.79893 11.0849C2.79896 11.0849 2.79899 11.0849 2.79902 11.0849C2.79905 11.0849 2.79909 11.0849 2.79912 11.0849C2.79915 11.0849 2.79918 11.0849 2.79922 11.0849C2.79925 11.0849 2.79928 11.0849 2.79931 11.0849C2.79934 11.0849 2.79938 11.0849 2.79941 11.0849C2.79944 11.0849 2.79947 11.0849 2.79951 11.0849C2.79954 11.0849 2.79957 11.0849 2.7996 11.0849C2.79963 11.0849 2.79967 11.0849 2.7997 11.0849C2.79973 11.0849 2.79976 11.0849 2.79979 11.0849C2.79983 11.0849 2.79986 11.0849 2.79989 11.0849C2.79992 11.0849 2.79995 11.0849 2.79998 11.0849C2.80002 11.0849 2.80005 11.0849 2.80008 11.0849C2.80011 11.0849 2.80014 11.0849 2.80018 11.0849C2.80021 11.0849 2.80024 11.0849 2.80027 11.0849C2.8003 11.0849 2.80033 11.0849 2.80037 11.0849C2.8004 11.0849 2.80043 11.0849 2.80046 11.0849C2.80049 11.0849 2.80052 11.0849 2.80055 11.0849C2.80059 11.0849 2.80062 11.0849 2.80065 11.0849C2.80068 11.0849 2.80071 11.0849 2.80074 11.0849C2.80078 11.0849 2.80081 11.0849 2.80084 11.0849C2.80087 11.0849 2.8009 11.0849 2.80093 11.0849C2.80096 11.0849 2.80099 11.0849 2.80103 11.0849C2.80106 11.0849 2.80109 11.0849 2.80112 11.0849C2.80115 11.0849 2.80118 11.0849 2.80121 11.0849C2.80125 11.0849 2.80128 11.0849 2.80131 11.0849C2.80134 11.0849 2.80137 11.0849 2.8014 11.0849C2.80143 11.0849 2.80146 11.0849 2.80149 11.0849C2.80153 11.0849 2.80156 11.0849 2.80159 11.0849C2.80162 11.0849 2.80165 11.0849 2.80168 11.0849C2.80171 11.0849 2.80174 11.0849 2.80177 11.0849C2.8018 11.0849 2.80183 11.0849 2.80187 11.0849C2.8019 11.0849 2.80193 11.0849 2.80196 11.0849C2.80199 11.0849 2.80202 11.0849 2.80205 11.0849C2.80208 11.0849 2.80211 11.0849 2.80214 11.0849C2.80217 11.0849 2.8022 11.0849 2.80223 11.0849C2.80227 11.0849 2.8023 11.0849 2.80233 11.0849C2.80236 11.0849 2.80239 11.0849 2.80242 11.0849C2.80245 11.0849 2.80248 11.0849 2.80251 11.0849C2.80254 11.0849 2.80257 11.0849 2.8026 11.0849C2.80263 11.0849 2.80266 11.0849 2.80269 11.0849C2.80272 11.0849 2.80275 11.0849 2.80278 11.0849C2.80281 11.0849 2.80284 11.0849 2.80287 11.0849C2.80291 11.0849 2.80294 11.0849 2.80297 11.0849C2.803 11.0849 2.80303 11.0849 2.80306 11.0849C2.80309 11.0849 2.80312 11.0849 2.80315 11.0849C2.80318 11.0849 2.80321 11.0849 2.80324 11.0849C2.80327 11.0849 2.8033 11.0849 2.80333 11.0849C2.80336 11.0849 2.80339 11.0849 2.80342 11.0849C2.80345 11.0849 2.80348 11.0849 2.80351 11.0849C2.80354 11.0849 2.80357 11.0849 2.8036 11.0849C2.80363 11.0849 2.80366 11.0849 2.80369 11.0849C2.80372 11.0849 2.80375 11.0849 2.80378 11.0849C2.80381 11.0849 2.80383 11.0849 2.80386 11.0849C2.80389 11.0849 2.80392 11.0849 2.80395 11.0849C2.80398 11.0849 2.80401 11.0849 2.80404 11.0849C2.80407 11.0849 2.8041 11.0849 2.80413 11.0849C2.80416 11.0849 2.80419 11.0849 2.80422 11.0849C2.80425 11.0849 2.80428 11.0849 2.80431 11.0849C2.80434 11.0849 2.80437 11.0849 2.8044 11.0849C2.80443 11.0849 2.80445 11.0849 2.80448 11.0849V8.08491ZM2.90124 8.09235C3.43879 8.14611 3.80814 8.62314 3.75704 9.13416L0.771928 8.83565C0.660826 9.94667 1.46518 10.9637 2.60273 11.0775L2.90124 8.09235ZM3.75652 9.13926C3.91442 7.61286 4.7207 6.23281 5.9804 5.34223L4.24856 2.89259C2.28327 4.282 1.01954 6.44196 0.772446 8.83056L3.75652 9.13926ZM5.98994 5.33543C5.54292 5.65673 4.9546 5.53864 4.65396 5.12036L7.09001 3.36945C6.44437 2.47117 5.16605 2.23309 4.23903 2.89938L5.98994 5.33543ZM4.64139 5.1026C4.34484 4.67711 4.44353 4.09021 4.86903 3.78438L6.61994 6.22043C7.52544 5.5696 7.74413 4.3077 7.10258 3.38722L4.64139 5.1026ZM4.8752 3.77997C3.18015 4.98534 2.06869 6.8575 1.8595 8.93998L4.84447 9.23984C4.96527 8.03732 5.60882 6.93947 6.61377 6.22484L4.8752 3.77997ZM1.86023 8.93288C1.91137 8.44703 2.32184 8.08491 2.80448 8.08491V11.0849C3.84212 11.0849 4.7326 10.3028 4.84374 9.24693L1.86023 8.93288Z" fill="white" mask="url(#path-2-inside-1_2360_20349)"/>
<mask id="path-4-inside-2_2360_20349" fill="white">
<path d="M11.9934 15.8253C11.0709 16.2678 10.0809 16.4928 9.04593 16.4928C7.96593 16.4928 6.93843 16.2528 5.97843 15.7653C5.70843 15.6378 5.60343 15.3077 5.73843 15.0377C5.86593 14.7677 6.19593 14.6627 6.46593 14.7902C6.93843 15.0302 7.44093 15.1952 7.95093 15.2927C8.64093 15.4277 9.34593 15.4353 10.0359 15.3153C10.5459 15.2253 11.0484 15.0678 11.5134 14.8428C11.7909 14.7153 12.1209 14.8202 12.2409 15.0977C12.3759 15.3677 12.2709 15.6978 11.9934 15.8253Z"/>
</mask>
<path d="M11.9934 15.8253L11.3672 14.4622L11.3559 14.4674L11.3447 14.4728L11.9934 15.8253ZM5.97843 15.7653L6.6576 14.4278L6.6384 14.4181L6.61894 14.4089L5.97843 15.7653ZM5.73843 15.0377L7.08007 15.7086L7.08761 15.6935L7.0948 15.6783L5.73843 15.0377ZM6.46593 14.7902L7.14523 13.4529L7.12597 13.4431L7.10644 13.4339L6.46593 14.7902ZM7.95093 15.2927L8.23895 13.8206L8.23259 13.8194L7.95093 15.2927ZM10.0359 15.3153L10.2929 16.7931L10.2966 16.7924L10.0359 15.3153ZM11.5134 14.8428L10.8872 13.4797L10.8736 13.486L10.8601 13.4925L11.5134 14.8428ZM12.2409 15.0977L10.8641 15.6931L10.8807 15.7313L10.8993 15.7686L12.2409 15.0977ZM11.3447 14.4728C10.626 14.8175 9.85786 14.9928 9.04593 14.9928V17.9928C10.304 17.9928 11.5158 17.718 12.6422 17.1777L11.3447 14.4728ZM9.04593 14.9928C8.19589 14.9928 7.40181 14.8057 6.6576 14.4278L5.29926 17.1027C6.47505 17.6998 7.73597 17.9928 9.04593 17.9928V14.9928ZM6.61894 14.4089C7.15519 14.6621 7.2987 15.2713 7.08007 15.7086L4.39679 14.3669C3.90816 15.3442 4.26167 16.6134 5.33792 17.1216L6.61894 14.4089ZM7.0948 15.6783C6.84173 16.2142 6.24642 16.3454 5.82542 16.1466L7.10644 13.4339C6.14544 12.9801 4.89013 13.3213 4.38206 14.3972L7.0948 15.6783ZM5.78663 16.1276C6.39422 16.4362 7.03197 16.6442 7.66927 16.7661L8.23259 13.8194C7.84989 13.7463 7.48264 13.6243 7.14523 13.4529L5.78663 16.1276ZM7.66291 16.7648C8.53223 16.9349 9.42195 16.9445 10.2929 16.7931L9.77892 13.8374C9.26991 13.926 8.74963 13.9206 8.23895 13.8207L7.66291 16.7648ZM10.2966 16.7924C10.9334 16.6801 11.5691 16.4822 12.1668 16.193L10.8601 13.4925C10.5278 13.6533 10.1585 13.7704 9.77525 13.8381L10.2966 16.7924ZM12.1397 16.2058C11.7526 16.3836 11.1204 16.2857 10.8641 15.6931L13.6177 14.5024C13.1215 13.3548 11.8293 13.0469 10.8872 13.4797L12.1397 16.2058ZM10.8993 15.7686C10.6765 15.323 10.8316 14.7083 11.3672 14.4622L12.6197 17.1883C13.7103 16.6872 14.0754 15.4125 13.5826 14.4269L10.8993 15.7686Z" fill="white" mask="url(#path-4-inside-2_2360_20349)"/>
<path d="M9.03688 1.50781C7.87438 1.50781 6.92188 2.45281 6.92188 3.62281C6.92188 4.79281 7.86688 5.73781 9.03688 5.73781C10.2069 5.73781 11.1519 4.79281 11.1519 3.62281C11.1519 2.45281 10.2069 1.50781 9.03688 1.50781Z" fill="white"/>
<path d="M3.78688 10.4023C2.62438 10.4023 1.67188 11.3473 1.67188 12.5173C1.67188 13.6873 2.61688 14.6323 3.78688 14.6323C4.95688 14.6323 5.90188 13.6873 5.90188 12.5173C5.90188 11.3473 4.94938 10.4023 3.78688 10.4023Z" fill="white"/>
<path d="M14.2127 10.4023C13.0502 10.4023 12.0977 11.3473 12.0977 12.5173C12.0977 13.6873 13.0427 14.6323 14.2127 14.6323C15.3827 14.6323 16.3277 13.6873 16.3277 12.5173C16.3277 11.3473 15.3827 10.4023 14.2127 10.4023Z" fill="white"/>
</svg>