<svg width="18" height="18" viewBox="0 0 18 18" fill="none" xmlns="http://www.w3.org/2000/svg">
<g id="vuesax/bold/ticket">
<g id="ticket">
<path id="Vector" d="M16.5 8.0625C16.8075 8.0625 17.0625 7.8075 17.0625 7.5V6.75C17.0625 3.4425 16.0575 2.4375 12.75 2.4375H8.0625V4.125C8.0625 4.4325 7.8075 4.6875 7.5 4.6875C7.1925 4.6875 6.9375 4.4325 6.9375 4.125V2.4375H5.25C1.9425 2.4375 0.9375 3.4425 0.9375 6.75V7.125C0.9375 7.4325 1.1925 7.6875 1.5 7.6875C2.22 7.6875 2.8125 8.28 2.8125 9C2.8125 9.72 2.22 10.3125 1.5 10.3125C1.1925 10.3125 0.9375 10.5675 0.9375 10.875V11.25C0.9375 14.5575 1.9425 15.5625 5.25 15.5625H6.9375V13.875C6.9375 13.5675 7.1925 13.3125 7.5 13.3125C7.8075 13.3125 8.0625 13.5675 8.0625 13.875V15.5625H12.75C16.0575 15.5625 17.0625 14.5575 17.0625 11.25C17.0625 10.9425 16.8075 10.6875 16.5 10.6875C15.78 10.6875 15.1875 10.095 15.1875 9.375C15.1875 8.655 15.78 8.0625 16.5 8.0625ZM8.0625 10.6275C8.0625 10.935 7.8075 11.19 7.5 11.19C7.1925 11.19 6.9375 10.935 6.9375 10.6275V7.3725C6.9375 7.065 7.1925 6.81 7.5 6.81C7.8075 6.81 8.0625 7.065 8.0625 7.3725V10.6275Z" fill="#6C708A"/>
</g>
</g>
</svg>
