<svg width="18" height="18" viewBox="0 0 18 18" fill="none" xmlns="http://www.w3.org/2000/svg">
<g id="Asset 2 1">
<g id="Layer 2">
<g id="Layer 1">
<path id="Vector" d="M8.75781 16.5197C9.56572 14.5854 9.95659 12.5337 10.4633 10.5139C10.6272 9.85986 10.8184 9.21546 11.0311 8.57798C11.166 8.1573 11.429 7.78929 11.7832 7.52539C11.8729 7.69351 11.9629 7.85279 12.0445 8.01668C12.6388 9.2093 13.0197 10.4712 13.2756 11.775C13.4589 12.7297 13.5761 13.696 13.6264 14.6669C13.6368 14.8481 13.5879 14.9531 13.4387 15.0616C12.4895 15.757 11.3906 16.2204 10.2301 16.4147C9.93774 16.4643 9.63997 16.4855 9.34528 16.5197H8.75781Z" fill="#0075FF"/>
<path id="Vector_2" d="M16.5028 9.47855C16.4643 9.76286 16.4362 10.0491 16.3854 10.3315C16.1181 11.8184 15.4579 13.1076 14.4192 14.2025C14.4008 14.2183 14.3814 14.2328 14.3611 14.246C14.1664 11.7738 13.6793 9.39315 12.4609 7.17332C12.7472 7.11869 13.0169 7.06483 13.2877 7.01636C13.8205 6.92018 14.2637 7.13562 14.6773 7.43224C15.2559 7.8485 15.7222 8.38326 16.1812 8.92571C16.2881 9.05241 16.3953 9.1786 16.5028 9.30428V9.47855Z" fill="#0075FF"/>
<path id="Vector_3" d="M10.3818 5.70996C10.6126 5.96618 10.8396 6.21009 11.0566 6.46016C11.172 6.5925 11.2674 6.73947 11.3478 6.8468C11.1101 7.12803 10.8592 7.37771 10.665 7.6651C10.2849 8.2264 10.096 8.87196 9.93399 9.52252C9.57813 10.946 9.2415 12.3779 8.87409 13.8006C8.65442 14.6562 8.39012 15.4995 8.0254 16.3078C7.97501 16.4194 7.91999 16.4455 7.80496 16.4255C6.12759 16.1358 4.69875 15.3802 3.52689 14.1445C3.48668 14.0951 3.46761 14.0318 3.4738 13.9683C3.58152 13.1389 3.92162 12.3948 4.34211 11.6846C5.07615 10.4466 6.02564 9.38402 7.05976 8.39337C8.05763 7.4414 9.12934 6.56998 10.2648 5.78729C10.296 5.76536 10.3287 5.74497 10.3818 5.70996Z" fill="#0075FF"/>
<path id="Vector_4" d="M2.80022 13.2723C2.61594 12.9464 2.4155 12.629 2.25123 12.2932C1.66184 11.0875 1.40716 9.80982 1.51719 8.47139C1.55566 7.99203 1.668 7.51806 1.7561 7.0437C1.7661 6.98945 1.82881 6.93021 1.8819 6.90174C2.5113 6.56357 3.18994 6.36813 3.88551 6.22386C4.59262 6.0769 5.30435 5.95148 6.01031 5.80067C6.97941 5.591 7.8458 5.14973 8.65178 4.58227C8.72334 4.53187 8.79374 4.48032 8.878 4.41992L9.80132 5.17782C9.45507 5.43211 9.12345 5.67141 8.79721 5.91917C7.44762 6.94406 6.19459 8.07859 5.09122 9.3674C4.30409 10.2884 3.60505 11.2691 3.14031 12.3982C3.04567 12.629 2.97373 12.8668 2.89217 13.1015C2.8737 13.1553 2.85793 13.21 2.841 13.2642L2.80022 13.2723Z" fill="#0075FF"/>
<path id="Vector_5" d="M2.16016 5.92208C2.49708 5.16878 2.95781 4.47723 3.52321 3.87615C4.04677 3.31351 4.65583 2.83701 5.32792 2.46424C5.37909 2.43577 5.46181 2.41653 5.51105 2.43769C6.45116 2.84797 7.34909 3.3488 8.19215 3.93309C8.20469 3.94664 8.21578 3.96147 8.22524 3.97733C7.9367 4.15161 7.65393 4.33089 7.36308 4.49632C6.65636 4.89873 5.87923 5.0784 5.08709 5.21959C4.11222 5.39463 3.13811 5.57622 2.20555 5.9267C2.19786 5.92978 2.18593 5.92477 2.16016 5.92208Z" fill="#0075FF"/>
<path id="Vector_6" d="M16.4313 8.05968C16.3301 7.94965 16.249 7.84539 16.152 7.75845C15.7715 7.41566 15.4053 7.05287 14.9979 6.74587C14.3615 6.26651 13.6352 6.13686 12.8577 6.32268C12.6207 6.37885 12.3868 6.44848 12.149 6.50311C12.1236 6.5079 12.0975 6.50693 12.0725 6.50027C12.0476 6.49361 12.0244 6.48144 12.0048 6.46464C11.6816 6.07377 11.3646 5.67751 11.043 5.28009C11.8147 4.78265 12.6345 4.33638 13.5783 4.17211C13.886 4.11863 14.1938 4.06554 14.5016 4.01822C14.5263 4.01612 14.5511 4.01918 14.5746 4.02719C14.598 4.03521 14.6195 4.048 14.6378 4.06477C15.5619 5.05119 16.3144 6.72586 16.4313 8.05968Z" fill="#0075FF"/>
<path id="Vector_7" d="M13.8871 3.3443C12.6113 3.49819 11.5107 4.06488 10.4592 4.75699L9.50781 3.95639C9.78366 3.6163 10.096 3.30237 10.3215 2.93458C10.5554 2.55371 10.4823 2.09282 10.4846 1.65039C11.7488 1.90355 12.923 2.48814 13.8871 3.3443Z" fill="#0075FF"/>
<path id="Vector_8" d="M6.39062 1.96504C7.45126 1.57202 8.58735 1.4252 9.71305 1.5357C9.73036 1.89541 9.78307 2.25704 9.6538 2.60329C9.60841 2.72525 9.50261 2.8295 9.40951 2.92761C9.23254 3.11496 9.04479 3.29232 8.88514 3.45082L6.39062 1.96504Z" fill="#0075FF"/>
</g>
</g>
</g>
</svg>
