<svg width="21" height="20" viewBox="0 0 21 20" fill="none" xmlns="http://www.w3.org/2000/svg">
<g id="vuesax/bold/dollar-circle">
<g id="dollar-circle">
<path id="Vector" d="M11.1274 13.2666H11.6691C12.2108 13.2666 12.6608 12.7833 12.6608 12.1999C12.6608 11.4749 12.4024 11.3333 11.9774 11.1833L11.1358 10.8916V13.2666H11.1274Z" fill="white"/>
<path id="Vector_2" d="M10.4773 1.58351C5.87733 1.60018 2.15233 5.34184 2.169 9.94184C2.18567 14.5418 5.92733 18.2668 10.5273 18.2502C15.1273 18.2335 18.8523 14.4918 18.8357 9.89184C18.819 5.29184 15.0773 1.57518 10.4773 1.58351ZM12.3857 10.0002C13.0357 10.2252 13.9107 10.7085 13.9107 12.2002C13.9107 13.4835 12.9023 14.5168 11.669 14.5168H11.1273V15.0002C11.1273 15.3418 10.844 15.6252 10.5023 15.6252C10.1607 15.6252 9.87733 15.3418 9.87733 15.0002V14.5168H9.57733C8.21067 14.5168 7.10233 13.3668 7.10233 11.9502C7.10233 11.6085 7.38567 11.3252 7.72733 11.3252C8.069 11.3252 8.35233 11.6085 8.35233 11.9502C8.35233 12.6752 8.90233 13.2668 9.57733 13.2668H9.87733V10.4502L8.619 10.0002C7.969 9.77518 7.094 9.29184 7.094 7.80018C7.094 6.51684 8.10233 5.48351 9.33567 5.48351H9.87733V5.00018C9.87733 4.65851 10.1607 4.37518 10.5023 4.37518C10.844 4.37518 11.1273 4.65851 11.1273 5.00018V5.48351H11.4273C12.794 5.48351 13.9023 6.63351 13.9023 8.05018C13.9023 8.39184 13.619 8.67518 13.2773 8.67518C12.9357 8.67518 12.6523 8.39184 12.6523 8.05018C12.6523 7.32518 12.1023 6.73351 11.4273 6.73351H11.1273V9.55018L12.3857 10.0002Z" fill="white"/>
<path id="Vector_3" d="M8.35254 7.8084C8.35254 8.5334 8.61087 8.67507 9.03587 8.82507L9.87754 9.11673V6.7334H9.33587C8.79421 6.7334 8.35254 7.21673 8.35254 7.8084Z" fill="white"/>
</g>
</g>
</svg>
