<svg width="24" height="24" viewBox="0 0 24 24" fill="none" xmlns="http://www.w3.org/2000/svg">
<path fill-rule="evenodd" clip-rule="evenodd" d="M19.5026 4.49743L21.7329 4.94322C21.8526 4.96717 21.9511 5.055 21.9857 5.17343C22.0032 5.23096 22.0047 5.29215 21.9902 5.35049C21.9757 5.40883 21.9456 5.46215 21.9032 5.50477L20.0762 7.33314C19.8576 7.55133 19.5613 7.67385 19.2525 7.6738H17.7368L13.931 11.4809C14.0036 11.7551 14.017 12.0415 13.9702 12.3213C13.9234 12.601 13.8175 12.8675 13.6597 13.1031C13.5018 13.3387 13.2955 13.538 13.0546 13.6876C12.8137 13.8372 12.5436 13.9338 12.2624 13.9708C11.9813 14.0079 11.6954 13.9847 11.424 13.9026C11.1525 13.8205 10.9016 13.6816 10.6881 13.495C10.4745 13.3083 10.3032 13.0784 10.1855 12.8203C10.0678 12.5623 10.0064 12.2822 10.0055 11.9986C10.0057 11.6924 10.0763 11.3903 10.2118 11.1157C10.3474 10.8411 10.5442 10.6014 10.7872 10.4151C11.0301 10.2287 11.3127 10.1007 11.613 10.0409C11.9133 9.98114 12.2233 9.99123 12.5191 10.0704L16.3263 6.26193V4.74894C16.3263 4.44021 16.4487 4.14347 16.6669 3.92524L18.4953 2.09686C18.5379 2.05445 18.5912 2.02438 18.6496 2.00986C18.7079 1.99533 18.7691 1.99689 18.8266 2.01436C18.9451 2.04896 19.0329 2.14743 19.0568 2.26719L19.5026 4.49743ZM4.01738 11.9986C4.01875 13.1402 4.26495 14.2684 4.73937 15.3068C5.21379 16.3452 5.90541 17.2699 6.76756 18.0183C7.62971 18.7667 8.64234 19.3215 9.73715 19.6453C10.832 19.9691 11.9835 20.0544 13.114 19.8953C14.2446 19.7362 15.3279 19.3365 16.2908 18.7232C17.2537 18.1098 18.0739 17.2971 18.6961 16.3398C19.3182 15.3826 19.7278 14.303 19.8973 13.174C20.0667 12.0449 19.9921 10.8927 19.6783 9.79494C19.6343 9.66669 19.6168 9.53082 19.6269 9.39559C19.6371 9.26037 19.6746 9.12863 19.7373 9.00838C19.8 8.88813 19.8865 8.7819 19.9915 8.69615C20.0966 8.6104 20.218 8.54692 20.3483 8.50959C20.4787 8.47225 20.6153 8.46183 20.7498 8.47897C20.8843 8.49611 21.0139 8.54045 21.1308 8.60928C21.2476 8.67811 21.3492 8.77 21.4294 8.87936C21.5096 8.98871 21.5667 9.11324 21.5972 9.24536C22.2047 11.3712 22.0893 13.6385 21.2691 15.6917C20.4489 17.7448 18.9704 19.4676 17.0654 20.5898C15.1604 21.712 12.9368 22.17 10.7434 21.892C8.55006 21.614 6.51102 20.6158 4.9462 19.0539C3.38309 17.4895 2.38379 15.4502 2.10518 13.2564C1.82657 11.0625 2.28443 8.83819 3.40689 6.93271C4.52934 5.02723 6.25282 3.54848 8.30673 2.72861C10.3606 1.90874 12.6287 1.79418 14.7547 2.40293C15.0079 2.47693 15.2215 2.64813 15.3488 2.87912C15.4761 3.11011 15.5068 3.3821 15.4342 3.63565C15.3616 3.88921 15.1915 4.10371 14.9612 4.23228C14.7309 4.36084 14.4591 4.39303 14.2052 4.32179C13.0163 3.98069 11.7645 3.92041 10.5483 4.14569C9.33217 4.37098 8.18499 4.87569 7.19719 5.62001C6.2094 6.36434 5.40801 7.32795 4.8562 8.43486C4.30438 9.54177 4.01723 10.7617 4.01738 11.9986ZM8.58418 14.0621C8.20837 13.4394 8.00971 12.7258 8.00963 11.9985C8.00962 11.4354 8.12875 10.8786 8.35918 10.3648C8.58961 9.85105 8.92613 9.39181 9.34664 9.0173C9.76715 8.64279 10.2621 8.36147 10.7991 8.19183C11.336 8.0222 11.9028 7.96807 12.4621 8.03302C12.5938 8.05085 12.7276 8.04224 12.8559 8.00767C12.9841 7.9731 13.1042 7.91327 13.209 7.8317C13.3139 7.75012 13.4014 7.64844 13.4664 7.53262C13.5314 7.41679 13.5727 7.28915 13.5877 7.15717C13.6028 7.02519 13.5913 6.89154 13.5541 6.76404C13.5168 6.63654 13.4545 6.51777 13.3707 6.41468C13.2869 6.31158 13.1834 6.22625 13.0663 6.16368C12.9491 6.10111 12.8206 6.06256 12.6883 6.05028C11.4531 5.90757 10.2041 6.15293 9.11463 6.75231C8.02517 7.35169 7.14933 8.27536 6.60865 9.39512C6.06798 10.5149 5.88931 11.7752 6.09743 13.0011C6.30554 14.227 6.89013 15.3577 7.77005 16.2363C8.64998 17.1149 9.78158 17.6978 11.0078 17.904C12.234 18.1103 13.4941 17.9297 14.613 17.3873C15.7319 16.8449 16.6543 15.9677 17.252 14.8773C17.8497 13.7869 18.0932 12.5376 17.9486 11.3025C17.9305 11.127 17.8661 10.9593 17.7621 10.8167C17.6581 10.6741 17.5181 10.5617 17.3564 10.4908C17.1947 10.419 17.0168 10.3916 16.841 10.4115C16.6652 10.4313 16.4979 10.4976 16.3562 10.6036C16.2146 10.7096 16.1037 10.8515 16.0351 11.0145C15.9665 11.1776 15.9426 11.356 15.9658 11.5314C16.0518 12.2542 15.9386 12.9867 15.6384 13.6497C15.3382 14.3127 14.8624 14.8811 14.2626 15.2933C13.6626 15.7044 12.9617 15.944 12.2356 15.9861C11.5095 16.0282 10.7856 15.8713 10.1422 15.5322C9.49868 15.1931 8.95998 14.6848 8.58418 14.0621Z" fill="#414459"/>
</svg>
