<svg width="20" height="20" viewBox="0 0 20 20" fill="none" xmlns="http://www.w3.org/2000/svg">
<path d="M9.95065 1.84185L7.94232 6.51685H5.93398C5.60065 6.51685 5.27565 6.54185 4.95898 6.60852L5.79232 4.60852L5.82565 4.53352L5.87565 4.40018C5.90065 4.34185 5.91732 4.29185 5.94232 4.25018C6.90898 2.00852 7.99232 1.30852 9.95065 1.84185Z" fill="current"/>
<path d="M15.6079 6.74128L15.5913 6.73294C15.0913 6.59128 14.5829 6.51628 14.0663 6.51628H8.84961L10.7246 2.15794L10.7496 2.09961C10.8663 2.14128 10.9913 2.19961 11.1163 2.24128L12.9579 3.01628C13.9829 3.44128 14.6996 3.88294 15.1413 4.41628C15.2163 4.51628 15.2829 4.60794 15.3496 4.71628C15.4246 4.83294 15.4829 4.94961 15.5163 5.07461C15.5496 5.14961 15.5746 5.21628 15.5913 5.29128C15.7163 5.71628 15.7246 6.19961 15.6079 6.74128Z" fill="current"/>
<path d="M10.4336 14.7158H10.6419C10.8919 14.7158 11.1003 14.4908 11.1003 14.2158C11.1003 13.8658 11.0003 13.8158 10.7836 13.7324L10.4336 13.6074V14.7158Z" fill="current"/>
<path d="M15.2422 7.93425C14.8672 7.82591 14.4755 7.76758 14.0672 7.76758H5.93385C5.36719 7.76758 4.83385 7.87591 4.33385 8.09258C2.88385 8.71758 1.86719 10.1592 1.86719 11.8342V13.4592C1.86719 13.6592 1.88385 13.8509 1.90885 14.0509C2.09219 16.7009 3.50885 18.1176 6.15885 18.2926C6.35052 18.3176 6.54219 18.3342 6.75052 18.3342H13.2505C16.3339 18.3342 17.9589 16.8676 18.1172 13.9509C18.1255 13.7926 18.1339 13.6259 18.1339 13.4592V11.8342C18.1339 9.99258 16.9089 8.44258 15.2422 7.93425ZM11.0672 12.9176C11.4505 13.0509 11.9672 13.3342 11.9672 14.2176C11.9672 14.9759 11.3755 15.5842 10.6422 15.5842H10.4339V15.7676C10.4339 16.0092 10.2422 16.2009 10.0005 16.2009C9.75885 16.2009 9.56719 16.0092 9.56719 15.7676V15.5842H9.49219C8.69219 15.5842 8.03385 14.9092 8.03385 14.0759C8.03385 13.8342 8.22552 13.6426 8.46719 13.6426C8.70885 13.6426 8.90052 13.8342 8.90052 14.0759C8.90052 14.4259 9.16719 14.7176 9.49219 14.7176H9.56719V13.3092L8.93385 13.0842C8.55052 12.9509 8.03385 12.6676 8.03385 11.7842C8.03385 11.0259 8.62552 10.4176 9.35885 10.4176H9.56719V10.2342C9.56719 9.99258 9.75885 9.80091 10.0005 9.80091C10.2422 9.80091 10.4339 9.99258 10.4339 10.2342V10.4176H10.5089C11.3089 10.4176 11.9672 11.0926 11.9672 11.9259C11.9672 12.1676 11.7755 12.3592 11.5339 12.3592C11.2922 12.3592 11.1005 12.1676 11.1005 11.9259C11.1005 11.5759 10.8339 11.2842 10.5089 11.2842H10.4339V12.6926L11.0672 12.9176Z" fill="current"/>
<path d="M8.90039 11.7832C8.90039 12.1332 9.00039 12.1832 9.21706 12.2665L9.56706 12.3915V11.2832H9.35872C9.10039 11.2832 8.90039 11.5082 8.90039 11.7832Z" fill="current"/>
</svg>
