<svg width="20" height="20" viewBox="0 0 20 20" fill="none" xmlns="http://www.w3.org/2000/svg">
<path d="M18.3327 9.99935C18.3327 5.40768 14.591 1.66602 9.99935 1.66602C5.40768 1.66602 1.66602 5.40768 1.66602 9.99935C1.66602 12.416 2.70768 14.591 4.35768 16.116C4.35768 16.1243 4.35768 16.1243 4.34935 16.1327C4.43268 16.216 4.53268 16.2827 4.61602 16.3577C4.66602 16.3993 4.70768 16.441 4.75768 16.4743C4.90768 16.5993 5.07435 16.716 5.23268 16.8327C5.29102 16.8743 5.34102 16.9077 5.39935 16.9493C5.55768 17.0577 5.72435 17.1577 5.89935 17.2493C5.95768 17.2827 6.02435 17.3243 6.08268 17.3577C6.24935 17.4493 6.42435 17.5327 6.60768 17.6077C6.67435 17.641 6.74102 17.6743 6.80768 17.6993C6.99102 17.7743 7.17435 17.841 7.35768 17.8993C7.42435 17.9243 7.49102 17.9493 7.55768 17.966C7.75768 18.0243 7.95768 18.0743 8.15768 18.1243C8.21602 18.141 8.27435 18.1577 8.34102 18.166C8.57435 18.216 8.80768 18.2493 9.04935 18.2743C9.08268 18.2743 9.11601 18.2827 9.14935 18.291C9.43268 18.316 9.71602 18.3327 9.99935 18.3327C10.2827 18.3327 10.566 18.316 10.841 18.291C10.8743 18.291 10.9077 18.2827 10.941 18.2743C11.1827 18.2493 11.416 18.216 11.6493 18.166C11.7077 18.1577 11.766 18.1327 11.8327 18.1243C12.0327 18.0743 12.241 18.0327 12.4327 17.966C12.4993 17.941 12.566 17.916 12.6327 17.8993C12.816 17.8327 13.0077 17.7743 13.1827 17.6993C13.2493 17.6743 13.316 17.641 13.3827 17.6077C13.5577 17.5327 13.7327 17.4493 13.9077 17.3577C13.9743 17.3243 14.0327 17.2827 14.091 17.2493C14.2577 17.1493 14.4243 17.0577 14.591 16.9493C14.6493 16.916 14.6993 16.8743 14.7577 16.8327C14.9243 16.716 15.0827 16.5993 15.2327 16.4743C15.2827 16.4327 15.3243 16.391 15.3743 16.3577C15.466 16.2827 15.5577 16.2077 15.641 16.1327C15.641 16.1243 15.641 16.1243 15.6327 16.116C17.291 14.591 18.3327 12.416 18.3327 9.99935ZM14.116 14.141C11.8577 12.6243 8.15768 12.6243 5.88268 14.141C5.51602 14.3827 5.21602 14.666 4.96602 14.9743C3.69935 13.691 2.91602 11.9327 2.91602 9.99935C2.91602 6.09102 6.09102 2.91602 9.99935 2.91602C13.9077 2.91602 17.0827 6.09102 17.0827 9.99935C17.0827 11.9327 16.2993 13.691 15.0327 14.9743C14.791 14.666 14.4827 14.3827 14.116 14.141Z" fill="current"/>
<path d="M10 5.77539C8.275 5.77539 6.875 7.17539 6.875 8.90039C6.875 10.5921 8.2 11.9671 9.95833 12.0171C9.98333 12.0171 10.0167 12.0171 10.0333 12.0171C10.05 12.0171 10.075 12.0171 10.0917 12.0171C10.1 12.0171 10.1083 12.0171 10.1083 12.0171C11.7917 11.9587 13.1167 10.5921 13.125 8.90039C13.125 7.17539 11.725 5.77539 10 5.77539Z" fill="current"/>
</svg>
