<svg width="20" height="20" viewBox="0 0 20 20" fill="none" xmlns="http://www.w3.org/2000/svg">
<path d="M12.3757 3.29232V6.45898H11.1257V3.29232C11.1257 3.06732 10.9257 2.95898 10.7923 2.95898C10.7507 2.95898 10.709 2.96732 10.6673 2.98398L4.05898 5.47565C3.61732 5.64232 3.33398 6.05898 3.33398 6.53398V7.09232C2.57565 7.65898 2.08398 8.56732 2.08398 9.59232V6.53398C2.08398 5.54232 2.69232 4.65898 3.61732 4.30898L10.234 1.80898C10.4173 1.74232 10.609 1.70898 10.7923 1.70898C11.6257 1.70898 12.3757 2.38398 12.3757 3.29232Z" fill="current"/>
<path d="M17.9159 12.0827V12.916C17.9159 13.141 17.7409 13.3243 17.5076 13.3327H16.2909C15.8493 13.3327 15.4493 13.0077 15.4159 12.5743C15.3909 12.316 15.4909 12.0743 15.6576 11.9077C15.8076 11.7493 16.0159 11.666 16.2409 11.666H17.4993C17.7409 11.6743 17.9159 11.8577 17.9159 12.0827Z" fill="current"/>
<path d="M16.234 10.7923H17.084C17.5423 10.7923 17.9173 10.4173 17.9173 9.95898V9.59232C17.9173 7.86732 16.509 6.45898 14.784 6.45898H5.21732C4.50898 6.45898 3.85898 6.69232 3.33398 7.09232C2.57565 7.65898 2.08398 8.56732 2.08398 9.59232V15.2007C2.08398 16.9257 3.49232 18.334 5.21732 18.334H14.784C16.509 18.334 17.9173 16.9257 17.9173 15.2007V15.0423C17.9173 14.584 17.5423 14.209 17.084 14.209H16.359C15.559 14.209 14.7923 13.7173 14.584 12.9423C14.409 12.309 14.6173 11.7007 15.034 11.2923C15.3423 10.9757 15.7673 10.7923 16.234 10.7923ZM11.6673 10.6257H5.83398C5.49232 10.6257 5.20898 10.3423 5.20898 10.0007C5.20898 9.65898 5.49232 9.37565 5.83398 9.37565H11.6673C12.009 9.37565 12.2923 9.65898 12.2923 10.0007C12.2923 10.3423 12.009 10.6257 11.6673 10.6257Z" fill="current"/>
</svg>
