<svg width="18" height="18" viewBox="0 0 18 18" fill="none" xmlns="http://www.w3.org/2000/svg">
<g id="icon / ionicons / outline / trash-outline">
<path id="Vector (Stroke)" fill-rule="evenodd" clip-rule="evenodd" d="M3.90243 3.37611C4.21249 3.35674 4.47955 3.59238 4.49892 3.90243L5.20205 15.1524C5.20218 15.1545 5.2023 15.1566 5.2024 15.1587C5.22185 15.5372 5.47319 15.75 5.76564 15.75H12.2344C12.524 15.75 12.7742 15.542 12.7979 15.1532L13.5011 3.90243C13.5205 3.59238 13.7876 3.35674 14.0976 3.37611C14.4077 3.39549 14.6433 3.66255 14.6239 3.97261L13.9208 15.2218C13.9208 15.2219 13.9208 15.2219 13.9208 15.2219C13.8651 16.1332 13.1872 16.875 12.2344 16.875H5.76564C4.82175 16.875 4.12793 16.1397 4.07906 15.2198L3.37611 3.97261C3.35674 3.66255 3.59238 3.39549 3.90243 3.37611Z" fill="#6C708A"/>
<path id="Vector (Stroke)_2" fill-rule="evenodd" clip-rule="evenodd" d="M2.25 3.9375C2.25 3.62684 2.50184 3.375 2.8125 3.375H15.1875C15.4982 3.375 15.75 3.62684 15.75 3.9375C15.75 4.24816 15.4982 4.5 15.1875 4.5H2.8125C2.50184 4.5 2.25 4.24816 2.25 3.9375Z" fill="#6C708A"/>
<path id="Vector (Stroke)_3" fill-rule="evenodd" clip-rule="evenodd" d="M7.59211 2.25C7.55536 2.24989 7.51895 2.25705 7.48498 2.27107C7.45101 2.28508 7.42014 2.30567 7.39416 2.33166C7.36817 2.35764 7.34758 2.38851 7.33357 2.42248C7.31955 2.45645 7.31239 2.49286 7.3125 2.52961L7.3125 2.53125V3.9375C7.3125 4.24816 7.06066 4.5 6.75 4.5C6.43934 4.5 6.1875 4.24816 6.1875 3.9375V2.53197C6.18708 2.34725 6.22313 2.16425 6.29357 1.99348C6.36413 1.82242 6.46782 1.667 6.59866 1.53616C6.7295 1.40532 6.88492 1.30163 7.05598 1.23107C7.22675 1.16063 7.40975 1.12458 7.59447 1.125H10.4055C10.5903 1.12458 10.7733 1.16063 10.944 1.23107C11.1151 1.30163 11.2705 1.40532 11.4013 1.53616C11.5322 1.667 11.6359 1.82243 11.7064 1.99348C11.7769 2.16429 11.8129 2.34732 11.8125 2.53209V3.9375C11.8125 4.24816 11.5607 4.5 11.25 4.5C10.9393 4.5 10.6875 4.24816 10.6875 3.9375V2.53125L10.6875 2.52961C10.6876 2.49286 10.6805 2.45645 10.6664 2.42248C10.6524 2.3885 10.6318 2.35764 10.6059 2.33166C10.5799 2.30567 10.549 2.28508 10.515 2.27107C10.4811 2.25705 10.4446 2.24989 10.4079 2.25L10.4063 2.25H7.59375L7.59211 2.25Z" fill="#6C708A"/>
<path id="Vector (Stroke)_4" fill-rule="evenodd" clip-rule="evenodd" d="M9 5.625C9.31066 5.625 9.5625 5.87684 9.5625 6.1875V14.0625C9.5625 14.3732 9.31066 14.625 9 14.625C8.68934 14.625 8.4375 14.3732 8.4375 14.0625V6.1875C8.4375 5.87684 8.68934 5.625 9 5.625Z" fill="#6C708A"/>
<path id="Vector (Stroke)_5" fill-rule="evenodd" clip-rule="evenodd" d="M6.44868 5.62537C6.75914 5.61428 7.01981 5.85697 7.0309 6.16743L7.31215 14.0424C7.32324 14.3529 7.08055 14.6136 6.77008 14.6247C6.45962 14.6357 6.19895 14.393 6.18787 14.0826L5.90662 6.20758C5.89553 5.89712 6.13822 5.63645 6.44868 5.62537Z" fill="#6C708A"/>
<path id="Vector (Stroke)_6" fill-rule="evenodd" clip-rule="evenodd" d="M11.5513 5.62537C11.8618 5.63645 12.1045 5.89712 12.0934 6.20758L11.8121 14.0826C11.8011 14.393 11.5404 14.6357 11.2299 14.6247C10.9195 14.6136 10.6768 14.3529 10.6879 14.0424L10.9691 6.16743C10.9802 5.85697 11.2409 5.61428 11.5513 5.62537Z" fill="#6C708A"/>
</g>
</svg>
