<svg width="100%" height="100%" viewBox="0 0 24 24" fill="none" xmlns="http://www.w3.org/2000/svg">
<g filter="url(#filter0_b_4943_247951)">
<rect width="24" height="24" rx="12" fill="url(#paint0_linear_4943_247951)" fill-opacity="0.5"/>
<rect x="0.18" y="0.18" width="23.64" height="23.64" rx="11.82" stroke="url(#paint1_linear_4943_247951)" stroke-width="0.36"/>
</g>
<path d="M16.9599 14.375C16.7949 15.705 15.7049 16.795 14.3749 16.96C13.5699 17.06 12.8199 16.84 12.2349 16.41C11.8999 16.165 11.9799 15.645 12.3799 15.525C13.8849 15.07 15.0699 13.88 15.5299 12.375C15.6499 11.98 16.1699 11.9 16.4149 12.23C16.8399 12.82 17.0599 13.57 16.9599 14.375Z" fill="#FFC24C"/>
<path d="M10.995 7C8.79 7 7 8.79 7 10.995C7 13.2 8.79 14.99 10.995 14.99C13.2 14.99 14.99 13.2 14.99 10.995C14.985 8.79 13.2 7 10.995 7ZM10.525 10.435L11.73 10.855C12.165 11.01 12.375 11.315 12.375 11.785C12.375 12.325 11.945 12.77 11.42 12.77H11.375V12.795C11.375 13 11.205 13.17 11 13.17C10.795 13.17 10.625 13 10.625 12.795V12.765C10.07 12.74 9.625 12.275 9.625 11.695C9.625 11.49 9.795 11.32 10 11.32C10.205 11.32 10.375 11.49 10.375 11.695C10.375 11.875 10.505 12.02 10.665 12.02H11.415C11.53 12.02 11.62 11.915 11.62 11.785C11.62 11.61 11.59 11.6 11.475 11.56L10.27 11.14C9.84 10.99 9.625 10.685 9.625 10.21C9.625 9.67 10.055 9.225 10.58 9.225H10.625V9.205C10.625 9 10.795 8.83 11 8.83C11.205 8.83 11.375 9 11.375 9.205V9.235C11.93 9.26 12.375 9.725 12.375 10.305C12.375 10.51 12.205 10.68 12 10.68C11.795 10.68 11.625 10.51 11.625 10.305C11.625 10.125 11.495 9.98 11.335 9.98H10.585C10.47 9.98 10.38 10.085 10.38 10.215C10.375 10.385 10.405 10.395 10.525 10.435Z" fill="url(#paint2_linear_4943_247951)"/>
<defs>
<filter id="filter0_b_4943_247951" x="-4.32" y="-4.32" width="32.64" height="32.64" filterUnits="userSpaceOnUse" color-interpolation-filters="sRGB">
<feFlood flood-opacity="0" result="BackgroundImageFix"/>
<feGaussianBlur in="BackgroundImageFix" stdDeviation="2.16"/>
<feComposite in2="SourceAlpha" operator="in" result="effect1_backgroundBlur_4943_247951"/>
<feBlend mode="normal" in="SourceGraphic" in2="effect1_backgroundBlur_4943_247951" result="shape"/>
</filter>
<linearGradient id="paint0_linear_4943_247951" x1="0" y1="0" x2="5.48173" y2="27.0245" gradientUnits="userSpaceOnUse">
<stop stop-color="#FADB14" stop-opacity="0.5"/>
<stop offset="1" stop-color="#FB8936" stop-opacity="0.5"/>
</linearGradient>
<linearGradient id="paint1_linear_4943_247951" x1="0.639999" y1="0.280788" x2="5.88361" y2="27.1987" gradientUnits="userSpaceOnUse">
<stop stop-color="white" stop-opacity="0.1"/>
<stop offset="1" stop-color="white" stop-opacity="0"/>
</linearGradient>
<linearGradient id="paint2_linear_4943_247951" x1="7.40765" y1="15.8072" x2="17.2047" y2="11.6151" gradientUnits="userSpaceOnUse">
<stop stop-color="#FF5C00"/>
<stop offset="1" stop-color="#FBD405"/>
</linearGradient>
</defs>
</svg>
