<svg width="100%" height="100%" viewBox="0 0 24 24" fill="none" xmlns="http://www.w3.org/2000/svg">
<circle cx="12" cy="12" r="12" fill="#2B3048"/>
<path d="M11.093 14.9973C10.7684 15.377 10.3484 15.6634 9.87637 15.8269C9.40433 15.9904 8.89724 16.0252 8.4073 15.9277C7.91735 15.8301 7.46225 15.6038 7.08883 15.2719C6.71542 14.9401 6.43717 14.5147 6.28273 14.0396C6.12829 13.5646 6.10324 13.0569 6.21016 12.5689C6.31707 12.0809 6.5521 11.6303 6.89103 11.2633C7.22997 10.8963 7.66058 10.6262 8.13854 10.4809C8.6165 10.3356 9.12455 10.3203 9.61039 10.4366L9.61035 10.4367C9.34605 10.0108 9.2004 9.52193 9.18847 9.02079C9.17654 8.51966 9.29877 8.02444 9.54249 7.5864C9.78622 7.14836 10.1426 6.78342 10.5747 6.52935C11.0068 6.27529 11.499 6.14133 12.0003 6.14136C12.5016 6.14138 12.9937 6.27538 13.4259 6.52948C13.858 6.78358 14.2143 7.14855 14.458 7.58662C14.7017 8.02468 14.8238 8.51991 14.8119 9.02105C14.7999 9.52218 14.6542 10.011 14.3899 10.4369L14.3894 10.4367C14.8757 10.3197 15.3843 10.3346 15.8629 10.4796C16.3415 10.6246 16.7728 10.8946 17.1123 11.2618C17.4519 11.629 17.6874 12.08 17.7946 12.5685C17.9018 13.057 17.8768 13.5652 17.7223 14.0408C17.5677 14.5164 17.2892 14.9423 16.9153 15.2744C16.5414 15.6065 16.0858 15.833 15.5953 15.9305C15.1047 16.0279 14.5971 15.9928 14.1247 15.8288C13.6522 15.6648 13.2321 15.3778 12.9074 14.9974L13.8752 18.0938H10.1252L11.093 14.9973Z" fill="#414459"/>
</svg>
